<svg width="722" height="162" viewBox="0 0 722 162" fill="none" xmlns="http://www.w3.org/2000/svg">
<path d="M44.958 37.7991C46.9062 38.9239 48.5268 40.5381 49.6594 42.4817C50.7921 44.4254 51.3974 46.6312 51.4156 48.8807C51.4338 51.1302 50.8641 53.3455 49.763 55.3072C48.6619 57.2689 47.0676 58.909 45.1379 60.0652C43.2081 61.2214 41.0099 61.8535 38.7607 61.8991C36.5116 61.9446 34.2896 61.4019 32.3146 60.3247C30.3396 59.2476 28.6803 57.6733 27.5007 55.7578C26.3211 53.8422 25.6623 51.6518 25.5895 49.4034L25.583 48.9849L25.5895 48.5664C25.6618 46.3357 26.3109 44.1618 27.4735 42.2566C28.6362 40.3514 30.2726 38.78 32.2233 37.6956C34.1741 36.6111 36.3725 36.0506 38.6043 36.0688C40.8361 36.0869 43.0252 36.6831 44.958 37.7991ZM43.2879 45.4883C43.0655 45.266 42.7695 45.1324 42.4556 45.1126C42.1417 45.0929 41.8314 45.1884 41.5829 45.3811L41.4615 45.4883L37.208 49.7405L35.5379 48.0717L35.4165 47.9645C35.1679 47.7718 34.8577 47.6765 34.5438 47.6963C34.23 47.7161 33.9342 47.8497 33.7118 48.072C33.4895 48.2944 33.3558 48.5902 33.336 48.904C33.3162 49.2179 33.4116 49.5281 33.6043 49.7767L33.7115 49.8981L36.2948 52.4814L36.4162 52.5886C36.6427 52.7644 36.9213 52.8598 37.208 52.8598C37.4947 52.8598 37.7733 52.7644 37.9998 52.5886L38.1212 52.4814L43.2879 47.3148L43.3951 47.1933C43.5879 46.9448 43.6834 46.6345 43.6636 46.3206C43.6439 46.0067 43.5103 45.7108 43.2879 45.4883Z" fill="#72AB00"/>
<path d="M69.382 49.1624C69.838 49.1624 70.234 49.1054 70.57 48.9914C70.912 48.8774 71.191 48.7214 71.407 48.5234C71.629 48.3194 71.794 48.0794 71.902 47.8034C72.01 47.5274 72.064 47.2244 72.064 46.8944C72.064 46.2344 71.845 45.7274 71.407 45.3734C70.975 45.0194 70.312 44.8424 69.418 44.8424H67.87V49.1624H69.382ZM75.61 55.9844H73.423C73.009 55.9844 72.709 55.8224 72.523 55.4984L69.787 51.3314C69.685 51.1754 69.571 51.0644 69.445 50.9984C69.325 50.9324 69.145 50.8994 68.905 50.8994H67.87V55.9844H65.449V42.9704H69.418C70.3 42.9704 71.056 43.0634 71.686 43.2494C72.322 43.4294 72.841 43.6844 73.243 44.0144C73.651 44.3444 73.951 44.7404 74.143 45.2024C74.335 45.6584 74.431 46.1624 74.431 46.7144C74.431 47.1524 74.365 47.5664 74.233 47.9564C74.107 48.3464 73.921 48.7004 73.675 49.0184C73.435 49.3364 73.135 49.6154 72.775 49.8554C72.421 50.0954 72.016 50.2844 71.56 50.4224C71.716 50.5124 71.86 50.6204 71.992 50.7464C72.124 50.8664 72.244 51.0104 72.352 51.1784L75.61 55.9844ZM78.8454 46.7504V55.9844H76.6134V46.7504H78.8454ZM79.1514 44.0594C79.1514 44.2514 79.1124 44.4314 79.0344 44.5994C78.9564 44.7674 78.8514 44.9144 78.7194 45.0404C78.5934 45.1664 78.4434 45.2684 78.2694 45.3464C78.0954 45.4184 77.9094 45.4544 77.7114 45.4544C77.5194 45.4544 77.3364 45.4184 77.1624 45.3464C76.9944 45.2684 76.8474 45.1664 76.7214 45.0404C76.5954 44.9144 76.4934 44.7674 76.4154 44.5994C76.3434 44.4314 76.3074 44.2514 76.3074 44.0594C76.3074 43.8614 76.3434 43.6754 76.4154 43.5014C76.4934 43.3274 76.5954 43.1774 76.7214 43.0514C76.8474 42.9254 76.9944 42.8264 77.1624 42.7544C77.3364 42.6764 77.5194 42.6374 77.7114 42.6374C77.9094 42.6374 78.0954 42.6764 78.2694 42.7544C78.4434 42.8264 78.5934 42.9254 78.7194 43.0514C78.8514 43.1774 78.9564 43.3274 79.0344 43.5014C79.1124 43.6754 79.1514 43.8614 79.1514 44.0594ZM84.4867 51.1424C84.7627 51.1424 85.0027 51.1064 85.2067 51.0344C85.4107 50.9564 85.5787 50.8514 85.7107 50.7194C85.8487 50.5874 85.9507 50.4284 86.0167 50.2424C86.0887 50.0564 86.1247 49.8524 86.1247 49.6304C86.1247 49.1744 85.9867 48.8144 85.7107 48.5504C85.4407 48.2804 85.0327 48.1454 84.4867 48.1454C83.9407 48.1454 83.5297 48.2804 83.2537 48.5504C82.9837 48.8144 82.8487 49.1744 82.8487 49.6304C82.8487 49.8464 82.8817 50.0474 82.9477 50.2334C83.0197 50.4194 83.1217 50.5814 83.2537 50.7194C83.3917 50.8514 83.5627 50.9564 83.7667 51.0344C83.9767 51.1064 84.2167 51.1424 84.4867 51.1424ZM86.9977 56.3984C86.9977 56.2184 86.9437 56.0714 86.8357 55.9574C86.7277 55.8434 86.5807 55.7564 86.3947 55.6964C86.2087 55.6304 85.9897 55.5824 85.7377 55.5524C85.4917 55.5224 85.2277 55.5014 84.9457 55.4894C84.6697 55.4714 84.3817 55.4564 84.0817 55.4444C83.7877 55.4324 83.4997 55.4084 83.2177 55.3724C82.9717 55.5104 82.7707 55.6724 82.6147 55.8584C82.4647 56.0444 82.3897 56.2604 82.3897 56.5064C82.3897 56.6684 82.4287 56.8184 82.5067 56.9564C82.5907 57.1004 82.7197 57.2234 82.8937 57.3254C83.0737 57.4274 83.3047 57.5054 83.5867 57.5594C83.8687 57.6194 84.2137 57.6494 84.6217 57.6494C85.0357 57.6494 85.3927 57.6164 85.6927 57.5504C85.9927 57.4904 86.2387 57.4034 86.4307 57.2894C86.6287 57.1814 86.7727 57.0494 86.8627 56.8934C86.9527 56.7434 86.9977 56.5784 86.9977 56.3984ZM89.2117 47.0654V47.8934C89.2117 48.1574 89.0527 48.3194 88.7347 48.3794L87.9067 48.5324C88.0327 48.8504 88.0957 49.1984 88.0957 49.5764C88.0957 50.0324 88.0027 50.4464 87.8167 50.8184C87.6367 51.1844 87.3847 51.4964 87.0607 51.7544C86.7367 52.0124 86.3527 52.2134 85.9087 52.3574C85.4707 52.4954 84.9967 52.5644 84.4867 52.5644C84.3067 52.5644 84.1327 52.5554 83.9647 52.5374C83.7967 52.5194 83.6317 52.4954 83.4697 52.4654C83.1817 52.6394 83.0377 52.8344 83.0377 53.0504C83.0377 53.2364 83.1217 53.3744 83.2897 53.4644C83.4637 53.5484 83.6917 53.6084 83.9737 53.6444C84.2557 53.6804 84.5767 53.7044 84.9367 53.7164C85.2967 53.7224 85.6657 53.7404 86.0437 53.7704C86.4217 53.8004 86.7907 53.8544 87.1507 53.9324C87.5107 54.0044 87.8317 54.1214 88.1137 54.2834C88.3957 54.4454 88.6207 54.6674 88.7887 54.9494C88.9627 55.2254 89.0497 55.5824 89.0497 56.0204C89.0497 56.4284 88.9477 56.8244 88.7437 57.2084C88.5457 57.5924 88.2547 57.9344 87.8707 58.2344C87.4927 58.5344 87.0247 58.7744 86.4667 58.9544C85.9147 59.1404 85.2847 59.2334 84.5767 59.2334C83.8807 59.2334 83.2747 59.1644 82.7587 59.0264C82.2427 58.8944 81.8137 58.7144 81.4717 58.4864C81.1297 58.2644 80.8747 58.0064 80.7067 57.7124C80.5387 57.4184 80.4547 57.1124 80.4547 56.7944C80.4547 56.3624 80.5837 56.0024 80.8417 55.7144C81.1057 55.4204 81.4657 55.1864 81.9217 55.0124C81.6757 54.8864 81.4807 54.7184 81.3367 54.5084C81.1927 54.2984 81.1207 54.0224 81.1207 53.6804C81.1207 53.5424 81.1447 53.4014 81.1927 53.2574C81.2467 53.1074 81.3217 52.9604 81.4177 52.8164C81.5197 52.6724 81.6457 52.5374 81.7957 52.4114C81.9457 52.2794 82.1227 52.1624 82.3267 52.0604C81.8587 51.8084 81.4897 51.4724 81.2197 51.0524C80.9557 50.6324 80.8237 50.1404 80.8237 49.5764C80.8237 49.1204 80.9137 48.7094 81.0937 48.3434C81.2797 47.9714 81.5347 47.6564 81.8587 47.3984C82.1887 47.1344 82.5757 46.9334 83.0197 46.7954C83.4697 46.6574 83.9587 46.5884 84.4867 46.5884C84.8827 46.5884 85.2547 46.6304 85.6027 46.7144C85.9507 46.7924 86.2687 46.9094 86.5567 47.0654H89.2117ZM92.8444 47.7404C93.2044 47.4044 93.6004 47.1314 94.0324 46.9214C94.4644 46.7114 94.9714 46.6064 95.5534 46.6064C96.0574 46.6064 96.5044 46.6934 96.8944 46.8674C97.2844 47.0354 97.6084 47.2754 97.8664 47.5874C98.1304 47.8934 98.3284 48.2624 98.4604 48.6944C98.5984 49.1204 98.6674 49.5914 98.6674 50.1074V55.9844H96.4444V50.1074C96.4444 49.5434 96.3154 49.1084 96.0574 48.8024C95.7994 48.4904 95.4064 48.3344 94.8784 48.3344C94.4944 48.3344 94.1344 48.4214 93.7984 48.5954C93.4624 48.7694 93.1444 49.0064 92.8444 49.3064V55.9844H90.6214V42.6104H92.8444V47.7404ZM103.737 56.1284C102.933 56.1284 102.315 55.9034 101.883 55.4534C101.457 54.9974 101.244 54.3704 101.244 53.5724V48.4154H100.299C100.179 48.4154 100.077 48.3764 99.9925 48.2984C99.9085 48.2204 99.8665 48.1034 99.8665 47.9474V47.0654L101.352 46.8224L101.82 44.3024C101.85 44.1824 101.907 44.0894 101.991 44.0234C102.075 43.9574 102.183 43.9244 102.315 43.9244H103.467V46.8314H105.933V48.4154H103.467V53.4194C103.467 53.7074 103.536 53.9324 103.674 54.0944C103.818 54.2564 104.013 54.3374 104.259 54.3374C104.397 54.3374 104.511 54.3224 104.601 54.2924C104.697 54.2564 104.778 54.2204 104.844 54.1844C104.916 54.1484 104.979 54.1154 105.033 54.0854C105.087 54.0494 105.141 54.0314 105.195 54.0314C105.261 54.0314 105.315 54.0494 105.357 54.0854C105.399 54.1154 105.444 54.1634 105.492 54.2294L106.158 55.3094C105.834 55.5794 105.462 55.7834 105.042 55.9214C104.622 56.0594 104.187 56.1284 103.737 56.1284ZM113.812 47.8844C113.998 47.6984 114.193 47.5274 114.397 47.3714C114.607 47.2094 114.826 47.0744 115.054 46.9664C115.288 46.8524 115.537 46.7654 115.801 46.7054C116.065 46.6394 116.353 46.6064 116.665 46.6064C117.169 46.6064 117.616 46.6934 118.006 46.8674C118.396 47.0354 118.72 47.2754 118.978 47.5874C119.242 47.8934 119.44 48.2624 119.572 48.6944C119.71 49.1204 119.779 49.5914 119.779 50.1074V55.9844H117.556V50.1074C117.556 49.5434 117.427 49.1084 117.169 48.8024C116.911 48.4904 116.518 48.3344 115.99 48.3344C115.606 48.3344 115.246 48.4214 114.91 48.5954C114.574 48.7694 114.256 49.0064 113.956 49.3064V55.9844H111.733V46.7504H113.092C113.38 46.7504 113.569 46.8854 113.659 47.1554L113.812 47.8844ZM125.979 46.6064C126.663 46.6064 127.284 46.7174 127.842 46.9394C128.406 47.1614 128.886 47.4764 129.282 47.8844C129.684 48.2924 129.993 48.7904 130.209 49.3784C130.425 49.9664 130.533 50.6234 130.533 51.3494C130.533 52.0814 130.425 52.7414 130.209 53.3294C129.993 53.9174 129.684 54.4184 129.282 54.8324C128.886 55.2464 128.406 55.5644 127.842 55.7864C127.284 56.0084 126.663 56.1194 125.979 56.1194C125.289 56.1194 124.662 56.0084 124.098 55.7864C123.534 55.5644 123.051 55.2464 122.649 54.8324C122.253 54.4184 121.944 53.9174 121.722 53.3294C121.506 52.7414 121.398 52.0814 121.398 51.3494C121.398 50.6234 121.506 49.9664 121.722 49.3784C121.944 48.7904 122.253 48.2924 122.649 47.8844C123.051 47.4764 123.534 47.1614 124.098 46.9394C124.662 46.7174 125.289 46.6064 125.979 46.6064ZM125.979 54.4094C126.747 54.4094 127.314 54.1514 127.68 53.6354C128.052 53.1194 128.238 52.3634 128.238 51.3674C128.238 50.3714 128.052 49.6124 127.68 49.0904C127.314 48.5684 126.747 48.3074 125.979 48.3074C125.199 48.3074 124.62 48.5714 124.242 49.0994C123.87 49.6214 123.684 50.3774 123.684 51.3674C123.684 52.3574 123.87 53.1134 124.242 53.6354C124.62 54.1514 125.199 54.4094 125.979 54.4094ZM145.256 46.7504L142.322 55.9844H140.54C140.336 55.9844 140.195 55.8524 140.117 55.5884L138.461 50.2514C138.407 50.0714 138.356 49.8944 138.308 49.7204C138.266 49.5404 138.23 49.3604 138.2 49.1804C138.164 49.3604 138.122 49.5434 138.074 49.7294C138.032 49.9094 137.984 50.0894 137.93 50.2694L136.247 55.5884C136.175 55.8524 136.016 55.9844 135.77 55.9844H134.06L131.135 46.7504H132.908C133.07 46.7504 133.208 46.7894 133.322 46.8674C133.436 46.9454 133.511 47.0444 133.547 47.1644L134.87 52.0964C134.936 52.3664 134.993 52.6304 135.041 52.8884C135.095 53.1464 135.14 53.4044 135.176 53.6624C135.242 53.4044 135.311 53.1464 135.383 52.8884C135.461 52.6304 135.542 52.3664 135.626 52.0964L137.156 47.1464C137.192 47.0264 137.261 46.9274 137.363 46.8494C137.471 46.7714 137.6 46.7324 137.75 46.7324H138.731C138.887 46.7324 139.019 46.7714 139.127 46.8494C139.241 46.9274 139.316 47.0264 139.352 47.1464L140.837 52.0964C140.915 52.3664 140.987 52.6334 141.053 52.8974C141.125 53.1554 141.194 53.4134 141.26 53.6714C141.338 53.1614 141.449 52.6364 141.593 52.0964L142.952 47.1644C142.994 47.0444 143.069 46.9454 143.177 46.8674C143.285 46.7894 143.414 46.7504 143.564 46.7504H145.256ZM146.08 58.1894C145.972 58.0994 145.918 57.9884 145.918 57.8564C145.918 57.8084 145.933 57.7544 145.963 57.6944C145.999 57.6344 146.041 57.5804 146.089 57.5324C146.155 57.4604 146.236 57.3704 146.332 57.2624C146.428 57.1604 146.524 57.0404 146.62 56.9024C146.716 56.7704 146.803 56.6234 146.881 56.4614C146.965 56.3054 147.028 56.1374 147.07 55.9574C146.878 55.9574 146.704 55.9244 146.548 55.8584C146.392 55.7864 146.257 55.6904 146.143 55.5704C146.035 55.4504 145.948 55.3094 145.882 55.1474C145.822 54.9854 145.792 54.8084 145.792 54.6164C145.792 54.4484 145.822 54.2924 145.882 54.1484C145.948 53.9984 146.038 53.8694 146.152 53.7614C146.266 53.6474 146.404 53.5604 146.566 53.5004C146.728 53.4344 146.905 53.4014 147.097 53.4014C147.325 53.4014 147.523 53.4434 147.691 53.5274C147.865 53.6054 148.006 53.7164 148.114 53.8604C148.228 53.9984 148.312 54.1604 148.366 54.3464C148.426 54.5264 148.456 54.7184 148.456 54.9224C148.456 55.2104 148.411 55.5134 148.321 55.8314C148.237 56.1494 148.111 56.4674 147.943 56.7854C147.775 57.1034 147.565 57.4124 147.313 57.7124C147.067 58.0124 146.785 58.2884 146.467 58.5404L146.08 58.1894ZM157.789 56.1284C156.985 56.1284 156.367 55.9034 155.935 55.4534C155.509 54.9974 155.296 54.3704 155.296 53.5724V48.4154H154.351C154.231 48.4154 154.129 48.3764 154.045 48.2984C153.961 48.2204 153.919 48.1034 153.919 47.9474V47.0654L155.404 46.8224L155.872 44.3024C155.902 44.1824 155.959 44.0894 156.043 44.0234C156.127 43.9574 156.235 43.9244 156.367 43.9244H157.519V46.8314H159.985V48.4154H157.519V53.4194C157.519 53.7074 157.588 53.9324 157.726 54.0944C157.87 54.2564 158.065 54.3374 158.311 54.3374C158.449 54.3374 158.563 54.3224 158.653 54.2924C158.749 54.2564 158.83 54.2204 158.896 54.1844C158.968 54.1484 159.031 54.1154 159.085 54.0854C159.139 54.0494 159.193 54.0314 159.247 54.0314C159.313 54.0314 159.367 54.0494 159.409 54.0854C159.451 54.1154 159.496 54.1634 159.544 54.2294L160.21 55.3094C159.886 55.5794 159.514 55.7834 159.094 55.9214C158.674 56.0594 158.239 56.1284 157.789 56.1284ZM163.632 47.7404C163.992 47.4044 164.388 47.1314 164.82 46.9214C165.252 46.7114 165.759 46.6064 166.341 46.6064C166.845 46.6064 167.292 46.6934 167.682 46.8674C168.072 47.0354 168.396 47.2754 168.654 47.5874C168.918 47.8934 169.116 48.2624 169.248 48.6944C169.386 49.1204 169.455 49.5914 169.455 50.1074V55.9844H167.232V50.1074C167.232 49.5434 167.103 49.1084 166.845 48.8024C166.587 48.4904 166.194 48.3344 165.666 48.3344C165.282 48.3344 164.922 48.4214 164.586 48.5954C164.25 48.7694 163.932 49.0064 163.632 49.3064V55.9844H161.409V42.6104H163.632V47.7404ZM177.518 50.3054C177.518 50.0174 177.476 49.7474 177.392 49.4954C177.314 49.2374 177.194 49.0124 177.032 48.8204C176.87 48.6284 176.663 48.4784 176.411 48.3704C176.165 48.2564 175.877 48.1994 175.547 48.1994C174.905 48.1994 174.398 48.3824 174.026 48.7484C173.66 49.1144 173.426 49.6334 173.324 50.3054H177.518ZM173.279 51.6464C173.315 52.1204 173.399 52.5314 173.531 52.8794C173.663 53.2214 173.837 53.5064 174.053 53.7344C174.269 53.9564 174.524 54.1244 174.818 54.2384C175.118 54.3464 175.448 54.4004 175.808 54.4004C176.168 54.4004 176.477 54.3584 176.735 54.2744C176.999 54.1904 177.227 54.0974 177.419 53.9954C177.617 53.8934 177.788 53.8004 177.932 53.7164C178.082 53.6324 178.226 53.5904 178.364 53.5904C178.55 53.5904 178.688 53.6594 178.778 53.7974L179.417 54.6074C179.171 54.8954 178.895 55.1384 178.589 55.3364C178.283 55.5284 177.962 55.6844 177.626 55.8044C177.296 55.9184 176.957 55.9994 176.609 56.0474C176.267 56.0954 175.934 56.1194 175.61 56.1194C174.968 56.1194 174.371 56.0144 173.819 55.8044C173.267 55.5884 172.787 55.2734 172.379 54.8594C171.971 54.4394 171.65 53.9234 171.416 53.3114C171.182 52.6934 171.065 51.9794 171.065 51.1694C171.065 50.5394 171.167 49.9484 171.371 49.3964C171.575 48.8384 171.866 48.3554 172.244 47.9474C172.628 47.5334 173.093 47.2064 173.639 46.9664C174.191 46.7264 174.812 46.6064 175.502 46.6064C176.084 46.6064 176.621 46.6994 177.113 46.8854C177.605 47.0714 178.028 47.3444 178.382 47.7044C178.736 48.0584 179.012 48.4964 179.21 49.0184C179.414 49.5344 179.516 50.1254 179.516 50.7914C179.516 51.1274 179.48 51.3554 179.408 51.4754C179.336 51.5894 179.198 51.6464 178.994 51.6464H173.279ZM187.784 53.5904C188.036 53.8964 188.309 54.1124 188.603 54.2384C188.903 54.3644 189.218 54.4274 189.548 54.4274C189.89 54.4274 190.196 54.3674 190.466 54.2474C190.742 54.1214 190.976 53.9294 191.168 53.6714C191.36 53.4074 191.507 53.0744 191.609 52.6724C191.711 52.2644 191.762 51.7784 191.762 51.2144C191.762 50.2004 191.594 49.4684 191.258 49.0184C190.922 48.5624 190.439 48.3344 189.809 48.3344C189.383 48.3344 189.011 48.4334 188.693 48.6314C188.375 48.8234 188.072 49.0964 187.784 49.4504V53.5904ZM187.784 47.8844C188.156 47.4944 188.567 47.1854 189.017 46.9574C189.473 46.7234 189.992 46.6064 190.574 46.6064C191.108 46.6064 191.588 46.7114 192.014 46.9214C192.446 47.1314 192.812 47.4344 193.112 47.8304C193.418 48.2204 193.652 48.6944 193.814 49.2524C193.976 49.8104 194.057 50.4374 194.057 51.1334C194.057 51.8834 193.964 52.5644 193.778 53.1764C193.592 53.7884 193.325 54.3134 192.977 54.7514C192.635 55.1834 192.221 55.5194 191.735 55.7594C191.249 55.9994 190.709 56.1194 190.115 56.1194C189.827 56.1194 189.566 56.0894 189.332 56.0294C189.098 55.9754 188.882 55.8974 188.684 55.7954C188.486 55.6934 188.303 55.5704 188.135 55.4264C187.973 55.2764 187.817 55.1114 187.667 54.9314L187.568 55.5524C187.532 55.7084 187.469 55.8194 187.379 55.8854C187.295 55.9514 187.178 55.9844 187.028 55.9844H185.561V42.6104H187.784V47.8844ZM203.73 46.7504V55.9844H202.371C202.077 55.9844 201.891 55.8494 201.813 55.5794L201.66 54.8414C201.282 55.2254 200.865 55.5374 200.409 55.7774C199.953 56.0114 199.416 56.1284 198.798 56.1284C198.294 56.1284 197.847 56.0444 197.457 55.8764C197.073 55.7024 196.749 55.4594 196.485 55.1474C196.221 54.8354 196.02 54.4664 195.882 54.0404C195.75 53.6084 195.684 53.1344 195.684 52.6184V46.7504H197.907V52.6184C197.907 53.1824 198.036 53.6204 198.294 53.9324C198.558 54.2384 198.951 54.3914 199.473 54.3914C199.857 54.3914 200.217 54.3074 200.553 54.1394C200.889 53.9654 201.207 53.7284 201.507 53.4284V46.7504H203.73ZM209.012 56.1284C208.208 56.1284 207.59 55.9034 207.158 55.4534C206.732 54.9974 206.519 54.3704 206.519 53.5724V48.4154H205.574C205.454 48.4154 205.352 48.3764 205.268 48.2984C205.184 48.2204 205.142 48.1034 205.142 47.9474V47.0654L206.627 46.8224L207.095 44.3024C207.125 44.1824 207.182 44.0894 207.266 44.0234C207.35 43.9574 207.458 43.9244 207.59 43.9244H208.742V46.8314H212.585L213.062 44.3024C213.092 44.1824 213.146 44.0894 213.224 44.0234C213.308 43.9574 213.419 43.9244 213.557 43.9244H214.7V46.8314H217.166V48.4154H214.7V53.4194C214.7 53.7074 214.772 53.9324 214.916 54.0944C215.06 54.2564 215.255 54.3374 215.501 54.3374C215.633 54.3374 215.747 54.3224 215.843 54.2924C215.939 54.2564 216.02 54.2204 216.086 54.1844C216.158 54.1484 216.221 54.1154 216.275 54.0854C216.329 54.0494 216.383 54.0314 216.437 54.0314C216.503 54.0314 216.557 54.0494 216.599 54.0854C216.641 54.1154 216.686 54.1634 216.734 54.2294L217.4 55.3094C217.076 55.5794 216.704 55.7834 216.284 55.9214C215.864 56.0594 215.429 56.1284 214.979 56.1284C214.175 56.1284 213.557 55.9034 213.125 55.4534C212.693 54.9974 212.477 54.3704 212.477 53.5724V48.4154H208.742V53.4194C208.742 53.7074 208.811 53.9324 208.949 54.0944C209.093 54.2564 209.288 54.3374 209.534 54.3374C209.672 54.3374 209.786 54.3224 209.876 54.2924C209.972 54.2564 210.053 54.2204 210.119 54.1844C210.191 54.1484 210.254 54.1154 210.308 54.0854C210.362 54.0494 210.416 54.0314 210.47 54.0314C210.536 54.0314 210.59 54.0494 210.632 54.0854C210.674 54.1154 210.719 54.1634 210.767 54.2294L211.433 55.3094C211.109 55.5794 210.737 55.7834 210.317 55.9214C209.897 56.0594 209.462 56.1284 209.012 56.1284ZM222.606 46.6064C223.29 46.6064 223.911 46.7174 224.469 46.9394C225.033 47.1614 225.513 47.4764 225.909 47.8844C226.311 48.2924 226.62 48.7904 226.836 49.3784C227.052 49.9664 227.16 50.6234 227.16 51.3494C227.16 52.0814 227.052 52.7414 226.836 53.3294C226.62 53.9174 226.311 54.4184 225.909 54.8324C225.513 55.2464 225.033 55.5644 224.469 55.7864C223.911 56.0084 223.29 56.1194 222.606 56.1194C221.916 56.1194 221.289 56.0084 220.725 55.7864C220.161 55.5644 219.678 55.2464 219.276 54.8324C218.88 54.4184 218.571 53.9174 218.349 53.3294C218.133 52.7414 218.025 52.0814 218.025 51.3494C218.025 50.6234 218.133 49.9664 218.349 49.3784C218.571 48.7904 218.88 48.2924 219.276 47.8844C219.678 47.4764 220.161 47.1614 220.725 46.9394C221.289 46.7174 221.916 46.6064 222.606 46.6064ZM222.606 54.4094C223.374 54.4094 223.941 54.1514 224.307 53.6354C224.679 53.1194 224.865 52.3634 224.865 51.3674C224.865 50.3714 224.679 49.6124 224.307 49.0904C223.941 48.5684 223.374 48.3074 222.606 48.3074C221.826 48.3074 221.247 48.5714 220.869 49.0994C220.497 49.6214 220.311 50.3774 220.311 51.3674C220.311 52.3574 220.497 53.1134 220.869 53.6354C221.247 54.1514 221.826 54.4094 222.606 54.4094ZM230.935 47.8844C231.121 47.6984 231.316 47.5274 231.52 47.3714C231.73 47.2094 231.949 47.0744 232.177 46.9664C232.411 46.8524 232.66 46.7654 232.924 46.7054C233.188 46.6394 233.476 46.6064 233.788 46.6064C234.292 46.6064 234.739 46.6934 235.129 46.8674C235.519 47.0354 235.843 47.2754 236.101 47.5874C236.365 47.8934 236.563 48.2624 236.695 48.6944C236.833 49.1204 236.902 49.5914 236.902 50.1074V55.9844H234.679V50.1074C234.679 49.5434 234.55 49.1084 234.292 48.8024C234.034 48.4904 233.641 48.3344 233.113 48.3344C232.729 48.3344 232.369 48.4214 232.033 48.5954C231.697 48.7694 231.379 49.0064 231.079 49.3064V55.9844H228.856V46.7504H230.215C230.503 46.7504 230.692 46.8854 230.782 47.1554L230.935 47.8844ZM250.008 48.7034C249.942 48.7874 249.876 48.8534 249.81 48.9014C249.75 48.9494 249.66 48.9734 249.54 48.9734C249.426 48.9734 249.315 48.9404 249.207 48.8744C249.099 48.8024 248.97 48.7244 248.82 48.6404C248.67 48.5504 248.49 48.4724 248.28 48.4064C248.076 48.3344 247.821 48.2984 247.515 48.2984C247.125 48.2984 246.783 48.3704 246.489 48.5144C246.195 48.6524 245.949 48.8534 245.751 49.1174C245.559 49.3814 245.415 49.7024 245.319 50.0804C245.223 50.4524 245.175 50.8754 245.175 51.3494C245.175 51.8414 245.226 52.2794 245.328 52.6634C245.436 53.0474 245.589 53.3714 245.787 53.6354C245.985 53.8934 246.225 54.0914 246.507 54.2294C246.789 54.3614 247.107 54.4274 247.461 54.4274C247.815 54.4274 248.1 54.3854 248.316 54.3014C248.538 54.2114 248.724 54.1154 248.874 54.0134C249.024 53.9054 249.153 53.8094 249.261 53.7254C249.375 53.6354 249.501 53.5904 249.639 53.5904C249.819 53.5904 249.954 53.6594 250.044 53.7974L250.683 54.6074C250.437 54.8954 250.17 55.1384 249.882 55.3364C249.594 55.5284 249.294 55.6844 248.982 55.8044C248.676 55.9184 248.358 55.9994 248.028 56.0474C247.704 56.0954 247.38 56.1194 247.056 56.1194C246.486 56.1194 245.949 56.0144 245.445 55.8044C244.941 55.5884 244.5 55.2764 244.122 54.8684C243.744 54.4604 243.444 53.9624 243.222 53.3744C243.006 52.7804 242.898 52.1054 242.898 51.3494C242.898 50.6714 242.994 50.0444 243.186 49.4684C243.384 48.8864 243.672 48.3854 244.05 47.9654C244.428 47.5394 244.896 47.2064 245.454 46.9664C246.012 46.7264 246.654 46.6064 247.38 46.6064C248.07 46.6064 248.673 46.7174 249.189 46.9394C249.711 47.1614 250.179 47.4794 250.593 47.8934L250.008 48.7034ZM256.955 52.0424C256.313 52.0724 255.773 52.1294 255.335 52.2134C254.897 52.2914 254.546 52.3934 254.282 52.5194C254.018 52.6454 253.829 52.7924 253.715 52.9604C253.601 53.1284 253.544 53.3114 253.544 53.5094C253.544 53.8994 253.658 54.1784 253.886 54.3464C254.12 54.5144 254.423 54.5984 254.795 54.5984C255.251 54.5984 255.644 54.5174 255.974 54.3554C256.31 54.1874 256.637 53.9354 256.955 53.5994V52.0424ZM251.861 48.0374C252.923 47.0654 254.201 46.5794 255.695 46.5794C256.235 46.5794 256.718 46.6694 257.144 46.8494C257.57 47.0234 257.93 47.2694 258.224 47.5874C258.518 47.8994 258.74 48.2744 258.89 48.7124C259.046 49.1504 259.124 49.6304 259.124 50.1524V55.9844H258.116C257.906 55.9844 257.744 55.9544 257.63 55.8944C257.516 55.8284 257.426 55.6994 257.36 55.5074L257.162 54.8414C256.928 55.0514 256.7 55.2374 256.478 55.3994C256.256 55.5554 256.025 55.6874 255.785 55.7954C255.545 55.9034 255.287 55.9844 255.011 56.0384C254.741 56.0984 254.441 56.1284 254.111 56.1284C253.721 56.1284 253.361 56.0774 253.031 55.9754C252.701 55.8674 252.416 55.7084 252.176 55.4984C251.936 55.2884 251.75 55.0274 251.618 54.7154C251.486 54.4034 251.42 54.0404 251.42 53.6264C251.42 53.3924 251.459 53.1614 251.537 52.9334C251.615 52.6994 251.741 52.4774 251.915 52.2674C252.095 52.0574 252.326 51.8594 252.608 51.6734C252.89 51.4874 253.235 51.3254 253.643 51.1874C254.057 51.0494 254.537 50.9384 255.083 50.8544C255.629 50.7644 256.253 50.7104 256.955 50.6924V50.1524C256.955 49.5344 256.823 49.0784 256.559 48.7844C256.295 48.4844 255.914 48.3344 255.416 48.3344C255.056 48.3344 254.756 48.3764 254.516 48.4604C254.282 48.5444 254.075 48.6404 253.895 48.7484C253.715 48.8504 253.55 48.9434 253.4 49.0274C253.256 49.1114 253.094 49.1534 252.914 49.1534C252.758 49.1534 252.626 49.1144 252.518 49.0364C252.41 48.9524 252.323 48.8564 252.257 48.7484L251.861 48.0374ZM263.296 47.8844C263.482 47.6984 263.677 47.5274 263.881 47.3714C264.091 47.2094 264.31 47.0744 264.538 46.9664C264.772 46.8524 265.021 46.7654 265.285 46.7054C265.549 46.6394 265.837 46.6064 266.149 46.6064C266.653 46.6064 267.1 46.6934 267.49 46.8674C267.88 47.0354 268.204 47.2754 268.462 47.5874C268.726 47.8934 268.924 48.2624 269.056 48.6944C269.194 49.1204 269.263 49.5914 269.263 50.1074V55.9844H267.04V50.1074C267.04 49.5434 266.911 49.1084 266.653 48.8024C266.395 48.4904 266.002 48.3344 265.474 48.3344C265.09 48.3344 264.73 48.4214 264.394 48.5954C264.058 48.7694 263.74 49.0064 263.44 49.3064V55.9844H261.217V46.7504H262.576C262.864 46.7504 263.053 46.8854 263.143 47.1554L263.296 47.8844ZM282.369 48.7034C282.303 48.7874 282.237 48.8534 282.171 48.9014C282.111 48.9494 282.021 48.9734 281.901 48.9734C281.787 48.9734 281.676 48.9404 281.568 48.8744C281.46 48.8024 281.331 48.7244 281.181 48.6404C281.031 48.5504 280.851 48.4724 280.641 48.4064C280.437 48.3344 280.182 48.2984 279.876 48.2984C279.486 48.2984 279.144 48.3704 278.85 48.5144C278.556 48.6524 278.31 48.8534 278.112 49.1174C277.92 49.3814 277.776 49.7024 277.68 50.0804C277.584 50.4524 277.536 50.8754 277.536 51.3494C277.536 51.8414 277.587 52.2794 277.689 52.6634C277.797 53.0474 277.95 53.3714 278.148 53.6354C278.346 53.8934 278.586 54.0914 278.868 54.2294C279.15 54.3614 279.468 54.4274 279.822 54.4274C280.176 54.4274 280.461 54.3854 280.677 54.3014C280.899 54.2114 281.085 54.1154 281.235 54.0134C281.385 53.9054 281.514 53.8094 281.622 53.7254C281.736 53.6354 281.862 53.5904 282 53.5904C282.18 53.5904 282.315 53.6594 282.405 53.7974L283.044 54.6074C282.798 54.8954 282.531 55.1384 282.243 55.3364C281.955 55.5284 281.655 55.6844 281.343 55.8044C281.037 55.9184 280.719 55.9994 280.389 56.0474C280.065 56.0954 279.741 56.1194 279.417 56.1194C278.847 56.1194 278.31 56.0144 277.806 55.8044C277.302 55.5884 276.861 55.2764 276.483 54.8684C276.105 54.4604 275.805 53.9624 275.583 53.3744C275.367 52.7804 275.259 52.1054 275.259 51.3494C275.259 50.6714 275.355 50.0444 275.547 49.4684C275.745 48.8864 276.033 48.3854 276.411 47.9654C276.789 47.5394 277.257 47.2064 277.815 46.9664C278.373 46.7264 279.015 46.6064 279.741 46.6064C280.431 46.6064 281.034 46.7174 281.55 46.9394C282.072 47.1614 282.54 47.4794 282.954 47.8934L282.369 48.7034ZM288.366 46.6064C289.05 46.6064 289.671 46.7174 290.229 46.9394C290.793 47.1614 291.273 47.4764 291.669 47.8844C292.071 48.2924 292.38 48.7904 292.596 49.3784C292.812 49.9664 292.92 50.6234 292.92 51.3494C292.92 52.0814 292.812 52.7414 292.596 53.3294C292.38 53.9174 292.071 54.4184 291.669 54.8324C291.273 55.2464 290.793 55.5644 290.229 55.7864C289.671 56.0084 289.05 56.1194 288.366 56.1194C287.676 56.1194 287.049 56.0084 286.485 55.7864C285.921 55.5644 285.438 55.2464 285.036 54.8324C284.64 54.4184 284.331 53.9174 284.109 53.3294C283.893 52.7414 283.785 52.0814 283.785 51.3494C283.785 50.6234 283.893 49.9664 284.109 49.3784C284.331 48.7904 284.64 48.2924 285.036 47.8844C285.438 47.4764 285.921 47.1614 286.485 46.9394C287.049 46.7174 287.676 46.6064 288.366 46.6064ZM288.366 54.4094C289.134 54.4094 289.701 54.1514 290.067 53.6354C290.439 53.1194 290.625 52.3634 290.625 51.3674C290.625 50.3714 290.439 49.6124 290.067 49.0904C289.701 48.5684 289.134 48.3074 288.366 48.3074C287.586 48.3074 287.007 48.5714 286.629 49.0994C286.257 49.6214 286.071 50.3774 286.071 51.3674C286.071 52.3574 286.257 53.1134 286.629 53.6354C287.007 54.1514 287.586 54.4094 288.366 54.4094ZM296.695 47.8844C296.881 47.6984 297.076 47.5274 297.28 47.3714C297.49 47.2094 297.709 47.0744 297.937 46.9664C298.171 46.8524 298.42 46.7654 298.684 46.7054C298.948 46.6394 299.236 46.6064 299.548 46.6064C300.052 46.6064 300.499 46.6934 300.889 46.8674C301.279 47.0354 301.603 47.2754 301.861 47.5874C302.125 47.8934 302.323 48.2624 302.455 48.6944C302.593 49.1204 302.662 49.5914 302.662 50.1074V55.9844H300.439V50.1074C300.439 49.5434 300.31 49.1084 300.052 48.8024C299.794 48.4904 299.401 48.3344 298.873 48.3344C298.489 48.3344 298.129 48.4214 297.793 48.5954C297.457 48.7694 297.139 49.0064 296.839 49.3064V55.9844H294.616V46.7504H295.975C296.263 46.7504 296.452 46.8854 296.542 47.1554L296.695 47.8844ZM307.731 56.1284C306.927 56.1284 306.309 55.9034 305.877 55.4534C305.451 54.9974 305.238 54.3704 305.238 53.5724V48.4154H304.293C304.173 48.4154 304.071 48.3764 303.987 48.2984C303.903 48.2204 303.861 48.1034 303.861 47.9474V47.0654L305.346 46.8224L305.814 44.3024C305.844 44.1824 305.901 44.0894 305.985 44.0234C306.069 43.9574 306.177 43.9244 306.309 43.9244H307.461V46.8314H309.927V48.4154H307.461V53.4194C307.461 53.7074 307.53 53.9324 307.668 54.0944C307.812 54.2564 308.007 54.3374 308.253 54.3374C308.391 54.3374 308.505 54.3224 308.595 54.2924C308.691 54.2564 308.772 54.2204 308.838 54.1844C308.91 54.1484 308.973 54.1154 309.027 54.0854C309.081 54.0494 309.135 54.0314 309.189 54.0314C309.255 54.0314 309.309 54.0494 309.351 54.0854C309.393 54.1154 309.438 54.1634 309.486 54.2294L310.152 55.3094C309.828 55.5794 309.456 55.7834 309.036 55.9214C308.616 56.0594 308.181 56.1284 307.731 56.1284ZM313.447 48.3524C313.735 47.8004 314.077 47.3684 314.473 47.0564C314.869 46.7384 315.337 46.5794 315.877 46.5794C316.303 46.5794 316.645 46.6724 316.903 46.8584L316.759 48.5234C316.729 48.6314 316.684 48.7094 316.624 48.7574C316.57 48.7994 316.495 48.8204 316.399 48.8204C316.309 48.8204 316.174 48.8054 315.994 48.7754C315.82 48.7454 315.649 48.7304 315.481 48.7304C315.235 48.7304 315.016 48.7664 314.824 48.8384C314.632 48.9104 314.458 49.0154 314.302 49.1534C314.152 49.2854 314.017 49.4474 313.897 49.6394C313.783 49.8314 313.675 50.0504 313.573 50.2964V55.9844H311.35V46.7504H312.655C312.883 46.7504 313.042 46.7924 313.132 46.8764C313.222 46.9544 313.282 47.0984 313.312 47.3084L313.447 48.3524ZM321.887 46.6064C322.571 46.6064 323.192 46.7174 323.75 46.9394C324.314 47.1614 324.794 47.4764 325.19 47.8844C325.592 48.2924 325.901 48.7904 326.117 49.3784C326.333 49.9664 326.441 50.6234 326.441 51.3494C326.441 52.0814 326.333 52.7414 326.117 53.3294C325.901 53.9174 325.592 54.4184 325.19 54.8324C324.794 55.2464 324.314 55.5644 323.75 55.7864C323.192 56.0084 322.571 56.1194 321.887 56.1194C321.197 56.1194 320.57 56.0084 320.006 55.7864C319.442 55.5644 318.959 55.2464 318.557 54.8324C318.161 54.4184 317.852 53.9174 317.63 53.3294C317.414 52.7414 317.306 52.0814 317.306 51.3494C317.306 50.6234 317.414 49.9664 317.63 49.3784C317.852 48.7904 318.161 48.2924 318.557 47.8844C318.959 47.4764 319.442 47.1614 320.006 46.9394C320.57 46.7174 321.197 46.6064 321.887 46.6064ZM321.887 54.4094C322.655 54.4094 323.222 54.1514 323.588 53.6354C323.96 53.1194 324.146 52.3634 324.146 51.3674C324.146 50.3714 323.96 49.6124 323.588 49.0904C323.222 48.5684 322.655 48.3074 321.887 48.3074C321.107 48.3074 320.528 48.5714 320.15 49.0994C319.778 49.6214 319.592 50.3774 319.592 51.3674C319.592 52.3574 319.778 53.1134 320.15 53.6354C320.528 54.1514 321.107 54.4094 321.887 54.4094ZM330.387 42.6104V55.9844H328.164V42.6104H330.387ZM340.057 56.1284C339.253 56.1284 338.635 55.9034 338.203 55.4534C337.777 54.9974 337.564 54.3704 337.564 53.5724V48.4154H336.619C336.499 48.4154 336.397 48.3764 336.313 48.2984C336.229 48.2204 336.187 48.1034 336.187 47.9474V47.0654L337.672 46.8224L338.14 44.3024C338.17 44.1824 338.227 44.0894 338.311 44.0234C338.395 43.9574 338.503 43.9244 338.635 43.9244H339.787V46.8314H342.253V48.4154H339.787V53.4194C339.787 53.7074 339.856 53.9324 339.994 54.0944C340.138 54.2564 340.333 54.3374 340.579 54.3374C340.717 54.3374 340.831 54.3224 340.921 54.2924C341.017 54.2564 341.098 54.2204 341.164 54.1844C341.236 54.1484 341.299 54.1154 341.353 54.0854C341.407 54.0494 341.461 54.0314 341.515 54.0314C341.581 54.0314 341.635 54.0494 341.677 54.0854C341.719 54.1154 341.764 54.1634 341.812 54.2294L342.478 55.3094C342.154 55.5794 341.782 55.7834 341.362 55.9214C340.942 56.0594 340.507 56.1284 340.057 56.1284ZM345.899 47.7404C346.259 47.4044 346.655 47.1314 347.087 46.9214C347.519 46.7114 348.026 46.6064 348.608 46.6064C349.112 46.6064 349.559 46.6934 349.949 46.8674C350.339 47.0354 350.663 47.2754 350.921 47.5874C351.185 47.8934 351.383 48.2624 351.515 48.6944C351.653 49.1204 351.722 49.5914 351.722 50.1074V55.9844H349.499V50.1074C349.499 49.5434 349.37 49.1084 349.112 48.8024C348.854 48.4904 348.461 48.3344 347.933 48.3344C347.549 48.3344 347.189 48.4214 346.853 48.5954C346.517 48.7694 346.199 49.0064 345.899 49.3064V55.9844H343.676V42.6104H345.899V47.7404ZM359.785 50.3054C359.785 50.0174 359.743 49.7474 359.659 49.4954C359.581 49.2374 359.461 49.0124 359.299 48.8204C359.137 48.6284 358.93 48.4784 358.678 48.3704C358.432 48.2564 358.144 48.1994 357.814 48.1994C357.172 48.1994 356.665 48.3824 356.293 48.7484C355.927 49.1144 355.693 49.6334 355.591 50.3054H359.785ZM355.546 51.6464C355.582 52.1204 355.666 52.5314 355.798 52.8794C355.93 53.2214 356.104 53.5064 356.32 53.7344C356.536 53.9564 356.791 54.1244 357.085 54.2384C357.385 54.3464 357.715 54.4004 358.075 54.4004C358.435 54.4004 358.744 54.3584 359.002 54.2744C359.266 54.1904 359.494 54.0974 359.686 53.9954C359.884 53.8934 360.055 53.8004 360.199 53.7164C360.349 53.6324 360.493 53.5904 360.631 53.5904C360.817 53.5904 360.955 53.6594 361.045 53.7974L361.684 54.6074C361.438 54.8954 361.162 55.1384 360.856 55.3364C360.55 55.5284 360.229 55.6844 359.893 55.8044C359.563 55.9184 359.224 55.9994 358.876 56.0474C358.534 56.0954 358.201 56.1194 357.877 56.1194C357.235 56.1194 356.638 56.0144 356.086 55.8044C355.534 55.5884 355.054 55.2734 354.646 54.8594C354.238 54.4394 353.917 53.9234 353.683 53.3114C353.449 52.6934 353.332 51.9794 353.332 51.1694C353.332 50.5394 353.434 49.9484 353.638 49.3964C353.842 48.8384 354.133 48.3554 354.511 47.9474C354.895 47.5334 355.36 47.2064 355.906 46.9664C356.458 46.7264 357.079 46.6064 357.769 46.6064C358.351 46.6064 358.888 46.6994 359.38 46.8854C359.872 47.0714 360.295 47.3444 360.649 47.7044C361.003 48.0584 361.279 48.4964 361.477 49.0184C361.681 49.5344 361.783 50.1254 361.783 50.7914C361.783 51.1274 361.747 51.3554 361.675 51.4754C361.603 51.5894 361.465 51.6464 361.261 51.6464H355.546ZM368.485 55.9844V48.4244L367.684 48.2984C367.51 48.2624 367.369 48.2024 367.261 48.1184C367.159 48.0284 367.108 47.9024 367.108 47.7404V46.8314H368.485V46.4444C368.485 45.9524 368.563 45.4814 368.719 45.0314C368.875 44.5814 369.112 44.1854 369.43 43.8434C369.748 43.4954 370.15 43.2194 370.636 43.0154C371.122 42.8054 371.695 42.7004 372.355 42.7004C372.865 42.7004 373.345 42.7184 373.795 42.7544C374.251 42.7844 374.704 42.8024 375.154 42.8084H376.621V55.9844H374.407V44.3564C374.089 44.3444 373.777 44.3294 373.471 44.3114C373.171 44.2934 372.916 44.2844 372.706 44.2844C372.034 44.2844 371.521 44.4734 371.167 44.8514C370.813 45.2234 370.636 45.7544 370.636 46.4444V46.8314H372.823V48.4154H370.708V55.9844H368.485ZM382.936 46.6064C383.62 46.6064 384.241 46.7174 384.799 46.9394C385.363 47.1614 385.843 47.4764 386.239 47.8844C386.641 48.2924 386.95 48.7904 387.166 49.3784C387.382 49.9664 387.49 50.6234 387.49 51.3494C387.49 52.0814 387.382 52.7414 387.166 53.3294C386.95 53.9174 386.641 54.4184 386.239 54.8324C385.843 55.2464 385.363 55.5644 384.799 55.7864C384.241 56.0084 383.62 56.1194 382.936 56.1194C382.246 56.1194 381.619 56.0084 381.055 55.7864C380.491 55.5644 380.008 55.2464 379.606 54.8324C379.21 54.4184 378.901 53.9174 378.679 53.3294C378.463 52.7414 378.355 52.0814 378.355 51.3494C378.355 50.6234 378.463 49.9664 378.679 49.3784C378.901 48.7904 379.21 48.2924 379.606 47.8844C380.008 47.4764 380.491 47.1614 381.055 46.9394C381.619 46.7174 382.246 46.6064 382.936 46.6064ZM382.936 54.4094C383.704 54.4094 384.271 54.1514 384.637 53.6354C385.009 53.1194 385.195 52.3634 385.195 51.3674C385.195 50.3714 385.009 49.6124 384.637 49.0904C384.271 48.5684 383.704 48.3074 382.936 48.3074C382.156 48.3074 381.577 48.5714 381.199 49.0994C380.827 49.6214 380.641 50.3774 380.641 51.3674C380.641 52.3574 380.827 53.1134 381.199 53.6354C381.577 54.1514 382.156 54.4094 382.936 54.4094ZM402.213 46.7504L399.279 55.9844H397.497C397.293 55.9844 397.152 55.8524 397.074 55.5884L395.418 50.2514C395.364 50.0714 395.313 49.8944 395.265 49.7204C395.223 49.5404 395.187 49.3604 395.157 49.1804C395.121 49.3604 395.079 49.5434 395.031 49.7294C394.989 49.9094 394.941 50.0894 394.887 50.2694L393.204 55.5884C393.132 55.8524 392.973 55.9844 392.727 55.9844H391.017L388.092 46.7504H389.865C390.027 46.7504 390.165 46.7894 390.279 46.8674C390.393 46.9454 390.468 47.0444 390.504 47.1644L391.827 52.0964C391.893 52.3664 391.95 52.6304 391.998 52.8884C392.052 53.1464 392.097 53.4044 392.133 53.6624C392.199 53.4044 392.268 53.1464 392.34 52.8884C392.418 52.6304 392.499 52.3664 392.583 52.0964L394.113 47.1464C394.149 47.0264 394.218 46.9274 394.32 46.8494C394.428 46.7714 394.557 46.7324 394.707 46.7324H395.688C395.844 46.7324 395.976 46.7714 396.084 46.8494C396.198 46.9274 396.273 47.0264 396.309 47.1464L397.794 52.0964C397.872 52.3664 397.944 52.6334 398.01 52.8974C398.082 53.1554 398.151 53.4134 398.217 53.6714C398.295 53.1614 398.406 52.6364 398.55 52.0964L399.909 47.1644C399.951 47.0444 400.026 46.9454 400.134 46.8674C400.242 46.7894 400.371 46.7504 400.521 46.7504H402.213ZM411.571 46.6064C412.255 46.6064 412.876 46.7174 413.434 46.9394C413.998 47.1614 414.478 47.4764 414.874 47.8844C415.276 48.2924 415.585 48.7904 415.801 49.3784C416.017 49.9664 416.125 50.6234 416.125 51.3494C416.125 52.0814 416.017 52.7414 415.801 53.3294C415.585 53.9174 415.276 54.4184 414.874 54.8324C414.478 55.2464 413.998 55.5644 413.434 55.7864C412.876 56.0084 412.255 56.1194 411.571 56.1194C410.881 56.1194 410.254 56.0084 409.69 55.7864C409.126 55.5644 408.643 55.2464 408.241 54.8324C407.845 54.4184 407.536 53.9174 407.314 53.3294C407.098 52.7414 406.99 52.0814 406.99 51.3494C406.99 50.6234 407.098 49.9664 407.314 49.3784C407.536 48.7904 407.845 48.2924 408.241 47.8844C408.643 47.4764 409.126 47.1614 409.69 46.9394C410.254 46.7174 410.881 46.6064 411.571 46.6064ZM411.571 54.4094C412.339 54.4094 412.906 54.1514 413.272 53.6354C413.644 53.1194 413.83 52.3634 413.83 51.3674C413.83 50.3714 413.644 49.6124 413.272 49.0904C412.906 48.5684 412.339 48.3074 411.571 48.3074C410.791 48.3074 410.212 48.5714 409.834 49.0994C409.462 49.6214 409.276 50.3774 409.276 51.3674C409.276 52.3574 409.462 53.1134 409.834 53.6354C410.212 54.1514 410.791 54.4094 411.571 54.4094ZM418.24 55.9844V48.4244L417.439 48.2984C417.265 48.2624 417.124 48.2024 417.016 48.1184C416.914 48.0284 416.863 47.9024 416.863 47.7404V46.8314H418.24V46.1474C418.24 45.6194 418.318 45.1454 418.474 44.7254C418.636 44.3054 418.864 43.9484 419.158 43.6544C419.458 43.3604 419.821 43.1354 420.247 42.9794C420.673 42.8234 421.153 42.7454 421.687 42.7454C422.113 42.7454 422.509 42.8024 422.875 42.9164L422.83 44.0324C422.824 44.1164 422.8 44.1854 422.758 44.2394C422.716 44.2874 422.659 44.3264 422.587 44.3564C422.521 44.3804 422.443 44.3984 422.353 44.4104C422.263 44.4164 422.167 44.4194 422.065 44.4194C421.801 44.4194 421.564 44.4494 421.354 44.5094C421.15 44.5634 420.976 44.6624 420.832 44.8064C420.688 44.9444 420.577 45.1304 420.499 45.3644C420.427 45.5924 420.391 45.8774 420.391 46.2194V46.8314H422.794V48.4154H420.463V55.9844H418.24ZM434.035 50.3054C434.035 50.0174 433.993 49.7474 433.909 49.4954C433.831 49.2374 433.711 49.0124 433.549 48.8204C433.387 48.6284 433.18 48.4784 432.928 48.3704C432.682 48.2564 432.394 48.1994 432.064 48.1994C431.422 48.1994 430.915 48.3824 430.543 48.7484C430.177 49.1144 429.943 49.6334 429.841 50.3054H434.035ZM429.796 51.6464C429.832 52.1204 429.916 52.5314 430.048 52.8794C430.18 53.2214 430.354 53.5064 430.57 53.7344C430.786 53.9564 431.041 54.1244 431.335 54.2384C431.635 54.3464 431.965 54.4004 432.325 54.4004C432.685 54.4004 432.994 54.3584 433.252 54.2744C433.516 54.1904 433.744 54.0974 433.936 53.9954C434.134 53.8934 434.305 53.8004 434.449 53.7164C434.599 53.6324 434.743 53.5904 434.881 53.5904C435.067 53.5904 435.205 53.6594 435.295 53.7974L435.934 54.6074C435.688 54.8954 435.412 55.1384 435.106 55.3364C434.8 55.5284 434.479 55.6844 434.143 55.8044C433.813 55.9184 433.474 55.9994 433.126 56.0474C432.784 56.0954 432.451 56.1194 432.127 56.1194C431.485 56.1194 430.888 56.0144 430.336 55.8044C429.784 55.5884 429.304 55.2734 428.896 54.8594C428.488 54.4394 428.167 53.9234 427.933 53.3114C427.699 52.6934 427.582 51.9794 427.582 51.1694C427.582 50.5394 427.684 49.9484 427.888 49.3964C428.092 48.8384 428.383 48.3554 428.761 47.9474C429.145 47.5334 429.61 47.2064 430.156 46.9664C430.708 46.7264 431.329 46.6064 432.019 46.6064C432.601 46.6064 433.138 46.6994 433.63 46.8854C434.122 47.0714 434.545 47.3444 434.899 47.7044C435.253 48.0584 435.529 48.4964 435.727 49.0184C435.931 49.5344 436.033 50.1254 436.033 50.7914C436.033 51.1274 435.997 51.3554 435.925 51.4754C435.853 51.5894 435.715 51.6464 435.511 51.6464H429.796ZM439.952 42.6104V55.9844H437.729V42.6104H439.952ZM448.115 50.3054C448.115 50.0174 448.073 49.7474 447.989 49.4954C447.911 49.2374 447.791 49.0124 447.629 48.8204C447.467 48.6284 447.26 48.4784 447.008 48.3704C446.762 48.2564 446.474 48.1994 446.144 48.1994C445.502 48.1994 444.995 48.3824 444.623 48.7484C444.257 49.1144 444.023 49.6334 443.921 50.3054H448.115ZM443.876 51.6464C443.912 52.1204 443.996 52.5314 444.128 52.8794C444.26 53.2214 444.434 53.5064 444.65 53.7344C444.866 53.9564 445.121 54.1244 445.415 54.2384C445.715 54.3464 446.045 54.4004 446.405 54.4004C446.765 54.4004 447.074 54.3584 447.332 54.2744C447.596 54.1904 447.824 54.0974 448.016 53.9954C448.214 53.8934 448.385 53.8004 448.529 53.7164C448.679 53.6324 448.823 53.5904 448.961 53.5904C449.147 53.5904 449.285 53.6594 449.375 53.7974L450.014 54.6074C449.768 54.8954 449.492 55.1384 449.186 55.3364C448.88 55.5284 448.559 55.6844 448.223 55.8044C447.893 55.9184 447.554 55.9994 447.206 56.0474C446.864 56.0954 446.531 56.1194 446.207 56.1194C445.565 56.1194 444.968 56.0144 444.416 55.8044C443.864 55.5884 443.384 55.2734 442.976 54.8594C442.568 54.4394 442.247 53.9234 442.013 53.3114C441.779 52.6934 441.662 51.9794 441.662 51.1694C441.662 50.5394 441.764 49.9484 441.968 49.3964C442.172 48.8384 442.463 48.3554 442.841 47.9474C443.225 47.5334 443.69 47.2064 444.236 46.9664C444.788 46.7264 445.409 46.6064 446.099 46.6064C446.681 46.6064 447.218 46.6994 447.71 46.8854C448.202 47.0714 448.625 47.3444 448.979 47.7044C449.333 48.0584 449.609 48.4964 449.807 49.0184C450.011 49.5344 450.113 50.1254 450.113 50.7914C450.113 51.1274 450.077 51.3554 450.005 51.4754C449.933 51.5894 449.795 51.6464 449.591 51.6464H443.876ZM458.397 48.7034C458.331 48.7874 458.265 48.8534 458.199 48.9014C458.139 48.9494 458.049 48.9734 457.929 48.9734C457.815 48.9734 457.704 48.9404 457.596 48.8744C457.488 48.8024 457.359 48.7244 457.209 48.6404C457.059 48.5504 456.879 48.4724 456.669 48.4064C456.465 48.3344 456.21 48.2984 455.904 48.2984C455.514 48.2984 455.172 48.3704 454.878 48.5144C454.584 48.6524 454.338 48.8534 454.14 49.1174C453.948 49.3814 453.804 49.7024 453.708 50.0804C453.612 50.4524 453.564 50.8754 453.564 51.3494C453.564 51.8414 453.615 52.2794 453.717 52.6634C453.825 53.0474 453.978 53.3714 454.176 53.6354C454.374 53.8934 454.614 54.0914 454.896 54.2294C455.178 54.3614 455.496 54.4274 455.85 54.4274C456.204 54.4274 456.489 54.3854 456.705 54.3014C456.927 54.2114 457.113 54.1154 457.263 54.0134C457.413 53.9054 457.542 53.8094 457.65 53.7254C457.764 53.6354 457.89 53.5904 458.028 53.5904C458.208 53.5904 458.343 53.6594 458.433 53.7974L459.072 54.6074C458.826 54.8954 458.559 55.1384 458.271 55.3364C457.983 55.5284 457.683 55.6844 457.371 55.8044C457.065 55.9184 456.747 55.9994 456.417 56.0474C456.093 56.0954 455.769 56.1194 455.445 56.1194C454.875 56.1194 454.338 56.0144 453.834 55.8044C453.33 55.5884 452.889 55.2764 452.511 54.8684C452.133 54.4604 451.833 53.9624 451.611 53.3744C451.395 52.7804 451.287 52.1054 451.287 51.3494C451.287 50.6714 451.383 50.0444 451.575 49.4684C451.773 48.8864 452.061 48.3854 452.439 47.9654C452.817 47.5394 453.285 47.2064 453.843 46.9664C454.401 46.7264 455.043 46.6064 455.769 46.6064C456.459 46.6064 457.062 46.7174 457.578 46.9394C458.1 47.1614 458.568 47.4794 458.982 47.8934L458.397 48.7034ZM463.543 56.1284C462.739 56.1284 462.121 55.9034 461.689 55.4534C461.263 54.9974 461.05 54.3704 461.05 53.5724V48.4154H460.105C459.985 48.4154 459.883 48.3764 459.799 48.2984C459.715 48.2204 459.673 48.1034 459.673 47.9474V47.0654L461.158 46.8224L461.626 44.3024C461.656 44.1824 461.713 44.0894 461.797 44.0234C461.881 43.9574 461.989 43.9244 462.121 43.9244H463.273V46.8314H465.739V48.4154H463.273V53.4194C463.273 53.7074 463.342 53.9324 463.48 54.0944C463.624 54.2564 463.819 54.3374 464.065 54.3374C464.203 54.3374 464.317 54.3224 464.407 54.2924C464.503 54.2564 464.584 54.2204 464.65 54.1844C464.722 54.1484 464.785 54.1154 464.839 54.0854C464.893 54.0494 464.947 54.0314 465.001 54.0314C465.067 54.0314 465.121 54.0494 465.163 54.0854C465.205 54.1154 465.25 54.1634 465.298 54.2294L465.964 55.3094C465.64 55.5794 465.268 55.7834 464.848 55.9214C464.428 56.0594 463.993 56.1284 463.543 56.1284ZM469.259 48.3524C469.547 47.8004 469.889 47.3684 470.285 47.0564C470.681 46.7384 471.149 46.5794 471.689 46.5794C472.115 46.5794 472.457 46.6724 472.715 46.8584L472.571 48.5234C472.541 48.6314 472.496 48.7094 472.436 48.7574C472.382 48.7994 472.307 48.8204 472.211 48.8204C472.121 48.8204 471.986 48.8054 471.806 48.7754C471.632 48.7454 471.461 48.7304 471.293 48.7304C471.047 48.7304 470.828 48.7664 470.636 48.8384C470.444 48.9104 470.27 49.0154 470.114 49.1534C469.964 49.2854 469.829 49.4474 469.709 49.6394C469.595 49.8314 469.487 50.0504 469.385 50.2964V55.9844H467.162V46.7504H468.467C468.695 46.7504 468.854 46.7924 468.944 46.8764C469.034 46.9544 469.094 47.0984 469.124 47.3084L469.259 48.3524ZM476.181 46.7504V55.9844H473.949V46.7504H476.181ZM476.487 44.0594C476.487 44.2514 476.448 44.4314 476.37 44.5994C476.292 44.7674 476.187 44.9144 476.055 45.0404C475.929 45.1664 475.779 45.2684 475.605 45.3464C475.431 45.4184 475.245 45.4544 475.047 45.4544C474.855 45.4544 474.672 45.4184 474.498 45.3464C474.33 45.2684 474.183 45.1664 474.057 45.0404C473.931 44.9144 473.829 44.7674 473.751 44.5994C473.679 44.4314 473.643 44.2514 473.643 44.0594C473.643 43.8614 473.679 43.6754 473.751 43.5014C473.829 43.3274 473.931 43.1774 474.057 43.0514C474.183 42.9254 474.33 42.8264 474.498 42.7544C474.672 42.6764 474.855 42.6374 475.047 42.6374C475.245 42.6374 475.431 42.6764 475.605 42.7544C475.779 42.8264 475.929 42.9254 476.055 43.0514C476.187 43.1774 476.292 43.3274 476.37 43.5014C476.448 43.6754 476.487 43.8614 476.487 44.0594ZM485.063 48.7034C484.997 48.7874 484.931 48.8534 484.865 48.9014C484.805 48.9494 484.715 48.9734 484.595 48.9734C484.481 48.9734 484.37 48.9404 484.262 48.8744C484.154 48.8024 484.025 48.7244 483.875 48.6404C483.725 48.5504 483.545 48.4724 483.335 48.4064C483.131 48.3344 482.876 48.2984 482.57 48.2984C482.18 48.2984 481.838 48.3704 481.544 48.5144C481.25 48.6524 481.004 48.8534 480.806 49.1174C480.614 49.3814 480.47 49.7024 480.374 50.0804C480.278 50.4524 480.23 50.8754 480.23 51.3494C480.23 51.8414 480.281 52.2794 480.383 52.6634C480.491 53.0474 480.644 53.3714 480.842 53.6354C481.04 53.8934 481.28 54.0914 481.562 54.2294C481.844 54.3614 482.162 54.4274 482.516 54.4274C482.87 54.4274 483.155 54.3854 483.371 54.3014C483.593 54.2114 483.779 54.1154 483.929 54.0134C484.079 53.9054 484.208 53.8094 484.316 53.7254C484.43 53.6354 484.556 53.5904 484.694 53.5904C484.874 53.5904 485.009 53.6594 485.099 53.7974L485.738 54.6074C485.492 54.8954 485.225 55.1384 484.937 55.3364C484.649 55.5284 484.349 55.6844 484.037 55.8044C483.731 55.9184 483.413 55.9994 483.083 56.0474C482.759 56.0954 482.435 56.1194 482.111 56.1194C481.541 56.1194 481.004 56.0144 480.5 55.8044C479.996 55.5884 479.555 55.2764 479.177 54.8684C478.799 54.4604 478.499 53.9624 478.277 53.3744C478.061 52.7804 477.953 52.1054 477.953 51.3494C477.953 50.6714 478.049 50.0444 478.241 49.4684C478.439 48.8864 478.727 48.3854 479.105 47.9654C479.483 47.5394 479.951 47.2064 480.509 46.9664C481.067 46.7264 481.709 46.6064 482.435 46.6064C483.125 46.6064 483.728 46.7174 484.244 46.9394C484.766 47.1614 485.234 47.4794 485.648 47.8934L485.063 48.7034ZM489.435 46.7504V55.9844H487.203V46.7504H489.435ZM489.741 44.0594C489.741 44.2514 489.702 44.4314 489.624 44.5994C489.546 44.7674 489.441 44.9144 489.309 45.0404C489.183 45.1664 489.033 45.2684 488.859 45.3464C488.685 45.4184 488.499 45.4544 488.301 45.4544C488.109 45.4544 487.926 45.4184 487.752 45.3464C487.584 45.2684 487.437 45.1664 487.311 45.0404C487.185 44.9144 487.083 44.7674 487.005 44.5994C486.933 44.4314 486.897 44.2514 486.897 44.0594C486.897 43.8614 486.933 43.6754 487.005 43.5014C487.083 43.3274 487.185 43.1774 487.311 43.0514C487.437 42.9254 487.584 42.8264 487.752 42.7544C487.926 42.6764 488.109 42.6374 488.301 42.6374C488.499 42.6374 488.685 42.6764 488.859 42.7544C489.033 42.8264 489.183 42.9254 489.309 43.0514C489.441 43.1774 489.546 43.3274 489.624 43.5014C489.702 43.6754 489.741 43.8614 489.741 44.0594ZM494.78 56.1284C493.976 56.1284 493.358 55.9034 492.926 55.4534C492.5 54.9974 492.287 54.3704 492.287 53.5724V48.4154H491.342C491.222 48.4154 491.12 48.3764 491.036 48.2984C490.952 48.2204 490.91 48.1034 490.91 47.9474V47.0654L492.395 46.8224L492.863 44.3024C492.893 44.1824 492.95 44.0894 493.034 44.0234C493.118 43.9574 493.226 43.9244 493.358 43.9244H494.51V46.8314H496.976V48.4154H494.51V53.4194C494.51 53.7074 494.579 53.9324 494.717 54.0944C494.861 54.2564 495.056 54.3374 495.302 54.3374C495.44 54.3374 495.554 54.3224 495.644 54.2924C495.74 54.2564 495.821 54.2204 495.887 54.1844C495.959 54.1484 496.022 54.1154 496.076 54.0854C496.13 54.0494 496.184 54.0314 496.238 54.0314C496.304 54.0314 496.358 54.0494 496.4 54.0854C496.442 54.1154 496.487 54.1634 496.535 54.2294L497.201 55.3094C496.877 55.5794 496.505 55.7834 496.085 55.9214C495.665 56.0594 495.23 56.1284 494.78 56.1284ZM506.787 46.7504L501.756 58.5224C501.69 58.6784 501.603 58.7954 501.495 58.8734C501.393 58.9574 501.234 58.9994 501.018 58.9994H499.362L501.09 55.2914L497.355 46.7504H499.308C499.482 46.7504 499.617 46.7924 499.713 46.8764C499.815 46.9604 499.89 47.0564 499.938 47.1644L501.9 51.9524C501.966 52.1144 502.02 52.2764 502.062 52.4384C502.11 52.6004 502.155 52.7654 502.197 52.9334C502.251 52.7654 502.305 52.6004 502.359 52.4384C502.413 52.2704 502.473 52.1054 502.539 51.9434L504.393 47.1644C504.441 47.0444 504.519 46.9454 504.627 46.8674C504.741 46.7894 504.867 46.7504 505.005 46.7504H506.787ZM506.917 54.7604C506.917 54.5744 506.95 54.3974 507.016 54.2294C507.088 54.0614 507.184 53.9174 507.304 53.7974C507.424 53.6774 507.568 53.5814 507.736 53.5094C507.904 53.4374 508.084 53.4014 508.276 53.4014C508.468 53.4014 508.645 53.4374 508.807 53.5094C508.975 53.5814 509.119 53.6774 509.239 53.7974C509.365 53.9174 509.464 54.0614 509.536 54.2294C509.608 54.3974 509.644 54.5744 509.644 54.7604C509.644 54.9524 509.608 55.1324 509.536 55.3004C509.464 55.4624 509.365 55.6034 509.239 55.7234C509.119 55.8434 508.975 55.9364 508.807 56.0024C508.645 56.0744 508.468 56.1104 508.276 56.1104C508.084 56.1104 507.904 56.0744 507.736 56.0024C507.568 55.9364 507.424 55.8434 507.304 55.7234C507.184 55.6034 507.088 55.4624 507.016 55.3004C506.95 55.1324 506.917 54.9524 506.917 54.7604Z" fill="#1A2BC3"/>
<path d="M237 99.7153C237 93.5126 242.028 88.4844 248.231 88.4844H285.769C291.972 88.4844 297 93.5126 297 99.7153V116.936C297 123.139 291.972 128.167 285.769 128.167H248.231C242.028 128.167 237 123.139 237 116.936V99.7153Z" fill="#1A2BC3"/>
<path d="M250.662 113.592V102.015H252.936L257.674 109.746V102.015H259.846V113.592H257.5L252.833 106.042V113.592H250.662ZM267.166 110.923L269.377 111.294C269.093 112.105 268.643 112.723 268.027 113.15C267.416 113.571 266.65 113.781 265.729 113.781C264.27 113.781 263.191 113.305 262.491 112.352C261.938 111.589 261.662 110.625 261.662 109.462C261.662 108.072 262.025 106.985 262.752 106.2C263.478 105.411 264.397 105.016 265.508 105.016C266.755 105.016 267.74 105.429 268.461 106.256C269.182 107.077 269.527 108.338 269.495 110.038H263.936C263.952 110.696 264.131 111.21 264.473 111.578C264.815 111.941 265.242 112.123 265.752 112.123C266.1 112.123 266.392 112.028 266.629 111.839C266.866 111.649 267.045 111.344 267.166 110.923ZM267.292 108.68C267.276 108.038 267.111 107.551 266.795 107.219C266.479 106.882 266.095 106.714 265.642 106.714C265.157 106.714 264.757 106.89 264.441 107.243C264.126 107.596 263.97 108.075 263.976 108.68H267.292ZM270.246 113.592L273.27 109.272L270.372 105.205H273.081L274.565 107.511L276.129 105.205H278.735L275.892 109.178L278.995 113.592H276.271L274.565 110.994L272.844 113.592H270.246ZM284.16 105.205V106.974H282.643V110.354C282.643 111.039 282.657 111.439 282.683 111.554C282.715 111.665 282.78 111.757 282.88 111.831C282.986 111.905 283.112 111.941 283.259 111.941C283.465 111.941 283.762 111.87 284.152 111.728L284.341 113.45C283.825 113.671 283.241 113.781 282.588 113.781C282.188 113.781 281.827 113.716 281.506 113.584C281.185 113.447 280.948 113.273 280.796 113.063C280.648 112.847 280.546 112.557 280.488 112.194C280.44 111.936 280.417 111.415 280.417 110.631V106.974H279.398V105.205H280.417V103.539L282.643 102.244V105.205H284.16Z" fill="#FAFAFA"/>
<path d="M700.45 154.436C712.572 143.416 693.733 111.61 685.124 105.756C706.613 104.378 723.084 92.5756 721.948 76.9479C720.227 53.27 683.862 60.5287 671.35 63.0541C679.614 55.478 694.394 15.5735 671.35 15.5738C654.986 15.574 641.919 34.5535 639.324 43.4251C638.492 46.2684 631.475 -1.47163 617.628 0.0349328C605.969 1.30348 607.162 33.4703 610.741 50.3125C610.741 50.3125 603.549 42.3946 591.004 34.1754C578.458 25.9561 563.318 28.9842 557.261 36.3383C551.205 43.6924 553.252 58.5682 566.215 67.8633C579.321 77.261 596.123 83.5212 595.589 83.7161C593.519 84.4719 577.878 88.2039 574.434 89.9257C565.349 94.4679 551.576 99.7864 554.666 114.205C557.261 126.317 582.656 127.473 590.768 123.318C586.768 129.351 575.261 147.485 584.947 158.329C598.23 173.199 622.45 131.239 622.45 131.239C622.45 131.239 628.476 165.436 639.324 161.304C650.171 157.171 652.983 137.208 652.754 127.451C658.79 140.972 688.328 165.456 700.45 154.436Z" fill="#FFC425"/>
<path d="M661.715 88.2477C661.646 87.1229 660.002 82.0147 654.465 81.5368C648.928 81.0589 645.247 84.0193 644.844 84.6738" stroke="black" stroke-width="2.59556" stroke-linecap="round"/>
<ellipse cx="9.81446" cy="11.5363" rx="9.81446" ry="11.5363" transform="matrix(-1 0 0 1 628.669 70.8906)" fill="#FDFCFC"/>
<circle cx="6.92151" cy="6.92151" r="6.92151" transform="matrix(-1 0 0 1 625.776 75.5059)" fill="black"/>
<path d="M645.71 100.794C645.308 102.171 640.519 105.057 633.165 104.192C625.811 103.327 621.829 98.6839 621.485 97.7656" stroke="black" stroke-width="2.59556" stroke-linecap="round"/>
<ellipse cx="605.278" cy="91.7103" rx="11.68" ry="11.2474" fill="url(#paint0_radial_1088_6031)"/>
<ellipse cx="660.65" cy="101.228" rx="11.68" ry="11.2474" fill="url(#paint1_radial_1088_6031)"/>
<path d="M539.135 69C547.908 86.0035 556.76 98.4411 581.738 93.5967" stroke="black" stroke-width="5" stroke-linecap="round"/>
<defs>
<radialGradient id="paint0_radial_1088_6031" cx="0" cy="0" r="1" gradientUnits="userSpaceOnUse" gradientTransform="translate(605.278 91.7103) rotate(90) scale(11.2474 11.68)">
<stop offset="0.0769231" stop-color="#FF6062"/>
<stop offset="1" stop-color="#D9D9D9" stop-opacity="0"/>
</radialGradient>
<radialGradient id="paint1_radial_1088_6031" cx="0" cy="0" r="1" gradientUnits="userSpaceOnUse" gradientTransform="translate(660.65 101.228) rotate(90) scale(11.2474 11.68)">
<stop offset="0.134615" stop-color="#FF6062"/>
<stop offset="1" stop-color="#D9D9D9" stop-opacity="0"/>
</radialGradient>
</defs>
</svg>
