<svg width="484" height="162" viewBox="0 0 484 162" fill="none" xmlns="http://www.w3.org/2000/svg">
<path d="M49.958 69.6389C51.9062 70.7638 53.5268 72.3779 54.6594 74.3216C55.7921 76.2652 56.3974 78.471 56.4156 80.7205C56.4338 82.9701 55.8641 85.1853 54.763 87.147C53.6619 89.1088 52.0676 90.7489 50.1379 91.9051C48.2081 93.0612 46.0099 93.6934 43.7607 93.7389C41.5116 93.7844 39.2896 93.2417 37.3146 92.1646C35.3396 91.0874 33.6803 89.5132 32.5007 87.5976C31.3211 85.6821 30.6623 83.4916 30.5895 81.2432L30.583 80.8247L30.5895 80.4062C30.6618 78.1755 31.3109 76.0016 32.4735 74.0964C33.6362 72.1913 35.2726 70.6199 37.2233 69.5354C39.1741 68.451 41.3725 67.8905 43.6043 67.9086C45.8361 67.9268 48.0252 68.5229 49.958 69.6389ZM48.2879 77.3282C48.0655 77.1058 47.7695 76.9722 47.4556 76.9525C47.1417 76.9327 46.8314 77.0282 46.5829 77.221L46.4615 77.3282L42.208 81.5804L40.5379 79.9115L40.4165 79.8043C40.1679 79.6117 39.8577 79.5163 39.5438 79.5361C39.23 79.5559 38.9342 79.6895 38.7118 79.9119C38.4895 80.1342 38.3558 80.43 38.336 80.7439C38.3162 81.0577 38.4116 81.368 38.6043 81.6165L38.7115 81.7379L41.2948 84.3213L41.4162 84.4285C41.6427 84.6042 41.9213 84.6996 42.208 84.6996C42.4947 84.6996 42.7733 84.6042 42.9998 84.4285L43.1212 84.3213L48.2879 79.1546L48.3951 79.0332C48.5879 78.7847 48.6834 78.4743 48.6636 78.1604C48.6439 77.8465 48.5103 77.5506 48.2879 77.3282Z" fill="#72AB00"/>
<path d="M74.679 81.3532C75.123 81.3532 75.51 81.2992 75.84 81.1912C76.17 81.0772 76.443 80.9182 76.659 80.7142C76.881 80.5042 77.046 80.2522 77.154 79.9582C77.262 79.6582 77.316 79.3252 77.316 78.9592C77.316 78.6112 77.262 78.2962 77.154 78.0142C77.046 77.7322 76.884 77.4922 76.668 77.2942C76.452 77.0962 76.179 76.9462 75.849 76.8442C75.519 76.7362 75.129 76.6822 74.679 76.6822H72.87V81.3532H74.679ZM74.679 74.8102C75.549 74.8102 76.302 74.9122 76.938 75.1162C77.574 75.3202 78.099 75.6052 78.513 75.9712C78.927 76.3372 79.233 76.7752 79.431 77.2852C79.635 77.7952 79.737 78.3532 79.737 78.9592C79.737 79.5892 79.632 80.1682 79.422 80.6962C79.212 81.2182 78.897 81.6682 78.477 82.0462C78.057 82.4242 77.529 82.7182 76.893 82.9282C76.263 83.1382 75.525 83.2432 74.679 83.2432H72.87V87.8242H70.449V74.8102H74.679ZM86.7697 82.1452C86.7697 81.8572 86.7277 81.5872 86.6437 81.3352C86.5657 81.0772 86.4457 80.8522 86.2837 80.6602C86.1217 80.4682 85.9147 80.3182 85.6627 80.2102C85.4167 80.0962 85.1287 80.0392 84.7987 80.0392C84.1567 80.0392 83.6497 80.2222 83.2777 80.5882C82.9117 80.9542 82.6777 81.4732 82.5757 82.1452H86.7697ZM82.5307 83.4862C82.5667 83.9602 82.6507 84.3712 82.7827 84.7192C82.9147 85.0612 83.0887 85.3462 83.3047 85.5742C83.5207 85.7962 83.7757 85.9642 84.0697 86.0782C84.3697 86.1862 84.6997 86.2402 85.0597 86.2402C85.4197 86.2402 85.7287 86.1982 85.9867 86.1142C86.2507 86.0302 86.4787 85.9372 86.6707 85.8352C86.8687 85.7332 87.0397 85.6402 87.1837 85.5562C87.3337 85.4722 87.4777 85.4302 87.6157 85.4302C87.8017 85.4302 87.9397 85.4992 88.0297 85.6372L88.6687 86.4472C88.4227 86.7352 88.1467 86.9782 87.8407 87.1762C87.5347 87.3682 87.2137 87.5242 86.8777 87.6442C86.5477 87.7582 86.2087 87.8392 85.8607 87.8872C85.5187 87.9352 85.1857 87.9592 84.8617 87.9592C84.2197 87.9592 83.6227 87.8542 83.0707 87.6442C82.5187 87.4282 82.0387 87.1132 81.6307 86.6992C81.2227 86.2792 80.9017 85.7632 80.6677 85.1512C80.4337 84.5332 80.3167 83.8192 80.3167 83.0092C80.3167 82.3792 80.4187 81.7882 80.6227 81.2362C80.8267 80.6782 81.1177 80.1952 81.4957 79.7872C81.8797 79.3732 82.3447 79.0462 82.8907 78.8062C83.4427 78.5662 84.0637 78.4462 84.7537 78.4462C85.3357 78.4462 85.8727 78.5392 86.3647 78.7252C86.8567 78.9112 87.2797 79.1842 87.6337 79.5442C87.9877 79.8982 88.2637 80.3362 88.4617 80.8582C88.6657 81.3742 88.7677 81.9652 88.7677 82.6312C88.7677 82.9672 88.7317 83.1952 88.6597 83.3152C88.5877 83.4292 88.4497 83.4862 88.2457 83.4862H82.5307ZM92.5329 80.1922C92.8209 79.6402 93.1629 79.2082 93.5589 78.8962C93.9549 78.5782 94.4229 78.4192 94.9629 78.4192C95.3889 78.4192 95.7309 78.5122 95.9889 78.6982L95.8449 80.3632C95.8149 80.4712 95.7699 80.5492 95.7099 80.5972C95.6559 80.6392 95.5809 80.6602 95.4849 80.6602C95.3949 80.6602 95.2599 80.6452 95.0799 80.6152C94.9059 80.5852 94.7349 80.5702 94.5669 80.5702C94.3209 80.5702 94.1019 80.6062 93.9099 80.6782C93.7179 80.7502 93.5439 80.8552 93.3879 80.9932C93.2379 81.1252 93.1029 81.2872 92.9829 81.4792C92.8689 81.6712 92.7609 81.8902 92.6589 82.1362V87.8242H90.4359V78.5902H91.7409C91.9689 78.5902 92.1279 78.6322 92.2179 78.7162C92.3079 78.7942 92.3679 78.9382 92.3979 79.1482L92.5329 80.1922ZM97.7987 87.8242V80.2642L96.9977 80.1382C96.8237 80.1022 96.6827 80.0422 96.5747 79.9582C96.4727 79.8682 96.4217 79.7422 96.4217 79.5802V78.6712H97.7987V77.9872C97.7987 77.4592 97.8767 76.9852 98.0327 76.5652C98.1947 76.1452 98.4227 75.7882 98.7167 75.4942C99.0167 75.2002 99.3797 74.9752 99.8057 74.8192C100.232 74.6632 100.712 74.5852 101.246 74.5852C101.672 74.5852 102.068 74.6422 102.434 74.7562L102.389 75.8722C102.383 75.9562 102.359 76.0252 102.317 76.0792C102.275 76.1272 102.218 76.1662 102.146 76.1962C102.08 76.2202 102.002 76.2382 101.912 76.2502C101.822 76.2562 101.726 76.2592 101.624 76.2592C101.36 76.2592 101.123 76.2892 100.913 76.3492C100.709 76.4032 100.535 76.5022 100.391 76.6462C100.247 76.7842 100.136 76.9702 100.058 77.2042C99.9857 77.4322 99.9497 77.7172 99.9497 78.0592V78.6712H102.353V80.2552H100.022V87.8242H97.7987ZM109.305 82.1452C109.305 81.8572 109.263 81.5872 109.179 81.3352C109.101 81.0772 108.981 80.8522 108.819 80.6602C108.657 80.4682 108.45 80.3182 108.198 80.2102C107.952 80.0962 107.664 80.0392 107.334 80.0392C106.692 80.0392 106.185 80.2222 105.813 80.5882C105.447 80.9542 105.213 81.4732 105.111 82.1452H109.305ZM105.066 83.4862C105.102 83.9602 105.186 84.3712 105.318 84.7192C105.45 85.0612 105.624 85.3462 105.84 85.5742C106.056 85.7962 106.311 85.9642 106.605 86.0782C106.905 86.1862 107.235 86.2402 107.595 86.2402C107.955 86.2402 108.264 86.1982 108.522 86.1142C108.786 86.0302 109.014 85.9372 109.206 85.8352C109.404 85.7332 109.575 85.6402 109.719 85.5562C109.869 85.4722 110.013 85.4302 110.151 85.4302C110.337 85.4302 110.475 85.4992 110.565 85.6372L111.204 86.4472C110.958 86.7352 110.682 86.9782 110.376 87.1762C110.07 87.3682 109.749 87.5242 109.413 87.6442C109.083 87.7582 108.744 87.8392 108.396 87.8872C108.054 87.9352 107.721 87.9592 107.397 87.9592C106.755 87.9592 106.158 87.8542 105.606 87.6442C105.054 87.4282 104.574 87.1132 104.166 86.6992C103.758 86.2792 103.437 85.7632 103.203 85.1512C102.969 84.5332 102.852 83.8192 102.852 83.0092C102.852 82.3792 102.954 81.7882 103.158 81.2362C103.362 80.6782 103.653 80.1952 104.031 79.7872C104.415 79.3732 104.88 79.0462 105.426 78.8062C105.978 78.5662 106.599 78.4462 107.289 78.4462C107.871 78.4462 108.408 78.5392 108.9 78.7252C109.392 78.9112 109.815 79.1842 110.169 79.5442C110.523 79.8982 110.799 80.3362 110.997 80.8582C111.201 81.3742 111.303 81.9652 111.303 82.6312C111.303 82.9672 111.267 83.1952 111.195 83.3152C111.123 83.4292 110.985 83.4862 110.781 83.4862H105.066ZM119.586 80.5432C119.52 80.6272 119.454 80.6932 119.388 80.7412C119.328 80.7892 119.238 80.8132 119.118 80.8132C119.004 80.8132 118.893 80.7802 118.785 80.7142C118.677 80.6422 118.548 80.5642 118.398 80.4802C118.248 80.3902 118.068 80.3122 117.858 80.2462C117.654 80.1742 117.399 80.1382 117.093 80.1382C116.703 80.1382 116.361 80.2102 116.067 80.3542C115.773 80.4922 115.527 80.6932 115.329 80.9572C115.137 81.2212 114.993 81.5422 114.897 81.9202C114.801 82.2922 114.753 82.7152 114.753 83.1892C114.753 83.6812 114.804 84.1192 114.906 84.5032C115.014 84.8872 115.167 85.2112 115.365 85.4752C115.563 85.7332 115.803 85.9312 116.085 86.0692C116.367 86.2012 116.685 86.2672 117.039 86.2672C117.393 86.2672 117.678 86.2252 117.894 86.1412C118.116 86.0512 118.302 85.9552 118.452 85.8532C118.602 85.7452 118.731 85.6492 118.839 85.5652C118.953 85.4752 119.079 85.4302 119.217 85.4302C119.397 85.4302 119.532 85.4992 119.622 85.6372L120.261 86.4472C120.015 86.7352 119.748 86.9782 119.46 87.1762C119.172 87.3682 118.872 87.5242 118.56 87.6442C118.254 87.7582 117.936 87.8392 117.606 87.8872C117.282 87.9352 116.958 87.9592 116.634 87.9592C116.064 87.9592 115.527 87.8542 115.023 87.6442C114.519 87.4282 114.078 87.1162 113.7 86.7082C113.322 86.3002 113.022 85.8022 112.8 85.2142C112.584 84.6202 112.476 83.9452 112.476 83.1892C112.476 82.5112 112.572 81.8842 112.764 81.3082C112.962 80.7262 113.25 80.2252 113.628 79.8052C114.006 79.3792 114.474 79.0462 115.032 78.8062C115.59 78.5662 116.232 78.4462 116.958 78.4462C117.648 78.4462 118.251 78.5572 118.767 78.7792C119.289 79.0012 119.757 79.3192 120.171 79.7332L119.586 80.5432ZM124.733 87.9682C123.929 87.9682 123.311 87.7432 122.879 87.2932C122.453 86.8372 122.24 86.2102 122.24 85.4122V80.2552H121.295C121.175 80.2552 121.073 80.2162 120.989 80.1382C120.905 80.0602 120.863 79.9432 120.863 79.7872V78.9052L122.348 78.6622L122.816 76.1422C122.846 76.0222 122.903 75.9292 122.987 75.8632C123.071 75.7972 123.179 75.7642 123.311 75.7642H124.463V78.6712H126.929V80.2552H124.463V85.2592C124.463 85.5472 124.532 85.7722 124.67 85.9342C124.814 86.0962 125.009 86.1772 125.255 86.1772C125.393 86.1772 125.507 86.1622 125.597 86.1322C125.693 86.0962 125.774 86.0602 125.84 86.0242C125.912 85.9882 125.975 85.9552 126.029 85.9252C126.083 85.8892 126.137 85.8712 126.191 85.8712C126.257 85.8712 126.311 85.8892 126.353 85.9252C126.395 85.9552 126.44 86.0032 126.488 86.0692L127.154 87.1492C126.83 87.4192 126.458 87.6232 126.038 87.7612C125.618 87.8992 125.183 87.9682 124.733 87.9682ZM130.836 74.8102V79.9582C130.836 80.5042 130.809 81.0412 130.755 81.5692C130.701 82.0912 130.632 82.6462 130.548 83.2342H129.036C128.952 82.6462 128.883 82.0912 128.829 81.5692C128.775 81.0412 128.748 80.5042 128.748 79.9582V74.8102H130.836ZM128.397 86.6002C128.397 86.4142 128.43 86.2372 128.496 86.0692C128.568 85.9012 128.664 85.7572 128.784 85.6372C128.91 85.5172 129.057 85.4212 129.225 85.3492C129.393 85.2772 129.573 85.2412 129.765 85.2412C129.951 85.2412 130.128 85.2772 130.296 85.3492C130.464 85.4212 130.608 85.5172 130.728 85.6372C130.854 85.7572 130.953 85.9012 131.025 86.0692C131.097 86.2372 131.133 86.4142 131.133 86.6002C131.133 86.7922 131.097 86.9722 131.025 87.1402C130.953 87.3022 130.854 87.4432 130.728 87.5632C130.608 87.6832 130.464 87.7762 130.296 87.8422C130.128 87.9142 129.951 87.9502 129.765 87.9502C129.573 87.9502 129.393 87.9142 129.225 87.8422C129.057 87.7762 128.91 87.6832 128.784 87.5632C128.664 87.4432 128.568 87.3022 128.496 87.1402C128.43 86.9722 128.397 86.7922 128.397 86.6002ZM150.607 78.5902L147.673 87.8242H145.891C145.687 87.8242 145.546 87.6922 145.468 87.4282L143.812 82.0912C143.758 81.9112 143.707 81.7342 143.659 81.5602C143.617 81.3802 143.581 81.2002 143.551 81.0202C143.515 81.2002 143.473 81.3832 143.425 81.5692C143.383 81.7492 143.335 81.9292 143.281 82.1092L141.598 87.4282C141.526 87.6922 141.367 87.8242 141.121 87.8242H139.411L136.486 78.5902H138.259C138.421 78.5902 138.559 78.6292 138.673 78.7072C138.787 78.7852 138.862 78.8842 138.898 79.0042L140.221 83.9362C140.287 84.2062 140.344 84.4702 140.392 84.7282C140.446 84.9862 140.491 85.2442 140.527 85.5022C140.593 85.2442 140.662 84.9862 140.734 84.7282C140.812 84.4702 140.893 84.2062 140.977 83.9362L142.507 78.9862C142.543 78.8662 142.612 78.7672 142.714 78.6892C142.822 78.6112 142.951 78.5722 143.101 78.5722H144.082C144.238 78.5722 144.37 78.6112 144.478 78.6892C144.592 78.7672 144.667 78.8662 144.703 78.9862L146.188 83.9362C146.266 84.2062 146.338 84.4732 146.404 84.7372C146.476 84.9952 146.545 85.2532 146.611 85.5112C146.689 85.0012 146.8 84.4762 146.944 83.9362L148.303 79.0042C148.345 78.8842 148.42 78.7852 148.528 78.7072C148.636 78.6292 148.765 78.5902 148.915 78.5902H150.607ZM157.662 82.1452C157.662 81.8572 157.62 81.5872 157.536 81.3352C157.458 81.0772 157.338 80.8522 157.176 80.6602C157.014 80.4682 156.807 80.3182 156.555 80.2102C156.309 80.0962 156.021 80.0392 155.691 80.0392C155.049 80.0392 154.542 80.2222 154.17 80.5882C153.804 80.9542 153.57 81.4732 153.468 82.1452H157.662ZM153.423 83.4862C153.459 83.9602 153.543 84.3712 153.675 84.7192C153.807 85.0612 153.981 85.3462 154.197 85.5742C154.413 85.7962 154.668 85.9642 154.962 86.0782C155.262 86.1862 155.592 86.2402 155.952 86.2402C156.312 86.2402 156.621 86.1982 156.879 86.1142C157.143 86.0302 157.371 85.9372 157.563 85.8352C157.761 85.7332 157.932 85.6402 158.076 85.5562C158.226 85.4722 158.37 85.4302 158.508 85.4302C158.694 85.4302 158.832 85.4992 158.922 85.6372L159.561 86.4472C159.315 86.7352 159.039 86.9782 158.733 87.1762C158.427 87.3682 158.106 87.5242 157.77 87.6442C157.44 87.7582 157.101 87.8392 156.753 87.8872C156.411 87.9352 156.078 87.9592 155.754 87.9592C155.112 87.9592 154.515 87.8542 153.963 87.6442C153.411 87.4282 152.931 87.1132 152.523 86.6992C152.115 86.2792 151.794 85.7632 151.56 85.1512C151.326 84.5332 151.209 83.8192 151.209 83.0092C151.209 82.3792 151.311 81.7882 151.515 81.2362C151.719 80.6782 152.01 80.1952 152.388 79.7872C152.772 79.3732 153.237 79.0462 153.783 78.8062C154.335 78.5662 154.956 78.4462 155.646 78.4462C156.228 78.4462 156.765 78.5392 157.257 78.7252C157.749 78.9112 158.172 79.1842 158.526 79.5442C158.88 79.8982 159.156 80.3362 159.354 80.8582C159.558 81.3742 159.66 81.9652 159.66 82.6312C159.66 82.9672 159.624 83.1952 159.552 83.3152C159.48 83.4292 159.342 83.4862 159.138 83.4862H153.423ZM162.75 74.8102V77.4022L162.552 78.8062C162.504 79.0702 162.426 79.2742 162.318 79.4182C162.21 79.5562 162.03 79.6252 161.778 79.6252C161.556 79.6252 161.385 79.5562 161.265 79.4182C161.145 79.2742 161.061 79.0702 161.013 78.8062L160.815 77.4022V74.8102H162.75ZM173.116 78.5902L169.453 87.8242H167.437L163.774 78.5902H165.61C165.778 78.5902 165.916 78.6292 166.024 78.7072C166.138 78.7852 166.213 78.8842 166.249 79.0042L168.031 83.9362C168.127 84.2242 168.211 84.5062 168.283 84.7822C168.355 85.0582 168.418 85.3342 168.472 85.6102C168.532 85.3342 168.598 85.0582 168.67 84.7822C168.742 84.5062 168.829 84.2242 168.931 83.9362L170.749 79.0042C170.791 78.8842 170.866 78.7852 170.974 78.7072C171.082 78.6292 171.211 78.5902 171.361 78.5902H173.116ZM179.969 82.1452C179.969 81.8572 179.927 81.5872 179.843 81.3352C179.765 81.0772 179.645 80.8522 179.483 80.6602C179.321 80.4682 179.114 80.3182 178.862 80.2102C178.616 80.0962 178.328 80.0392 177.998 80.0392C177.356 80.0392 176.849 80.2222 176.477 80.5882C176.111 80.9542 175.877 81.4732 175.775 82.1452H179.969ZM175.73 83.4862C175.766 83.9602 175.85 84.3712 175.982 84.7192C176.114 85.0612 176.288 85.3462 176.504 85.5742C176.72 85.7962 176.975 85.9642 177.269 86.0782C177.569 86.1862 177.899 86.2402 178.259 86.2402C178.619 86.2402 178.928 86.1982 179.186 86.1142C179.45 86.0302 179.678 85.9372 179.87 85.8352C180.068 85.7332 180.239 85.6402 180.383 85.5562C180.533 85.4722 180.677 85.4302 180.815 85.4302C181.001 85.4302 181.139 85.4992 181.229 85.6372L181.868 86.4472C181.622 86.7352 181.346 86.9782 181.04 87.1762C180.734 87.3682 180.413 87.5242 180.077 87.6442C179.747 87.7582 179.408 87.8392 179.06 87.8872C178.718 87.9352 178.385 87.9592 178.061 87.9592C177.419 87.9592 176.822 87.8542 176.27 87.6442C175.718 87.4282 175.238 87.1132 174.83 86.6992C174.422 86.2792 174.101 85.7632 173.867 85.1512C173.633 84.5332 173.516 83.8192 173.516 83.0092C173.516 82.3792 173.618 81.7882 173.822 81.2362C174.026 80.6782 174.317 80.1952 174.695 79.7872C175.079 79.3732 175.544 79.0462 176.09 78.8062C176.642 78.5662 177.263 78.4462 177.953 78.4462C178.535 78.4462 179.072 78.5392 179.564 78.7252C180.056 78.9112 180.479 79.1842 180.833 79.5442C181.187 79.8982 181.463 80.3362 181.661 80.8582C181.865 81.3742 181.967 81.9652 181.967 82.6312C181.967 82.9672 181.931 83.1952 181.859 83.3152C181.787 83.4292 181.649 83.4862 181.445 83.4862H175.73ZM195.986 85.8262V87.8242H188.363V74.8102H190.784V85.8262H195.986ZM200.145 76.7362V80.3452H204.699V82.2082H200.145V85.8892H205.923V87.8242H197.715V74.8102H205.923V76.7362H200.145ZM219.624 81.3172C219.624 82.2712 219.465 83.1472 219.147 83.9452C218.829 84.7432 218.382 85.4302 217.806 86.0062C217.23 86.5822 216.537 87.0292 215.727 87.3472C214.917 87.6652 214.017 87.8242 213.027 87.8242H208.068V74.8102H213.027C214.017 74.8102 214.917 74.9722 215.727 75.2962C216.537 75.6142 217.23 76.0612 217.806 76.6372C218.382 77.2072 218.829 77.8912 219.147 78.6892C219.465 79.4872 219.624 80.3632 219.624 81.3172ZM217.14 81.3172C217.14 80.6032 217.044 79.9642 216.852 79.4002C216.666 78.8302 216.393 78.3502 216.033 77.9602C215.679 77.5642 215.247 77.2612 214.737 77.0512C214.233 76.8412 213.663 76.7362 213.027 76.7362H210.498V85.8982H213.027C213.663 85.8982 214.233 85.7932 214.737 85.5832C215.247 85.3732 215.679 85.0732 216.033 84.6832C216.393 84.2872 216.666 83.8072 216.852 83.2432C217.044 82.6732 217.14 82.0312 217.14 81.3172ZM227.866 79.7242C228.052 79.5382 228.247 79.3672 228.451 79.2112C228.661 79.0492 228.88 78.9142 229.108 78.8062C229.342 78.6922 229.591 78.6052 229.855 78.5452C230.119 78.4792 230.407 78.4462 230.719 78.4462C231.223 78.4462 231.67 78.5332 232.06 78.7072C232.45 78.8752 232.774 79.1152 233.032 79.4272C233.296 79.7332 233.494 80.1022 233.626 80.5342C233.764 80.9602 233.833 81.4312 233.833 81.9472V87.8242H231.61V81.9472C231.61 81.3832 231.481 80.9482 231.223 80.6422C230.965 80.3302 230.572 80.1742 230.044 80.1742C229.66 80.1742 229.3 80.2612 228.964 80.4352C228.628 80.6092 228.31 80.8462 228.01 81.1462V87.8242H225.787V78.5902H227.146C227.434 78.5902 227.623 78.7252 227.713 78.9952L227.866 79.7242ZM240.034 78.4462C240.718 78.4462 241.339 78.5572 241.897 78.7792C242.461 79.0012 242.941 79.3162 243.337 79.7242C243.739 80.1322 244.048 80.6302 244.264 81.2182C244.48 81.8062 244.588 82.4632 244.588 83.1892C244.588 83.9212 244.48 84.5812 244.264 85.1692C244.048 85.7572 243.739 86.2582 243.337 86.6722C242.941 87.0862 242.461 87.4042 241.897 87.6262C241.339 87.8482 240.718 87.9592 240.034 87.9592C239.344 87.9592 238.717 87.8482 238.153 87.6262C237.589 87.4042 237.106 87.0862 236.704 86.6722C236.308 86.2582 235.999 85.7572 235.777 85.1692C235.561 84.5812 235.453 83.9212 235.453 83.1892C235.453 82.4632 235.561 81.8062 235.777 81.2182C235.999 80.6302 236.308 80.1322 236.704 79.7242C237.106 79.3162 237.589 79.0012 238.153 78.7792C238.717 78.5572 239.344 78.4462 240.034 78.4462ZM240.034 86.2492C240.802 86.2492 241.369 85.9912 241.735 85.4752C242.107 84.9592 242.293 84.2032 242.293 83.2072C242.293 82.2112 242.107 81.4522 241.735 80.9302C241.369 80.4082 240.802 80.1472 240.034 80.1472C239.254 80.1472 238.675 80.4112 238.297 80.9392C237.925 81.4612 237.739 82.2172 237.739 83.2072C237.739 84.1972 237.925 84.9532 238.297 85.4752C238.675 85.9912 239.254 86.2492 240.034 86.2492ZM259.31 78.5902L256.376 87.8242H254.594C254.39 87.8242 254.249 87.6922 254.171 87.4282L252.515 82.0912C252.461 81.9112 252.41 81.7342 252.362 81.5602C252.32 81.3802 252.284 81.2002 252.254 81.0202C252.218 81.2002 252.176 81.3832 252.128 81.5692C252.086 81.7492 252.038 81.9292 251.984 82.1092L250.301 87.4282C250.229 87.6922 250.07 87.8242 249.824 87.8242H248.114L245.189 78.5902H246.962C247.124 78.5902 247.262 78.6292 247.376 78.7072C247.49 78.7852 247.565 78.8842 247.601 79.0042L248.924 83.9362C248.99 84.2062 249.047 84.4702 249.095 84.7282C249.149 84.9862 249.194 85.2442 249.23 85.5022C249.296 85.2442 249.365 84.9862 249.437 84.7282C249.515 84.4702 249.596 84.2062 249.68 83.9362L251.21 78.9862C251.246 78.8662 251.315 78.7672 251.417 78.6892C251.525 78.6112 251.654 78.5722 251.804 78.5722H252.785C252.941 78.5722 253.073 78.6112 253.181 78.6892C253.295 78.7672 253.37 78.8662 253.406 78.9862L254.891 83.9362C254.969 84.2062 255.041 84.4732 255.107 84.7372C255.179 84.9952 255.248 85.2532 255.314 85.5112C255.392 85.0012 255.503 84.4762 255.647 83.9362L257.006 79.0042C257.048 78.8842 257.123 78.7852 257.231 78.7072C257.339 78.6292 257.468 78.5902 257.618 78.5902H259.31ZM259.864 86.6002C259.864 86.4142 259.897 86.2372 259.963 86.0692C260.035 85.9012 260.131 85.7572 260.251 85.6372C260.371 85.5172 260.515 85.4212 260.683 85.3492C260.851 85.2772 261.031 85.2412 261.223 85.2412C261.415 85.2412 261.592 85.2772 261.754 85.3492C261.922 85.4212 262.066 85.5172 262.186 85.6372C262.312 85.7572 262.411 85.9012 262.483 86.0692C262.555 86.2372 262.591 86.4142 262.591 86.6002C262.591 86.7922 262.555 86.9722 262.483 87.1402C262.411 87.3022 262.312 87.4432 262.186 87.5632C262.066 87.6832 261.922 87.7762 261.754 87.8422C261.592 87.9142 261.415 87.9502 261.223 87.9502C261.031 87.9502 260.851 87.9142 260.683 87.8422C260.515 87.7762 260.371 87.6832 260.251 87.5632C260.131 87.4432 260.035 87.3022 259.963 87.1402C259.897 86.9722 259.864 86.7922 259.864 86.6002Z" fill="#1A2BC3"/>
<path d="M462.449 154.436C474.571 143.416 455.732 111.61 447.123 105.756C468.612 104.378 485.083 92.5756 483.947 76.9479C482.226 53.27 445.861 60.5287 433.349 63.0541C441.613 55.478 456.393 15.5735 433.349 15.5738C416.985 15.574 403.918 34.5535 401.323 43.4251C400.491 46.2684 393.474 -1.47163 379.627 0.0349328C367.968 1.30348 369.161 33.4703 372.74 50.3125C372.74 50.3125 365.548 42.3946 353.003 34.1754C340.457 25.9561 325.317 28.9842 319.26 36.3383C313.204 43.6924 315.251 58.5682 328.214 67.8633C341.32 77.261 358.122 83.5212 357.588 83.7161C355.518 84.4719 339.877 88.2039 336.433 89.9257C327.348 94.4679 313.575 99.7864 316.665 114.205C319.26 126.317 344.655 127.473 352.767 123.318C348.767 129.351 337.26 147.485 346.946 158.329C360.229 173.199 384.449 131.239 384.449 131.239C384.449 131.239 390.475 165.436 401.323 161.304C412.17 157.171 414.982 137.208 414.753 127.451C420.789 140.972 450.327 165.456 462.449 154.436Z" fill="#FFC425"/>
<path d="M423.714 88.2477C423.645 87.1229 422.001 82.0147 416.464 81.5368C410.927 81.0589 407.246 84.0193 406.843 84.6738" stroke="black" stroke-width="2.59556" stroke-linecap="round"/>
<ellipse cx="9.81446" cy="11.5363" rx="9.81446" ry="11.5363" transform="matrix(-1 0 0 1 390.669 70.8906)" fill="#FDFCFC"/>
<circle cx="6.92151" cy="6.92151" r="6.92151" transform="matrix(-1 0 0 1 387.776 75.5059)" fill="black"/>
<path d="M407.709 100.794C407.307 102.171 402.518 105.057 395.164 104.192C387.81 103.327 383.828 98.6839 383.484 97.7656" stroke="black" stroke-width="2.59556" stroke-linecap="round"/>
<ellipse cx="367.278" cy="91.7103" rx="11.68" ry="11.2474" fill="url(#paint0_radial_1086_3165)"/>
<ellipse cx="422.65" cy="101.228" rx="11.68" ry="11.2474" fill="url(#paint1_radial_1086_3165)"/>
<path d="M297.135 73C305.908 90.0035 314.76 102.441 339.738 97.5967" stroke="black" stroke-width="5" stroke-linecap="round"/>
<defs>
<radialGradient id="paint0_radial_1086_3165" cx="0" cy="0" r="1" gradientUnits="userSpaceOnUse" gradientTransform="translate(367.278 91.7103) rotate(90) scale(11.2474 11.68)">
<stop offset="0.0769231" stop-color="#FF6062"/>
<stop offset="1" stop-color="#D9D9D9" stop-opacity="0"/>
</radialGradient>
<radialGradient id="paint1_radial_1086_3165" cx="0" cy="0" r="1" gradientUnits="userSpaceOnUse" gradientTransform="translate(422.65 101.228) rotate(90) scale(11.2474 11.68)">
<stop offset="0.134615" stop-color="#FF6062"/>
<stop offset="1" stop-color="#D9D9D9" stop-opacity="0"/>
</radialGradient>
</defs>
</svg>
