<svg width="644" height="162" viewBox="0 0 644 162" fill="none" xmlns="http://www.w3.org/2000/svg">
<path d="M49.958 69.6389C51.9062 70.7638 53.5268 72.3779 54.6594 74.3216C55.7921 76.2652 56.3974 78.471 56.4156 80.7205C56.4338 82.9701 55.8641 85.1853 54.763 87.147C53.6619 89.1088 52.0676 90.7489 50.1379 91.9051C48.2081 93.0612 46.0099 93.6934 43.7607 93.7389C41.5116 93.7844 39.2896 93.2417 37.3146 92.1646C35.3396 91.0874 33.6803 89.5132 32.5007 87.5976C31.3211 85.6821 30.6623 83.4916 30.5895 81.2432L30.583 80.8247L30.5895 80.4062C30.6618 78.1755 31.3109 76.0016 32.4735 74.0964C33.6362 72.1913 35.2726 70.6199 37.2233 69.5354C39.1741 68.451 41.3725 67.8905 43.6043 67.9086C45.8361 67.9268 48.0252 68.5229 49.958 69.6389ZM48.2879 77.3282C48.0655 77.1058 47.7695 76.9722 47.4556 76.9525C47.1417 76.9327 46.8314 77.0282 46.5829 77.221L46.4615 77.3282L42.208 81.5804L40.5379 79.9115L40.4165 79.8043C40.1679 79.6117 39.8577 79.5163 39.5438 79.5361C39.23 79.5559 38.9342 79.6895 38.7118 79.9119C38.4895 80.1342 38.3558 80.43 38.336 80.7439C38.3162 81.0577 38.4116 81.368 38.6043 81.6165L38.7115 81.7379L41.2948 84.3213L41.4162 84.4285C41.6427 84.6042 41.9213 84.6996 42.208 84.6996C42.4947 84.6996 42.7733 84.6042 42.9998 84.4285L43.1212 84.3213L48.2879 79.1546L48.3951 79.0332C48.5879 78.7847 48.6834 78.4743 48.6636 78.1604C48.6439 77.8465 48.5103 77.5506 48.2879 77.3282Z" fill="#72AB00"/>
<path d="M87.765 74.8102L83.724 87.8242H81.537L78.693 78.9322C78.615 78.7162 78.543 78.4522 78.477 78.1402C78.441 78.2902 78.405 78.4312 78.369 78.5632C78.333 78.6952 78.294 78.8182 78.252 78.9322L75.381 87.8242H73.185L69.153 74.8102H71.178C71.388 74.8102 71.562 74.8612 71.7 74.9632C71.844 75.0592 71.94 75.1912 71.988 75.3592L74.202 83.1442C74.25 83.3362 74.295 83.5462 74.337 83.7742C74.385 83.9962 74.433 84.2302 74.481 84.4762C74.529 84.2242 74.58 83.9872 74.634 83.7652C74.694 83.5432 74.757 83.3362 74.823 83.1442L77.379 75.3592C77.427 75.2212 77.52 75.0952 77.658 74.9812C77.802 74.8672 77.976 74.8102 78.18 74.8102H78.891C79.101 74.8102 79.272 74.8612 79.404 74.9632C79.536 75.0652 79.635 75.1972 79.701 75.3592L82.248 83.1442C82.374 83.5162 82.488 83.9452 82.59 84.4312C82.668 83.9572 82.755 83.5282 82.851 83.1442L85.065 75.3592C85.101 75.2092 85.191 75.0802 85.335 74.9722C85.485 74.8642 85.662 74.8102 85.866 74.8102H87.765ZM92.0082 78.4462C92.6922 78.4462 93.3132 78.5572 93.8712 78.7792C94.4352 79.0012 94.9152 79.3162 95.3112 79.7242C95.7132 80.1322 96.0222 80.6302 96.2382 81.2182C96.4542 81.8062 96.5622 82.4632 96.5622 83.1892C96.5622 83.9212 96.4542 84.5812 96.2382 85.1692C96.0222 85.7572 95.7132 86.2582 95.3112 86.6722C94.9152 87.0862 94.4352 87.4042 93.8712 87.6262C93.3132 87.8482 92.6922 87.9592 92.0082 87.9592C91.3182 87.9592 90.6912 87.8482 90.1272 87.6262C89.5632 87.4042 89.0802 87.0862 88.6782 86.6722C88.2822 86.2582 87.9732 85.7572 87.7512 85.1692C87.5352 84.5812 87.4272 83.9212 87.4272 83.1892C87.4272 82.4632 87.5352 81.8062 87.7512 81.2182C87.9732 80.6302 88.2822 80.1322 88.6782 79.7242C89.0802 79.3162 89.5632 79.0012 90.1272 78.7792C90.6912 78.5572 91.3182 78.4462 92.0082 78.4462ZM92.0082 86.2492C92.7762 86.2492 93.3432 85.9912 93.7092 85.4752C94.0812 84.9592 94.2672 84.2032 94.2672 83.2072C94.2672 82.2112 94.0812 81.4522 93.7092 80.9302C93.3432 80.4082 92.7762 80.1472 92.0082 80.1472C91.2282 80.1472 90.6492 80.4112 90.2712 80.9392C89.8992 81.4612 89.7132 82.2172 89.7132 83.2072C89.7132 84.1972 89.8992 84.9532 90.2712 85.4752C90.6492 85.9912 91.2282 86.2492 92.0082 86.2492ZM111.285 78.5902L108.351 87.8242H106.569C106.365 87.8242 106.224 87.6922 106.146 87.4282L104.49 82.0912C104.436 81.9112 104.385 81.7342 104.337 81.5602C104.295 81.3802 104.259 81.2002 104.229 81.0202C104.193 81.2002 104.151 81.3832 104.103 81.5692C104.061 81.7492 104.013 81.9292 103.959 82.1092L102.276 87.4282C102.204 87.6922 102.045 87.8242 101.799 87.8242H100.089L97.164 78.5902H98.937C99.099 78.5902 99.237 78.6292 99.351 78.7072C99.465 78.7852 99.54 78.8842 99.576 79.0042L100.899 83.9362C100.965 84.2062 101.022 84.4702 101.07 84.7282C101.124 84.9862 101.169 85.2442 101.205 85.5022C101.271 85.2442 101.34 84.9862 101.412 84.7282C101.49 84.4702 101.571 84.2062 101.655 83.9362L103.185 78.9862C103.221 78.8662 103.29 78.7672 103.392 78.6892C103.5 78.6112 103.629 78.5722 103.779 78.5722H104.76C104.916 78.5722 105.048 78.6112 105.156 78.6892C105.27 78.7672 105.345 78.8662 105.381 78.9862L106.866 83.9362C106.944 84.2062 107.016 84.4732 107.082 84.7372C107.154 84.9952 107.223 85.2532 107.289 85.5112C107.367 85.0012 107.478 84.4762 107.622 83.9362L108.981 79.0042C109.023 78.8842 109.098 78.7852 109.206 78.7072C109.314 78.6292 109.443 78.5902 109.593 78.5902H111.285ZM115.033 74.8102V79.9582C115.033 80.5042 115.006 81.0412 114.952 81.5692C114.898 82.0912 114.829 82.6462 114.745 83.2342H113.233C113.149 82.6462 113.08 82.0912 113.026 81.5692C112.972 81.0412 112.945 80.5042 112.945 79.9582V74.8102H115.033ZM112.594 86.6002C112.594 86.4142 112.627 86.2372 112.693 86.0692C112.765 85.9012 112.861 85.7572 112.981 85.6372C113.107 85.5172 113.254 85.4212 113.422 85.3492C113.59 85.2772 113.77 85.2412 113.962 85.2412C114.148 85.2412 114.325 85.2772 114.493 85.3492C114.661 85.4212 114.805 85.5172 114.925 85.6372C115.051 85.7572 115.15 85.9012 115.222 86.0692C115.294 86.2372 115.33 86.4142 115.33 86.6002C115.33 86.7922 115.294 86.9722 115.222 87.1402C115.15 87.3022 115.051 87.4432 114.925 87.5632C114.805 87.6832 114.661 87.7762 114.493 87.8422C114.325 87.9142 114.148 87.9502 113.962 87.9502C113.77 87.9502 113.59 87.9142 113.422 87.8422C113.254 87.7762 113.107 87.6832 112.981 87.5632C112.861 87.4432 112.765 87.3022 112.693 87.1402C112.627 86.9722 112.594 86.7922 112.594 86.6002ZM134.804 78.5902L131.87 87.8242H130.088C129.884 87.8242 129.743 87.6922 129.665 87.4282L128.009 82.0912C127.955 81.9112 127.904 81.7342 127.856 81.5602C127.814 81.3802 127.778 81.2002 127.748 81.0202C127.712 81.2002 127.67 81.3832 127.622 81.5692C127.58 81.7492 127.532 81.9292 127.478 82.1092L125.795 87.4282C125.723 87.6922 125.564 87.8242 125.318 87.8242H123.608L120.683 78.5902H122.456C122.618 78.5902 122.756 78.6292 122.87 78.7072C122.984 78.7852 123.059 78.8842 123.095 79.0042L124.418 83.9362C124.484 84.2062 124.541 84.4702 124.589 84.7282C124.643 84.9862 124.688 85.2442 124.724 85.5022C124.79 85.2442 124.859 84.9862 124.931 84.7282C125.009 84.4702 125.09 84.2062 125.174 83.9362L126.704 78.9862C126.74 78.8662 126.809 78.7672 126.911 78.6892C127.019 78.6112 127.148 78.5722 127.298 78.5722H128.279C128.435 78.5722 128.567 78.6112 128.675 78.6892C128.789 78.7672 128.864 78.8662 128.9 78.9862L130.385 83.9362C130.463 84.2062 130.535 84.4732 130.601 84.7372C130.673 84.9952 130.742 85.2532 130.808 85.5112C130.886 85.0012 130.997 84.4762 131.141 83.9362L132.5 79.0042C132.542 78.8842 132.617 78.7852 132.725 78.7072C132.833 78.6292 132.962 78.5902 133.112 78.5902H134.804ZM141.86 82.1452C141.86 81.8572 141.818 81.5872 141.734 81.3352C141.656 81.0772 141.536 80.8522 141.374 80.6602C141.212 80.4682 141.005 80.3182 140.753 80.2102C140.507 80.0962 140.219 80.0392 139.889 80.0392C139.247 80.0392 138.74 80.2222 138.368 80.5882C138.002 80.9542 137.768 81.4732 137.666 82.1452H141.86ZM137.621 83.4862C137.657 83.9602 137.741 84.3712 137.873 84.7192C138.005 85.0612 138.179 85.3462 138.395 85.5742C138.611 85.7962 138.866 85.9642 139.16 86.0782C139.46 86.1862 139.79 86.2402 140.15 86.2402C140.51 86.2402 140.819 86.1982 141.077 86.1142C141.341 86.0302 141.569 85.9372 141.761 85.8352C141.959 85.7332 142.13 85.6402 142.274 85.5562C142.424 85.4722 142.568 85.4302 142.706 85.4302C142.892 85.4302 143.03 85.4992 143.12 85.6372L143.759 86.4472C143.513 86.7352 143.237 86.9782 142.931 87.1762C142.625 87.3682 142.304 87.5242 141.968 87.6442C141.638 87.7582 141.299 87.8392 140.951 87.8872C140.609 87.9352 140.276 87.9592 139.952 87.9592C139.31 87.9592 138.713 87.8542 138.161 87.6442C137.609 87.4282 137.129 87.1132 136.721 86.6992C136.313 86.2792 135.992 85.7632 135.758 85.1512C135.524 84.5332 135.406 83.8192 135.406 83.0092C135.406 82.3792 135.509 81.7882 135.713 81.2362C135.917 80.6782 136.208 80.1952 136.586 79.7872C136.97 79.3732 137.435 79.0462 137.981 78.8062C138.533 78.5662 139.154 78.4462 139.844 78.4462C140.426 78.4462 140.963 78.5392 141.455 78.7252C141.947 78.9112 142.37 79.1842 142.724 79.5442C143.078 79.8982 143.354 80.3362 143.552 80.8582C143.756 81.3742 143.857 81.9652 143.857 82.6312C143.857 82.9672 143.822 83.1952 143.75 83.3152C143.678 83.4292 143.54 83.4862 143.336 83.4862H137.621ZM146.947 74.8102V77.4022L146.749 78.8062C146.701 79.0702 146.623 79.2742 146.515 79.4182C146.407 79.5562 146.227 79.6252 145.975 79.6252C145.753 79.6252 145.582 79.5562 145.462 79.4182C145.342 79.2742 145.258 79.0702 145.21 78.8062L145.012 77.4022V74.8102H146.947ZM157.314 78.5902L153.651 87.8242H151.635L147.972 78.5902H149.808C149.976 78.5902 150.114 78.6292 150.222 78.7072C150.336 78.7852 150.411 78.8842 150.447 79.0042L152.229 83.9362C152.325 84.2242 152.409 84.5062 152.481 84.7822C152.553 85.0582 152.616 85.3342 152.67 85.6102C152.73 85.3342 152.796 85.0582 152.868 84.7822C152.94 84.5062 153.027 84.2242 153.129 83.9362L154.947 79.0042C154.989 78.8842 155.064 78.7852 155.172 78.7072C155.28 78.6292 155.409 78.5902 155.559 78.5902H157.314ZM164.166 82.1452C164.166 81.8572 164.124 81.5872 164.04 81.3352C163.962 81.0772 163.842 80.8522 163.68 80.6602C163.518 80.4682 163.311 80.3182 163.059 80.2102C162.813 80.0962 162.525 80.0392 162.195 80.0392C161.553 80.0392 161.046 80.2222 160.674 80.5882C160.308 80.9542 160.074 81.4732 159.972 82.1452H164.166ZM159.927 83.4862C159.963 83.9602 160.047 84.3712 160.179 84.7192C160.311 85.0612 160.485 85.3462 160.701 85.5742C160.917 85.7962 161.172 85.9642 161.466 86.0782C161.766 86.1862 162.096 86.2402 162.456 86.2402C162.816 86.2402 163.125 86.1982 163.383 86.1142C163.647 86.0302 163.875 85.9372 164.067 85.8352C164.265 85.7332 164.436 85.6402 164.58 85.5562C164.73 85.4722 164.874 85.4302 165.012 85.4302C165.198 85.4302 165.336 85.4992 165.426 85.6372L166.065 86.4472C165.819 86.7352 165.543 86.9782 165.237 87.1762C164.931 87.3682 164.61 87.5242 164.274 87.6442C163.944 87.7582 163.605 87.8392 163.257 87.8872C162.915 87.9352 162.582 87.9592 162.258 87.9592C161.616 87.9592 161.019 87.8542 160.467 87.6442C159.915 87.4282 159.435 87.1132 159.027 86.6992C158.619 86.2792 158.298 85.7632 158.064 85.1512C157.83 84.5332 157.713 83.8192 157.713 83.0092C157.713 82.3792 157.815 81.7882 158.019 81.2362C158.223 80.6782 158.514 80.1952 158.892 79.7872C159.276 79.3732 159.741 79.0462 160.287 78.8062C160.839 78.5662 161.46 78.4462 162.15 78.4462C162.732 78.4462 163.269 78.5392 163.761 78.7252C164.253 78.9112 164.676 79.1842 165.03 79.5442C165.384 79.8982 165.66 80.3362 165.858 80.8582C166.062 81.3742 166.164 81.9652 166.164 82.6312C166.164 82.9672 166.128 83.1952 166.056 83.3152C165.984 83.4292 165.846 83.4862 165.642 83.4862H159.927ZM174.306 80.1922C174.594 79.6402 174.936 79.2082 175.332 78.8962C175.728 78.5782 176.196 78.4192 176.736 78.4192C177.162 78.4192 177.504 78.5122 177.762 78.6982L177.618 80.3632C177.588 80.4712 177.543 80.5492 177.483 80.5972C177.429 80.6392 177.354 80.6602 177.258 80.6602C177.168 80.6602 177.033 80.6452 176.853 80.6152C176.679 80.5852 176.508 80.5702 176.34 80.5702C176.094 80.5702 175.875 80.6062 175.683 80.6782C175.491 80.7502 175.317 80.8552 175.161 80.9932C175.011 81.1252 174.876 81.2872 174.756 81.4792C174.642 81.6712 174.534 81.8902 174.432 82.1362V87.8242H172.209V78.5902H173.514C173.742 78.5902 173.901 78.6322 173.991 78.7162C174.081 78.7942 174.141 78.9382 174.171 79.1482L174.306 80.1922ZM184.61 82.1452C184.61 81.8572 184.568 81.5872 184.484 81.3352C184.406 81.0772 184.286 80.8522 184.124 80.6602C183.962 80.4682 183.755 80.3182 183.503 80.2102C183.257 80.0962 182.969 80.0392 182.639 80.0392C181.997 80.0392 181.49 80.2222 181.118 80.5882C180.752 80.9542 180.518 81.4732 180.416 82.1452H184.61ZM180.371 83.4862C180.407 83.9602 180.491 84.3712 180.623 84.7192C180.755 85.0612 180.929 85.3462 181.145 85.5742C181.361 85.7962 181.616 85.9642 181.91 86.0782C182.21 86.1862 182.54 86.2402 182.9 86.2402C183.26 86.2402 183.569 86.1982 183.827 86.1142C184.091 86.0302 184.319 85.9372 184.511 85.8352C184.709 85.7332 184.88 85.6402 185.024 85.5562C185.174 85.4722 185.318 85.4302 185.456 85.4302C185.642 85.4302 185.78 85.4992 185.87 85.6372L186.509 86.4472C186.263 86.7352 185.987 86.9782 185.681 87.1762C185.375 87.3682 185.054 87.5242 184.718 87.6442C184.388 87.7582 184.049 87.8392 183.701 87.8872C183.359 87.9352 183.026 87.9592 182.702 87.9592C182.06 87.9592 181.463 87.8542 180.911 87.6442C180.359 87.4282 179.879 87.1132 179.471 86.6992C179.063 86.2792 178.742 85.7632 178.508 85.1512C178.274 84.5332 178.156 83.8192 178.156 83.0092C178.156 82.3792 178.259 81.7882 178.463 81.2362C178.667 80.6782 178.958 80.1952 179.336 79.7872C179.72 79.3732 180.185 79.0462 180.731 78.8062C181.283 78.5662 181.904 78.4462 182.594 78.4462C183.176 78.4462 183.713 78.5392 184.205 78.7252C184.697 78.9112 185.12 79.1842 185.474 79.5442C185.828 79.8982 186.104 80.3362 186.302 80.8582C186.506 81.3742 186.607 81.9652 186.607 82.6312C186.607 82.9672 186.572 83.1952 186.5 83.3152C186.428 83.4292 186.29 83.4862 186.086 83.4862H180.371ZM193.91 80.3902C193.85 80.4862 193.787 80.5552 193.721 80.5972C193.655 80.6332 193.571 80.6512 193.469 80.6512C193.361 80.6512 193.244 80.6212 193.118 80.5612C192.998 80.5012 192.857 80.4352 192.695 80.3632C192.533 80.2852 192.347 80.2162 192.137 80.1562C191.933 80.0962 191.69 80.0662 191.408 80.0662C190.97 80.0662 190.625 80.1592 190.373 80.3452C190.127 80.5312 190.004 80.7742 190.004 81.0742C190.004 81.2722 190.067 81.4402 190.193 81.5782C190.325 81.7102 190.496 81.8272 190.706 81.9292C190.922 82.0312 191.165 82.1242 191.435 82.2082C191.705 82.2862 191.978 82.3732 192.254 82.4692C192.536 82.5652 192.812 82.6762 193.082 82.8022C193.352 82.9222 193.592 83.0782 193.802 83.2702C194.018 83.4562 194.189 83.6812 194.315 83.9452C194.447 84.2092 194.513 84.5272 194.513 84.8992C194.513 85.3432 194.432 85.7542 194.27 86.1322C194.114 86.5042 193.88 86.8282 193.568 87.1042C193.256 87.3742 192.869 87.5872 192.407 87.7432C191.951 87.8932 191.423 87.9682 190.823 87.9682C190.505 87.9682 190.193 87.9382 189.887 87.8782C189.587 87.8242 189.296 87.7462 189.014 87.6442C188.738 87.5422 188.48 87.4222 188.24 87.2842C188.006 87.1462 187.799 86.9962 187.619 86.8342L188.132 85.9882C188.198 85.8862 188.276 85.8082 188.366 85.7542C188.456 85.7002 188.57 85.6732 188.708 85.6732C188.846 85.6732 188.975 85.7122 189.095 85.7902C189.221 85.8682 189.365 85.9522 189.527 86.0422C189.689 86.1322 189.878 86.2162 190.094 86.2942C190.316 86.3722 190.595 86.4112 190.931 86.4112C191.195 86.4112 191.42 86.3812 191.606 86.3212C191.798 86.2552 191.954 86.1712 192.074 86.0692C192.2 85.9672 192.29 85.8502 192.344 85.7182C192.404 85.5802 192.434 85.4392 192.434 85.2952C192.434 85.0792 192.368 84.9022 192.236 84.7642C192.11 84.6262 191.939 84.5062 191.723 84.4042C191.513 84.3022 191.27 84.2122 190.994 84.1342C190.724 84.0502 190.445 83.9602 190.157 83.8642C189.875 83.7682 189.596 83.6572 189.32 83.5312C189.05 83.3992 188.807 83.2342 188.591 83.0362C188.381 82.8382 188.21 82.5952 188.078 82.3072C187.952 82.0192 187.889 81.6712 187.889 81.2632C187.889 80.8852 187.964 80.5252 188.114 80.1832C188.264 79.8412 188.483 79.5442 188.771 79.2922C189.065 79.0342 189.428 78.8302 189.86 78.6802C190.298 78.5242 190.802 78.4462 191.372 78.4462C192.008 78.4462 192.587 78.5512 193.109 78.7612C193.631 78.9712 194.066 79.2472 194.414 79.5892L193.91 80.3902ZM198.49 78.5902V87.8242H196.258V78.5902H198.49ZM198.796 75.8992C198.796 76.0912 198.757 76.2712 198.679 76.4392C198.601 76.6072 198.496 76.7542 198.364 76.8802C198.238 77.0062 198.088 77.1082 197.914 77.1862C197.74 77.2582 197.554 77.2942 197.356 77.2942C197.164 77.2942 196.981 77.2582 196.807 77.1862C196.639 77.1082 196.492 77.0062 196.366 76.8802C196.24 76.7542 196.138 76.6072 196.06 76.4392C195.988 76.2712 195.952 76.0912 195.952 75.8992C195.952 75.7012 195.988 75.5152 196.06 75.3412C196.138 75.1672 196.24 75.0172 196.366 74.8912C196.492 74.7652 196.639 74.6662 196.807 74.5942C196.981 74.5162 197.164 74.4772 197.356 74.4772C197.554 74.4772 197.74 74.5162 197.914 74.5942C198.088 74.6662 198.238 74.7652 198.364 74.8912C198.496 75.0172 198.601 75.1672 198.679 75.3412C198.757 75.5152 198.796 75.7012 198.796 75.8992ZM206.39 80.3902C206.33 80.4862 206.267 80.5552 206.201 80.5972C206.135 80.6332 206.051 80.6512 205.949 80.6512C205.841 80.6512 205.724 80.6212 205.598 80.5612C205.478 80.5012 205.337 80.4352 205.175 80.3632C205.013 80.2852 204.827 80.2162 204.617 80.1562C204.413 80.0962 204.17 80.0662 203.888 80.0662C203.45 80.0662 203.105 80.1592 202.853 80.3452C202.607 80.5312 202.484 80.7742 202.484 81.0742C202.484 81.2722 202.547 81.4402 202.673 81.5782C202.805 81.7102 202.976 81.8272 203.186 81.9292C203.402 82.0312 203.645 82.1242 203.915 82.2082C204.185 82.2862 204.458 82.3732 204.734 82.4692C205.016 82.5652 205.292 82.6762 205.562 82.8022C205.832 82.9222 206.072 83.0782 206.282 83.2702C206.498 83.4562 206.669 83.6812 206.795 83.9452C206.927 84.2092 206.993 84.5272 206.993 84.8992C206.993 85.3432 206.912 85.7542 206.75 86.1322C206.594 86.5042 206.36 86.8282 206.048 87.1042C205.736 87.3742 205.349 87.5872 204.887 87.7432C204.431 87.8932 203.903 87.9682 203.303 87.9682C202.985 87.9682 202.673 87.9382 202.367 87.8782C202.067 87.8242 201.776 87.7462 201.494 87.6442C201.218 87.5422 200.96 87.4222 200.72 87.2842C200.486 87.1462 200.279 86.9962 200.099 86.8342L200.612 85.9882C200.678 85.8862 200.756 85.8082 200.846 85.7542C200.936 85.7002 201.05 85.6732 201.188 85.6732C201.326 85.6732 201.455 85.7122 201.575 85.7902C201.701 85.8682 201.845 85.9522 202.007 86.0422C202.169 86.1322 202.358 86.2162 202.574 86.2942C202.796 86.3722 203.075 86.4112 203.411 86.4112C203.675 86.4112 203.9 86.3812 204.086 86.3212C204.278 86.2552 204.434 86.1712 204.554 86.0692C204.68 85.9672 204.77 85.8502 204.824 85.7182C204.884 85.5802 204.914 85.4392 204.914 85.2952C204.914 85.0792 204.848 84.9022 204.716 84.7642C204.59 84.6262 204.419 84.5062 204.203 84.4042C203.993 84.3022 203.75 84.2122 203.474 84.1342C203.204 84.0502 202.925 83.9602 202.637 83.8642C202.355 83.7682 202.076 83.6572 201.8 83.5312C201.53 83.3992 201.287 83.2342 201.071 83.0362C200.861 82.8382 200.69 82.5952 200.558 82.3072C200.432 82.0192 200.369 81.6712 200.369 81.2632C200.369 80.8852 200.444 80.5252 200.594 80.1832C200.744 79.8412 200.963 79.5442 201.251 79.2922C201.545 79.0342 201.908 78.8302 202.34 78.6802C202.778 78.5242 203.282 78.4462 203.852 78.4462C204.488 78.4462 205.067 78.5512 205.589 78.7612C206.111 78.9712 206.546 79.2472 206.894 79.5892L206.39 80.3902ZM211.744 87.9682C210.94 87.9682 210.322 87.7432 209.89 87.2932C209.464 86.8372 209.251 86.2102 209.251 85.4122V80.2552H208.306C208.186 80.2552 208.084 80.2162 208 80.1382C207.916 80.0602 207.874 79.9432 207.874 79.7872V78.9052L209.359 78.6622L209.827 76.1422C209.857 76.0222 209.914 75.9292 209.998 75.8632C210.082 75.7972 210.19 75.7642 210.322 75.7642H211.474V78.6712H213.94V80.2552H211.474V85.2592C211.474 85.5472 211.543 85.7722 211.681 85.9342C211.825 86.0962 212.02 86.1772 212.266 86.1772C212.404 86.1772 212.518 86.1622 212.608 86.1322C212.704 86.0962 212.785 86.0602 212.851 86.0242C212.923 85.9882 212.986 85.9552 213.04 85.9252C213.094 85.8892 213.148 85.8712 213.202 85.8712C213.268 85.8712 213.322 85.8892 213.364 85.9252C213.406 85.9552 213.451 86.0032 213.499 86.0692L214.165 87.1492C213.841 87.4192 213.469 87.6232 213.049 87.7612C212.629 87.8992 212.194 87.9682 211.744 87.9682ZM219.379 78.4462C220.063 78.4462 220.684 78.5572 221.242 78.7792C221.806 79.0012 222.286 79.3162 222.682 79.7242C223.084 80.1322 223.393 80.6302 223.609 81.2182C223.825 81.8062 223.933 82.4632 223.933 83.1892C223.933 83.9212 223.825 84.5812 223.609 85.1692C223.393 85.7572 223.084 86.2582 222.682 86.6722C222.286 87.0862 221.806 87.4042 221.242 87.6262C220.684 87.8482 220.063 87.9592 219.379 87.9592C218.689 87.9592 218.062 87.8482 217.498 87.6262C216.934 87.4042 216.451 87.0862 216.049 86.6722C215.653 86.2582 215.344 85.7572 215.122 85.1692C214.906 84.5812 214.798 83.9212 214.798 83.1892C214.798 82.4632 214.906 81.8062 215.122 81.2182C215.344 80.6302 215.653 80.1322 216.049 79.7242C216.451 79.3162 216.934 79.0012 217.498 78.7792C218.062 78.5572 218.689 78.4462 219.379 78.4462ZM219.379 86.2492C220.147 86.2492 220.714 85.9912 221.08 85.4752C221.452 84.9592 221.638 84.2032 221.638 83.2072C221.638 82.2112 221.452 81.4522 221.08 80.9302C220.714 80.4082 220.147 80.1472 219.379 80.1472C218.599 80.1472 218.02 80.4112 217.642 80.9392C217.27 81.4612 217.084 82.2172 217.084 83.2072C217.084 84.1972 217.27 84.9532 217.642 85.4752C218.02 85.9912 218.599 86.2492 219.379 86.2492ZM227.726 80.1922C228.014 79.6402 228.356 79.2082 228.752 78.8962C229.148 78.5782 229.616 78.4192 230.156 78.4192C230.582 78.4192 230.924 78.5122 231.182 78.6982L231.038 80.3632C231.008 80.4712 230.963 80.5492 230.903 80.5972C230.849 80.6392 230.774 80.6602 230.678 80.6602C230.588 80.6602 230.453 80.6452 230.273 80.6152C230.099 80.5852 229.928 80.5702 229.76 80.5702C229.514 80.5702 229.295 80.6062 229.103 80.6782C228.911 80.7502 228.737 80.8552 228.581 80.9932C228.431 81.1252 228.296 81.2872 228.176 81.4792C228.062 81.6712 227.954 81.8902 227.852 82.1362V87.8242H225.629V78.5902H226.934C227.162 78.5902 227.321 78.6322 227.411 78.7162C227.501 78.7942 227.561 78.9382 227.591 79.1482L227.726 80.1922ZM239.412 87.9682C238.608 87.9682 237.99 87.7432 237.558 87.2932C237.132 86.8372 236.919 86.2102 236.919 85.4122V80.2552H235.974C235.854 80.2552 235.752 80.2162 235.668 80.1382C235.584 80.0602 235.542 79.9432 235.542 79.7872V78.9052L237.027 78.6622L237.495 76.1422C237.525 76.0222 237.582 75.9292 237.666 75.8632C237.75 75.7972 237.858 75.7642 237.99 75.7642H239.142V78.6712H241.608V80.2552H239.142V85.2592C239.142 85.5472 239.211 85.7722 239.349 85.9342C239.493 86.0962 239.688 86.1772 239.934 86.1772C240.072 86.1772 240.186 86.1622 240.276 86.1322C240.372 86.0962 240.453 86.0602 240.519 86.0242C240.591 85.9882 240.654 85.9552 240.708 85.9252C240.762 85.8892 240.816 85.8712 240.87 85.8712C240.936 85.8712 240.99 85.8892 241.032 85.9252C241.074 85.9552 241.119 86.0032 241.167 86.0692L241.833 87.1492C241.509 87.4192 241.137 87.6232 240.717 87.7612C240.297 87.8992 239.862 87.9682 239.412 87.9682ZM247.047 78.4462C247.731 78.4462 248.352 78.5572 248.91 78.7792C249.474 79.0012 249.954 79.3162 250.35 79.7242C250.752 80.1322 251.061 80.6302 251.277 81.2182C251.493 81.8062 251.601 82.4632 251.601 83.1892C251.601 83.9212 251.493 84.5812 251.277 85.1692C251.061 85.7572 250.752 86.2582 250.35 86.6722C249.954 87.0862 249.474 87.4042 248.91 87.6262C248.352 87.8482 247.731 87.9592 247.047 87.9592C246.357 87.9592 245.73 87.8482 245.166 87.6262C244.602 87.4042 244.119 87.0862 243.717 86.6722C243.321 86.2582 243.012 85.7572 242.79 85.1692C242.574 84.5812 242.466 83.9212 242.466 83.1892C242.466 82.4632 242.574 81.8062 242.79 81.2182C243.012 80.6302 243.321 80.1322 243.717 79.7242C244.119 79.3162 244.602 79.0012 245.166 78.7792C245.73 78.5572 246.357 78.4462 247.047 78.4462ZM247.047 86.2492C247.815 86.2492 248.382 85.9912 248.748 85.4752C249.12 84.9592 249.306 84.2032 249.306 83.2072C249.306 82.2112 249.12 81.4522 248.748 80.9302C248.382 80.4082 247.815 80.1472 247.047 80.1472C246.267 80.1472 245.688 80.4112 245.31 80.9392C244.938 81.4612 244.752 82.2172 244.752 83.2072C244.752 84.1972 244.938 84.9532 245.31 85.4752C245.688 85.9912 246.267 86.2492 247.047 86.2492ZM259.897 85.4302C260.149 85.7362 260.422 85.9522 260.716 86.0782C261.016 86.2042 261.34 86.2672 261.688 86.2672C262.024 86.2672 262.327 86.2042 262.597 86.0782C262.867 85.9522 263.095 85.7602 263.281 85.5022C263.473 85.2442 263.62 84.9202 263.722 84.5302C263.824 84.1342 263.875 83.6692 263.875 83.1352C263.875 82.5952 263.83 82.1392 263.74 81.7672C263.656 81.3892 263.533 81.0832 263.371 80.8492C263.209 80.6152 263.011 80.4442 262.777 80.3362C262.549 80.2282 262.288 80.1742 261.994 80.1742C261.532 80.1742 261.139 80.2732 260.815 80.4712C260.491 80.6632 260.185 80.9362 259.897 81.2902V85.4302ZM259.78 79.8502C260.158 79.4242 260.587 79.0792 261.067 78.8152C261.547 78.5512 262.111 78.4192 262.759 78.4192C263.263 78.4192 263.722 78.5242 264.136 78.7342C264.556 78.9442 264.916 79.2502 265.216 79.6522C265.522 80.0482 265.756 80.5402 265.918 81.1282C266.086 81.7102 266.17 82.3792 266.17 83.1352C266.17 83.8252 266.077 84.4642 265.891 85.0522C265.705 85.6402 265.438 86.1502 265.09 86.5822C264.748 87.0142 264.331 87.3532 263.839 87.5992C263.353 87.8392 262.807 87.9592 262.201 87.9592C261.685 87.9592 261.244 87.8812 260.878 87.7252C260.512 87.5632 260.185 87.3412 259.897 87.0592V90.8392H257.674V78.5902H259.033C259.321 78.5902 259.51 78.7252 259.6 78.9952L259.78 79.8502ZM270.002 80.1922C270.29 79.6402 270.632 79.2082 271.028 78.8962C271.424 78.5782 271.892 78.4192 272.432 78.4192C272.858 78.4192 273.2 78.5122 273.458 78.6982L273.314 80.3632C273.284 80.4712 273.239 80.5492 273.179 80.5972C273.125 80.6392 273.05 80.6602 272.954 80.6602C272.864 80.6602 272.729 80.6452 272.549 80.6152C272.375 80.5852 272.204 80.5702 272.036 80.5702C271.79 80.5702 271.571 80.6062 271.379 80.6782C271.187 80.7502 271.013 80.8552 270.857 80.9932C270.707 81.1252 270.572 81.2872 270.452 81.4792C270.338 81.6712 270.23 81.8902 270.128 82.1362V87.8242H267.905V78.5902H269.21C269.438 78.5902 269.597 78.6322 269.687 78.7162C269.777 78.7942 269.837 78.9382 269.867 79.1482L270.002 80.1922ZM278.442 78.4462C279.126 78.4462 279.747 78.5572 280.305 78.7792C280.869 79.0012 281.349 79.3162 281.745 79.7242C282.147 80.1322 282.456 80.6302 282.672 81.2182C282.888 81.8062 282.996 82.4632 282.996 83.1892C282.996 83.9212 282.888 84.5812 282.672 85.1692C282.456 85.7572 282.147 86.2582 281.745 86.6722C281.349 87.0862 280.869 87.4042 280.305 87.6262C279.747 87.8482 279.126 87.9592 278.442 87.9592C277.752 87.9592 277.125 87.8482 276.561 87.6262C275.997 87.4042 275.514 87.0862 275.112 86.6722C274.716 86.2582 274.407 85.7572 274.185 85.1692C273.969 84.5812 273.861 83.9212 273.861 83.1892C273.861 82.4632 273.969 81.8062 274.185 81.2182C274.407 80.6302 274.716 80.1322 275.112 79.7242C275.514 79.3162 275.997 79.0012 276.561 78.7792C277.125 78.5572 277.752 78.4462 278.442 78.4462ZM278.442 86.2492C279.21 86.2492 279.777 85.9912 280.143 85.4752C280.515 84.9592 280.701 84.2032 280.701 83.2072C280.701 82.2112 280.515 81.4522 280.143 80.9302C279.777 80.4082 279.21 80.1472 278.442 80.1472C277.662 80.1472 277.083 80.4112 276.705 80.9392C276.333 81.4612 276.147 82.2172 276.147 83.2072C276.147 84.1972 276.333 84.9532 276.705 85.4752C277.083 85.9912 277.662 86.2492 278.442 86.2492ZM287.594 87.9682C286.79 87.9682 286.172 87.7432 285.74 87.2932C285.314 86.8372 285.101 86.2102 285.101 85.4122V80.2552H284.156C284.036 80.2552 283.934 80.2162 283.85 80.1382C283.766 80.0602 283.724 79.9432 283.724 79.7872V78.9052L285.209 78.6622L285.677 76.1422C285.707 76.0222 285.764 75.9292 285.848 75.8632C285.932 75.7972 286.04 75.7642 286.172 75.7642H287.324V78.6712H289.79V80.2552H287.324V85.2592C287.324 85.5472 287.393 85.7722 287.531 85.9342C287.675 86.0962 287.87 86.1772 288.116 86.1772C288.254 86.1772 288.368 86.1622 288.458 86.1322C288.554 86.0962 288.635 86.0602 288.701 86.0242C288.773 85.9882 288.836 85.9552 288.89 85.9252C288.944 85.8892 288.998 85.8712 289.052 85.8712C289.118 85.8712 289.172 85.8892 289.214 85.9252C289.256 85.9552 289.301 86.0032 289.349 86.0692L290.015 87.1492C289.691 87.4192 289.319 87.6232 288.899 87.7612C288.479 87.8992 288.044 87.9682 287.594 87.9682ZM297.092 82.1452C297.092 81.8572 297.05 81.5872 296.966 81.3352C296.888 81.0772 296.768 80.8522 296.606 80.6602C296.444 80.4682 296.237 80.3182 295.985 80.2102C295.739 80.0962 295.451 80.0392 295.121 80.0392C294.479 80.0392 293.972 80.2222 293.6 80.5882C293.234 80.9542 293 81.4732 292.898 82.1452H297.092ZM292.853 83.4862C292.889 83.9602 292.973 84.3712 293.105 84.7192C293.237 85.0612 293.411 85.3462 293.627 85.5742C293.843 85.7962 294.098 85.9642 294.392 86.0782C294.692 86.1862 295.022 86.2402 295.382 86.2402C295.742 86.2402 296.051 86.1982 296.309 86.1142C296.573 86.0302 296.801 85.9372 296.993 85.8352C297.191 85.7332 297.362 85.6402 297.506 85.5562C297.656 85.4722 297.8 85.4302 297.938 85.4302C298.124 85.4302 298.262 85.4992 298.352 85.6372L298.991 86.4472C298.745 86.7352 298.469 86.9782 298.163 87.1762C297.857 87.3682 297.536 87.5242 297.2 87.6442C296.87 87.7582 296.531 87.8392 296.183 87.8872C295.841 87.9352 295.508 87.9592 295.184 87.9592C294.542 87.9592 293.945 87.8542 293.393 87.6442C292.841 87.4282 292.361 87.1132 291.953 86.6992C291.545 86.2792 291.224 85.7632 290.99 85.1512C290.756 84.5332 290.639 83.8192 290.639 83.0092C290.639 82.3792 290.741 81.7882 290.945 81.2362C291.149 80.6782 291.44 80.1952 291.818 79.7872C292.202 79.3732 292.667 79.0462 293.213 78.8062C293.765 78.5662 294.386 78.4462 295.076 78.4462C295.658 78.4462 296.195 78.5392 296.687 78.7252C297.179 78.9112 297.602 79.1842 297.956 79.5442C298.31 79.8982 298.586 80.3362 298.784 80.8582C298.988 81.3742 299.09 81.9652 299.09 82.6312C299.09 82.9672 299.054 83.1952 298.982 83.3152C298.91 83.4292 298.772 83.4862 298.568 83.4862H292.853ZM307.373 80.5432C307.307 80.6272 307.241 80.6932 307.175 80.7412C307.115 80.7892 307.025 80.8132 306.905 80.8132C306.791 80.8132 306.68 80.7802 306.572 80.7142C306.464 80.6422 306.335 80.5642 306.185 80.4802C306.035 80.3902 305.855 80.3122 305.645 80.2462C305.441 80.1742 305.186 80.1382 304.88 80.1382C304.49 80.1382 304.148 80.2102 303.854 80.3542C303.56 80.4922 303.314 80.6932 303.116 80.9572C302.924 81.2212 302.78 81.5422 302.684 81.9202C302.588 82.2922 302.54 82.7152 302.54 83.1892C302.54 83.6812 302.591 84.1192 302.693 84.5032C302.801 84.8872 302.954 85.2112 303.152 85.4752C303.35 85.7332 303.59 85.9312 303.872 86.0692C304.154 86.2012 304.472 86.2672 304.826 86.2672C305.18 86.2672 305.465 86.2252 305.681 86.1412C305.903 86.0512 306.089 85.9552 306.239 85.8532C306.389 85.7452 306.518 85.6492 306.626 85.5652C306.74 85.4752 306.866 85.4302 307.004 85.4302C307.184 85.4302 307.319 85.4992 307.409 85.6372L308.048 86.4472C307.802 86.7352 307.535 86.9782 307.247 87.1762C306.959 87.3682 306.659 87.5242 306.347 87.6442C306.041 87.7582 305.723 87.8392 305.393 87.8872C305.069 87.9352 304.745 87.9592 304.421 87.9592C303.851 87.9592 303.314 87.8542 302.81 87.6442C302.306 87.4282 301.865 87.1162 301.487 86.7082C301.109 86.3002 300.809 85.8022 300.587 85.2142C300.371 84.6202 300.263 83.9452 300.263 83.1892C300.263 82.5112 300.359 81.8842 300.551 81.3082C300.749 80.7262 301.037 80.2252 301.415 79.8052C301.793 79.3792 302.261 79.0462 302.819 78.8062C303.377 78.5662 304.019 78.4462 304.745 78.4462C305.435 78.4462 306.038 78.5572 306.554 78.7792C307.076 79.0012 307.544 79.3192 307.958 79.7332L307.373 80.5432ZM312.52 87.9682C311.716 87.9682 311.098 87.7432 310.666 87.2932C310.24 86.8372 310.027 86.2102 310.027 85.4122V80.2552H309.082C308.962 80.2552 308.86 80.2162 308.776 80.1382C308.692 80.0602 308.65 79.9432 308.65 79.7872V78.9052L310.135 78.6622L310.603 76.1422C310.633 76.0222 310.69 75.9292 310.774 75.8632C310.858 75.7972 310.966 75.7642 311.098 75.7642H312.25V78.6712H314.716V80.2552H312.25V85.2592C312.25 85.5472 312.319 85.7722 312.457 85.9342C312.601 86.0962 312.796 86.1772 313.042 86.1772C313.18 86.1772 313.294 86.1622 313.384 86.1322C313.48 86.0962 313.561 86.0602 313.627 86.0242C313.699 85.9882 313.762 85.9552 313.816 85.9252C313.87 85.8892 313.924 85.8712 313.978 85.8712C314.044 85.8712 314.098 85.8892 314.14 85.9252C314.182 85.9552 314.227 86.0032 314.275 86.0692L314.941 87.1492C314.617 87.4192 314.245 87.6232 313.825 87.7612C313.405 87.8992 312.97 87.9682 312.52 87.9682ZM324.602 78.4462C325.286 78.4462 325.907 78.5572 326.465 78.7792C327.029 79.0012 327.509 79.3162 327.905 79.7242C328.307 80.1322 328.616 80.6302 328.832 81.2182C329.048 81.8062 329.156 82.4632 329.156 83.1892C329.156 83.9212 329.048 84.5812 328.832 85.1692C328.616 85.7572 328.307 86.2582 327.905 86.6722C327.509 87.0862 327.029 87.4042 326.465 87.6262C325.907 87.8482 325.286 87.9592 324.602 87.9592C323.912 87.9592 323.285 87.8482 322.721 87.6262C322.157 87.4042 321.674 87.0862 321.272 86.6722C320.876 86.2582 320.567 85.7572 320.345 85.1692C320.129 84.5812 320.021 83.9212 320.021 83.1892C320.021 82.4632 320.129 81.8062 320.345 81.2182C320.567 80.6302 320.876 80.1322 321.272 79.7242C321.674 79.3162 322.157 79.0012 322.721 78.7792C323.285 78.5572 323.912 78.4462 324.602 78.4462ZM324.602 86.2492C325.37 86.2492 325.937 85.9912 326.303 85.4752C326.675 84.9592 326.861 84.2032 326.861 83.2072C326.861 82.2112 326.675 81.4522 326.303 80.9302C325.937 80.4082 325.37 80.1472 324.602 80.1472C323.822 80.1472 323.243 80.4112 322.865 80.9392C322.493 81.4612 322.307 82.2172 322.307 83.2072C322.307 84.1972 322.493 84.9532 322.865 85.4752C323.243 85.9912 323.822 86.2492 324.602 86.2492ZM338.808 78.5902V87.8242H337.449C337.155 87.8242 336.969 87.6892 336.891 87.4192L336.738 86.6812C336.36 87.0652 335.943 87.3772 335.487 87.6172C335.031 87.8512 334.494 87.9682 333.876 87.9682C333.372 87.9682 332.925 87.8842 332.535 87.7162C332.151 87.5422 331.827 87.2992 331.563 86.9872C331.299 86.6752 331.098 86.3062 330.96 85.8802C330.828 85.4482 330.762 84.9742 330.762 84.4582V78.5902H332.985V84.4582C332.985 85.0222 333.114 85.4602 333.372 85.7722C333.636 86.0782 334.029 86.2312 334.551 86.2312C334.935 86.2312 335.295 86.1472 335.631 85.9792C335.967 85.8052 336.285 85.5682 336.585 85.2682V78.5902H338.808ZM343.109 80.1922C343.397 79.6402 343.739 79.2082 344.135 78.8962C344.531 78.5782 344.999 78.4192 345.539 78.4192C345.965 78.4192 346.307 78.5122 346.565 78.6982L346.421 80.3632C346.391 80.4712 346.346 80.5492 346.286 80.5972C346.232 80.6392 346.157 80.6602 346.061 80.6602C345.971 80.6602 345.836 80.6452 345.656 80.6152C345.482 80.5852 345.311 80.5702 345.143 80.5702C344.897 80.5702 344.678 80.6062 344.486 80.6782C344.294 80.7502 344.12 80.8552 343.964 80.9932C343.814 81.1252 343.679 81.2872 343.559 81.4792C343.445 81.6712 343.337 81.8902 343.235 82.1362V87.8242H341.012V78.5902H342.317C342.545 78.5902 342.704 78.6322 342.794 78.7162C342.884 78.7942 342.944 78.9382 342.974 79.1482L343.109 80.1922ZM359.691 85.8262V87.8242H352.068V74.8102H354.489V85.8262H359.691ZM363.85 76.7362V80.3452H368.404V82.2082H363.85V85.8892H369.628V87.8242H361.42V74.8102H369.628V76.7362H363.85ZM383.329 81.3172C383.329 82.2712 383.17 83.1472 382.852 83.9452C382.534 84.7432 382.087 85.4302 381.511 86.0062C380.935 86.5822 380.242 87.0292 379.432 87.3472C378.622 87.6652 377.722 87.8242 376.732 87.8242H371.773V74.8102H376.732C377.722 74.8102 378.622 74.9722 379.432 75.2962C380.242 75.6142 380.935 76.0612 381.511 76.6372C382.087 77.2072 382.534 77.8912 382.852 78.6892C383.17 79.4872 383.329 80.3632 383.329 81.3172ZM380.845 81.3172C380.845 80.6032 380.749 79.9642 380.557 79.4002C380.371 78.8302 380.098 78.3502 379.738 77.9602C379.384 77.5642 378.952 77.2612 378.442 77.0512C377.938 76.8412 377.368 76.7362 376.732 76.7362H374.203V85.8982H376.732C377.368 85.8982 377.938 85.7932 378.442 85.5832C378.952 85.3732 379.384 85.0732 379.738 84.6832C380.098 84.2872 380.371 83.8072 380.557 83.2432C380.749 82.6732 380.845 82.0312 380.845 81.3172ZM391.572 79.7242C391.758 79.5382 391.953 79.3672 392.157 79.2112C392.367 79.0492 392.586 78.9142 392.814 78.8062C393.048 78.6922 393.297 78.6052 393.561 78.5452C393.825 78.4792 394.113 78.4462 394.425 78.4462C394.929 78.4462 395.376 78.5332 395.766 78.7072C396.156 78.8752 396.48 79.1152 396.738 79.4272C397.002 79.7332 397.2 80.1022 397.332 80.5342C397.47 80.9602 397.539 81.4312 397.539 81.9472V87.8242H395.316V81.9472C395.316 81.3832 395.187 80.9482 394.929 80.6422C394.671 80.3302 394.278 80.1742 393.75 80.1742C393.366 80.1742 393.006 80.2612 392.67 80.4352C392.334 80.6092 392.016 80.8462 391.716 81.1462V87.8242H389.493V78.5902H390.852C391.14 78.5902 391.329 78.7252 391.419 78.9952L391.572 79.7242ZM403.739 78.4462C404.423 78.4462 405.044 78.5572 405.602 78.7792C406.166 79.0012 406.646 79.3162 407.042 79.7242C407.444 80.1322 407.753 80.6302 407.969 81.2182C408.185 81.8062 408.293 82.4632 408.293 83.1892C408.293 83.9212 408.185 84.5812 407.969 85.1692C407.753 85.7572 407.444 86.2582 407.042 86.6722C406.646 87.0862 406.166 87.4042 405.602 87.6262C405.044 87.8482 404.423 87.9592 403.739 87.9592C403.049 87.9592 402.422 87.8482 401.858 87.6262C401.294 87.4042 400.811 87.0862 400.409 86.6722C400.013 86.2582 399.704 85.7572 399.482 85.1692C399.266 84.5812 399.158 83.9212 399.158 83.1892C399.158 82.4632 399.266 81.8062 399.482 81.2182C399.704 80.6302 400.013 80.1322 400.409 79.7242C400.811 79.3162 401.294 79.0012 401.858 78.7792C402.422 78.5572 403.049 78.4462 403.739 78.4462ZM403.739 86.2492C404.507 86.2492 405.074 85.9912 405.44 85.4752C405.812 84.9592 405.998 84.2032 405.998 83.2072C405.998 82.2112 405.812 81.4522 405.44 80.9302C405.074 80.4082 404.507 80.1472 403.739 80.1472C402.959 80.1472 402.38 80.4112 402.002 80.9392C401.63 81.4612 401.444 82.2172 401.444 83.2072C401.444 84.1972 401.63 84.9532 402.002 85.4752C402.38 85.9912 402.959 86.2492 403.739 86.2492ZM423.015 78.5902L420.081 87.8242H418.299C418.095 87.8242 417.954 87.6922 417.876 87.4282L416.22 82.0912C416.166 81.9112 416.115 81.7342 416.067 81.5602C416.025 81.3802 415.989 81.2002 415.959 81.0202C415.923 81.2002 415.881 81.3832 415.833 81.5692C415.791 81.7492 415.743 81.9292 415.689 82.1092L414.006 87.4282C413.934 87.6922 413.775 87.8242 413.529 87.8242H411.819L408.894 78.5902H410.667C410.829 78.5902 410.967 78.6292 411.081 78.7072C411.195 78.7852 411.27 78.8842 411.306 79.0042L412.629 83.9362C412.695 84.2062 412.752 84.4702 412.8 84.7282C412.854 84.9862 412.899 85.2442 412.935 85.5022C413.001 85.2442 413.07 84.9862 413.142 84.7282C413.22 84.4702 413.301 84.2062 413.385 83.9362L414.915 78.9862C414.951 78.8662 415.02 78.7672 415.122 78.6892C415.23 78.6112 415.359 78.5722 415.509 78.5722H416.49C416.646 78.5722 416.778 78.6112 416.886 78.6892C417 78.7672 417.075 78.8662 417.111 78.9862L418.596 83.9362C418.674 84.2062 418.746 84.4732 418.812 84.7372C418.884 84.9952 418.953 85.2532 419.019 85.5112C419.097 85.0012 419.208 84.4762 419.352 83.9362L420.711 79.0042C420.753 78.8842 420.828 78.7852 420.936 78.7072C421.044 78.6292 421.173 78.5902 421.323 78.5902H423.015ZM423.569 86.6002C423.569 86.4142 423.602 86.2372 423.668 86.0692C423.74 85.9012 423.836 85.7572 423.956 85.6372C424.076 85.5172 424.22 85.4212 424.388 85.3492C424.556 85.2772 424.736 85.2412 424.928 85.2412C425.12 85.2412 425.297 85.2772 425.459 85.3492C425.627 85.4212 425.771 85.5172 425.891 85.6372C426.017 85.7572 426.116 85.9012 426.188 86.0692C426.26 86.2372 426.296 86.4142 426.296 86.6002C426.296 86.7922 426.26 86.9722 426.188 87.1402C426.116 87.3022 426.017 87.4432 425.891 87.5632C425.771 87.6832 425.627 87.7762 425.459 87.8422C425.297 87.9142 425.12 87.9502 424.928 87.9502C424.736 87.9502 424.556 87.9142 424.388 87.8422C424.22 87.7762 424.076 87.6832 423.956 87.5632C423.836 87.4432 423.74 87.3022 423.668 87.1402C423.602 86.9722 423.569 86.7922 423.569 86.6002Z" fill="#1A2BC3"/>
<path d="M622.45 154.436C634.572 143.416 615.733 111.61 607.124 105.756C628.613 104.378 645.084 92.5756 643.948 76.9479C642.227 53.27 605.862 60.5287 593.35 63.0541C601.614 55.478 616.394 15.5735 593.35 15.5738C576.986 15.574 563.919 34.5535 561.324 43.4251C560.492 46.2684 553.475 -1.47163 539.628 0.0349328C527.969 1.30348 529.162 33.4703 532.741 50.3125C532.741 50.3125 525.549 42.3946 513.004 34.1754C500.458 25.9561 485.318 28.9842 479.261 36.3383C473.205 43.6924 475.252 58.5682 488.215 67.8633C501.321 77.261 518.123 83.5212 517.589 83.7161C515.519 84.4719 499.878 88.2039 496.434 89.9257C487.349 94.4679 473.576 99.7864 476.666 114.205C479.261 126.317 504.656 127.473 512.768 123.318C508.768 129.351 497.261 147.485 506.947 158.329C520.23 173.199 544.45 131.239 544.45 131.239C544.45 131.239 550.476 165.436 561.324 161.304C572.171 157.171 574.983 137.208 574.754 127.451C580.79 140.972 610.328 165.456 622.45 154.436Z" fill="#FFC425"/>
<path d="M583.715 88.2477C583.646 87.1229 582.002 82.0147 576.465 81.5368C570.928 81.0589 567.247 84.0193 566.844 84.6738" stroke="black" stroke-width="2.59556" stroke-linecap="round"/>
<ellipse cx="9.81446" cy="11.5363" rx="9.81446" ry="11.5363" transform="matrix(-1 0 0 1 550.669 70.8906)" fill="#FDFCFC"/>
<circle cx="6.92151" cy="6.92151" r="6.92151" transform="matrix(-1 0 0 1 547.776 75.5059)" fill="black"/>
<path d="M567.71 100.794C567.308 102.171 562.519 105.057 555.165 104.192C547.811 103.327 543.829 98.6839 543.485 97.7656" stroke="black" stroke-width="2.59556" stroke-linecap="round"/>
<ellipse cx="527.278" cy="91.7103" rx="11.68" ry="11.2474" fill="url(#paint0_radial_1086_4425)"/>
<ellipse cx="582.65" cy="101.228" rx="11.68" ry="11.2474" fill="url(#paint1_radial_1086_4425)"/>
<path d="M460.593 61C470.369 77.4473 479.95 89.3322 504.593 83" stroke="#FFC425" stroke-width="5" stroke-linecap="round" stroke-dasharray="10 10"/>
<defs>
<radialGradient id="paint0_radial_1086_4425" cx="0" cy="0" r="1" gradientUnits="userSpaceOnUse" gradientTransform="translate(527.278 91.7103) rotate(90) scale(11.2474 11.68)">
<stop offset="0.0769231" stop-color="#FF6062"/>
<stop offset="1" stop-color="#D9D9D9" stop-opacity="0"/>
</radialGradient>
<radialGradient id="paint1_radial_1086_4425" cx="0" cy="0" r="1" gradientUnits="userSpaceOnUse" gradientTransform="translate(582.65 101.228) rotate(90) scale(11.2474 11.68)">
<stop offset="0.134615" stop-color="#FF6062"/>
<stop offset="1" stop-color="#D9D9D9" stop-opacity="0"/>
</radialGradient>
</defs>
</svg>
