<svg width="662" height="194" viewBox="0 0 662 194" fill="none" xmlns="http://www.w3.org/2000/svg">
<path d="M49.958 32.3147C51.9062 33.4395 53.5268 35.0537 54.6594 36.9974C55.7921 38.941 56.3974 41.1468 56.4156 43.3963C56.4338 45.6459 55.8641 47.8611 54.763 49.8228C53.6619 51.7845 52.0676 53.4247 50.1379 54.5808C48.2081 55.737 46.0099 56.3692 43.7607 56.4147C41.5116 56.4602 39.2896 55.9175 37.3146 54.8404C35.3396 53.7632 33.6803 52.1889 32.5007 50.2734C31.3211 48.3578 30.6623 46.1674 30.5895 43.919L30.583 43.5005L30.5895 43.082C30.6618 40.8513 31.3109 38.6774 32.4735 36.7722C33.6362 34.867 35.2726 33.2956 37.2233 32.2112C39.1741 31.1267 41.3725 30.5663 43.6043 30.5844C45.8361 30.6025 48.0252 31.1987 49.958 32.3147ZM48.2879 40.004C48.0655 39.7816 47.7695 39.648 47.4556 39.6282C47.1417 39.6085 46.8314 39.704 46.5829 39.8968L46.4615 40.004L42.208 44.2561L40.5379 42.5873L40.4165 42.4801C40.1679 42.2874 39.8577 42.1921 39.5438 42.2119C39.23 42.2317 38.9342 42.3653 38.7118 42.5876C38.4895 42.81 38.3558 43.1058 38.336 43.4197C38.3162 43.7335 38.4116 44.0438 38.6043 44.2923L38.7115 44.4137L41.2948 46.9971L41.4162 47.1043C41.6427 47.28 41.9213 47.3754 42.208 47.3754C42.4947 47.3754 42.7733 47.28 42.9998 47.1043L43.1212 46.9971L48.2879 41.8304L48.3951 41.709C48.5879 41.4604 48.6834 41.1501 48.6636 40.8362C48.6439 40.5223 48.5103 40.2264 48.2879 40.004Z" fill="#72AB00"/>
<path d="M87.765 32.986L83.724 46H81.537L78.693 37.108C78.615 36.892 78.543 36.628 78.477 36.316C78.441 36.466 78.405 36.607 78.369 36.739C78.333 36.871 78.294 36.994 78.252 37.108L75.381 46H73.185L69.153 32.986H71.178C71.388 32.986 71.562 33.037 71.7 33.139C71.844 33.235 71.94 33.367 71.988 33.535L74.202 41.32C74.25 41.512 74.295 41.722 74.337 41.95C74.385 42.172 74.433 42.406 74.481 42.652C74.529 42.4 74.58 42.163 74.634 41.941C74.694 41.719 74.757 41.512 74.823 41.32L77.379 33.535C77.427 33.397 77.52 33.271 77.658 33.157C77.802 33.043 77.976 32.986 78.18 32.986H78.891C79.101 32.986 79.272 33.037 79.404 33.139C79.536 33.241 79.635 33.373 79.701 33.535L82.248 41.32C82.374 41.692 82.488 42.121 82.59 42.607C82.668 42.133 82.755 41.704 82.851 41.32L85.065 33.535C85.101 33.385 85.191 33.256 85.335 33.148C85.485 33.04 85.662 32.986 85.866 32.986H87.765ZM93.8712 40.321C93.8712 40.033 93.8292 39.763 93.7452 39.511C93.6672 39.253 93.5472 39.028 93.3852 38.836C93.2232 38.644 93.0162 38.494 92.7642 38.386C92.5182 38.272 92.2302 38.215 91.9002 38.215C91.2582 38.215 90.7512 38.398 90.3792 38.764C90.0132 39.13 89.7792 39.649 89.6772 40.321H93.8712ZM89.6322 41.662C89.6682 42.136 89.7522 42.547 89.8842 42.895C90.0162 43.237 90.1902 43.522 90.4062 43.75C90.6222 43.972 90.8772 44.14 91.1712 44.254C91.4712 44.362 91.8012 44.416 92.1612 44.416C92.5212 44.416 92.8302 44.374 93.0882 44.29C93.3522 44.206 93.5802 44.113 93.7722 44.011C93.9702 43.909 94.1412 43.816 94.2852 43.732C94.4352 43.648 94.5792 43.606 94.7172 43.606C94.9032 43.606 95.0412 43.675 95.1312 43.813L95.7702 44.623C95.5242 44.911 95.2482 45.154 94.9422 45.352C94.6362 45.544 94.3152 45.7 93.9792 45.82C93.6492 45.934 93.3102 46.015 92.9622 46.063C92.6202 46.111 92.2872 46.135 91.9632 46.135C91.3212 46.135 90.7242 46.03 90.1722 45.82C89.6202 45.604 89.1402 45.289 88.7322 44.875C88.3242 44.455 88.0032 43.939 87.7692 43.327C87.5352 42.709 87.4182 41.995 87.4182 41.185C87.4182 40.555 87.5202 39.964 87.7242 39.412C87.9282 38.854 88.2192 38.371 88.5972 37.963C88.9812 37.549 89.4462 37.222 89.9922 36.982C90.5442 36.742 91.1652 36.622 91.8552 36.622C92.4372 36.622 92.9742 36.715 93.4662 36.901C93.9582 37.087 94.3812 37.36 94.7352 37.72C95.0892 38.074 95.3652 38.512 95.5632 39.034C95.7672 39.55 95.8692 40.141 95.8692 40.807C95.8692 41.143 95.8332 41.371 95.7612 41.491C95.6892 41.605 95.5512 41.662 95.3472 41.662H89.6322ZM106.792 42.058C106.15 42.088 105.61 42.145 105.172 42.229C104.734 42.307 104.383 42.409 104.119 42.535C103.855 42.661 103.666 42.808 103.552 42.976C103.438 43.144 103.381 43.327 103.381 43.525C103.381 43.915 103.495 44.194 103.723 44.362C103.957 44.53 104.26 44.614 104.632 44.614C105.088 44.614 105.481 44.533 105.811 44.371C106.147 44.203 106.474 43.951 106.792 43.615V42.058ZM101.698 38.053C102.76 37.081 104.038 36.595 105.532 36.595C106.072 36.595 106.555 36.685 106.981 36.865C107.407 37.039 107.767 37.285 108.061 37.603C108.355 37.915 108.577 38.29 108.727 38.728C108.883 39.166 108.961 39.646 108.961 40.168V46H107.953C107.743 46 107.581 45.97 107.467 45.91C107.353 45.844 107.263 45.715 107.197 45.523L106.999 44.857C106.765 45.067 106.537 45.253 106.315 45.415C106.093 45.571 105.862 45.703 105.622 45.811C105.382 45.919 105.124 46 104.848 46.054C104.578 46.114 104.278 46.144 103.948 46.144C103.558 46.144 103.198 46.093 102.868 45.991C102.538 45.883 102.253 45.724 102.013 45.514C101.773 45.304 101.587 45.043 101.455 44.731C101.323 44.419 101.257 44.056 101.257 43.642C101.257 43.408 101.296 43.177 101.374 42.949C101.452 42.715 101.578 42.493 101.752 42.283C101.932 42.073 102.163 41.875 102.445 41.689C102.727 41.503 103.072 41.341 103.48 41.203C103.894 41.065 104.374 40.954 104.92 40.87C105.466 40.78 106.09 40.726 106.792 40.708V40.168C106.792 39.55 106.66 39.094 106.396 38.8C106.132 38.5 105.751 38.35 105.253 38.35C104.893 38.35 104.593 38.392 104.353 38.476C104.119 38.56 103.912 38.656 103.732 38.764C103.552 38.866 103.387 38.959 103.237 39.043C103.093 39.127 102.931 39.169 102.751 39.169C102.595 39.169 102.463 39.13 102.355 39.052C102.247 38.968 102.16 38.872 102.094 38.764L101.698 38.053ZM113.152 38.368C113.44 37.816 113.782 37.384 114.178 37.072C114.574 36.754 115.042 36.595 115.582 36.595C116.008 36.595 116.35 36.688 116.608 36.874L116.464 38.539C116.434 38.647 116.389 38.725 116.329 38.773C116.275 38.815 116.2 38.836 116.104 38.836C116.014 38.836 115.879 38.821 115.699 38.791C115.525 38.761 115.354 38.746 115.186 38.746C114.94 38.746 114.721 38.782 114.529 38.854C114.337 38.926 114.163 39.031 114.007 39.169C113.857 39.301 113.722 39.463 113.602 39.655C113.488 39.847 113.38 40.066 113.278 40.312V46H111.055V36.766H112.36C112.588 36.766 112.747 36.808 112.837 36.892C112.927 36.97 112.987 37.114 113.017 37.324L113.152 38.368ZM123.455 40.321C123.455 40.033 123.413 39.763 123.329 39.511C123.251 39.253 123.131 39.028 122.969 38.836C122.807 38.644 122.6 38.494 122.348 38.386C122.102 38.272 121.814 38.215 121.484 38.215C120.842 38.215 120.335 38.398 119.963 38.764C119.597 39.13 119.363 39.649 119.261 40.321H123.455ZM119.216 41.662C119.252 42.136 119.336 42.547 119.468 42.895C119.6 43.237 119.774 43.522 119.99 43.75C120.206 43.972 120.461 44.14 120.755 44.254C121.055 44.362 121.385 44.416 121.745 44.416C122.105 44.416 122.414 44.374 122.672 44.29C122.936 44.206 123.164 44.113 123.356 44.011C123.554 43.909 123.725 43.816 123.869 43.732C124.019 43.648 124.163 43.606 124.301 43.606C124.487 43.606 124.625 43.675 124.715 43.813L125.354 44.623C125.108 44.911 124.832 45.154 124.526 45.352C124.22 45.544 123.899 45.7 123.563 45.82C123.233 45.934 122.894 46.015 122.546 46.063C122.204 46.111 121.871 46.135 121.547 46.135C120.905 46.135 120.308 46.03 119.756 45.82C119.204 45.604 118.724 45.289 118.316 44.875C117.908 44.455 117.587 43.939 117.353 43.327C117.119 42.709 117.002 41.995 117.002 41.185C117.002 40.555 117.104 39.964 117.308 39.412C117.512 38.854 117.803 38.371 118.181 37.963C118.565 37.549 119.03 37.222 119.576 36.982C120.128 36.742 120.749 36.622 121.439 36.622C122.021 36.622 122.558 36.715 123.05 36.901C123.542 37.087 123.965 37.36 124.319 37.72C124.673 38.074 124.949 38.512 125.147 39.034C125.351 39.55 125.453 40.141 125.453 40.807C125.453 41.143 125.417 41.371 125.345 41.491C125.273 41.605 125.135 41.662 124.931 41.662H119.216ZM136.376 42.058C135.734 42.088 135.194 42.145 134.756 42.229C134.318 42.307 133.967 42.409 133.703 42.535C133.439 42.661 133.25 42.808 133.136 42.976C133.022 43.144 132.965 43.327 132.965 43.525C132.965 43.915 133.079 44.194 133.307 44.362C133.541 44.53 133.844 44.614 134.216 44.614C134.672 44.614 135.065 44.533 135.395 44.371C135.731 44.203 136.058 43.951 136.376 43.615V42.058ZM131.282 38.053C132.344 37.081 133.622 36.595 135.116 36.595C135.656 36.595 136.139 36.685 136.565 36.865C136.991 37.039 137.351 37.285 137.645 37.603C137.939 37.915 138.161 38.29 138.311 38.728C138.467 39.166 138.545 39.646 138.545 40.168V46H137.537C137.327 46 137.165 45.97 137.051 45.91C136.937 45.844 136.847 45.715 136.781 45.523L136.583 44.857C136.349 45.067 136.121 45.253 135.899 45.415C135.677 45.571 135.446 45.703 135.206 45.811C134.966 45.919 134.708 46 134.432 46.054C134.162 46.114 133.862 46.144 133.532 46.144C133.142 46.144 132.782 46.093 132.452 45.991C132.122 45.883 131.837 45.724 131.597 45.514C131.357 45.304 131.171 45.043 131.039 44.731C130.907 44.419 130.841 44.056 130.841 43.642C130.841 43.408 130.88 43.177 130.958 42.949C131.036 42.715 131.162 42.493 131.336 42.283C131.516 42.073 131.747 41.875 132.029 41.689C132.311 41.503 132.656 41.341 133.064 41.203C133.478 41.065 133.958 40.954 134.504 40.87C135.05 40.78 135.674 40.726 136.376 40.708V40.168C136.376 39.55 136.244 39.094 135.98 38.8C135.716 38.5 135.335 38.35 134.837 38.35C134.477 38.35 134.177 38.392 133.937 38.476C133.703 38.56 133.496 38.656 133.316 38.764C133.136 38.866 132.971 38.959 132.821 39.043C132.677 39.127 132.515 39.169 132.335 39.169C132.179 39.169 132.047 39.13 131.939 39.052C131.831 38.968 131.744 38.872 131.678 38.764L131.282 38.053ZM142.889 32.626V46H140.666V32.626H142.889ZM145.104 46V36.766H146.463C146.751 36.766 146.94 36.901 147.03 37.171L147.174 37.855C147.336 37.675 147.504 37.51 147.678 37.36C147.858 37.21 148.047 37.081 148.245 36.973C148.449 36.865 148.665 36.781 148.893 36.721C149.127 36.655 149.382 36.622 149.658 36.622C150.24 36.622 150.717 36.781 151.089 37.099C151.467 37.411 151.749 37.828 151.935 38.35C152.079 38.044 152.259 37.783 152.475 37.567C152.691 37.345 152.928 37.165 153.186 37.027C153.444 36.889 153.717 36.787 154.005 36.721C154.299 36.655 154.593 36.622 154.887 36.622C155.397 36.622 155.85 36.7 156.246 36.856C156.642 37.012 156.975 37.24 157.245 37.54C157.515 37.84 157.719 38.206 157.857 38.638C158.001 39.07 158.073 39.565 158.073 40.123V46H155.85V40.123C155.85 39.535 155.721 39.094 155.463 38.8C155.205 38.5 154.827 38.35 154.329 38.35C154.101 38.35 153.888 38.389 153.69 38.467C153.498 38.545 153.327 38.659 153.177 38.809C153.033 38.953 152.919 39.136 152.835 39.358C152.751 39.58 152.709 39.835 152.709 40.123V46H150.477V40.123C150.477 39.505 150.351 39.055 150.099 38.773C149.853 38.491 149.49 38.35 149.01 38.35C148.686 38.35 148.383 38.431 148.101 38.593C147.825 38.749 147.567 38.965 147.327 39.241V46H145.104ZM164.272 36.622C164.956 36.622 165.577 36.733 166.135 36.955C166.699 37.177 167.179 37.492 167.575 37.9C167.977 38.308 168.286 38.806 168.502 39.394C168.718 39.982 168.826 40.639 168.826 41.365C168.826 42.097 168.718 42.757 168.502 43.345C168.286 43.933 167.977 44.434 167.575 44.848C167.179 45.262 166.699 45.58 166.135 45.802C165.577 46.024 164.956 46.135 164.272 46.135C163.582 46.135 162.955 46.024 162.391 45.802C161.827 45.58 161.344 45.262 160.942 44.848C160.546 44.434 160.237 43.933 160.015 43.345C159.799 42.757 159.691 42.097 159.691 41.365C159.691 40.639 159.799 39.982 160.015 39.394C160.237 38.806 160.546 38.308 160.942 37.9C161.344 37.492 161.827 37.177 162.391 36.955C162.955 36.733 163.582 36.622 164.272 36.622ZM164.272 44.425C165.04 44.425 165.607 44.167 165.973 43.651C166.345 43.135 166.531 42.379 166.531 41.383C166.531 40.387 166.345 39.628 165.973 39.106C165.607 38.584 165.04 38.323 164.272 38.323C163.492 38.323 162.913 38.587 162.535 39.115C162.163 39.637 161.977 40.393 161.977 41.383C161.977 42.373 162.163 43.129 162.535 43.651C162.913 44.167 163.492 44.425 164.272 44.425ZM176.156 38.566C176.096 38.662 176.033 38.731 175.967 38.773C175.901 38.809 175.817 38.827 175.715 38.827C175.607 38.827 175.49 38.797 175.364 38.737C175.244 38.677 175.103 38.611 174.941 38.539C174.779 38.461 174.593 38.392 174.383 38.332C174.179 38.272 173.936 38.242 173.654 38.242C173.216 38.242 172.871 38.335 172.619 38.521C172.373 38.707 172.25 38.95 172.25 39.25C172.25 39.448 172.313 39.616 172.439 39.754C172.571 39.886 172.742 40.003 172.952 40.105C173.168 40.207 173.411 40.3 173.681 40.384C173.951 40.462 174.224 40.549 174.5 40.645C174.782 40.741 175.058 40.852 175.328 40.978C175.598 41.098 175.838 41.254 176.048 41.446C176.264 41.632 176.435 41.857 176.561 42.121C176.693 42.385 176.759 42.703 176.759 43.075C176.759 43.519 176.678 43.93 176.516 44.308C176.36 44.68 176.126 45.004 175.814 45.28C175.502 45.55 175.115 45.763 174.653 45.919C174.197 46.069 173.669 46.144 173.069 46.144C172.751 46.144 172.439 46.114 172.133 46.054C171.833 46 171.542 45.922 171.26 45.82C170.984 45.718 170.726 45.598 170.486 45.46C170.252 45.322 170.045 45.172 169.865 45.01L170.378 44.164C170.444 44.062 170.522 43.984 170.612 43.93C170.702 43.876 170.816 43.849 170.954 43.849C171.092 43.849 171.221 43.888 171.341 43.966C171.467 44.044 171.611 44.128 171.773 44.218C171.935 44.308 172.124 44.392 172.34 44.47C172.562 44.548 172.841 44.587 173.177 44.587C173.441 44.587 173.666 44.557 173.852 44.497C174.044 44.431 174.2 44.347 174.32 44.245C174.446 44.143 174.536 44.026 174.59 43.894C174.65 43.756 174.68 43.615 174.68 43.471C174.68 43.255 174.614 43.078 174.482 42.94C174.356 42.802 174.185 42.682 173.969 42.58C173.759 42.478 173.516 42.388 173.24 42.31C172.97 42.226 172.691 42.136 172.403 42.04C172.121 41.944 171.842 41.833 171.566 41.707C171.296 41.575 171.053 41.41 170.837 41.212C170.627 41.014 170.456 40.771 170.324 40.483C170.198 40.195 170.135 39.847 170.135 39.439C170.135 39.061 170.21 38.701 170.36 38.359C170.51 38.017 170.729 37.72 171.017 37.468C171.311 37.21 171.674 37.006 172.106 36.856C172.544 36.7 173.048 36.622 173.618 36.622C174.254 36.622 174.833 36.727 175.355 36.937C175.877 37.147 176.312 37.423 176.66 37.765L176.156 38.566ZM181.51 46.144C180.706 46.144 180.088 45.919 179.656 45.469C179.23 45.013 179.017 44.386 179.017 43.588V38.431H178.072C177.952 38.431 177.85 38.392 177.766 38.314C177.682 38.236 177.64 38.119 177.64 37.963V37.081L179.125 36.838L179.593 34.318C179.623 34.198 179.68 34.105 179.764 34.039C179.848 33.973 179.956 33.94 180.088 33.94H181.24V36.847H183.706V38.431H181.24V43.435C181.24 43.723 181.309 43.948 181.447 44.11C181.591 44.272 181.786 44.353 182.032 44.353C182.17 44.353 182.284 44.338 182.374 44.308C182.47 44.272 182.551 44.236 182.617 44.2C182.689 44.164 182.752 44.131 182.806 44.101C182.86 44.065 182.914 44.047 182.968 44.047C183.034 44.047 183.088 44.065 183.13 44.101C183.172 44.131 183.217 44.179 183.265 44.245L183.931 45.325C183.607 45.595 183.235 45.799 182.815 45.937C182.395 46.075 181.96 46.144 181.51 46.144ZM192.584 46.144C191.78 46.144 191.162 45.919 190.73 45.469C190.304 45.013 190.091 44.386 190.091 43.588V38.431H189.146C189.026 38.431 188.924 38.392 188.84 38.314C188.756 38.236 188.714 38.119 188.714 37.963V37.081L190.199 36.838L190.667 34.318C190.697 34.198 190.754 34.105 190.838 34.039C190.922 33.973 191.03 33.94 191.162 33.94H192.314V36.847H194.78V38.431H192.314V43.435C192.314 43.723 192.383 43.948 192.521 44.11C192.665 44.272 192.86 44.353 193.106 44.353C193.244 44.353 193.358 44.338 193.448 44.308C193.544 44.272 193.625 44.236 193.691 44.2C193.763 44.164 193.826 44.131 193.88 44.101C193.934 44.065 193.988 44.047 194.042 44.047C194.108 44.047 194.162 44.065 194.204 44.101C194.246 44.131 194.291 44.179 194.339 44.245L195.005 45.325C194.681 45.595 194.309 45.799 193.889 45.937C193.469 46.075 193.034 46.144 192.584 46.144ZM198.426 37.756C198.786 37.42 199.182 37.147 199.614 36.937C200.046 36.727 200.553 36.622 201.135 36.622C201.639 36.622 202.086 36.709 202.476 36.883C202.866 37.051 203.19 37.291 203.448 37.603C203.712 37.909 203.91 38.278 204.042 38.71C204.18 39.136 204.249 39.607 204.249 40.123V46H202.026V40.123C202.026 39.559 201.897 39.124 201.639 38.818C201.381 38.506 200.988 38.35 200.46 38.35C200.076 38.35 199.716 38.437 199.38 38.611C199.044 38.785 198.726 39.022 198.426 39.322V46H196.203V32.626H198.426V37.756ZM212.313 40.321C212.313 40.033 212.271 39.763 212.187 39.511C212.109 39.253 211.989 39.028 211.827 38.836C211.665 38.644 211.458 38.494 211.206 38.386C210.96 38.272 210.672 38.215 210.342 38.215C209.7 38.215 209.193 38.398 208.821 38.764C208.455 39.13 208.221 39.649 208.119 40.321H212.313ZM208.074 41.662C208.11 42.136 208.194 42.547 208.326 42.895C208.458 43.237 208.632 43.522 208.848 43.75C209.064 43.972 209.319 44.14 209.613 44.254C209.913 44.362 210.243 44.416 210.603 44.416C210.963 44.416 211.272 44.374 211.53 44.29C211.794 44.206 212.022 44.113 212.214 44.011C212.412 43.909 212.583 43.816 212.727 43.732C212.877 43.648 213.021 43.606 213.159 43.606C213.345 43.606 213.483 43.675 213.573 43.813L214.212 44.623C213.966 44.911 213.69 45.154 213.384 45.352C213.078 45.544 212.757 45.7 212.421 45.82C212.091 45.934 211.752 46.015 211.404 46.063C211.062 46.111 210.729 46.135 210.405 46.135C209.763 46.135 209.166 46.03 208.614 45.82C208.062 45.604 207.582 45.289 207.174 44.875C206.766 44.455 206.445 43.939 206.211 43.327C205.977 42.709 205.86 41.995 205.86 41.185C205.86 40.555 205.962 39.964 206.166 39.412C206.37 38.854 206.661 38.371 207.039 37.963C207.423 37.549 207.888 37.222 208.434 36.982C208.986 36.742 209.607 36.622 210.297 36.622C210.879 36.622 211.416 36.715 211.908 36.901C212.4 37.087 212.823 37.36 213.177 37.72C213.531 38.074 213.807 38.512 214.005 39.034C214.209 39.55 214.311 40.141 214.311 40.807C214.311 41.143 214.275 41.371 214.203 41.491C214.131 41.605 213.993 41.662 213.789 41.662H208.074ZM218.076 38.368C218.364 37.816 218.706 37.384 219.102 37.072C219.498 36.754 219.966 36.595 220.506 36.595C220.932 36.595 221.274 36.688 221.532 36.874L221.388 38.539C221.358 38.647 221.313 38.725 221.253 38.773C221.199 38.815 221.124 38.836 221.028 38.836C220.938 38.836 220.803 38.821 220.623 38.791C220.449 38.761 220.278 38.746 220.11 38.746C219.864 38.746 219.645 38.782 219.453 38.854C219.261 38.926 219.087 39.031 218.931 39.169C218.781 39.301 218.646 39.463 218.526 39.655C218.412 39.847 218.304 40.066 218.202 40.312V46H215.979V36.766H217.284C217.512 36.766 217.671 36.808 217.761 36.892C217.851 36.97 217.911 37.114 217.941 37.324L218.076 38.368ZM228.379 40.321C228.379 40.033 228.337 39.763 228.253 39.511C228.175 39.253 228.055 39.028 227.893 38.836C227.731 38.644 227.524 38.494 227.272 38.386C227.026 38.272 226.738 38.215 226.408 38.215C225.766 38.215 225.259 38.398 224.887 38.764C224.521 39.13 224.287 39.649 224.185 40.321H228.379ZM224.14 41.662C224.176 42.136 224.26 42.547 224.392 42.895C224.524 43.237 224.698 43.522 224.914 43.75C225.13 43.972 225.385 44.14 225.679 44.254C225.979 44.362 226.309 44.416 226.669 44.416C227.029 44.416 227.338 44.374 227.596 44.29C227.86 44.206 228.088 44.113 228.28 44.011C228.478 43.909 228.649 43.816 228.793 43.732C228.943 43.648 229.087 43.606 229.225 43.606C229.411 43.606 229.549 43.675 229.639 43.813L230.278 44.623C230.032 44.911 229.756 45.154 229.45 45.352C229.144 45.544 228.823 45.7 228.487 45.82C228.157 45.934 227.818 46.015 227.47 46.063C227.128 46.111 226.795 46.135 226.471 46.135C225.829 46.135 225.232 46.03 224.68 45.82C224.128 45.604 223.648 45.289 223.24 44.875C222.832 44.455 222.511 43.939 222.277 43.327C222.043 42.709 221.926 41.995 221.926 41.185C221.926 40.555 222.028 39.964 222.232 39.412C222.436 38.854 222.727 38.371 223.105 37.963C223.489 37.549 223.954 37.222 224.5 36.982C225.052 36.742 225.673 36.622 226.363 36.622C226.945 36.622 227.482 36.715 227.974 36.901C228.466 37.087 228.889 37.36 229.243 37.72C229.597 38.074 229.873 38.512 230.071 39.034C230.275 39.55 230.377 40.141 230.377 40.807C230.377 41.143 230.341 41.371 230.269 41.491C230.197 41.605 230.059 41.662 229.855 41.662H224.14ZM234.529 32.986V38.134C234.529 38.68 234.502 39.217 234.448 39.745C234.394 40.267 234.325 40.822 234.241 41.41H232.729C232.645 40.822 232.576 40.267 232.522 39.745C232.468 39.217 232.441 38.68 232.441 38.134V32.986H234.529ZM232.09 44.776C232.09 44.59 232.123 44.413 232.189 44.245C232.261 44.077 232.357 43.933 232.477 43.813C232.603 43.693 232.75 43.597 232.918 43.525C233.086 43.453 233.266 43.417 233.458 43.417C233.644 43.417 233.821 43.453 233.989 43.525C234.157 43.597 234.301 43.693 234.421 43.813C234.547 43.933 234.646 44.077 234.718 44.245C234.79 44.413 234.826 44.59 234.826 44.776C234.826 44.968 234.79 45.148 234.718 45.316C234.646 45.478 234.547 45.619 234.421 45.739C234.301 45.859 234.157 45.952 233.989 46.018C233.821 46.09 233.644 46.126 233.458 46.126C233.266 46.126 233.086 46.09 232.918 46.018C232.75 45.952 232.603 45.859 232.477 45.739C232.357 45.619 232.261 45.478 232.189 45.316C232.123 45.148 232.09 44.968 232.09 44.776ZM239.592 32.986V38.134C239.592 38.68 239.565 39.217 239.511 39.745C239.457 40.267 239.388 40.822 239.304 41.41H237.792C237.708 40.822 237.639 40.267 237.585 39.745C237.531 39.217 237.504 38.68 237.504 38.134V32.986H239.592ZM237.153 44.776C237.153 44.59 237.186 44.413 237.252 44.245C237.324 44.077 237.42 43.933 237.54 43.813C237.666 43.693 237.813 43.597 237.981 43.525C238.149 43.453 238.329 43.417 238.521 43.417C238.707 43.417 238.884 43.453 239.052 43.525C239.22 43.597 239.364 43.693 239.484 43.813C239.61 43.933 239.709 44.077 239.781 44.245C239.853 44.413 239.889 44.59 239.889 44.776C239.889 44.968 239.853 45.148 239.781 45.316C239.709 45.478 239.61 45.619 239.484 45.739C239.364 45.859 239.22 45.952 239.052 46.018C238.884 46.09 238.707 46.126 238.521 46.126C238.329 46.126 238.149 46.09 237.981 46.018C237.813 45.952 237.666 45.859 237.54 45.739C237.42 45.619 237.324 45.478 237.252 45.316C237.186 45.148 237.153 44.968 237.153 44.776ZM244.654 32.986V38.134C244.654 38.68 244.627 39.217 244.573 39.745C244.519 40.267 244.45 40.822 244.366 41.41H242.854C242.77 40.822 242.701 40.267 242.647 39.745C242.593 39.217 242.566 38.68 242.566 38.134V32.986H244.654ZM242.215 44.776C242.215 44.59 242.248 44.413 242.314 44.245C242.386 44.077 242.482 43.933 242.602 43.813C242.728 43.693 242.875 43.597 243.043 43.525C243.211 43.453 243.391 43.417 243.583 43.417C243.769 43.417 243.946 43.453 244.114 43.525C244.282 43.597 244.426 43.693 244.546 43.813C244.672 43.933 244.771 44.077 244.843 44.245C244.915 44.413 244.951 44.59 244.951 44.776C244.951 44.968 244.915 45.148 244.843 45.316C244.771 45.478 244.672 45.619 244.546 45.739C244.426 45.859 244.282 45.952 244.114 46.018C243.946 46.09 243.769 46.126 243.583 46.126C243.391 46.126 243.211 46.09 243.043 46.018C242.875 45.952 242.728 45.859 242.602 45.739C242.482 45.619 242.386 45.478 242.314 45.316C242.248 45.148 242.215 44.968 242.215 44.776Z" fill="#1A2BC3"/>
<path d="M81.096 77.103V90H80.223C80.085 90 79.968 89.976 79.872 89.928C79.782 89.88 79.692 89.799 79.602 89.685L72.141 79.965C72.153 80.115 72.162 80.262 72.168 80.406C72.174 80.55 72.177 80.685 72.177 80.811V90H70.647V77.103H71.547C71.625 77.103 71.691 77.109 71.745 77.121C71.799 77.127 71.847 77.142 71.889 77.166C71.931 77.184 71.973 77.214 72.015 77.256C72.057 77.292 72.102 77.34 72.15 77.4L79.611 87.111C79.599 86.955 79.587 86.805 79.575 86.661C79.569 86.511 79.566 86.37 79.566 86.238V77.103H81.096ZM87.5768 80.739C88.2428 80.739 88.8428 80.85 89.3768 81.072C89.9108 81.294 90.3668 81.609 90.7448 82.017C91.1228 82.425 91.4108 82.92 91.6088 83.502C91.8128 84.078 91.9148 84.723 91.9148 85.437C91.9148 86.157 91.8128 86.805 91.6088 87.381C91.4108 87.957 91.1228 88.449 90.7448 88.857C90.3668 89.265 89.9108 89.58 89.3768 89.802C88.8428 90.018 88.2428 90.126 87.5768 90.126C86.9048 90.126 86.2988 90.018 85.7588 89.802C85.2248 89.58 84.7688 89.265 84.3908 88.857C84.0128 88.449 83.7218 87.957 83.5178 87.381C83.3198 86.805 83.2208 86.157 83.2208 85.437C83.2208 84.723 83.3198 84.078 83.5178 83.502C83.7218 82.92 84.0128 82.425 84.3908 82.017C84.7688 81.609 85.2248 81.294 85.7588 81.072C86.2988 80.85 86.9048 80.739 87.5768 80.739ZM87.5768 88.875C88.4768 88.875 89.1488 88.575 89.5928 87.975C90.0368 87.369 90.2588 86.526 90.2588 85.446C90.2588 84.36 90.0368 83.514 89.5928 82.908C89.1488 82.302 88.4768 81.999 87.5768 81.999C87.1208 81.999 86.7218 82.077 86.3798 82.233C86.0438 82.389 85.7618 82.614 85.5338 82.908C85.3118 83.202 85.1438 83.565 85.0298 83.997C84.9218 84.423 84.8678 84.906 84.8678 85.446C84.8678 86.526 85.0898 87.369 85.5338 87.975C85.9838 88.575 86.6648 88.875 87.5768 88.875ZM106.379 80.883L103.427 90H102.158C102.002 90 101.894 89.898 101.834 89.694L99.8181 83.511C99.7701 83.373 99.7311 83.235 99.7011 83.097C99.6711 82.953 99.6411 82.812 99.6111 82.674C99.5811 82.812 99.5511 82.953 99.5211 83.097C99.4911 83.235 99.4521 83.376 99.4041 83.52L97.3521 89.694C97.2981 89.898 97.1781 90 96.9921 90H95.7861L92.8341 80.883H94.0941C94.2201 80.883 94.3251 80.916 94.4091 80.982C94.4991 81.048 94.5591 81.126 94.5891 81.216L96.3351 87.084C96.4371 87.516 96.5181 87.924 96.5781 88.308C96.6321 88.11 96.6861 87.909 96.7401 87.705C96.8001 87.501 96.8631 87.294 96.9291 87.084L98.8551 81.18C98.8851 81.09 98.9361 81.015 99.0081 80.955C99.0861 80.895 99.1791 80.865 99.2871 80.865H99.9891C100.109 80.865 100.208 80.895 100.286 80.955C100.364 81.015 100.418 81.09 100.448 81.18L102.329 87.084C102.395 87.294 102.455 87.501 102.509 87.705C102.563 87.909 102.614 88.11 102.662 88.308C102.692 88.11 102.728 87.912 102.77 87.714C102.818 87.51 102.869 87.3 102.923 87.084L104.705 81.216C104.735 81.12 104.792 81.042 104.876 80.982C104.96 80.916 105.059 80.883 105.173 80.883H106.379ZM114.974 90.144C114.254 90.144 113.699 89.943 113.309 89.541C112.925 89.139 112.733 88.56 112.733 87.804V82.224H111.635C111.539 82.224 111.458 82.197 111.392 82.143C111.326 82.083 111.293 81.993 111.293 81.873V81.234L112.787 81.045L113.156 78.228C113.174 78.138 113.213 78.066 113.273 78.012C113.339 77.952 113.423 77.922 113.525 77.922H114.335V81.063H116.972V82.224H114.335V87.696C114.335 88.08 114.428 88.365 114.614 88.551C114.8 88.737 115.04 88.83 115.334 88.83C115.502 88.83 115.646 88.809 115.766 88.767C115.892 88.719 116 88.668 116.09 88.614C116.18 88.56 116.255 88.512 116.315 88.47C116.381 88.422 116.438 88.398 116.486 88.398C116.57 88.398 116.645 88.449 116.711 88.551L117.179 89.316C116.903 89.574 116.57 89.778 116.18 89.928C115.79 90.072 115.388 90.144 114.974 90.144ZM120.237 82.098C120.627 81.684 121.059 81.354 121.533 81.108C122.007 80.862 122.553 80.739 123.171 80.739C123.669 80.739 124.107 80.823 124.485 80.991C124.869 81.153 125.187 81.387 125.439 81.693C125.697 81.993 125.892 82.356 126.024 82.782C126.156 83.208 126.222 83.679 126.222 84.195V90H124.611V84.195C124.611 83.505 124.452 82.971 124.134 82.593C123.822 82.209 123.345 82.017 122.703 82.017C122.229 82.017 121.785 82.131 121.371 82.359C120.963 82.587 120.585 82.896 120.237 83.286V90H118.626V76.743H120.237V82.098ZM134.766 84.447C134.766 84.075 134.712 83.736 134.604 83.43C134.502 83.118 134.349 82.851 134.145 82.629C133.947 82.401 133.704 82.227 133.416 82.107C133.128 81.981 132.801 81.918 132.435 81.918C131.667 81.918 131.058 82.143 130.608 82.593C130.164 83.037 129.888 83.655 129.78 84.447H134.766ZM136.062 88.722C135.864 88.962 135.627 89.172 135.351 89.352C135.075 89.526 134.778 89.67 134.46 89.784C134.148 89.898 133.824 89.982 133.488 90.036C133.152 90.096 132.819 90.126 132.489 90.126C131.859 90.126 131.277 90.021 130.743 89.811C130.215 89.595 129.756 89.283 129.366 88.875C128.982 88.461 128.682 87.951 128.466 87.345C128.25 86.739 128.142 86.043 128.142 85.257C128.142 84.621 128.238 84.027 128.43 83.475C128.628 82.923 128.91 82.446 129.276 82.044C129.642 81.636 130.089 81.318 130.617 81.09C131.145 80.856 131.739 80.739 132.399 80.739C132.945 80.739 133.449 80.832 133.911 81.018C134.379 81.198 134.781 81.462 135.117 81.81C135.459 82.152 135.726 82.578 135.918 83.088C136.11 83.592 136.206 84.168 136.206 84.816C136.206 85.068 136.179 85.236 136.125 85.32C136.071 85.404 135.969 85.446 135.819 85.446H129.726C129.744 86.022 129.822 86.523 129.96 86.949C130.104 87.375 130.302 87.732 130.554 88.02C130.806 88.302 131.106 88.515 131.454 88.659C131.802 88.797 132.192 88.866 132.624 88.866C133.026 88.866 133.371 88.821 133.659 88.731C133.953 88.635 134.205 88.533 134.415 88.425C134.625 88.317 134.799 88.218 134.937 88.128C135.081 88.032 135.204 87.984 135.306 87.984C135.438 87.984 135.54 88.035 135.612 88.137L136.062 88.722ZM149.124 82.503C149.076 82.569 149.028 82.62 148.98 82.656C148.932 82.692 148.866 82.71 148.782 82.71C148.692 82.71 148.593 82.674 148.485 82.602C148.377 82.524 148.242 82.44 148.08 82.35C147.924 82.26 147.729 82.179 147.495 82.107C147.267 82.029 146.985 81.99 146.649 81.99C146.199 81.99 145.803 82.071 145.461 82.233C145.119 82.389 144.831 82.617 144.597 82.917C144.369 83.217 144.195 83.58 144.075 84.006C143.961 84.432 143.904 84.909 143.904 85.437C143.904 85.989 143.967 86.481 144.093 86.913C144.219 87.339 144.396 87.699 144.624 87.993C144.858 88.281 145.137 88.503 145.461 88.659C145.791 88.809 146.16 88.884 146.568 88.884C146.958 88.884 147.279 88.839 147.531 88.749C147.783 88.653 147.99 88.548 148.152 88.434C148.32 88.32 148.458 88.218 148.566 88.128C148.68 88.032 148.791 87.984 148.899 87.984C149.031 87.984 149.133 88.035 149.205 88.137L149.655 88.722C149.457 88.968 149.232 89.178 148.98 89.352C148.728 89.526 148.455 89.673 148.161 89.793C147.873 89.907 147.57 89.991 147.252 90.045C146.934 90.099 146.61 90.126 146.28 90.126C145.71 90.126 145.179 90.021 144.687 89.811C144.201 89.601 143.778 89.298 143.418 88.902C143.058 88.5 142.776 88.008 142.572 87.426C142.368 86.844 142.266 86.181 142.266 85.437C142.266 84.759 142.359 84.132 142.545 83.556C142.737 82.98 143.013 82.485 143.373 82.071C143.739 81.651 144.186 81.324 144.714 81.09C145.248 80.856 145.86 80.739 146.55 80.739C147.192 80.739 147.756 80.844 148.242 81.054C148.734 81.258 149.169 81.549 149.547 81.927L149.124 82.503ZM153.066 80.883V90H151.464V80.883H153.066ZM153.408 78.021C153.408 78.177 153.375 78.324 153.309 78.462C153.249 78.594 153.165 78.714 153.057 78.822C152.955 78.924 152.832 79.005 152.688 79.065C152.55 79.125 152.403 79.155 152.247 79.155C152.091 79.155 151.944 79.125 151.806 79.065C151.674 79.005 151.557 78.924 151.455 78.822C151.353 78.714 151.272 78.594 151.212 78.462C151.152 78.324 151.122 78.177 151.122 78.021C151.122 77.865 151.152 77.718 151.212 77.58C151.272 77.436 151.353 77.313 151.455 77.211C151.557 77.103 151.674 77.019 151.806 76.959C151.944 76.899 152.091 76.869 152.247 76.869C152.403 76.869 152.55 76.899 152.688 76.959C152.832 77.019 152.955 77.103 153.057 77.211C153.165 77.313 153.249 77.436 153.309 77.58C153.375 77.718 153.408 77.865 153.408 78.021ZM157.22 82.71C157.508 82.086 157.862 81.6 158.282 81.252C158.702 80.898 159.215 80.721 159.821 80.721C160.013 80.721 160.196 80.742 160.37 80.784C160.55 80.826 160.709 80.892 160.847 80.982L160.73 82.179C160.694 82.329 160.604 82.404 160.46 82.404C160.376 82.404 160.253 82.386 160.091 82.35C159.929 82.314 159.746 82.296 159.542 82.296C159.254 82.296 158.996 82.338 158.768 82.422C158.546 82.506 158.345 82.632 158.165 82.8C157.991 82.962 157.832 83.166 157.688 83.412C157.55 83.652 157.424 83.928 157.31 84.24V90H155.699V80.883H156.617C156.791 80.883 156.911 80.916 156.977 80.982C157.043 81.048 157.088 81.162 157.112 81.324L157.22 82.71ZM168.231 82.503C168.183 82.569 168.135 82.62 168.087 82.656C168.039 82.692 167.973 82.71 167.889 82.71C167.799 82.71 167.7 82.674 167.592 82.602C167.484 82.524 167.349 82.44 167.187 82.35C167.031 82.26 166.836 82.179 166.602 82.107C166.374 82.029 166.092 81.99 165.756 81.99C165.306 81.99 164.91 82.071 164.568 82.233C164.226 82.389 163.938 82.617 163.704 82.917C163.476 83.217 163.302 83.58 163.182 84.006C163.068 84.432 163.011 84.909 163.011 85.437C163.011 85.989 163.074 86.481 163.2 86.913C163.326 87.339 163.503 87.699 163.731 87.993C163.965 88.281 164.244 88.503 164.568 88.659C164.898 88.809 165.267 88.884 165.675 88.884C166.065 88.884 166.386 88.839 166.638 88.749C166.89 88.653 167.097 88.548 167.259 88.434C167.427 88.32 167.565 88.218 167.673 88.128C167.787 88.032 167.898 87.984 168.006 87.984C168.138 87.984 168.24 88.035 168.312 88.137L168.762 88.722C168.564 88.968 168.339 89.178 168.087 89.352C167.835 89.526 167.562 89.673 167.268 89.793C166.98 89.907 166.677 89.991 166.359 90.045C166.041 90.099 165.717 90.126 165.387 90.126C164.817 90.126 164.286 90.021 163.794 89.811C163.308 89.601 162.885 89.298 162.525 88.902C162.165 88.5 161.883 88.008 161.679 87.426C161.475 86.844 161.373 86.181 161.373 85.437C161.373 84.759 161.466 84.132 161.652 83.556C161.844 82.98 162.12 82.485 162.48 82.071C162.846 81.651 163.293 81.324 163.821 81.09C164.355 80.856 164.967 80.739 165.657 80.739C166.299 80.739 166.863 80.844 167.349 81.054C167.841 81.258 168.276 81.549 168.654 81.927L168.231 82.503ZM177.979 80.883V90H177.025C176.797 90 176.653 89.889 176.593 89.667L176.467 88.686C176.071 89.124 175.627 89.478 175.135 89.748C174.643 90.012 174.079 90.144 173.443 90.144C172.945 90.144 172.504 90.063 172.12 89.901C171.742 89.733 171.424 89.499 171.166 89.199C170.908 88.899 170.713 88.536 170.581 88.11C170.455 87.684 170.392 87.213 170.392 86.697V80.883H171.994V86.697C171.994 87.387 172.15 87.921 172.462 88.299C172.78 88.677 173.263 88.866 173.911 88.866C174.385 88.866 174.826 88.755 175.234 88.533C175.648 88.305 176.029 87.993 176.377 87.597V80.883H177.979ZM182.211 80.883V90H180.609V80.883H182.211ZM182.553 78.021C182.553 78.177 182.52 78.324 182.454 78.462C182.394 78.594 182.31 78.714 182.202 78.822C182.1 78.924 181.977 79.005 181.833 79.065C181.695 79.125 181.548 79.155 181.392 79.155C181.236 79.155 181.089 79.125 180.951 79.065C180.819 79.005 180.702 78.924 180.6 78.822C180.498 78.714 180.417 78.594 180.357 78.462C180.297 78.324 180.267 78.177 180.267 78.021C180.267 77.865 180.297 77.718 180.357 77.58C180.417 77.436 180.498 77.313 180.6 77.211C180.702 77.103 180.819 77.019 180.951 76.959C181.089 76.899 181.236 76.869 181.392 76.869C181.548 76.869 181.695 76.899 181.833 76.959C181.977 77.019 182.1 77.103 182.202 77.211C182.31 77.313 182.394 77.436 182.454 77.58C182.52 77.718 182.553 77.865 182.553 78.021ZM187.642 90.144C186.922 90.144 186.367 89.943 185.977 89.541C185.593 89.139 185.401 88.56 185.401 87.804V82.224H184.303C184.207 82.224 184.126 82.197 184.06 82.143C183.994 82.083 183.961 81.993 183.961 81.873V81.234L185.455 81.045L185.824 78.228C185.842 78.138 185.881 78.066 185.941 78.012C186.007 77.952 186.091 77.922 186.193 77.922H187.003V81.063H189.64V82.224H187.003V87.696C187.003 88.08 187.096 88.365 187.282 88.551C187.468 88.737 187.708 88.83 188.002 88.83C188.17 88.83 188.314 88.809 188.434 88.767C188.56 88.719 188.668 88.668 188.758 88.614C188.848 88.56 188.923 88.512 188.983 88.47C189.049 88.422 189.106 88.398 189.154 88.398C189.238 88.398 189.313 88.449 189.379 88.551L189.847 89.316C189.571 89.574 189.238 89.778 188.848 89.928C188.458 90.072 188.056 90.144 187.642 90.144ZM197.592 80.883V90H195.99V80.883H197.592ZM197.934 78.021C197.934 78.177 197.901 78.324 197.835 78.462C197.775 78.594 197.691 78.714 197.583 78.822C197.481 78.924 197.358 79.005 197.214 79.065C197.076 79.125 196.929 79.155 196.773 79.155C196.617 79.155 196.47 79.125 196.332 79.065C196.2 79.005 196.083 78.924 195.981 78.822C195.879 78.714 195.798 78.594 195.738 78.462C195.678 78.324 195.648 78.177 195.648 78.021C195.648 77.865 195.678 77.718 195.738 77.58C195.798 77.436 195.879 77.313 195.981 77.211C196.083 77.103 196.2 77.019 196.332 76.959C196.47 76.899 196.617 76.869 196.773 76.869C196.929 76.869 197.076 76.899 197.214 76.959C197.358 77.019 197.481 77.103 197.583 77.211C197.691 77.313 197.775 77.436 197.835 77.58C197.901 77.718 197.934 77.865 197.934 78.021ZM205.534 82.386C205.462 82.518 205.351 82.584 205.201 82.584C205.111 82.584 205.009 82.551 204.895 82.485C204.781 82.419 204.64 82.347 204.472 82.269C204.31 82.185 204.115 82.11 203.887 82.044C203.659 81.972 203.389 81.936 203.077 81.936C202.807 81.936 202.564 81.972 202.348 82.044C202.132 82.11 201.946 82.203 201.79 82.323C201.64 82.443 201.523 82.584 201.439 82.746C201.361 82.902 201.322 83.073 201.322 83.259C201.322 83.493 201.388 83.688 201.52 83.844C201.658 84 201.838 84.135 202.06 84.249C202.282 84.363 202.534 84.465 202.816 84.555C203.098 84.639 203.386 84.732 203.68 84.834C203.98 84.93 204.271 85.038 204.553 85.158C204.835 85.278 205.087 85.428 205.309 85.608C205.531 85.788 205.708 86.01 205.84 86.274C205.978 86.532 206.047 86.844 206.047 87.21C206.047 87.63 205.972 88.02 205.822 88.38C205.672 88.734 205.45 89.043 205.156 89.307C204.862 89.565 204.502 89.769 204.076 89.919C203.65 90.069 203.158 90.144 202.6 90.144C201.964 90.144 201.388 90.042 200.872 89.838C200.356 89.628 199.918 89.361 199.558 89.037L199.936 88.425C199.984 88.347 200.041 88.287 200.107 88.245C200.173 88.203 200.257 88.182 200.359 88.182C200.467 88.182 200.581 88.224 200.701 88.308C200.821 88.392 200.965 88.485 201.133 88.587C201.307 88.689 201.517 88.782 201.763 88.866C202.009 88.95 202.315 88.992 202.681 88.992C202.993 88.992 203.266 88.953 203.5 88.875C203.734 88.791 203.929 88.68 204.085 88.542C204.241 88.404 204.355 88.245 204.427 88.065C204.505 87.885 204.544 87.693 204.544 87.489C204.544 87.237 204.475 87.03 204.337 86.868C204.205 86.7 204.028 86.559 203.806 86.445C203.584 86.325 203.329 86.223 203.041 86.139C202.759 86.049 202.468 85.956 202.168 85.86C201.874 85.764 201.583 85.656 201.295 85.536C201.013 85.41 200.761 85.254 200.539 85.068C200.317 84.882 200.137 84.654 199.999 84.384C199.867 84.108 199.801 83.775 199.801 83.385C199.801 83.037 199.873 82.704 200.017 82.386C200.161 82.062 200.371 81.78 200.647 81.54C200.923 81.294 201.262 81.099 201.664 80.955C202.066 80.811 202.525 80.739 203.041 80.739C203.641 80.739 204.178 80.835 204.652 81.027C205.132 81.213 205.546 81.471 205.894 81.801L205.534 82.386ZM218.962 82.503C218.914 82.569 218.866 82.62 218.818 82.656C218.77 82.692 218.704 82.71 218.62 82.71C218.53 82.71 218.431 82.674 218.323 82.602C218.215 82.524 218.08 82.44 217.918 82.35C217.762 82.26 217.567 82.179 217.333 82.107C217.105 82.029 216.823 81.99 216.487 81.99C216.037 81.99 215.641 82.071 215.299 82.233C214.957 82.389 214.669 82.617 214.435 82.917C214.207 83.217 214.033 83.58 213.913 84.006C213.799 84.432 213.742 84.909 213.742 85.437C213.742 85.989 213.805 86.481 213.931 86.913C214.057 87.339 214.234 87.699 214.462 87.993C214.696 88.281 214.975 88.503 215.299 88.659C215.629 88.809 215.998 88.884 216.406 88.884C216.796 88.884 217.117 88.839 217.369 88.749C217.621 88.653 217.828 88.548 217.99 88.434C218.158 88.32 218.296 88.218 218.404 88.128C218.518 88.032 218.629 87.984 218.737 87.984C218.869 87.984 218.971 88.035 219.043 88.137L219.493 88.722C219.295 88.968 219.07 89.178 218.818 89.352C218.566 89.526 218.293 89.673 217.999 89.793C217.711 89.907 217.408 89.991 217.09 90.045C216.772 90.099 216.448 90.126 216.118 90.126C215.548 90.126 215.017 90.021 214.525 89.811C214.039 89.601 213.616 89.298 213.256 88.902C212.896 88.5 212.614 88.008 212.41 87.426C212.206 86.844 212.104 86.181 212.104 85.437C212.104 84.759 212.197 84.132 212.383 83.556C212.575 82.98 212.851 82.485 213.211 82.071C213.577 81.651 214.024 81.324 214.552 81.09C215.086 80.856 215.698 80.739 216.388 80.739C217.03 80.739 217.594 80.844 218.08 81.054C218.572 81.258 219.007 81.549 219.385 81.927L218.962 82.503ZM224.897 80.739C225.563 80.739 226.163 80.85 226.697 81.072C227.231 81.294 227.687 81.609 228.065 82.017C228.443 82.425 228.731 82.92 228.929 83.502C229.133 84.078 229.235 84.723 229.235 85.437C229.235 86.157 229.133 86.805 228.929 87.381C228.731 87.957 228.443 88.449 228.065 88.857C227.687 89.265 227.231 89.58 226.697 89.802C226.163 90.018 225.563 90.126 224.897 90.126C224.225 90.126 223.619 90.018 223.079 89.802C222.545 89.58 222.089 89.265 221.711 88.857C221.333 88.449 221.042 87.957 220.838 87.381C220.64 86.805 220.541 86.157 220.541 85.437C220.541 84.723 220.64 84.078 220.838 83.502C221.042 82.92 221.333 82.425 221.711 82.017C222.089 81.609 222.545 81.294 223.079 81.072C223.619 80.85 224.225 80.739 224.897 80.739ZM224.897 88.875C225.797 88.875 226.469 88.575 226.913 87.975C227.357 87.369 227.579 86.526 227.579 85.446C227.579 84.36 227.357 83.514 226.913 82.908C226.469 82.302 225.797 81.999 224.897 81.999C224.441 81.999 224.042 82.077 223.7 82.233C223.364 82.389 223.082 82.614 222.854 82.908C222.632 83.202 222.464 83.565 222.35 83.997C222.242 84.423 222.188 84.906 222.188 85.446C222.188 86.526 222.41 87.369 222.854 87.975C223.304 88.575 223.985 88.875 224.897 88.875ZM231.267 90V80.883H232.23C232.458 80.883 232.599 80.994 232.653 81.216L232.77 82.152C233.106 81.738 233.484 81.399 233.904 81.135C234.324 80.871 234.81 80.739 235.362 80.739C235.974 80.739 236.469 80.91 236.847 81.252C237.231 81.594 237.507 82.056 237.675 82.638C237.807 82.308 237.975 82.023 238.179 81.783C238.389 81.543 238.623 81.345 238.881 81.189C239.139 81.033 239.412 80.919 239.7 80.847C239.994 80.775 240.291 80.739 240.591 80.739C241.071 80.739 241.497 80.817 241.869 80.973C242.247 81.123 242.565 81.345 242.823 81.639C243.087 81.933 243.288 82.296 243.426 82.728C243.564 83.154 243.633 83.643 243.633 84.195V90H242.022V84.195C242.022 83.481 241.866 82.941 241.554 82.575C241.242 82.203 240.792 82.017 240.204 82.017C239.94 82.017 239.688 82.065 239.448 82.161C239.214 82.251 239.007 82.386 238.827 82.566C238.647 82.746 238.503 82.974 238.395 83.25C238.293 83.52 238.242 83.835 238.242 84.195V90H236.631V84.195C236.631 83.463 236.484 82.917 236.19 82.557C235.896 82.197 235.467 82.017 234.903 82.017C234.507 82.017 234.141 82.125 233.805 82.341C233.469 82.551 233.16 82.839 232.878 83.205V90H231.267ZM247.679 87.804C247.973 88.2 248.294 88.479 248.642 88.641C248.99 88.803 249.38 88.884 249.812 88.884C250.664 88.884 251.318 88.581 251.774 87.975C252.23 87.369 252.458 86.505 252.458 85.383C252.458 84.789 252.404 84.279 252.296 83.853C252.194 83.427 252.044 83.079 251.846 82.809C251.648 82.533 251.405 82.332 251.117 82.206C250.829 82.08 250.502 82.017 250.136 82.017C249.614 82.017 249.155 82.137 248.759 82.377C248.369 82.617 248.009 82.956 247.679 83.394V87.804ZM247.598 82.296C247.982 81.822 248.426 81.441 248.93 81.153C249.434 80.865 250.01 80.721 250.658 80.721C251.186 80.721 251.663 80.823 252.089 81.027C252.515 81.225 252.878 81.522 253.178 81.918C253.478 82.308 253.709 82.794 253.871 83.376C254.033 83.958 254.114 84.627 254.114 85.383C254.114 86.055 254.024 86.682 253.844 87.264C253.664 87.84 253.403 88.341 253.061 88.767C252.725 89.187 252.311 89.52 251.819 89.766C251.333 90.006 250.784 90.126 250.172 90.126C249.614 90.126 249.134 90.033 248.732 89.847C248.336 89.655 247.985 89.391 247.679 89.055V93.087H246.068V80.883H247.031C247.259 80.883 247.4 80.994 247.454 81.216L247.598 82.296ZM257.814 76.743V90H256.212V76.743H257.814ZM266.514 84.447C266.514 84.075 266.46 83.736 266.352 83.43C266.25 83.118 266.097 82.851 265.893 82.629C265.695 82.401 265.452 82.227 265.164 82.107C264.876 81.981 264.549 81.918 264.183 81.918C263.415 81.918 262.806 82.143 262.356 82.593C261.912 83.037 261.636 83.655 261.528 84.447H266.514ZM267.81 88.722C267.612 88.962 267.375 89.172 267.099 89.352C266.823 89.526 266.526 89.67 266.208 89.784C265.896 89.898 265.572 89.982 265.236 90.036C264.9 90.096 264.567 90.126 264.237 90.126C263.607 90.126 263.025 90.021 262.491 89.811C261.963 89.595 261.504 89.283 261.114 88.875C260.73 88.461 260.43 87.951 260.214 87.345C259.998 86.739 259.89 86.043 259.89 85.257C259.89 84.621 259.986 84.027 260.178 83.475C260.376 82.923 260.658 82.446 261.024 82.044C261.39 81.636 261.837 81.318 262.365 81.09C262.893 80.856 263.487 80.739 264.147 80.739C264.693 80.739 265.197 80.832 265.659 81.018C266.127 81.198 266.529 81.462 266.865 81.81C267.207 82.152 267.474 82.578 267.666 83.088C267.858 83.592 267.954 84.168 267.954 84.816C267.954 85.068 267.927 85.236 267.873 85.32C267.819 85.404 267.717 85.446 267.567 85.446H261.474C261.492 86.022 261.57 86.523 261.708 86.949C261.852 87.375 262.05 87.732 262.302 88.02C262.554 88.302 262.854 88.515 263.202 88.659C263.55 88.797 263.94 88.866 264.372 88.866C264.774 88.866 265.119 88.821 265.407 88.731C265.701 88.635 265.953 88.533 266.163 88.425C266.373 88.317 266.547 88.218 266.685 88.128C266.829 88.032 266.952 87.984 267.054 87.984C267.186 87.984 267.288 88.035 267.36 88.137L267.81 88.722ZM272.65 90.144C271.93 90.144 271.375 89.943 270.985 89.541C270.601 89.139 270.409 88.56 270.409 87.804V82.224H269.311C269.215 82.224 269.134 82.197 269.068 82.143C269.002 82.083 268.969 81.993 268.969 81.873V81.234L270.463 81.045L270.832 78.228C270.85 78.138 270.889 78.066 270.949 78.012C271.015 77.952 271.099 77.922 271.201 77.922H272.011V81.063H274.648V82.224H272.011V87.696C272.011 88.08 272.104 88.365 272.29 88.551C272.476 88.737 272.716 88.83 273.01 88.83C273.178 88.83 273.322 88.809 273.442 88.767C273.568 88.719 273.676 88.668 273.766 88.614C273.856 88.56 273.931 88.512 273.991 88.47C274.057 88.422 274.114 88.398 274.162 88.398C274.246 88.398 274.321 88.449 274.387 88.551L274.855 89.316C274.579 89.574 274.246 89.778 273.856 89.928C273.466 90.072 273.064 90.144 272.65 90.144ZM282.351 84.447C282.351 84.075 282.297 83.736 282.189 83.43C282.087 83.118 281.934 82.851 281.73 82.629C281.532 82.401 281.289 82.227 281.001 82.107C280.713 81.981 280.386 81.918 280.02 81.918C279.252 81.918 278.643 82.143 278.193 82.593C277.749 83.037 277.473 83.655 277.365 84.447H282.351ZM283.647 88.722C283.449 88.962 283.212 89.172 282.936 89.352C282.66 89.526 282.363 89.67 282.045 89.784C281.733 89.898 281.409 89.982 281.073 90.036C280.737 90.096 280.404 90.126 280.074 90.126C279.444 90.126 278.862 90.021 278.328 89.811C277.8 89.595 277.341 89.283 276.951 88.875C276.567 88.461 276.267 87.951 276.051 87.345C275.835 86.739 275.727 86.043 275.727 85.257C275.727 84.621 275.823 84.027 276.015 83.475C276.213 82.923 276.495 82.446 276.861 82.044C277.227 81.636 277.674 81.318 278.202 81.09C278.73 80.856 279.324 80.739 279.984 80.739C280.53 80.739 281.034 80.832 281.496 81.018C281.964 81.198 282.366 81.462 282.702 81.81C283.044 82.152 283.311 82.578 283.503 83.088C283.695 83.592 283.791 84.168 283.791 84.816C283.791 85.068 283.764 85.236 283.71 85.32C283.656 85.404 283.554 85.446 283.404 85.446H277.311C277.329 86.022 277.407 86.523 277.545 86.949C277.689 87.375 277.887 87.732 278.139 88.02C278.391 88.302 278.691 88.515 279.039 88.659C279.387 88.797 279.777 88.866 280.209 88.866C280.611 88.866 280.956 88.821 281.244 88.731C281.538 88.635 281.79 88.533 282 88.425C282.21 88.317 282.384 88.218 282.522 88.128C282.666 88.032 282.789 87.984 282.891 87.984C283.023 87.984 283.125 88.035 283.197 88.137L283.647 88.722ZM285.66 92.178C285.612 92.136 285.579 92.097 285.561 92.061C285.543 92.025 285.534 91.98 285.534 91.926C285.534 91.884 285.546 91.842 285.57 91.8C285.6 91.758 285.633 91.719 285.669 91.683C285.729 91.617 285.804 91.53 285.894 91.422C285.99 91.314 286.086 91.185 286.182 91.035C286.278 90.891 286.365 90.729 286.443 90.549C286.527 90.375 286.587 90.189 286.623 89.991C286.605 89.997 286.584 90 286.56 90C286.542 90 286.524 90 286.506 90C286.194 90 285.939 89.898 285.741 89.694C285.549 89.484 285.453 89.217 285.453 88.893C285.453 88.611 285.549 88.371 285.741 88.173C285.939 87.975 286.2 87.876 286.524 87.876C286.704 87.876 286.863 87.909 287.001 87.975C287.139 88.041 287.253 88.134 287.343 88.254C287.439 88.368 287.511 88.503 287.559 88.659C287.607 88.809 287.631 88.974 287.631 89.154C287.631 89.424 287.592 89.706 287.514 90C287.442 90.288 287.331 90.573 287.181 90.855C287.037 91.143 286.86 91.422 286.65 91.692C286.44 91.962 286.2 92.211 285.93 92.439L285.66 92.178ZM299.384 85.896C298.646 85.92 298.016 85.98 297.494 86.076C296.978 86.166 296.555 86.286 296.225 86.436C295.901 86.586 295.664 86.763 295.514 86.967C295.37 87.171 295.298 87.399 295.298 87.651C295.298 87.891 295.337 88.098 295.415 88.272C295.493 88.446 295.598 88.59 295.73 88.704C295.868 88.812 296.027 88.893 296.207 88.947C296.393 88.995 296.591 89.019 296.801 89.019C297.083 89.019 297.341 88.992 297.575 88.938C297.809 88.878 298.028 88.794 298.232 88.686C298.442 88.578 298.64 88.449 298.826 88.299C299.018 88.149 299.204 87.978 299.384 87.786V85.896ZM294.209 82.17C294.713 81.684 295.256 81.321 295.838 81.081C296.42 80.841 297.065 80.721 297.773 80.721C298.283 80.721 298.736 80.805 299.132 80.973C299.528 81.141 299.861 81.375 300.131 81.675C300.401 81.975 300.605 82.338 300.743 82.764C300.881 83.19 300.95 83.658 300.95 84.168V90H300.239C300.083 90 299.963 89.976 299.879 89.928C299.795 89.874 299.729 89.772 299.681 89.622L299.501 88.758C299.261 88.98 299.027 89.178 298.799 89.352C298.571 89.52 298.331 89.664 298.079 89.784C297.827 89.898 297.557 89.985 297.269 90.045C296.987 90.111 296.672 90.144 296.324 90.144C295.97 90.144 295.637 90.096 295.325 90C295.013 89.898 294.74 89.748 294.506 89.55C294.278 89.352 294.095 89.103 293.957 88.803C293.825 88.497 293.759 88.137 293.759 87.723C293.759 87.363 293.858 87.018 294.056 86.688C294.254 86.352 294.575 86.055 295.019 85.797C295.463 85.539 296.042 85.329 296.756 85.167C297.47 84.999 298.346 84.903 299.384 84.879V84.168C299.384 83.46 299.231 82.926 298.925 82.566C298.619 82.2 298.172 82.017 297.584 82.017C297.188 82.017 296.855 82.068 296.585 82.17C296.321 82.266 296.09 82.377 295.892 82.503C295.7 82.623 295.532 82.734 295.388 82.836C295.25 82.932 295.112 82.98 294.974 82.98C294.866 82.98 294.773 82.953 294.695 82.899C294.617 82.839 294.551 82.767 294.497 82.683L294.209 82.17ZM304.902 82.206C305.1 81.984 305.31 81.783 305.532 81.603C305.754 81.423 305.988 81.27 306.234 81.144C306.486 81.012 306.75 80.913 307.026 80.847C307.308 80.775 307.611 80.739 307.935 80.739C308.433 80.739 308.871 80.823 309.249 80.991C309.633 81.153 309.951 81.387 310.203 81.693C310.461 81.993 310.656 82.356 310.788 82.782C310.92 83.208 310.986 83.679 310.986 84.195V90H309.375V84.195C309.375 83.505 309.216 82.971 308.898 82.593C308.586 82.209 308.109 82.017 307.467 82.017C306.993 82.017 306.549 82.131 306.135 82.359C305.727 82.587 305.349 82.896 305.001 83.286V90H303.39V80.883H304.353C304.581 80.883 304.722 80.994 304.776 81.216L304.902 82.206ZM319.367 83.052C319.067 82.65 318.743 82.371 318.395 82.215C318.047 82.053 317.657 81.972 317.225 81.972C316.379 81.972 315.728 82.275 315.272 82.881C314.816 83.487 314.588 84.351 314.588 85.473C314.588 86.067 314.639 86.577 314.741 87.003C314.843 87.423 314.993 87.771 315.191 88.047C315.389 88.317 315.632 88.515 315.92 88.641C316.208 88.767 316.535 88.83 316.901 88.83C317.429 88.83 317.888 88.71 318.278 88.47C318.674 88.23 319.037 87.891 319.367 87.453V83.052ZM320.969 76.743V90H320.015C319.787 90 319.643 89.889 319.583 89.667L319.439 88.56C319.049 89.028 318.605 89.406 318.107 89.694C317.609 89.982 317.033 90.126 316.379 90.126C315.857 90.126 315.383 90.027 314.957 89.829C314.531 89.625 314.168 89.328 313.868 88.938C313.568 88.548 313.337 88.062 313.175 87.48C313.013 86.898 312.932 86.229 312.932 85.473C312.932 84.801 313.022 84.177 313.202 83.601C313.382 83.019 313.64 82.515 313.976 82.089C314.312 81.663 314.723 81.33 315.209 81.09C315.701 80.844 316.253 80.721 316.865 80.721C317.423 80.721 317.9 80.817 318.296 81.009C318.698 81.195 319.055 81.456 319.367 81.792V76.743H320.969ZM334.207 84.447C334.207 84.075 334.153 83.736 334.045 83.43C333.943 83.118 333.79 82.851 333.586 82.629C333.388 82.401 333.145 82.227 332.857 82.107C332.569 81.981 332.242 81.918 331.876 81.918C331.108 81.918 330.499 82.143 330.049 82.593C329.605 83.037 329.329 83.655 329.221 84.447H334.207ZM335.503 88.722C335.305 88.962 335.068 89.172 334.792 89.352C334.516 89.526 334.219 89.67 333.901 89.784C333.589 89.898 333.265 89.982 332.929 90.036C332.593 90.096 332.26 90.126 331.93 90.126C331.3 90.126 330.718 90.021 330.184 89.811C329.656 89.595 329.197 89.283 328.807 88.875C328.423 88.461 328.123 87.951 327.907 87.345C327.691 86.739 327.583 86.043 327.583 85.257C327.583 84.621 327.679 84.027 327.871 83.475C328.069 82.923 328.351 82.446 328.717 82.044C329.083 81.636 329.53 81.318 330.058 81.09C330.586 80.856 331.18 80.739 331.84 80.739C332.386 80.739 332.89 80.832 333.352 81.018C333.82 81.198 334.222 81.462 334.558 81.81C334.9 82.152 335.167 82.578 335.359 83.088C335.551 83.592 335.647 84.168 335.647 84.816C335.647 85.068 335.62 85.236 335.566 85.32C335.512 85.404 335.41 85.446 335.26 85.446H329.167C329.185 86.022 329.263 86.523 329.401 86.949C329.545 87.375 329.743 87.732 329.995 88.02C330.247 88.302 330.547 88.515 330.895 88.659C331.243 88.797 331.633 88.866 332.065 88.866C332.467 88.866 332.812 88.821 333.1 88.731C333.394 88.635 333.646 88.533 333.856 88.425C334.066 88.317 334.24 88.218 334.378 88.128C334.522 88.032 334.645 87.984 334.747 87.984C334.879 87.984 334.981 88.035 335.053 88.137L335.503 88.722ZM339.271 76.743V90H337.669V76.743H339.271ZM347.971 84.447C347.971 84.075 347.917 83.736 347.809 83.43C347.707 83.118 347.554 82.851 347.35 82.629C347.152 82.401 346.909 82.227 346.621 82.107C346.333 81.981 346.006 81.918 345.64 81.918C344.872 81.918 344.263 82.143 343.813 82.593C343.369 83.037 343.093 83.655 342.985 84.447H347.971ZM349.267 88.722C349.069 88.962 348.832 89.172 348.556 89.352C348.28 89.526 347.983 89.67 347.665 89.784C347.353 89.898 347.029 89.982 346.693 90.036C346.357 90.096 346.024 90.126 345.694 90.126C345.064 90.126 344.482 90.021 343.948 89.811C343.42 89.595 342.961 89.283 342.571 88.875C342.187 88.461 341.887 87.951 341.671 87.345C341.455 86.739 341.347 86.043 341.347 85.257C341.347 84.621 341.443 84.027 341.635 83.475C341.833 82.923 342.115 82.446 342.481 82.044C342.847 81.636 343.294 81.318 343.822 81.09C344.35 80.856 344.944 80.739 345.604 80.739C346.15 80.739 346.654 80.832 347.116 81.018C347.584 81.198 347.986 81.462 348.322 81.81C348.664 82.152 348.931 82.578 349.123 83.088C349.315 83.592 349.411 84.168 349.411 84.816C349.411 85.068 349.384 85.236 349.33 85.32C349.276 85.404 349.174 85.446 349.024 85.446H342.931C342.949 86.022 343.027 86.523 343.165 86.949C343.309 87.375 343.507 87.732 343.759 88.02C344.011 88.302 344.311 88.515 344.659 88.659C345.007 88.797 345.397 88.866 345.829 88.866C346.231 88.866 346.576 88.821 346.864 88.731C347.158 88.635 347.41 88.533 347.62 88.425C347.83 88.317 348.004 88.218 348.142 88.128C348.286 88.032 348.409 87.984 348.511 87.984C348.643 87.984 348.745 88.035 348.817 88.137L349.267 88.722ZM357.723 82.503C357.675 82.569 357.627 82.62 357.579 82.656C357.531 82.692 357.465 82.71 357.381 82.71C357.291 82.71 357.192 82.674 357.084 82.602C356.976 82.524 356.841 82.44 356.679 82.35C356.523 82.26 356.328 82.179 356.094 82.107C355.866 82.029 355.584 81.99 355.248 81.99C354.798 81.99 354.402 82.071 354.06 82.233C353.718 82.389 353.43 82.617 353.196 82.917C352.968 83.217 352.794 83.58 352.674 84.006C352.56 84.432 352.503 84.909 352.503 85.437C352.503 85.989 352.566 86.481 352.692 86.913C352.818 87.339 352.995 87.699 353.223 87.993C353.457 88.281 353.736 88.503 354.06 88.659C354.39 88.809 354.759 88.884 355.167 88.884C355.557 88.884 355.878 88.839 356.13 88.749C356.382 88.653 356.589 88.548 356.751 88.434C356.919 88.32 357.057 88.218 357.165 88.128C357.279 88.032 357.39 87.984 357.498 87.984C357.63 87.984 357.732 88.035 357.804 88.137L358.254 88.722C358.056 88.968 357.831 89.178 357.579 89.352C357.327 89.526 357.054 89.673 356.76 89.793C356.472 89.907 356.169 89.991 355.851 90.045C355.533 90.099 355.209 90.126 354.879 90.126C354.309 90.126 353.778 90.021 353.286 89.811C352.8 89.601 352.377 89.298 352.017 88.902C351.657 88.5 351.375 88.008 351.171 87.426C350.967 86.844 350.865 86.181 350.865 85.437C350.865 84.759 350.958 84.132 351.144 83.556C351.336 82.98 351.612 82.485 351.972 82.071C352.338 81.651 352.785 81.324 353.313 81.09C353.847 80.856 354.459 80.739 355.149 80.739C355.791 80.739 356.355 80.844 356.841 81.054C357.333 81.258 357.768 81.549 358.146 81.927L357.723 82.503ZM362.773 90.144C362.053 90.144 361.498 89.943 361.108 89.541C360.724 89.139 360.532 88.56 360.532 87.804V82.224H359.434C359.338 82.224 359.257 82.197 359.191 82.143C359.125 82.083 359.092 81.993 359.092 81.873V81.234L360.586 81.045L360.955 78.228C360.973 78.138 361.012 78.066 361.072 78.012C361.138 77.952 361.222 77.922 361.324 77.922H362.134V81.063H364.771V82.224H362.134V87.696C362.134 88.08 362.227 88.365 362.413 88.551C362.599 88.737 362.839 88.83 363.133 88.83C363.301 88.83 363.445 88.809 363.565 88.767C363.691 88.719 363.799 88.668 363.889 88.614C363.979 88.56 364.054 88.512 364.114 88.47C364.18 88.422 364.237 88.398 364.285 88.398C364.369 88.398 364.444 88.449 364.51 88.551L364.978 89.316C364.702 89.574 364.369 89.778 363.979 89.928C363.589 90.072 363.187 90.144 362.773 90.144ZM367.946 82.71C368.234 82.086 368.588 81.6 369.008 81.252C369.428 80.898 369.941 80.721 370.547 80.721C370.739 80.721 370.922 80.742 371.096 80.784C371.276 80.826 371.435 80.892 371.573 80.982L371.456 82.179C371.42 82.329 371.33 82.404 371.186 82.404C371.102 82.404 370.979 82.386 370.817 82.35C370.655 82.314 370.472 82.296 370.268 82.296C369.98 82.296 369.722 82.338 369.494 82.422C369.272 82.506 369.071 82.632 368.891 82.8C368.717 82.962 368.558 83.166 368.414 83.412C368.276 83.652 368.15 83.928 368.036 84.24V90H366.425V80.883H367.343C367.517 80.883 367.637 80.916 367.703 80.982C367.769 81.048 367.814 81.162 367.838 81.324L367.946 82.71ZM374.674 80.883V90H373.072V80.883H374.674ZM375.016 78.021C375.016 78.177 374.983 78.324 374.917 78.462C374.857 78.594 374.773 78.714 374.665 78.822C374.563 78.924 374.44 79.005 374.296 79.065C374.158 79.125 374.011 79.155 373.855 79.155C373.699 79.155 373.552 79.125 373.414 79.065C373.282 79.005 373.165 78.924 373.063 78.822C372.961 78.714 372.88 78.594 372.82 78.462C372.76 78.324 372.73 78.177 372.73 78.021C372.73 77.865 372.76 77.718 372.82 77.58C372.88 77.436 372.961 77.313 373.063 77.211C373.165 77.103 373.282 77.019 373.414 76.959C373.552 76.899 373.699 76.869 373.855 76.869C374.011 76.869 374.158 76.899 374.296 76.959C374.44 77.019 374.563 77.103 374.665 77.211C374.773 77.313 374.857 77.436 374.917 77.58C374.983 77.718 375.016 77.865 375.016 78.021ZM383.651 82.503C383.603 82.569 383.555 82.62 383.507 82.656C383.459 82.692 383.393 82.71 383.309 82.71C383.219 82.71 383.12 82.674 383.012 82.602C382.904 82.524 382.769 82.44 382.607 82.35C382.451 82.26 382.256 82.179 382.022 82.107C381.794 82.029 381.512 81.99 381.176 81.99C380.726 81.99 380.33 82.071 379.988 82.233C379.646 82.389 379.358 82.617 379.124 82.917C378.896 83.217 378.722 83.58 378.602 84.006C378.488 84.432 378.431 84.909 378.431 85.437C378.431 85.989 378.494 86.481 378.62 86.913C378.746 87.339 378.923 87.699 379.151 87.993C379.385 88.281 379.664 88.503 379.988 88.659C380.318 88.809 380.687 88.884 381.095 88.884C381.485 88.884 381.806 88.839 382.058 88.749C382.31 88.653 382.517 88.548 382.679 88.434C382.847 88.32 382.985 88.218 383.093 88.128C383.207 88.032 383.318 87.984 383.426 87.984C383.558 87.984 383.66 88.035 383.732 88.137L384.182 88.722C383.984 88.968 383.759 89.178 383.507 89.352C383.255 89.526 382.982 89.673 382.688 89.793C382.4 89.907 382.097 89.991 381.779 90.045C381.461 90.099 381.137 90.126 380.807 90.126C380.237 90.126 379.706 90.021 379.214 89.811C378.728 89.601 378.305 89.298 377.945 88.902C377.585 88.5 377.303 88.008 377.099 87.426C376.895 86.844 376.793 86.181 376.793 85.437C376.793 84.759 376.886 84.132 377.072 83.556C377.264 82.98 377.54 82.485 377.9 82.071C378.266 81.651 378.713 81.324 379.241 81.09C379.775 80.856 380.387 80.739 381.077 80.739C381.719 80.739 382.283 80.844 382.769 81.054C383.261 81.258 383.696 81.549 384.074 81.927L383.651 82.503ZM387.594 80.883V90H385.992V80.883H387.594ZM387.936 78.021C387.936 78.177 387.903 78.324 387.837 78.462C387.777 78.594 387.693 78.714 387.585 78.822C387.483 78.924 387.36 79.005 387.216 79.065C387.078 79.125 386.931 79.155 386.775 79.155C386.619 79.155 386.472 79.125 386.334 79.065C386.202 79.005 386.085 78.924 385.983 78.822C385.881 78.714 385.8 78.594 385.74 78.462C385.68 78.324 385.65 78.177 385.65 78.021C385.65 77.865 385.68 77.718 385.74 77.58C385.8 77.436 385.881 77.313 385.983 77.211C386.085 77.103 386.202 77.019 386.334 76.959C386.472 76.899 386.619 76.869 386.775 76.869C386.931 76.869 387.078 76.899 387.216 76.959C387.36 77.019 387.483 77.103 387.585 77.211C387.693 77.313 387.777 77.436 387.837 77.58C387.903 77.718 387.936 77.865 387.936 78.021ZM393.025 90.144C392.305 90.144 391.75 89.943 391.36 89.541C390.976 89.139 390.784 88.56 390.784 87.804V82.224H389.686C389.59 82.224 389.509 82.197 389.443 82.143C389.377 82.083 389.344 81.993 389.344 81.873V81.234L390.838 81.045L391.207 78.228C391.225 78.138 391.264 78.066 391.324 78.012C391.39 77.952 391.474 77.922 391.576 77.922H392.386V81.063H395.023V82.224H392.386V87.696C392.386 88.08 392.479 88.365 392.665 88.551C392.851 88.737 393.091 88.83 393.385 88.83C393.553 88.83 393.697 88.809 393.817 88.767C393.943 88.719 394.051 88.668 394.141 88.614C394.231 88.56 394.306 88.512 394.366 88.47C394.432 88.422 394.489 88.398 394.537 88.398C394.621 88.398 394.696 88.449 394.762 88.551L395.23 89.316C394.954 89.574 394.621 89.778 394.231 89.928C393.841 90.072 393.439 90.144 393.025 90.144ZM404.543 80.883L399.458 92.691C399.404 92.811 399.335 92.907 399.251 92.979C399.173 93.051 399.05 93.087 398.882 93.087H397.694L399.359 89.469L395.597 80.883H396.983C397.121 80.883 397.229 80.919 397.307 80.991C397.391 81.057 397.448 81.132 397.478 81.216L399.917 86.958C400.013 87.21 400.094 87.474 400.16 87.75C400.244 87.468 400.334 87.201 400.43 86.949L402.797 81.216C402.833 81.12 402.893 81.042 402.977 80.982C403.067 80.916 403.166 80.883 403.274 80.883H404.543ZM416.469 82.503C416.421 82.569 416.373 82.62 416.325 82.656C416.277 82.692 416.211 82.71 416.127 82.71C416.037 82.71 415.938 82.674 415.83 82.602C415.722 82.524 415.587 82.44 415.425 82.35C415.269 82.26 415.074 82.179 414.84 82.107C414.612 82.029 414.33 81.99 413.994 81.99C413.544 81.99 413.148 82.071 412.806 82.233C412.464 82.389 412.176 82.617 411.942 82.917C411.714 83.217 411.54 83.58 411.42 84.006C411.306 84.432 411.249 84.909 411.249 85.437C411.249 85.989 411.312 86.481 411.438 86.913C411.564 87.339 411.741 87.699 411.969 87.993C412.203 88.281 412.482 88.503 412.806 88.659C413.136 88.809 413.505 88.884 413.913 88.884C414.303 88.884 414.624 88.839 414.876 88.749C415.128 88.653 415.335 88.548 415.497 88.434C415.665 88.32 415.803 88.218 415.911 88.128C416.025 88.032 416.136 87.984 416.244 87.984C416.376 87.984 416.478 88.035 416.55 88.137L417 88.722C416.802 88.968 416.577 89.178 416.325 89.352C416.073 89.526 415.8 89.673 415.506 89.793C415.218 89.907 414.915 89.991 414.597 90.045C414.279 90.099 413.955 90.126 413.625 90.126C413.055 90.126 412.524 90.021 412.032 89.811C411.546 89.601 411.123 89.298 410.763 88.902C410.403 88.5 410.121 88.008 409.917 87.426C409.713 86.844 409.611 86.181 409.611 85.437C409.611 84.759 409.704 84.132 409.89 83.556C410.082 82.98 410.358 82.485 410.718 82.071C411.084 81.651 411.531 81.324 412.059 81.09C412.593 80.856 413.205 80.739 413.895 80.739C414.537 80.739 415.101 80.844 415.587 81.054C416.079 81.258 416.514 81.549 416.892 81.927L416.469 82.503ZM423.661 85.896C422.923 85.92 422.293 85.98 421.771 86.076C421.255 86.166 420.832 86.286 420.502 86.436C420.178 86.586 419.941 86.763 419.791 86.967C419.647 87.171 419.575 87.399 419.575 87.651C419.575 87.891 419.614 88.098 419.692 88.272C419.77 88.446 419.875 88.59 420.007 88.704C420.145 88.812 420.304 88.893 420.484 88.947C420.67 88.995 420.868 89.019 421.078 89.019C421.36 89.019 421.618 88.992 421.852 88.938C422.086 88.878 422.305 88.794 422.509 88.686C422.719 88.578 422.917 88.449 423.103 88.299C423.295 88.149 423.481 87.978 423.661 87.786V85.896ZM418.486 82.17C418.99 81.684 419.533 81.321 420.115 81.081C420.697 80.841 421.342 80.721 422.05 80.721C422.56 80.721 423.013 80.805 423.409 80.973C423.805 81.141 424.138 81.375 424.408 81.675C424.678 81.975 424.882 82.338 425.02 82.764C425.158 83.19 425.227 83.658 425.227 84.168V90H424.516C424.36 90 424.24 89.976 424.156 89.928C424.072 89.874 424.006 89.772 423.958 89.622L423.778 88.758C423.538 88.98 423.304 89.178 423.076 89.352C422.848 89.52 422.608 89.664 422.356 89.784C422.104 89.898 421.834 89.985 421.546 90.045C421.264 90.111 420.949 90.144 420.601 90.144C420.247 90.144 419.914 90.096 419.602 90C419.29 89.898 419.017 89.748 418.783 89.55C418.555 89.352 418.372 89.103 418.234 88.803C418.102 88.497 418.036 88.137 418.036 87.723C418.036 87.363 418.135 87.018 418.333 86.688C418.531 86.352 418.852 86.055 419.296 85.797C419.74 85.539 420.319 85.329 421.033 85.167C421.747 84.999 422.623 84.903 423.661 84.879V84.168C423.661 83.46 423.508 82.926 423.202 82.566C422.896 82.2 422.449 82.017 421.861 82.017C421.465 82.017 421.132 82.068 420.862 82.17C420.598 82.266 420.367 82.377 420.169 82.503C419.977 82.623 419.809 82.734 419.665 82.836C419.527 82.932 419.389 82.98 419.251 82.98C419.143 82.98 419.05 82.953 418.972 82.899C418.894 82.839 418.828 82.767 418.774 82.683L418.486 82.17ZM429.179 82.206C429.377 81.984 429.587 81.783 429.809 81.603C430.031 81.423 430.265 81.27 430.511 81.144C430.763 81.012 431.027 80.913 431.303 80.847C431.585 80.775 431.888 80.739 432.212 80.739C432.71 80.739 433.148 80.823 433.526 80.991C433.91 81.153 434.228 81.387 434.48 81.693C434.738 81.993 434.933 82.356 435.065 82.782C435.197 83.208 435.263 83.679 435.263 84.195V90H433.652V84.195C433.652 83.505 433.493 82.971 433.175 82.593C432.863 82.209 432.386 82.017 431.744 82.017C431.27 82.017 430.826 82.131 430.412 82.359C430.004 82.587 429.626 82.896 429.278 83.286V90H427.667V80.883H428.63C428.858 80.883 428.999 80.994 429.053 81.216L429.179 82.206ZM70.881 112V104.251L69.873 104.134C69.741 104.104 69.636 104.059 69.558 103.999C69.48 103.933 69.441 103.84 69.441 103.72V103.063H70.881V102.577C70.881 102.073 70.956 101.596 71.106 101.146C71.262 100.69 71.496 100.294 71.808 99.958C72.12 99.622 72.51 99.355 72.978 99.157C73.446 98.959 73.992 98.86 74.616 98.86C75.078 98.86 75.522 98.878 75.948 98.914C76.38 98.95 76.797 98.971 77.199 98.977H78.288V112H76.695V100.102C76.371 100.09 76.044 100.075 75.714 100.057C75.39 100.039 75.105 100.03 74.859 100.03C74.079 100.03 73.479 100.255 73.059 100.705C72.645 101.149 72.438 101.773 72.438 102.577V103.063H74.805V104.224H72.483V112H70.881ZM84.7292 102.739C85.3952 102.739 85.9952 102.85 86.5292 103.072C87.0632 103.294 87.5192 103.609 87.8972 104.017C88.2752 104.425 88.5632 104.92 88.7612 105.502C88.9652 106.078 89.0672 106.723 89.0672 107.437C89.0672 108.157 88.9652 108.805 88.7612 109.381C88.5632 109.957 88.2752 110.449 87.8972 110.857C87.5192 111.265 87.0632 111.58 86.5292 111.802C85.9952 112.018 85.3952 112.126 84.7292 112.126C84.0572 112.126 83.4512 112.018 82.9112 111.802C82.3772 111.58 81.9212 111.265 81.5432 110.857C81.1652 110.449 80.8742 109.957 80.6702 109.381C80.4722 108.805 80.3732 108.157 80.3732 107.437C80.3732 106.723 80.4722 106.078 80.6702 105.502C80.8742 104.92 81.1652 104.425 81.5432 104.017C81.9212 103.609 82.3772 103.294 82.9112 103.072C83.4512 102.85 84.0572 102.739 84.7292 102.739ZM84.7292 110.875C85.6292 110.875 86.3012 110.575 86.7452 109.975C87.1892 109.369 87.4112 108.526 87.4112 107.446C87.4112 106.36 87.1892 105.514 86.7452 104.908C86.3012 104.302 85.6292 103.999 84.7292 103.999C84.2732 103.999 83.8742 104.077 83.5322 104.233C83.1962 104.389 82.9142 104.614 82.6862 104.908C82.4642 105.202 82.2962 105.565 82.1822 105.997C82.0742 106.423 82.0202 106.906 82.0202 107.446C82.0202 108.526 82.2422 109.369 82.6862 109.975C83.1362 110.575 83.8172 110.875 84.7292 110.875ZM103.531 102.883L100.579 112H99.3105C99.1545 112 99.0465 111.898 98.9865 111.694L96.9705 105.511C96.9225 105.373 96.8835 105.235 96.8535 105.097C96.8235 104.953 96.7935 104.812 96.7635 104.674C96.7335 104.812 96.7035 104.953 96.6735 105.097C96.6435 105.235 96.6045 105.376 96.5565 105.52L94.5045 111.694C94.4505 111.898 94.3305 112 94.1445 112H92.9385L89.9865 102.883H91.2465C91.3725 102.883 91.4775 102.916 91.5615 102.982C91.6515 103.048 91.7115 103.126 91.7415 103.216L93.4875 109.084C93.5895 109.516 93.6705 109.924 93.7305 110.308C93.7845 110.11 93.8385 109.909 93.8925 109.705C93.9525 109.501 94.0155 109.294 94.0815 109.084L96.0075 103.18C96.0375 103.09 96.0885 103.015 96.1605 102.955C96.2385 102.895 96.3315 102.865 96.4395 102.865H97.1415C97.2615 102.865 97.3605 102.895 97.4385 102.955C97.5165 103.015 97.5705 103.09 97.6005 103.18L99.4815 109.084C99.5475 109.294 99.6075 109.501 99.6615 109.705C99.7155 109.909 99.7665 110.11 99.8145 110.308C99.8445 110.11 99.8805 109.912 99.9225 109.714C99.9705 109.51 100.021 109.3 100.075 109.084L101.857 103.216C101.887 103.12 101.944 103.042 102.028 102.982C102.112 102.916 102.211 102.883 102.325 102.883H103.531ZM112.127 112.144C111.407 112.144 110.852 111.943 110.462 111.541C110.078 111.139 109.886 110.56 109.886 109.804V104.224H108.788C108.692 104.224 108.611 104.197 108.545 104.143C108.479 104.083 108.446 103.993 108.446 103.873V103.234L109.94 103.045L110.309 100.228C110.327 100.138 110.366 100.066 110.426 100.012C110.492 99.952 110.576 99.922 110.678 99.922H111.488V103.063H114.125V104.224H111.488V109.696C111.488 110.08 111.581 110.365 111.767 110.551C111.953 110.737 112.193 110.83 112.487 110.83C112.655 110.83 112.799 110.809 112.919 110.767C113.045 110.719 113.153 110.668 113.243 110.614C113.333 110.56 113.408 110.512 113.468 110.47C113.534 110.422 113.591 110.398 113.639 110.398C113.723 110.398 113.798 110.449 113.864 110.551L114.332 111.316C114.056 111.574 113.723 111.778 113.333 111.928C112.943 112.072 112.541 112.144 112.127 112.144ZM117.39 104.098C117.78 103.684 118.212 103.354 118.686 103.108C119.16 102.862 119.706 102.739 120.324 102.739C120.822 102.739 121.26 102.823 121.638 102.991C122.022 103.153 122.34 103.387 122.592 103.693C122.85 103.993 123.045 104.356 123.177 104.782C123.309 105.208 123.375 105.679 123.375 106.195V112H121.764V106.195C121.764 105.505 121.605 104.971 121.287 104.593C120.975 104.209 120.498 104.017 119.856 104.017C119.382 104.017 118.938 104.131 118.524 104.359C118.116 104.587 117.738 104.896 117.39 105.286V112H115.779V98.743H117.39V104.098ZM127.337 104.71C127.625 104.086 127.979 103.6 128.399 103.252C128.819 102.898 129.332 102.721 129.938 102.721C130.13 102.721 130.313 102.742 130.487 102.784C130.667 102.826 130.826 102.892 130.964 102.982L130.847 104.179C130.811 104.329 130.721 104.404 130.577 104.404C130.493 104.404 130.37 104.386 130.208 104.35C130.046 104.314 129.863 104.296 129.659 104.296C129.371 104.296 129.113 104.338 128.885 104.422C128.663 104.506 128.462 104.632 128.282 104.8C128.108 104.962 127.949 105.166 127.805 105.412C127.667 105.652 127.541 105.928 127.427 106.24V112H125.816V102.883H126.734C126.908 102.883 127.028 102.916 127.094 102.982C127.16 103.048 127.205 103.162 127.229 103.324L127.337 104.71ZM135.846 102.739C136.512 102.739 137.112 102.85 137.646 103.072C138.18 103.294 138.636 103.609 139.014 104.017C139.392 104.425 139.68 104.92 139.878 105.502C140.082 106.078 140.184 106.723 140.184 107.437C140.184 108.157 140.082 108.805 139.878 109.381C139.68 109.957 139.392 110.449 139.014 110.857C138.636 111.265 138.18 111.58 137.646 111.802C137.112 112.018 136.512 112.126 135.846 112.126C135.174 112.126 134.568 112.018 134.028 111.802C133.494 111.58 133.038 111.265 132.66 110.857C132.282 110.449 131.991 109.957 131.787 109.381C131.589 108.805 131.49 108.157 131.49 107.437C131.49 106.723 131.589 106.078 131.787 105.502C131.991 104.92 132.282 104.425 132.66 104.017C133.038 103.609 133.494 103.294 134.028 103.072C134.568 102.85 135.174 102.739 135.846 102.739ZM135.846 110.875C136.746 110.875 137.418 110.575 137.862 109.975C138.306 109.369 138.528 108.526 138.528 107.446C138.528 106.36 138.306 105.514 137.862 104.908C137.418 104.302 136.746 103.999 135.846 103.999C135.39 103.999 134.991 104.077 134.649 104.233C134.313 104.389 134.031 104.614 133.803 104.908C133.581 105.202 133.413 105.565 133.299 105.997C133.191 106.423 133.137 106.906 133.137 107.446C133.137 108.526 133.359 109.369 133.803 109.975C134.253 110.575 134.934 110.875 135.846 110.875ZM149.713 102.883V112H148.759C148.531 112 148.387 111.889 148.327 111.667L148.201 110.686C147.805 111.124 147.361 111.478 146.869 111.748C146.377 112.012 145.813 112.144 145.177 112.144C144.679 112.144 144.238 112.063 143.854 111.901C143.476 111.733 143.158 111.499 142.9 111.199C142.642 110.899 142.447 110.536 142.315 110.11C142.189 109.684 142.126 109.213 142.126 108.697V102.883H143.728V108.697C143.728 109.387 143.884 109.921 144.196 110.299C144.514 110.677 144.997 110.866 145.645 110.866C146.119 110.866 146.56 110.755 146.968 110.533C147.382 110.305 147.763 109.993 148.111 109.597V102.883H149.713ZM155.43 107.545C155.754 107.545 156.039 107.5 156.285 107.41C156.531 107.32 156.738 107.194 156.906 107.032C157.074 106.87 157.2 106.678 157.284 106.456C157.368 106.228 157.41 105.979 157.41 105.709C157.41 105.151 157.239 104.707 156.897 104.377C156.561 104.047 156.072 103.882 155.43 103.882C154.782 103.882 154.287 104.047 153.945 104.377C153.609 104.707 153.441 105.151 153.441 105.709C153.441 105.979 153.483 106.228 153.567 106.456C153.657 106.678 153.786 106.87 153.954 107.032C154.122 107.194 154.329 107.32 154.575 107.41C154.821 107.5 155.106 107.545 155.43 107.545ZM158.319 112.495C158.319 112.273 158.256 112.093 158.13 111.955C158.004 111.817 157.833 111.709 157.617 111.631C157.407 111.553 157.161 111.499 156.879 111.469C156.597 111.433 156.297 111.406 155.979 111.388C155.667 111.37 155.349 111.352 155.025 111.334C154.701 111.316 154.389 111.286 154.089 111.244C153.753 111.4 153.477 111.598 153.261 111.838C153.051 112.072 152.946 112.348 152.946 112.666C152.946 112.87 152.997 113.059 153.099 113.233C153.207 113.413 153.369 113.566 153.585 113.692C153.801 113.824 154.071 113.926 154.395 113.998C154.725 114.076 155.112 114.115 155.556 114.115C155.988 114.115 156.375 114.076 156.717 113.998C157.059 113.92 157.347 113.809 157.581 113.665C157.821 113.521 158.004 113.35 158.13 113.152C158.256 112.954 158.319 112.735 158.319 112.495ZM159.948 103.243V103.837C159.948 104.035 159.822 104.161 159.57 104.215L158.535 104.35C158.739 104.746 158.841 105.184 158.841 105.664C158.841 106.108 158.754 106.513 158.58 106.879C158.412 107.239 158.178 107.548 157.878 107.806C157.578 108.064 157.218 108.262 156.798 108.4C156.378 108.538 155.922 108.607 155.43 108.607C155.004 108.607 154.602 108.556 154.224 108.454C154.032 108.574 153.885 108.703 153.783 108.841C153.681 108.973 153.63 109.108 153.63 109.246C153.63 109.462 153.717 109.627 153.891 109.741C154.071 109.849 154.305 109.927 154.593 109.975C154.881 110.023 155.208 110.053 155.574 110.065C155.946 110.077 156.324 110.098 156.708 110.128C157.098 110.152 157.476 110.197 157.842 110.263C158.214 110.329 158.544 110.437 158.832 110.587C159.12 110.737 159.351 110.944 159.525 111.208C159.705 111.472 159.795 111.814 159.795 112.234C159.795 112.624 159.696 113.002 159.498 113.368C159.306 113.734 159.027 114.058 158.661 114.34C158.295 114.628 157.845 114.856 157.311 115.024C156.783 115.198 156.186 115.285 155.52 115.285C154.854 115.285 154.272 115.219 153.774 115.087C153.276 114.955 152.862 114.778 152.532 114.556C152.202 114.334 151.953 114.076 151.785 113.782C151.623 113.494 151.542 113.191 151.542 112.873C151.542 112.423 151.683 112.042 151.965 111.73C152.247 111.418 152.634 111.169 153.126 110.983C152.856 110.863 152.64 110.704 152.478 110.506C152.322 110.302 152.244 110.029 152.244 109.687C152.244 109.555 152.268 109.42 152.316 109.282C152.364 109.138 152.436 108.997 152.532 108.859C152.634 108.715 152.757 108.58 152.901 108.454C153.045 108.328 153.213 108.217 153.405 108.121C152.955 107.869 152.604 107.536 152.352 107.122C152.1 106.702 151.974 106.216 151.974 105.664C151.974 105.22 152.058 104.818 152.226 104.458C152.4 104.092 152.64 103.783 152.946 103.531C153.252 103.273 153.615 103.075 154.035 102.937C154.461 102.799 154.926 102.73 155.43 102.73C155.826 102.73 156.195 102.775 156.537 102.865C156.879 102.949 157.191 103.075 157.473 103.243H159.948ZM163.216 104.098C163.606 103.684 164.038 103.354 164.512 103.108C164.986 102.862 165.532 102.739 166.15 102.739C166.648 102.739 167.086 102.823 167.464 102.991C167.848 103.153 168.166 103.387 168.418 103.693C168.676 103.993 168.871 104.356 169.003 104.782C169.135 105.208 169.201 105.679 169.201 106.195V112H167.59V106.195C167.59 105.505 167.431 104.971 167.113 104.593C166.801 104.209 166.324 104.017 165.682 104.017C165.208 104.017 164.764 104.131 164.35 104.359C163.942 104.587 163.564 104.896 163.216 105.286V112H161.605V98.743H163.216V104.098ZM177.94 102.883V112H176.338V102.883H177.94ZM178.282 100.021C178.282 100.177 178.249 100.324 178.183 100.462C178.123 100.594 178.039 100.714 177.931 100.822C177.829 100.924 177.706 101.005 177.562 101.065C177.424 101.125 177.277 101.155 177.121 101.155C176.965 101.155 176.818 101.125 176.68 101.065C176.548 101.005 176.431 100.924 176.329 100.822C176.227 100.714 176.146 100.594 176.086 100.462C176.026 100.324 175.996 100.177 175.996 100.021C175.996 99.865 176.026 99.718 176.086 99.58C176.146 99.436 176.227 99.313 176.329 99.211C176.431 99.103 176.548 99.019 176.68 98.959C176.818 98.899 176.965 98.869 177.121 98.869C177.277 98.869 177.424 98.899 177.562 98.959C177.706 99.019 177.829 99.103 177.931 99.211C178.039 99.313 178.123 99.436 178.183 99.58C178.249 99.718 178.282 99.865 178.282 100.021ZM183.371 112.144C182.651 112.144 182.096 111.943 181.706 111.541C181.322 111.139 181.13 110.56 181.13 109.804V104.224H180.032C179.936 104.224 179.855 104.197 179.789 104.143C179.723 104.083 179.69 103.993 179.69 103.873V103.234L181.184 103.045L181.553 100.228C181.571 100.138 181.61 100.066 181.67 100.012C181.736 99.952 181.82 99.922 181.922 99.922H182.732V103.063H185.369V104.224H182.732V109.696C182.732 110.08 182.825 110.365 183.011 110.551C183.197 110.737 183.437 110.83 183.731 110.83C183.899 110.83 184.043 110.809 184.163 110.767C184.289 110.719 184.397 110.668 184.487 110.614C184.577 110.56 184.652 110.512 184.712 110.47C184.778 110.422 184.835 110.398 184.883 110.398C184.967 110.398 185.042 110.449 185.108 110.551L185.576 111.316C185.3 111.574 184.967 111.778 184.577 111.928C184.187 112.072 183.785 112.144 183.371 112.144ZM186.753 111.01C186.753 110.854 186.78 110.707 186.834 110.569C186.894 110.431 186.972 110.311 187.068 110.209C187.17 110.107 187.29 110.026 187.428 109.966C187.566 109.906 187.713 109.876 187.869 109.876C188.025 109.876 188.172 109.906 188.31 109.966C188.448 110.026 188.568 110.107 188.67 110.209C188.772 110.311 188.853 110.431 188.913 110.569C188.973 110.707 189.003 110.854 189.003 111.01C189.003 111.172 188.973 111.322 188.913 111.46C188.853 111.592 188.772 111.709 188.67 111.811C188.568 111.913 188.448 111.991 188.31 112.045C188.172 112.105 188.025 112.135 187.869 112.135C187.713 112.135 187.566 112.105 187.428 112.045C187.29 111.991 187.17 111.913 187.068 111.811C186.972 111.709 186.894 111.592 186.834 111.46C186.78 111.322 186.753 111.172 186.753 111.01Z" fill="black"/>
<path d="M221 137.231C221 131.028 226.028 126 232.231 126H269.769C275.972 126 281 131.028 281 137.231V154.452C281 160.654 275.972 165.683 269.769 165.683H232.231C226.028 165.683 221 160.654 221 154.452V137.231Z" fill="#1A2BC3"/>
<path d="M234.662 151.107V139.531H236.936L241.674 147.262V139.531H243.846V151.107H241.5L236.833 143.558V151.107H234.662ZM251.166 148.438L253.377 148.809C253.093 149.62 252.643 150.239 252.027 150.665C251.416 151.086 250.65 151.297 249.729 151.297C248.27 151.297 247.191 150.821 246.491 149.868C245.938 149.104 245.662 148.141 245.662 146.977C245.662 145.588 246.025 144.5 246.752 143.716C247.478 142.926 248.397 142.532 249.508 142.532C250.755 142.532 251.74 142.945 252.461 143.771C253.182 144.593 253.527 145.853 253.495 147.554H247.936C247.952 148.212 248.131 148.725 248.473 149.094C248.815 149.457 249.242 149.639 249.752 149.639C250.1 149.639 250.392 149.544 250.629 149.354C250.866 149.165 251.045 148.859 251.166 148.438ZM251.292 146.196C251.276 145.553 251.111 145.066 250.795 144.735C250.479 144.398 250.095 144.229 249.642 144.229C249.157 144.229 248.757 144.406 248.441 144.758C248.126 145.111 247.97 145.59 247.976 146.196H251.292ZM254.246 151.107L257.27 146.788L254.372 142.721H257.081L258.565 145.027L260.129 142.721H262.735L259.892 146.693L262.995 151.107H260.271L258.565 148.509L256.844 151.107H254.246ZM268.16 142.721V144.49H266.643V147.87C266.643 148.554 266.657 148.954 266.683 149.07C266.715 149.181 266.78 149.273 266.88 149.346C266.986 149.42 267.112 149.457 267.259 149.457C267.465 149.457 267.762 149.386 268.152 149.244L268.341 150.965C267.825 151.186 267.241 151.297 266.588 151.297C266.188 151.297 265.827 151.231 265.506 151.1C265.185 150.963 264.948 150.789 264.796 150.578C264.648 150.362 264.546 150.073 264.488 149.71C264.44 149.452 264.417 148.931 264.417 148.146V144.49H263.398V142.721H264.417V141.055L266.643 139.76V142.721H268.16Z" fill="#FAFAFA"/>
<path d="M640.45 170.452C652.572 159.432 633.733 127.625 625.124 121.771C646.613 120.394 663.084 108.591 661.948 92.9635C660.227 69.2856 623.862 76.5444 611.35 79.0697C619.614 71.4937 634.394 31.5892 611.35 31.5894C594.986 31.5896 581.919 50.5691 579.324 59.4408C578.492 62.284 571.475 14.544 557.628 16.0506C545.969 17.3191 547.162 49.4859 550.741 66.3281C550.741 66.3281 543.549 58.4103 531.004 50.191C518.458 41.9717 503.318 44.9999 497.261 52.354C491.205 59.7081 493.252 74.5838 506.215 83.8789C519.321 93.2767 536.123 99.5368 535.589 99.7317C533.519 100.488 517.878 104.219 514.434 105.941C505.349 110.484 491.576 115.802 494.666 130.22C497.261 142.333 522.656 143.489 530.768 139.334C526.768 145.367 515.261 163.501 524.947 174.345C538.23 189.215 562.45 147.254 562.45 147.254C562.45 147.254 568.476 181.452 579.324 177.319C590.171 173.187 592.983 153.223 592.754 143.466C598.79 156.987 628.328 181.471 640.45 170.452Z" fill="#FFC425"/>
<path d="M601.714 104.263C601.645 103.139 600.001 98.0303 594.464 97.5524C588.927 97.0745 585.246 100.035 584.843 100.689" stroke="black" stroke-width="2.59556" stroke-linecap="round"/>
<ellipse cx="9.81446" cy="11.5363" rx="9.81446" ry="11.5363" transform="matrix(-1 0 0 1 568.668 86.9062)" fill="#FDFCFC"/>
<circle cx="6.92151" cy="6.92151" r="6.92151" transform="matrix(-1 0 0 1 565.775 91.5215)" fill="black"/>
<path d="M585.709 116.809C585.307 118.187 580.518 121.073 573.164 120.208C565.81 119.342 561.828 114.7 561.484 113.781" stroke="black" stroke-width="2.59556" stroke-linecap="round"/>
<ellipse cx="545.278" cy="107.726" rx="11.68" ry="11.2474" fill="url(#paint0_radial_1088_6456)"/>
<ellipse cx="600.649" cy="117.244" rx="11.68" ry="11.2474" fill="url(#paint1_radial_1088_6456)"/>
<path d="M479.135 87.5C487.908 104.503 496.76 116.941 521.738 112.097" stroke="black" stroke-width="5" stroke-linecap="round"/>
<defs>
<radialGradient id="paint0_radial_1088_6456" cx="0" cy="0" r="1" gradientUnits="userSpaceOnUse" gradientTransform="translate(545.278 107.726) rotate(90) scale(11.2474 11.68)">
<stop offset="0.0769231" stop-color="#FF6062"/>
<stop offset="1" stop-color="#D9D9D9" stop-opacity="0"/>
</radialGradient>
<radialGradient id="paint1_radial_1088_6456" cx="0" cy="0" r="1" gradientUnits="userSpaceOnUse" gradientTransform="translate(600.649 117.244) rotate(90) scale(11.2474 11.68)">
<stop offset="0.134615" stop-color="#FF6062"/>
<stop offset="1" stop-color="#D9D9D9" stop-opacity="0"/>
</radialGradient>
</defs>
</svg>
