<svg width="602" height="227" viewBox="0 0 602 227" fill="none" xmlns="http://www.w3.org/2000/svg">
<g>
<path d="M37.072 44.002V46H29.449V32.986H31.87V44.002H37.072ZM43.924 40.321C43.924 40.033 43.882 39.763 43.798 39.511C43.72 39.253 43.6 39.028 43.438 38.836C43.276 38.644 43.069 38.494 42.817 38.386C42.571 38.272 42.283 38.215 41.953 38.215C41.311 38.215 40.804 38.398 40.432 38.764C40.066 39.13 39.832 39.649 39.73 40.321H43.924ZM39.685 41.662C39.721 42.136 39.805 42.547 39.937 42.895C40.069 43.237 40.243 43.522 40.459 43.75C40.675 43.972 40.93 44.14 41.224 44.254C41.524 44.362 41.854 44.416 42.214 44.416C42.574 44.416 42.883 44.374 43.141 44.29C43.405 44.206 43.633 44.113 43.825 44.011C44.023 43.909 44.194 43.816 44.338 43.732C44.488 43.648 44.632 43.606 44.77 43.606C44.956 43.606 45.094 43.675 45.184 43.813L45.823 44.623C45.577 44.911 45.301 45.154 44.995 45.352C44.689 45.544 44.368 45.7 44.032 45.82C43.702 45.934 43.363 46.015 43.015 46.063C42.673 46.111 42.34 46.135 42.016 46.135C41.374 46.135 40.777 46.03 40.225 45.82C39.673 45.604 39.193 45.289 38.785 44.875C38.377 44.455 38.056 43.939 37.822 43.327C37.588 42.709 37.471 41.995 37.471 41.185C37.471 40.555 37.573 39.964 37.777 39.412C37.981 38.854 38.272 38.371 38.65 37.963C39.034 37.549 39.499 37.222 40.045 36.982C40.597 36.742 41.218 36.622 41.908 36.622C42.49 36.622 43.027 36.715 43.519 36.901C44.011 37.087 44.434 37.36 44.788 37.72C45.142 38.074 45.418 38.512 45.616 39.034C45.82 39.55 45.922 40.141 45.922 40.807C45.922 41.143 45.886 41.371 45.814 41.491C45.742 41.605 45.604 41.662 45.4 41.662H39.685ZM50.5803 46.144C49.7763 46.144 49.1583 45.919 48.7263 45.469C48.3003 45.013 48.0873 44.386 48.0873 43.588V38.431H47.1423C47.0223 38.431 46.9203 38.392 46.8363 38.314C46.7523 38.236 46.7103 38.119 46.7103 37.963V37.081L48.1953 36.838L48.6633 34.318C48.6933 34.198 48.7503 34.105 48.8343 34.039C48.9183 33.973 49.0263 33.94 49.1583 33.94H50.3103V36.847H52.7763V38.431H50.3103V43.435C50.3103 43.723 50.3793 43.948 50.5173 44.11C50.6613 44.272 50.8563 44.353 51.1023 44.353C51.2403 44.353 51.3543 44.338 51.4443 44.308C51.5403 44.272 51.6213 44.236 51.6873 44.2C51.7593 44.164 51.8223 44.131 51.8763 44.101C51.9303 44.065 51.9843 44.047 52.0383 44.047C52.1043 44.047 52.1583 44.065 52.2003 44.101C52.2423 44.131 52.2873 44.179 52.3353 44.245L53.0013 45.325C52.6773 45.595 52.3053 45.799 51.8853 45.937C51.4653 46.075 51.0303 46.144 50.5803 46.144ZM55.9726 32.986V35.578L55.7746 36.982C55.7266 37.246 55.6486 37.45 55.5406 37.594C55.4326 37.732 55.2526 37.801 55.0006 37.801C54.7786 37.801 54.6076 37.732 54.4876 37.594C54.3676 37.45 54.2836 37.246 54.2356 36.982L54.0376 35.578V32.986H55.9726ZM63.4195 38.566C63.3595 38.662 63.2965 38.731 63.2305 38.773C63.1645 38.809 63.0805 38.827 62.9785 38.827C62.8705 38.827 62.7535 38.797 62.6275 38.737C62.5075 38.677 62.3665 38.611 62.2045 38.539C62.0425 38.461 61.8565 38.392 61.6465 38.332C61.4425 38.272 61.1995 38.242 60.9175 38.242C60.4795 38.242 60.1345 38.335 59.8825 38.521C59.6365 38.707 59.5135 38.95 59.5135 39.25C59.5135 39.448 59.5765 39.616 59.7025 39.754C59.8345 39.886 60.0055 40.003 60.2155 40.105C60.4315 40.207 60.6745 40.3 60.9445 40.384C61.2145 40.462 61.4875 40.549 61.7635 40.645C62.0455 40.741 62.3215 40.852 62.5915 40.978C62.8615 41.098 63.1015 41.254 63.3115 41.446C63.5275 41.632 63.6985 41.857 63.8245 42.121C63.9565 42.385 64.0225 42.703 64.0225 43.075C64.0225 43.519 63.9415 43.93 63.7795 44.308C63.6235 44.68 63.3895 45.004 63.0775 45.28C62.7655 45.55 62.3785 45.763 61.9165 45.919C61.4605 46.069 60.9325 46.144 60.3325 46.144C60.0145 46.144 59.7025 46.114 59.3965 46.054C59.0965 46 58.8055 45.922 58.5235 45.82C58.2475 45.718 57.9895 45.598 57.7495 45.46C57.5155 45.322 57.3085 45.172 57.1285 45.01L57.6415 44.164C57.7075 44.062 57.7855 43.984 57.8755 43.93C57.9655 43.876 58.0795 43.849 58.2175 43.849C58.3555 43.849 58.4845 43.888 58.6045 43.966C58.7305 44.044 58.8745 44.128 59.0365 44.218C59.1985 44.308 59.3875 44.392 59.6035 44.47C59.8255 44.548 60.1045 44.587 60.4405 44.587C60.7045 44.587 60.9295 44.557 61.1155 44.497C61.3075 44.431 61.4635 44.347 61.5835 44.245C61.7095 44.143 61.7995 44.026 61.8535 43.894C61.9135 43.756 61.9435 43.615 61.9435 43.471C61.9435 43.255 61.8775 43.078 61.7455 42.94C61.6195 42.802 61.4485 42.682 61.2325 42.58C61.0225 42.478 60.7795 42.388 60.5035 42.31C60.2335 42.226 59.9545 42.136 59.6665 42.04C59.3845 41.944 59.1055 41.833 58.8295 41.707C58.5595 41.575 58.3165 41.41 58.1005 41.212C57.8905 41.014 57.7195 40.771 57.5875 40.483C57.4615 40.195 57.3985 39.847 57.3985 39.439C57.3985 39.061 57.4735 38.701 57.6235 38.359C57.7735 38.017 57.9925 37.72 58.2805 37.468C58.5745 37.21 58.9375 37.006 59.3695 36.856C59.8075 36.7 60.3115 36.622 60.8815 36.622C61.5175 36.622 62.0965 36.727 62.6185 36.937C63.1405 37.147 63.5755 37.423 63.9235 37.765L63.4195 38.566ZM75.7066 38.566C75.6466 38.662 75.5836 38.731 75.5176 38.773C75.4516 38.809 75.3676 38.827 75.2656 38.827C75.1576 38.827 75.0406 38.797 74.9146 38.737C74.7946 38.677 74.6536 38.611 74.4916 38.539C74.3296 38.461 74.1436 38.392 73.9336 38.332C73.7296 38.272 73.4866 38.242 73.2046 38.242C72.7666 38.242 72.4216 38.335 72.1696 38.521C71.9236 38.707 71.8006 38.95 71.8006 39.25C71.8006 39.448 71.8636 39.616 71.9896 39.754C72.1216 39.886 72.2926 40.003 72.5026 40.105C72.7186 40.207 72.9616 40.3 73.2316 40.384C73.5016 40.462 73.7746 40.549 74.0506 40.645C74.3326 40.741 74.6086 40.852 74.8786 40.978C75.1486 41.098 75.3886 41.254 75.5986 41.446C75.8146 41.632 75.9856 41.857 76.1116 42.121C76.2436 42.385 76.3096 42.703 76.3096 43.075C76.3096 43.519 76.2286 43.93 76.0666 44.308C75.9106 44.68 75.6766 45.004 75.3646 45.28C75.0526 45.55 74.6656 45.763 74.2036 45.919C73.7476 46.069 73.2196 46.144 72.6196 46.144C72.3016 46.144 71.9896 46.114 71.6836 46.054C71.3836 46 71.0926 45.922 70.8106 45.82C70.5346 45.718 70.2766 45.598 70.0366 45.46C69.8026 45.322 69.5956 45.172 69.4156 45.01L69.9286 44.164C69.9946 44.062 70.0726 43.984 70.1626 43.93C70.2526 43.876 70.3666 43.849 70.5046 43.849C70.6426 43.849 70.7716 43.888 70.8916 43.966C71.0176 44.044 71.1616 44.128 71.3236 44.218C71.4856 44.308 71.6746 44.392 71.8906 44.47C72.1126 44.548 72.3916 44.587 72.7276 44.587C72.9916 44.587 73.2166 44.557 73.4026 44.497C73.5946 44.431 73.7506 44.347 73.8706 44.245C73.9966 44.143 74.0866 44.026 74.1406 43.894C74.2006 43.756 74.2306 43.615 74.2306 43.471C74.2306 43.255 74.1646 43.078 74.0326 42.94C73.9066 42.802 73.7356 42.682 73.5196 42.58C73.3096 42.478 73.0666 42.388 72.7906 42.31C72.5206 42.226 72.2416 42.136 71.9536 42.04C71.6716 41.944 71.3926 41.833 71.1166 41.707C70.8466 41.575 70.6036 41.41 70.3876 41.212C70.1776 41.014 70.0066 40.771 69.8746 40.483C69.7486 40.195 69.6856 39.847 69.6856 39.439C69.6856 39.061 69.7606 38.701 69.9106 38.359C70.0606 38.017 70.2796 37.72 70.5676 37.468C70.8616 37.21 71.2246 37.006 71.6566 36.856C72.0946 36.7 72.5986 36.622 73.1686 36.622C73.8046 36.622 74.3836 36.727 74.9056 36.937C75.4276 37.147 75.8626 37.423 76.2106 37.765L75.7066 38.566ZM81.0608 46.144C80.2568 46.144 79.6388 45.919 79.2068 45.469C78.7808 45.013 78.5678 44.386 78.5678 43.588V38.431H77.6228C77.5028 38.431 77.4008 38.392 77.3168 38.314C77.2328 38.236 77.1908 38.119 77.1908 37.963V37.081L78.6758 36.838L79.1438 34.318C79.1738 34.198 79.2308 34.105 79.3148 34.039C79.3988 33.973 79.5068 33.94 79.6388 33.94H80.7908V36.847H83.2568V38.431H80.7908V43.435C80.7908 43.723 80.8598 43.948 80.9978 44.11C81.1418 44.272 81.3368 44.353 81.5828 44.353C81.7208 44.353 81.8348 44.338 81.9248 44.308C82.0208 44.272 82.1018 44.236 82.1678 44.2C82.2398 44.164 82.3028 44.131 82.3568 44.101C82.4108 44.065 82.4648 44.047 82.5188 44.047C82.5848 44.047 82.6388 44.065 82.6808 44.101C82.7228 44.131 82.7678 44.179 82.8158 44.245L83.4818 45.325C83.1578 45.595 82.7858 45.799 82.3658 45.937C81.9458 46.075 81.5108 46.144 81.0608 46.144ZM89.558 42.058C88.916 42.088 88.376 42.145 87.938 42.229C87.5 42.307 87.149 42.409 86.885 42.535C86.621 42.661 86.432 42.808 86.318 42.976C86.204 43.144 86.147 43.327 86.147 43.525C86.147 43.915 86.261 44.194 86.489 44.362C86.723 44.53 87.026 44.614 87.398 44.614C87.854 44.614 88.247 44.533 88.577 44.371C88.913 44.203 89.24 43.951 89.558 43.615V42.058ZM84.464 38.053C85.526 37.081 86.804 36.595 88.298 36.595C88.838 36.595 89.321 36.685 89.747 36.865C90.173 37.039 90.533 37.285 90.827 37.603C91.121 37.915 91.343 38.29 91.493 38.728C91.649 39.166 91.727 39.646 91.727 40.168V46H90.719C90.509 46 90.347 45.97 90.233 45.91C90.119 45.844 90.029 45.715 89.963 45.523L89.765 44.857C89.531 45.067 89.303 45.253 89.081 45.415C88.859 45.571 88.628 45.703 88.388 45.811C88.148 45.919 87.89 46 87.614 46.054C87.344 46.114 87.044 46.144 86.714 46.144C86.324 46.144 85.964 46.093 85.634 45.991C85.304 45.883 85.019 45.724 84.779 45.514C84.539 45.304 84.353 45.043 84.221 44.731C84.089 44.419 84.023 44.056 84.023 43.642C84.023 43.408 84.062 43.177 84.14 42.949C84.218 42.715 84.344 42.493 84.518 42.283C84.698 42.073 84.929 41.875 85.211 41.689C85.493 41.503 85.838 41.341 86.246 41.203C86.66 41.065 87.14 40.954 87.686 40.87C88.232 40.78 88.856 40.726 89.558 40.708V40.168C89.558 39.55 89.426 39.094 89.162 38.8C88.898 38.5 88.517 38.35 88.019 38.35C87.659 38.35 87.359 38.392 87.119 38.476C86.885 38.56 86.678 38.656 86.498 38.764C86.318 38.866 86.153 38.959 86.003 39.043C85.859 39.127 85.697 39.169 85.517 39.169C85.361 39.169 85.229 39.13 85.121 39.052C85.013 38.968 84.926 38.872 84.86 38.764L84.464 38.053ZM95.9177 38.368C96.2057 37.816 96.5477 37.384 96.9437 37.072C97.3397 36.754 97.8077 36.595 98.3477 36.595C98.7737 36.595 99.1157 36.688 99.3737 36.874L99.2297 38.539C99.1997 38.647 99.1547 38.725 99.0947 38.773C99.0407 38.815 98.9657 38.836 98.8697 38.836C98.7797 38.836 98.6447 38.821 98.4647 38.791C98.2907 38.761 98.1197 38.746 97.9517 38.746C97.7057 38.746 97.4867 38.782 97.2947 38.854C97.1027 38.926 96.9287 39.031 96.7727 39.169C96.6227 39.301 96.4877 39.463 96.3677 39.655C96.2537 39.847 96.1457 40.066 96.0437 40.312V46H93.8207V36.766H95.1257C95.3537 36.766 95.5127 36.808 95.6027 36.892C95.6927 36.97 95.7527 37.114 95.7827 37.324L95.9177 38.368ZM103.614 46.144C102.81 46.144 102.192 45.919 101.76 45.469C101.334 45.013 101.121 44.386 101.121 43.588V38.431H100.176C100.056 38.431 99.9535 38.392 99.8695 38.314C99.7855 38.236 99.7435 38.119 99.7435 37.963V37.081L101.229 36.838L101.697 34.318C101.727 34.198 101.784 34.105 101.868 34.039C101.952 33.973 102.06 33.94 102.192 33.94H103.344V36.847H105.81V38.431H103.344V43.435C103.344 43.723 103.413 43.948 103.551 44.11C103.695 44.272 103.89 44.353 104.136 44.353C104.274 44.353 104.388 44.338 104.478 44.308C104.574 44.272 104.655 44.236 104.721 44.2C104.793 44.164 104.856 44.131 104.91 44.101C104.964 44.065 105.018 44.047 105.072 44.047C105.138 44.047 105.192 44.065 105.234 44.101C105.276 44.131 105.321 44.179 105.369 44.245L106.035 45.325C105.711 45.595 105.339 45.799 104.919 45.937C104.499 46.075 104.064 46.144 103.614 46.144ZM109.717 32.986V38.134C109.717 38.68 109.69 39.217 109.636 39.745C109.582 40.267 109.513 40.822 109.429 41.41H107.917C107.833 40.822 107.764 40.267 107.71 39.745C107.656 39.217 107.629 38.68 107.629 38.134V32.986H109.717ZM107.278 44.776C107.278 44.59 107.311 44.413 107.377 44.245C107.449 44.077 107.545 43.933 107.665 43.813C107.791 43.693 107.938 43.597 108.106 43.525C108.274 43.453 108.454 43.417 108.646 43.417C108.832 43.417 109.009 43.453 109.177 43.525C109.345 43.597 109.489 43.693 109.609 43.813C109.735 43.933 109.834 44.077 109.906 44.245C109.978 44.413 110.014 44.59 110.014 44.776C110.014 44.968 109.978 45.148 109.906 45.316C109.834 45.478 109.735 45.619 109.609 45.739C109.489 45.859 109.345 45.952 109.177 46.018C109.009 46.09 108.832 46.126 108.646 46.126C108.454 46.126 108.274 46.09 108.106 46.018C107.938 45.952 107.791 45.859 107.665 45.739C107.545 45.619 107.449 45.478 107.377 45.316C107.311 45.148 107.278 44.968 107.278 44.776ZM128.579 39.493C128.579 40.447 128.42 41.323 128.102 42.121C127.784 42.919 127.337 43.606 126.761 44.182C126.185 44.758 125.492 45.205 124.682 45.523C123.872 45.841 122.972 46 121.982 46H117.023V32.986H121.982C122.972 32.986 123.872 33.148 124.682 33.472C125.492 33.79 126.185 34.237 126.761 34.813C127.337 35.383 127.784 36.067 128.102 36.865C128.42 37.663 128.579 38.539 128.579 39.493ZM126.095 39.493C126.095 38.779 125.999 38.14 125.807 37.576C125.621 37.006 125.348 36.526 124.988 36.136C124.634 35.74 124.202 35.437 123.692 35.227C123.188 35.017 122.618 34.912 121.982 34.912H119.453V44.074H121.982C122.618 44.074 123.188 43.969 123.692 43.759C124.202 43.549 124.634 43.249 124.988 42.859C125.348 42.463 125.621 41.983 125.807 41.419C125.999 40.849 126.095 40.207 126.095 39.493ZM132.304 38.368C132.592 37.816 132.934 37.384 133.33 37.072C133.726 36.754 134.194 36.595 134.734 36.595C135.16 36.595 135.502 36.688 135.76 36.874L135.616 38.539C135.586 38.647 135.541 38.725 135.481 38.773C135.427 38.815 135.352 38.836 135.256 38.836C135.166 38.836 135.031 38.821 134.851 38.791C134.677 38.761 134.506 38.746 134.338 38.746C134.092 38.746 133.873 38.782 133.681 38.854C133.489 38.926 133.315 39.031 133.159 39.169C133.009 39.301 132.874 39.463 132.754 39.655C132.64 39.847 132.532 40.066 132.43 40.312V46H130.207V36.766H131.512C131.74 36.766 131.899 36.808 131.989 36.892C132.079 36.97 132.139 37.114 132.169 37.324L132.304 38.368ZM141.677 42.058C141.035 42.088 140.495 42.145 140.057 42.229C139.619 42.307 139.268 42.409 139.004 42.535C138.74 42.661 138.551 42.808 138.437 42.976C138.323 43.144 138.266 43.327 138.266 43.525C138.266 43.915 138.38 44.194 138.608 44.362C138.842 44.53 139.145 44.614 139.517 44.614C139.973 44.614 140.366 44.533 140.696 44.371C141.032 44.203 141.359 43.951 141.677 43.615V42.058ZM136.583 38.053C137.645 37.081 138.923 36.595 140.417 36.595C140.957 36.595 141.44 36.685 141.866 36.865C142.292 37.039 142.652 37.285 142.946 37.603C143.24 37.915 143.462 38.29 143.612 38.728C143.768 39.166 143.846 39.646 143.846 40.168V46H142.838C142.628 46 142.466 45.97 142.352 45.91C142.238 45.844 142.148 45.715 142.082 45.523L141.884 44.857C141.65 45.067 141.422 45.253 141.2 45.415C140.978 45.571 140.747 45.703 140.507 45.811C140.267 45.919 140.009 46 139.733 46.054C139.463 46.114 139.163 46.144 138.833 46.144C138.443 46.144 138.083 46.093 137.753 45.991C137.423 45.883 137.138 45.724 136.898 45.514C136.658 45.304 136.472 45.043 136.34 44.731C136.208 44.419 136.142 44.056 136.142 43.642C136.142 43.408 136.181 43.177 136.259 42.949C136.337 42.715 136.463 42.493 136.637 42.283C136.817 42.073 137.048 41.875 137.33 41.689C137.612 41.503 137.957 41.341 138.365 41.203C138.779 41.065 139.259 40.954 139.805 40.87C140.351 40.78 140.975 40.726 141.677 40.708V40.168C141.677 39.55 141.545 39.094 141.281 38.8C141.017 38.5 140.636 38.35 140.138 38.35C139.778 38.35 139.478 38.392 139.238 38.476C139.004 38.56 138.797 38.656 138.617 38.764C138.437 38.866 138.272 38.959 138.122 39.043C137.978 39.127 137.816 39.169 137.636 39.169C137.48 39.169 137.348 39.13 137.24 39.052C137.132 38.968 137.045 38.872 136.979 38.764L136.583 38.053ZM149.315 41.158C149.591 41.158 149.831 41.122 150.035 41.05C150.239 40.972 150.407 40.867 150.539 40.735C150.677 40.603 150.779 40.444 150.845 40.258C150.917 40.072 150.953 39.868 150.953 39.646C150.953 39.19 150.815 38.83 150.539 38.566C150.269 38.296 149.861 38.161 149.315 38.161C148.769 38.161 148.358 38.296 148.082 38.566C147.812 38.83 147.677 39.19 147.677 39.646C147.677 39.862 147.71 40.063 147.776 40.249C147.848 40.435 147.95 40.597 148.082 40.735C148.22 40.867 148.391 40.972 148.595 41.05C148.805 41.122 149.045 41.158 149.315 41.158ZM151.826 46.414C151.826 46.234 151.772 46.087 151.664 45.973C151.556 45.859 151.409 45.772 151.223 45.712C151.037 45.646 150.818 45.598 150.566 45.568C150.32 45.538 150.056 45.517 149.774 45.505C149.498 45.487 149.21 45.472 148.91 45.46C148.616 45.448 148.328 45.424 148.046 45.388C147.8 45.526 147.599 45.688 147.443 45.874C147.293 46.06 147.218 46.276 147.218 46.522C147.218 46.684 147.257 46.834 147.335 46.972C147.419 47.116 147.548 47.239 147.722 47.341C147.902 47.443 148.133 47.521 148.415 47.575C148.697 47.635 149.042 47.665 149.45 47.665C149.864 47.665 150.221 47.632 150.521 47.566C150.821 47.506 151.067 47.419 151.259 47.305C151.457 47.197 151.601 47.065 151.691 46.909C151.781 46.759 151.826 46.594 151.826 46.414ZM154.04 37.081V37.909C154.04 38.173 153.881 38.335 153.563 38.395L152.735 38.548C152.861 38.866 152.924 39.214 152.924 39.592C152.924 40.048 152.831 40.462 152.645 40.834C152.465 41.2 152.213 41.512 151.889 41.77C151.565 42.028 151.181 42.229 150.737 42.373C150.299 42.511 149.825 42.58 149.315 42.58C149.135 42.58 148.961 42.571 148.793 42.553C148.625 42.535 148.46 42.511 148.298 42.481C148.01 42.655 147.866 42.85 147.866 43.066C147.866 43.252 147.95 43.39 148.118 43.48C148.292 43.564 148.52 43.624 148.802 43.66C149.084 43.696 149.405 43.72 149.765 43.732C150.125 43.738 150.494 43.756 150.872 43.786C151.25 43.816 151.619 43.87 151.979 43.948C152.339 44.02 152.66 44.137 152.942 44.299C153.224 44.461 153.449 44.683 153.617 44.965C153.791 45.241 153.878 45.598 153.878 46.036C153.878 46.444 153.776 46.84 153.572 47.224C153.374 47.608 153.083 47.95 152.699 48.25C152.321 48.55 151.853 48.79 151.295 48.97C150.743 49.156 150.113 49.249 149.405 49.249C148.709 49.249 148.103 49.18 147.587 49.042C147.071 48.91 146.642 48.73 146.3 48.502C145.958 48.28 145.703 48.022 145.535 47.728C145.367 47.434 145.283 47.128 145.283 46.81C145.283 46.378 145.412 46.018 145.67 45.73C145.934 45.436 146.294 45.202 146.75 45.028C146.504 44.902 146.309 44.734 146.165 44.524C146.021 44.314 145.949 44.038 145.949 43.696C145.949 43.558 145.973 43.417 146.021 43.273C146.075 43.123 146.15 42.976 146.246 42.832C146.348 42.688 146.474 42.553 146.624 42.427C146.774 42.295 146.951 42.178 147.155 42.076C146.687 41.824 146.318 41.488 146.048 41.068C145.784 40.648 145.652 40.156 145.652 39.592C145.652 39.136 145.742 38.725 145.922 38.359C146.108 37.987 146.363 37.672 146.687 37.414C147.017 37.15 147.404 36.949 147.848 36.811C148.298 36.673 148.787 36.604 149.315 36.604C149.711 36.604 150.083 36.646 150.431 36.73C150.779 36.808 151.097 36.925 151.385 37.081H154.04ZM162.905 46.144C162.101 46.144 161.483 45.919 161.051 45.469C160.625 45.013 160.412 44.386 160.412 43.588V38.431H159.467C159.347 38.431 159.245 38.392 159.161 38.314C159.077 38.236 159.035 38.119 159.035 37.963V37.081L160.52 36.838L160.988 34.318C161.018 34.198 161.075 34.105 161.159 34.039C161.243 33.973 161.351 33.94 161.483 33.94H162.635V36.847H165.101V38.431H162.635V43.435C162.635 43.723 162.704 43.948 162.842 44.11C162.986 44.272 163.181 44.353 163.427 44.353C163.565 44.353 163.679 44.338 163.769 44.308C163.865 44.272 163.946 44.236 164.012 44.2C164.084 44.164 164.147 44.131 164.201 44.101C164.255 44.065 164.309 44.047 164.363 44.047C164.429 44.047 164.483 44.065 164.525 44.101C164.567 44.131 164.612 44.179 164.66 44.245L165.326 45.325C165.002 45.595 164.63 45.799 164.21 45.937C163.79 46.075 163.355 46.144 162.905 46.144ZM168.747 37.756C169.107 37.42 169.503 37.147 169.935 36.937C170.367 36.727 170.874 36.622 171.456 36.622C171.96 36.622 172.407 36.709 172.797 36.883C173.187 37.051 173.511 37.291 173.769 37.603C174.033 37.909 174.231 38.278 174.363 38.71C174.501 39.136 174.57 39.607 174.57 40.123V46H172.347V40.123C172.347 39.559 172.218 39.124 171.96 38.818C171.702 38.506 171.309 38.35 170.781 38.35C170.397 38.35 170.037 38.437 169.701 38.611C169.365 38.785 169.047 39.022 168.747 39.322V46H166.524V32.626H168.747V37.756ZM182.633 40.321C182.633 40.033 182.591 39.763 182.507 39.511C182.429 39.253 182.309 39.028 182.147 38.836C181.985 38.644 181.778 38.494 181.526 38.386C181.28 38.272 180.992 38.215 180.662 38.215C180.02 38.215 179.513 38.398 179.141 38.764C178.775 39.13 178.541 39.649 178.439 40.321H182.633ZM178.394 41.662C178.43 42.136 178.514 42.547 178.646 42.895C178.778 43.237 178.952 43.522 179.168 43.75C179.384 43.972 179.639 44.14 179.933 44.254C180.233 44.362 180.563 44.416 180.923 44.416C181.283 44.416 181.592 44.374 181.85 44.29C182.114 44.206 182.342 44.113 182.534 44.011C182.732 43.909 182.903 43.816 183.047 43.732C183.197 43.648 183.341 43.606 183.479 43.606C183.665 43.606 183.803 43.675 183.893 43.813L184.532 44.623C184.286 44.911 184.01 45.154 183.704 45.352C183.398 45.544 183.077 45.7 182.741 45.82C182.411 45.934 182.072 46.015 181.724 46.063C181.382 46.111 181.049 46.135 180.725 46.135C180.083 46.135 179.486 46.03 178.934 45.82C178.382 45.604 177.902 45.289 177.494 44.875C177.086 44.455 176.765 43.939 176.531 43.327C176.297 42.709 176.18 41.995 176.18 41.185C176.18 40.555 176.282 39.964 176.486 39.412C176.69 38.854 176.981 38.371 177.359 37.963C177.743 37.549 178.208 37.222 178.754 36.982C179.306 36.742 179.927 36.622 180.617 36.622C181.199 36.622 181.736 36.715 182.228 36.901C182.72 37.087 183.143 37.36 183.497 37.72C183.851 38.074 184.127 38.512 184.325 39.034C184.529 39.55 184.631 40.141 184.631 40.807C184.631 41.143 184.595 41.371 184.523 41.491C184.451 41.605 184.313 41.662 184.109 41.662H178.394ZM191.324 46V38.44L190.523 38.314C190.349 38.278 190.208 38.218 190.1 38.134C189.998 38.044 189.947 37.918 189.947 37.756V36.847H191.324V36.163C191.324 35.635 191.402 35.161 191.558 34.741C191.72 34.321 191.948 33.964 192.242 33.67C192.542 33.376 192.905 33.151 193.331 32.995C193.757 32.839 194.237 32.761 194.771 32.761C195.197 32.761 195.593 32.818 195.959 32.932L195.914 34.048C195.908 34.132 195.884 34.201 195.842 34.255C195.8 34.303 195.743 34.342 195.671 34.372C195.605 34.396 195.527 34.414 195.437 34.426C195.347 34.432 195.251 34.435 195.149 34.435C194.885 34.435 194.648 34.465 194.438 34.525C194.234 34.579 194.06 34.678 193.916 34.822C193.772 34.96 193.661 35.146 193.583 35.38C193.511 35.608 193.475 35.893 193.475 36.235V36.847H195.878V38.431H193.547V46H191.324ZM200.967 36.622C201.651 36.622 202.272 36.733 202.83 36.955C203.394 37.177 203.874 37.492 204.27 37.9C204.672 38.308 204.981 38.806 205.197 39.394C205.413 39.982 205.521 40.639 205.521 41.365C205.521 42.097 205.413 42.757 205.197 43.345C204.981 43.933 204.672 44.434 204.27 44.848C203.874 45.262 203.394 45.58 202.83 45.802C202.272 46.024 201.651 46.135 200.967 46.135C200.277 46.135 199.65 46.024 199.086 45.802C198.522 45.58 198.039 45.262 197.637 44.848C197.241 44.434 196.932 43.933 196.71 43.345C196.494 42.757 196.386 42.097 196.386 41.365C196.386 40.639 196.494 39.982 196.71 39.394C196.932 38.806 197.241 38.308 197.637 37.9C198.039 37.492 198.522 37.177 199.086 36.955C199.65 36.733 200.277 36.622 200.967 36.622ZM200.967 44.425C201.735 44.425 202.302 44.167 202.668 43.651C203.04 43.135 203.226 42.379 203.226 41.383C203.226 40.387 203.04 39.628 202.668 39.106C202.302 38.584 201.735 38.323 200.967 38.323C200.187 38.323 199.608 38.587 199.23 39.115C198.858 39.637 198.672 40.393 198.672 41.383C198.672 42.373 198.858 43.129 199.23 43.651C199.608 44.167 200.187 44.425 200.967 44.425ZM209.467 32.626V46H207.244V32.626H209.467ZM213.932 32.626V46H211.709V32.626H213.932ZM220.233 36.622C220.917 36.622 221.538 36.733 222.096 36.955C222.66 37.177 223.14 37.492 223.536 37.9C223.938 38.308 224.247 38.806 224.463 39.394C224.679 39.982 224.787 40.639 224.787 41.365C224.787 42.097 224.679 42.757 224.463 43.345C224.247 43.933 223.938 44.434 223.536 44.848C223.14 45.262 222.66 45.58 222.096 45.802C221.538 46.024 220.917 46.135 220.233 46.135C219.543 46.135 218.916 46.024 218.352 45.802C217.788 45.58 217.305 45.262 216.903 44.848C216.507 44.434 216.198 43.933 215.976 43.345C215.76 42.757 215.652 42.097 215.652 41.365C215.652 40.639 215.76 39.982 215.976 39.394C216.198 38.806 216.507 38.308 216.903 37.9C217.305 37.492 217.788 37.177 218.352 36.955C218.916 36.733 219.543 36.622 220.233 36.622ZM220.233 44.425C221.001 44.425 221.568 44.167 221.934 43.651C222.306 43.135 222.492 42.379 222.492 41.383C222.492 40.387 222.306 39.628 221.934 39.106C221.568 38.584 221.001 38.323 220.233 38.323C219.453 38.323 218.874 38.587 218.496 39.115C218.124 39.637 217.938 40.393 217.938 41.383C217.938 42.373 218.124 43.129 218.496 43.651C218.874 44.167 219.453 44.425 220.233 44.425ZM239.51 36.766L236.576 46H234.794C234.59 46 234.449 45.868 234.371 45.604L232.715 40.267C232.661 40.087 232.61 39.91 232.562 39.736C232.52 39.556 232.484 39.376 232.454 39.196C232.418 39.376 232.376 39.559 232.328 39.745C232.286 39.925 232.238 40.105 232.184 40.285L230.501 45.604C230.429 45.868 230.27 46 230.024 46H228.314L225.389 36.766H227.162C227.324 36.766 227.462 36.805 227.576 36.883C227.69 36.961 227.765 37.06 227.801 37.18L229.124 42.112C229.19 42.382 229.247 42.646 229.295 42.904C229.349 43.162 229.394 43.42 229.43 43.678C229.496 43.42 229.565 43.162 229.637 42.904C229.715 42.646 229.796 42.382 229.88 42.112L231.41 37.162C231.446 37.042 231.515 36.943 231.617 36.865C231.725 36.787 231.854 36.748 232.004 36.748H232.985C233.141 36.748 233.273 36.787 233.381 36.865C233.495 36.943 233.57 37.042 233.606 37.162L235.091 42.112C235.169 42.382 235.241 42.649 235.307 42.913C235.379 43.171 235.448 43.429 235.514 43.687C235.592 43.177 235.703 42.652 235.847 42.112L237.206 37.18C237.248 37.06 237.323 36.961 237.431 36.883C237.539 36.805 237.668 36.766 237.818 36.766H239.51ZM243.078 36.766V46H240.846V36.766H243.078ZM243.384 34.075C243.384 34.267 243.345 34.447 243.267 34.615C243.189 34.783 243.084 34.93 242.952 35.056C242.826 35.182 242.676 35.284 242.502 35.362C242.328 35.434 242.142 35.47 241.944 35.47C241.752 35.47 241.569 35.434 241.395 35.362C241.227 35.284 241.08 35.182 240.954 35.056C240.828 34.93 240.726 34.783 240.648 34.615C240.576 34.447 240.54 34.267 240.54 34.075C240.54 33.877 240.576 33.691 240.648 33.517C240.726 33.343 240.828 33.193 240.954 33.067C241.08 32.941 241.227 32.842 241.395 32.77C241.569 32.692 241.752 32.653 241.944 32.653C242.142 32.653 242.328 32.692 242.502 32.77C242.676 32.842 242.826 32.941 242.952 33.067C243.084 33.193 243.189 33.343 243.267 33.517C243.345 33.691 243.384 33.877 243.384 34.075ZM247.423 37.9C247.609 37.714 247.804 37.543 248.008 37.387C248.218 37.225 248.437 37.09 248.665 36.982C248.899 36.868 249.148 36.781 249.412 36.721C249.676 36.655 249.964 36.622 250.276 36.622C250.78 36.622 251.227 36.709 251.617 36.883C252.007 37.051 252.331 37.291 252.589 37.603C252.853 37.909 253.051 38.278 253.183 38.71C253.321 39.136 253.39 39.607 253.39 40.123V46H251.167V40.123C251.167 39.559 251.038 39.124 250.78 38.818C250.522 38.506 250.129 38.35 249.601 38.35C249.217 38.35 248.857 38.437 248.521 38.611C248.185 38.785 247.867 39.022 247.567 39.322V46H245.344V36.766H246.703C246.991 36.766 247.18 36.901 247.27 37.171L247.423 37.9ZM258.879 41.158C259.155 41.158 259.395 41.122 259.599 41.05C259.803 40.972 259.971 40.867 260.103 40.735C260.241 40.603 260.343 40.444 260.409 40.258C260.481 40.072 260.517 39.868 260.517 39.646C260.517 39.19 260.379 38.83 260.103 38.566C259.833 38.296 259.425 38.161 258.879 38.161C258.333 38.161 257.922 38.296 257.646 38.566C257.376 38.83 257.241 39.19 257.241 39.646C257.241 39.862 257.274 40.063 257.34 40.249C257.412 40.435 257.514 40.597 257.646 40.735C257.784 40.867 257.955 40.972 258.159 41.05C258.369 41.122 258.609 41.158 258.879 41.158ZM261.39 46.414C261.39 46.234 261.336 46.087 261.228 45.973C261.12 45.859 260.973 45.772 260.787 45.712C260.601 45.646 260.382 45.598 260.13 45.568C259.884 45.538 259.62 45.517 259.338 45.505C259.062 45.487 258.774 45.472 258.474 45.46C258.18 45.448 257.892 45.424 257.61 45.388C257.364 45.526 257.163 45.688 257.007 45.874C256.857 46.06 256.782 46.276 256.782 46.522C256.782 46.684 256.821 46.834 256.899 46.972C256.983 47.116 257.112 47.239 257.286 47.341C257.466 47.443 257.697 47.521 257.979 47.575C258.261 47.635 258.606 47.665 259.014 47.665C259.428 47.665 259.785 47.632 260.085 47.566C260.385 47.506 260.631 47.419 260.823 47.305C261.021 47.197 261.165 47.065 261.255 46.909C261.345 46.759 261.39 46.594 261.39 46.414ZM263.604 37.081V37.909C263.604 38.173 263.445 38.335 263.127 38.395L262.299 38.548C262.425 38.866 262.488 39.214 262.488 39.592C262.488 40.048 262.395 40.462 262.209 40.834C262.029 41.2 261.777 41.512 261.453 41.77C261.129 42.028 260.745 42.229 260.301 42.373C259.863 42.511 259.389 42.58 258.879 42.58C258.699 42.58 258.525 42.571 258.357 42.553C258.189 42.535 258.024 42.511 257.862 42.481C257.574 42.655 257.43 42.85 257.43 43.066C257.43 43.252 257.514 43.39 257.682 43.48C257.856 43.564 258.084 43.624 258.366 43.66C258.648 43.696 258.969 43.72 259.329 43.732C259.689 43.738 260.058 43.756 260.436 43.786C260.814 43.816 261.183 43.87 261.543 43.948C261.903 44.02 262.224 44.137 262.506 44.299C262.788 44.461 263.013 44.683 263.181 44.965C263.355 45.241 263.442 45.598 263.442 46.036C263.442 46.444 263.34 46.84 263.136 47.224C262.938 47.608 262.647 47.95 262.263 48.25C261.885 48.55 261.417 48.79 260.859 48.97C260.307 49.156 259.677 49.249 258.969 49.249C258.273 49.249 257.667 49.18 257.151 49.042C256.635 48.91 256.206 48.73 255.864 48.502C255.522 48.28 255.267 48.022 255.099 47.728C254.931 47.434 254.847 47.128 254.847 46.81C254.847 46.378 254.976 46.018 255.234 45.73C255.498 45.436 255.858 45.202 256.314 45.028C256.068 44.902 255.873 44.734 255.729 44.524C255.585 44.314 255.513 44.038 255.513 43.696C255.513 43.558 255.537 43.417 255.585 43.273C255.639 43.123 255.714 42.976 255.81 42.832C255.912 42.688 256.038 42.553 256.188 42.427C256.338 42.295 256.515 42.178 256.719 42.076C256.251 41.824 255.882 41.488 255.612 41.068C255.348 40.648 255.216 40.156 255.216 39.592C255.216 39.136 255.306 38.725 255.486 38.359C255.672 37.987 255.927 37.672 256.251 37.414C256.581 37.15 256.968 36.949 257.412 36.811C257.862 36.673 258.351 36.604 258.879 36.604C259.275 36.604 259.647 36.646 259.995 36.73C260.343 36.808 260.661 36.925 260.949 37.081H263.604ZM276.006 38.719C275.94 38.803 275.874 38.869 275.808 38.917C275.748 38.965 275.658 38.989 275.538 38.989C275.424 38.989 275.313 38.956 275.205 38.89C275.097 38.818 274.968 38.74 274.818 38.656C274.668 38.566 274.488 38.488 274.278 38.422C274.074 38.35 273.819 38.314 273.513 38.314C273.123 38.314 272.781 38.386 272.487 38.53C272.193 38.668 271.947 38.869 271.749 39.133C271.557 39.397 271.413 39.718 271.317 40.096C271.221 40.468 271.173 40.891 271.173 41.365C271.173 41.857 271.224 42.295 271.326 42.679C271.434 43.063 271.587 43.387 271.785 43.651C271.983 43.909 272.223 44.107 272.505 44.245C272.787 44.377 273.105 44.443 273.459 44.443C273.813 44.443 274.098 44.401 274.314 44.317C274.536 44.227 274.722 44.131 274.872 44.029C275.022 43.921 275.151 43.825 275.259 43.741C275.373 43.651 275.499 43.606 275.637 43.606C275.817 43.606 275.952 43.675 276.042 43.813L276.681 44.623C276.435 44.911 276.168 45.154 275.88 45.352C275.592 45.544 275.292 45.7 274.98 45.82C274.674 45.934 274.356 46.015 274.026 46.063C273.702 46.111 273.378 46.135 273.054 46.135C272.484 46.135 271.947 46.03 271.443 45.82C270.939 45.604 270.498 45.292 270.12 44.884C269.742 44.476 269.442 43.978 269.22 43.39C269.004 42.796 268.896 42.121 268.896 41.365C268.896 40.687 268.992 40.06 269.184 39.484C269.382 38.902 269.67 38.401 270.048 37.981C270.426 37.555 270.894 37.222 271.452 36.982C272.01 36.742 272.652 36.622 273.378 36.622C274.068 36.622 274.671 36.733 275.187 36.955C275.709 37.177 276.177 37.495 276.591 37.909L276.006 38.719ZM282.002 36.622C282.686 36.622 283.307 36.733 283.865 36.955C284.429 37.177 284.909 37.492 285.305 37.9C285.707 38.308 286.016 38.806 286.232 39.394C286.448 39.982 286.556 40.639 286.556 41.365C286.556 42.097 286.448 42.757 286.232 43.345C286.016 43.933 285.707 44.434 285.305 44.848C284.909 45.262 284.429 45.58 283.865 45.802C283.307 46.024 282.686 46.135 282.002 46.135C281.312 46.135 280.685 46.024 280.121 45.802C279.557 45.58 279.074 45.262 278.672 44.848C278.276 44.434 277.967 43.933 277.745 43.345C277.529 42.757 277.421 42.097 277.421 41.365C277.421 40.639 277.529 39.982 277.745 39.394C277.967 38.806 278.276 38.308 278.672 37.9C279.074 37.492 279.557 37.177 280.121 36.955C280.685 36.733 281.312 36.622 282.002 36.622ZM282.002 44.425C282.77 44.425 283.337 44.167 283.703 43.651C284.075 43.135 284.261 42.379 284.261 41.383C284.261 40.387 284.075 39.628 283.703 39.106C283.337 38.584 282.77 38.323 282.002 38.323C281.222 38.323 280.643 38.587 280.265 39.115C279.893 39.637 279.707 40.393 279.707 41.383C279.707 42.373 279.893 43.129 280.265 43.651C280.643 44.167 281.222 44.425 282.002 44.425ZM288.252 46V36.766H289.611C289.899 36.766 290.088 36.901 290.178 37.171L290.322 37.855C290.484 37.675 290.652 37.51 290.826 37.36C291.006 37.21 291.195 37.081 291.393 36.973C291.597 36.865 291.813 36.781 292.041 36.721C292.275 36.655 292.53 36.622 292.806 36.622C293.388 36.622 293.865 36.781 294.237 37.099C294.615 37.411 294.897 37.828 295.083 38.35C295.227 38.044 295.407 37.783 295.623 37.567C295.839 37.345 296.076 37.165 296.334 37.027C296.592 36.889 296.865 36.787 297.153 36.721C297.447 36.655 297.741 36.622 298.035 36.622C298.545 36.622 298.998 36.7 299.394 36.856C299.79 37.012 300.123 37.24 300.393 37.54C300.663 37.84 300.867 38.206 301.005 38.638C301.149 39.07 301.221 39.565 301.221 40.123V46H298.998V40.123C298.998 39.535 298.869 39.094 298.611 38.8C298.353 38.5 297.975 38.35 297.477 38.35C297.249 38.35 297.036 38.389 296.838 38.467C296.646 38.545 296.475 38.659 296.325 38.809C296.181 38.953 296.067 39.136 295.983 39.358C295.899 39.58 295.857 39.835 295.857 40.123V46H293.625V40.123C293.625 39.505 293.499 39.055 293.247 38.773C293.001 38.491 292.638 38.35 292.158 38.35C291.834 38.35 291.531 38.431 291.249 38.593C290.973 38.749 290.715 38.965 290.475 39.241V46H288.252ZM305.557 43.606C305.809 43.912 306.082 44.128 306.376 44.254C306.676 44.38 307 44.443 307.348 44.443C307.684 44.443 307.987 44.38 308.257 44.254C308.527 44.128 308.755 43.936 308.941 43.678C309.133 43.42 309.28 43.096 309.382 42.706C309.484 42.31 309.535 41.845 309.535 41.311C309.535 40.771 309.49 40.315 309.4 39.943C309.316 39.565 309.193 39.259 309.031 39.025C308.869 38.791 308.671 38.62 308.437 38.512C308.209 38.404 307.948 38.35 307.654 38.35C307.192 38.35 306.799 38.449 306.475 38.647C306.151 38.839 305.845 39.112 305.557 39.466V43.606ZM305.44 38.026C305.818 37.6 306.247 37.255 306.727 36.991C307.207 36.727 307.771 36.595 308.419 36.595C308.923 36.595 309.382 36.7 309.796 36.91C310.216 37.12 310.576 37.426 310.876 37.828C311.182 38.224 311.416 38.716 311.578 39.304C311.746 39.886 311.83 40.555 311.83 41.311C311.83 42.001 311.737 42.64 311.551 43.228C311.365 43.816 311.098 44.326 310.75 44.758C310.408 45.19 309.991 45.529 309.499 45.775C309.013 46.015 308.467 46.135 307.861 46.135C307.345 46.135 306.904 46.057 306.538 45.901C306.172 45.739 305.845 45.517 305.557 45.235V49.015H303.334V36.766H304.693C304.981 36.766 305.17 36.901 305.26 37.171L305.44 38.026ZM317.651 36.622C318.335 36.622 318.956 36.733 319.514 36.955C320.078 37.177 320.558 37.492 320.954 37.9C321.356 38.308 321.665 38.806 321.881 39.394C322.097 39.982 322.205 40.639 322.205 41.365C322.205 42.097 322.097 42.757 321.881 43.345C321.665 43.933 321.356 44.434 320.954 44.848C320.558 45.262 320.078 45.58 319.514 45.802C318.956 46.024 318.335 46.135 317.651 46.135C316.961 46.135 316.334 46.024 315.77 45.802C315.206 45.58 314.723 45.262 314.321 44.848C313.925 44.434 313.616 43.933 313.394 43.345C313.178 42.757 313.07 42.097 313.07 41.365C313.07 40.639 313.178 39.982 313.394 39.394C313.616 38.806 313.925 38.308 314.321 37.9C314.723 37.492 315.206 37.177 315.77 36.955C316.334 36.733 316.961 36.622 317.651 36.622ZM317.651 44.425C318.419 44.425 318.986 44.167 319.352 43.651C319.724 43.135 319.91 42.379 319.91 41.383C319.91 40.387 319.724 39.628 319.352 39.106C318.986 38.584 318.419 38.323 317.651 38.323C316.871 38.323 316.292 38.587 315.914 39.115C315.542 39.637 315.356 40.393 315.356 41.383C315.356 42.373 315.542 43.129 315.914 43.651C316.292 44.167 316.871 44.425 317.651 44.425ZM325.98 37.9C326.166 37.714 326.361 37.543 326.565 37.387C326.775 37.225 326.994 37.09 327.222 36.982C327.456 36.868 327.705 36.781 327.969 36.721C328.233 36.655 328.521 36.622 328.833 36.622C329.337 36.622 329.784 36.709 330.174 36.883C330.564 37.051 330.888 37.291 331.146 37.603C331.41 37.909 331.608 38.278 331.74 38.71C331.878 39.136 331.947 39.607 331.947 40.123V46H329.724V40.123C329.724 39.559 329.595 39.124 329.337 38.818C329.079 38.506 328.686 38.35 328.158 38.35C327.774 38.35 327.414 38.437 327.078 38.611C326.742 38.785 326.424 39.022 326.124 39.322V46H323.901V36.766H325.26C325.548 36.766 325.737 36.901 325.827 37.171L325.98 37.9ZM340.01 40.321C340.01 40.033 339.968 39.763 339.884 39.511C339.806 39.253 339.686 39.028 339.524 38.836C339.362 38.644 339.155 38.494 338.903 38.386C338.657 38.272 338.369 38.215 338.039 38.215C337.397 38.215 336.89 38.398 336.518 38.764C336.152 39.13 335.918 39.649 335.816 40.321H340.01ZM335.771 41.662C335.807 42.136 335.891 42.547 336.023 42.895C336.155 43.237 336.329 43.522 336.545 43.75C336.761 43.972 337.016 44.14 337.31 44.254C337.61 44.362 337.94 44.416 338.3 44.416C338.66 44.416 338.969 44.374 339.227 44.29C339.491 44.206 339.719 44.113 339.911 44.011C340.109 43.909 340.28 43.816 340.424 43.732C340.574 43.648 340.718 43.606 340.856 43.606C341.042 43.606 341.18 43.675 341.27 43.813L341.909 44.623C341.663 44.911 341.387 45.154 341.081 45.352C340.775 45.544 340.454 45.7 340.118 45.82C339.788 45.934 339.449 46.015 339.101 46.063C338.759 46.111 338.426 46.135 338.102 46.135C337.46 46.135 336.863 46.03 336.311 45.82C335.759 45.604 335.279 45.289 334.871 44.875C334.463 44.455 334.142 43.939 333.908 43.327C333.674 42.709 333.557 41.995 333.557 41.185C333.557 40.555 333.659 39.964 333.863 39.412C334.067 38.854 334.358 38.371 334.736 37.963C335.12 37.549 335.585 37.222 336.131 36.982C336.683 36.742 337.304 36.622 337.994 36.622C338.576 36.622 339.113 36.715 339.605 36.901C340.097 37.087 340.52 37.36 340.874 37.72C341.228 38.074 341.504 38.512 341.702 39.034C341.906 39.55 342.008 40.141 342.008 40.807C342.008 41.143 341.972 41.371 341.9 41.491C341.828 41.605 341.69 41.662 341.486 41.662H335.771ZM345.755 37.9C345.941 37.714 346.136 37.543 346.34 37.387C346.55 37.225 346.769 37.09 346.997 36.982C347.231 36.868 347.48 36.781 347.744 36.721C348.008 36.655 348.296 36.622 348.608 36.622C349.112 36.622 349.559 36.709 349.949 36.883C350.339 37.051 350.663 37.291 350.921 37.603C351.185 37.909 351.383 38.278 351.515 38.71C351.653 39.136 351.722 39.607 351.722 40.123V46H349.499V40.123C349.499 39.559 349.37 39.124 349.112 38.818C348.854 38.506 348.461 38.35 347.933 38.35C347.549 38.35 347.189 38.437 346.853 38.611C346.517 38.785 346.199 39.022 345.899 39.322V46H343.676V36.766H345.035C345.323 36.766 345.512 36.901 345.602 37.171L345.755 37.9ZM356.791 46.144C355.987 46.144 355.369 45.919 354.937 45.469C354.511 45.013 354.298 44.386 354.298 43.588V38.431H353.353C353.233 38.431 353.131 38.392 353.047 38.314C352.963 38.236 352.921 38.119 352.921 37.963V37.081L354.406 36.838L354.874 34.318C354.904 34.198 354.961 34.105 355.045 34.039C355.129 33.973 355.237 33.94 355.369 33.94H356.521V36.847H358.987V38.431H356.521V43.435C356.521 43.723 356.59 43.948 356.728 44.11C356.872 44.272 357.067 44.353 357.313 44.353C357.451 44.353 357.565 44.338 357.655 44.308C357.751 44.272 357.832 44.236 357.898 44.2C357.97 44.164 358.033 44.131 358.087 44.101C358.141 44.065 358.195 44.047 358.249 44.047C358.315 44.047 358.369 44.065 358.411 44.101C358.453 44.131 358.498 44.179 358.546 44.245L359.212 45.325C358.888 45.595 358.516 45.799 358.096 45.937C357.676 46.075 357.241 46.144 356.791 46.144ZM366.045 38.566C365.985 38.662 365.922 38.731 365.856 38.773C365.79 38.809 365.706 38.827 365.604 38.827C365.496 38.827 365.379 38.797 365.253 38.737C365.133 38.677 364.992 38.611 364.83 38.539C364.668 38.461 364.482 38.392 364.271 38.332C364.068 38.272 363.825 38.242 363.543 38.242C363.105 38.242 362.76 38.335 362.508 38.521C362.262 38.707 362.139 38.95 362.139 39.25C362.139 39.448 362.202 39.616 362.328 39.754C362.46 39.886 362.631 40.003 362.841 40.105C363.057 40.207 363.3 40.3 363.57 40.384C363.84 40.462 364.113 40.549 364.389 40.645C364.671 40.741 364.947 40.852 365.217 40.978C365.487 41.098 365.727 41.254 365.937 41.446C366.153 41.632 366.324 41.857 366.45 42.121C366.582 42.385 366.648 42.703 366.648 43.075C366.648 43.519 366.567 43.93 366.405 44.308C366.249 44.68 366.015 45.004 365.703 45.28C365.391 45.55 365.004 45.763 364.542 45.919C364.086 46.069 363.558 46.144 362.958 46.144C362.64 46.144 362.328 46.114 362.022 46.054C361.722 46 361.431 45.922 361.149 45.82C360.873 45.718 360.615 45.598 360.375 45.46C360.141 45.322 359.934 45.172 359.754 45.01L360.267 44.164C360.333 44.062 360.411 43.984 360.5 43.93C360.59 43.876 360.705 43.849 360.843 43.849C360.981 43.849 361.11 43.888 361.23 43.966C361.356 44.044 361.5 44.128 361.662 44.218C361.824 44.308 362.013 44.392 362.229 44.47C362.451 44.548 362.73 44.587 363.066 44.587C363.33 44.587 363.555 44.557 363.741 44.497C363.933 44.431 364.089 44.347 364.209 44.245C364.335 44.143 364.424 44.026 364.479 43.894C364.539 43.756 364.569 43.615 364.569 43.471C364.569 43.255 364.503 43.078 364.371 42.94C364.245 42.802 364.074 42.682 363.857 42.58C363.648 42.478 363.405 42.388 363.129 42.31C362.859 42.226 362.58 42.136 362.292 42.04C362.01 41.944 361.731 41.833 361.455 41.707C361.185 41.575 360.942 41.41 360.726 41.212C360.516 41.014 360.345 40.771 360.213 40.483C360.087 40.195 360.024 39.847 360.024 39.439C360.024 39.061 360.099 38.701 360.249 38.359C360.399 38.017 360.618 37.72 360.906 37.468C361.2 37.21 361.563 37.006 361.995 36.856C362.433 36.7 362.937 36.622 363.507 36.622C364.143 36.622 364.722 36.727 365.244 36.937C365.766 37.147 366.201 37.423 366.549 37.765L366.045 38.566ZM31.402 58.766V68H29.17V58.766H31.402ZM31.708 56.075C31.708 56.267 31.669 56.447 31.591 56.615C31.513 56.783 31.408 56.93 31.276 57.056C31.15 57.182 31 57.284 30.826 57.362C30.652 57.434 30.466 57.47 30.268 57.47C30.076 57.47 29.893 57.434 29.719 57.362C29.551 57.284 29.404 57.182 29.278 57.056C29.152 56.93 29.05 56.783 28.972 56.615C28.9 56.447 28.864 56.267 28.864 56.075C28.864 55.877 28.9 55.691 28.972 55.517C29.05 55.343 29.152 55.193 29.278 55.067C29.404 54.941 29.551 54.842 29.719 54.77C29.893 54.692 30.076 54.653 30.268 54.653C30.466 54.653 30.652 54.692 30.826 54.77C31 54.842 31.15 54.941 31.276 55.067C31.408 55.193 31.513 55.343 31.591 55.517C31.669 55.691 31.708 55.877 31.708 56.075ZM35.7473 59.9C35.9333 59.714 36.1283 59.543 36.3323 59.387C36.5423 59.225 36.7613 59.09 36.9893 58.982C37.2233 58.868 37.4723 58.781 37.7363 58.721C38.0003 58.655 38.2883 58.622 38.6003 58.622C39.1043 58.622 39.5513 58.709 39.9413 58.883C40.3313 59.051 40.6553 59.291 40.9133 59.603C41.1773 59.909 41.3753 60.278 41.5073 60.71C41.6453 61.136 41.7143 61.607 41.7143 62.123V68H39.4913V62.123C39.4913 61.559 39.3623 61.124 39.1043 60.818C38.8463 60.506 38.4533 60.35 37.9253 60.35C37.5413 60.35 37.1813 60.437 36.8453 60.611C36.5093 60.785 36.1913 61.022 35.8913 61.322V68H33.6683V58.766H35.0273C35.3153 58.766 35.5043 58.901 35.5943 59.171L35.7473 59.9ZM46.7834 68.144C45.9794 68.144 45.3614 67.919 44.9294 67.469C44.5034 67.013 44.2904 66.386 44.2904 65.588V60.431H43.3454C43.2254 60.431 43.1234 60.392 43.0394 60.314C42.9554 60.236 42.9134 60.119 42.9134 59.963V59.081L44.3984 58.838L44.8664 56.318C44.8964 56.198 44.9534 56.105 45.0374 56.039C45.1214 55.973 45.2294 55.94 45.3614 55.94H46.5134V58.847H48.9794V60.431H46.5134V65.435C46.5134 65.723 46.5824 65.948 46.7204 66.11C46.8644 66.272 47.0594 66.353 47.3054 66.353C47.4434 66.353 47.5574 66.338 47.6474 66.308C47.7434 66.272 47.8244 66.236 47.8904 66.2C47.9624 66.164 48.0254 66.131 48.0794 66.101C48.1334 66.065 48.1874 66.047 48.2414 66.047C48.3074 66.047 48.3614 66.065 48.4034 66.101C48.4454 66.131 48.4904 66.179 48.5384 66.245L49.2044 67.325C48.8804 67.595 48.5084 67.799 48.0884 67.937C47.6684 68.075 47.2334 68.144 46.7834 68.144ZM54.4184 58.622C55.1024 58.622 55.7234 58.733 56.2814 58.955C56.8454 59.177 57.3254 59.492 57.7214 59.9C58.1234 60.308 58.4324 60.806 58.6484 61.394C58.8644 61.982 58.9724 62.639 58.9724 63.365C58.9724 64.097 58.8644 64.757 58.6484 65.345C58.4324 65.933 58.1234 66.434 57.7214 66.848C57.3254 67.262 56.8454 67.58 56.2814 67.802C55.7234 68.024 55.1024 68.135 54.4184 68.135C53.7284 68.135 53.1014 68.024 52.5374 67.802C51.9734 67.58 51.4904 67.262 51.0884 66.848C50.6924 66.434 50.3834 65.933 50.1614 65.345C49.9454 64.757 49.8374 64.097 49.8374 63.365C49.8374 62.639 49.9454 61.982 50.1614 61.394C50.3834 60.806 50.6924 60.308 51.0884 59.9C51.4904 59.492 51.9734 59.177 52.5374 58.955C53.1014 58.733 53.7284 58.622 54.4184 58.622ZM54.4184 66.425C55.1864 66.425 55.7534 66.167 56.1194 65.651C56.4914 65.135 56.6774 64.379 56.6774 63.383C56.6774 62.387 56.4914 61.628 56.1194 61.106C55.7534 60.584 55.1864 60.323 54.4184 60.323C53.6384 60.323 53.0594 60.587 52.6814 61.115C52.3094 61.637 52.1234 62.393 52.1234 63.383C52.1234 64.373 52.3094 65.129 52.6814 65.651C53.0594 66.167 53.6384 66.425 54.4184 66.425ZM72.9762 58.766L67.9452 70.538C67.8792 70.694 67.7922 70.811 67.6842 70.889C67.5822 70.973 67.4232 71.015 67.2072 71.015H65.5512L67.2792 67.307L63.5442 58.766H65.4972C65.6712 58.766 65.8062 58.808 65.9022 58.892C66.0042 58.976 66.0792 59.072 66.1272 59.18L68.0892 63.968C68.1552 64.13 68.2092 64.292 68.2512 64.454C68.2992 64.616 68.3442 64.781 68.3862 64.949C68.4402 64.781 68.4942 64.616 68.5482 64.454C68.6022 64.286 68.6622 64.121 68.7282 63.959L70.5822 59.18C70.6302 59.06 70.7082 58.961 70.8162 58.883C70.9302 58.805 71.0562 58.766 71.1942 58.766H72.9762ZM77.8852 58.622C78.5692 58.622 79.1902 58.733 79.7482 58.955C80.3122 59.177 80.7922 59.492 81.1882 59.9C81.5902 60.308 81.8992 60.806 82.1152 61.394C82.3312 61.982 82.4392 62.639 82.4392 63.365C82.4392 64.097 82.3312 64.757 82.1152 65.345C81.8992 65.933 81.5902 66.434 81.1882 66.848C80.7922 67.262 80.3122 67.58 79.7482 67.802C79.1902 68.024 78.5692 68.135 77.8852 68.135C77.1952 68.135 76.5682 68.024 76.0042 67.802C75.4402 67.58 74.9572 67.262 74.5552 66.848C74.1592 66.434 73.8502 65.933 73.6282 65.345C73.4122 64.757 73.3042 64.097 73.3042 63.365C73.3042 62.639 73.4122 61.982 73.6282 61.394C73.8502 60.806 74.1592 60.308 74.5552 59.9C74.9572 59.492 75.4402 59.177 76.0042 58.955C76.5682 58.733 77.1952 58.622 77.8852 58.622ZM77.8852 66.425C78.6532 66.425 79.2202 66.167 79.5862 65.651C79.9582 65.135 80.1442 64.379 80.1442 63.383C80.1442 62.387 79.9582 61.628 79.5862 61.106C79.2202 60.584 78.6532 60.323 77.8852 60.323C77.1052 60.323 76.5262 60.587 76.1482 61.115C75.7762 61.637 75.5902 62.393 75.5902 63.383C75.5902 64.373 75.7762 65.129 76.1482 65.651C76.5262 66.167 77.1052 66.425 77.8852 66.425ZM92.0911 58.766V68H90.7321C90.4381 68 90.2521 67.865 90.1741 67.595L90.0211 66.857C89.6431 67.241 89.2261 67.553 88.7701 67.793C88.3141 68.027 87.7771 68.144 87.1591 68.144C86.6551 68.144 86.2081 68.06 85.8181 67.892C85.4341 67.718 85.1101 67.475 84.8461 67.163C84.5821 66.851 84.3811 66.482 84.2431 66.056C84.1111 65.624 84.0451 65.15 84.0451 64.634V58.766H86.2681V64.634C86.2681 65.198 86.3971 65.636 86.6551 65.948C86.9191 66.254 87.3121 66.407 87.8341 66.407C88.2181 66.407 88.5781 66.323 88.9141 66.155C89.2501 65.981 89.5681 65.744 89.8681 65.444V58.766H92.0911ZM96.3923 60.368C96.6803 59.816 97.0223 59.384 97.4183 59.072C97.8143 58.754 98.2823 58.595 98.8223 58.595C99.2483 58.595 99.5903 58.688 99.8483 58.874L99.7043 60.539C99.6743 60.647 99.6293 60.725 99.5693 60.773C99.5153 60.815 99.4403 60.836 99.3443 60.836C99.2543 60.836 99.1193 60.821 98.9393 60.791C98.7653 60.761 98.5943 60.746 98.4263 60.746C98.1803 60.746 97.9613 60.782 97.7693 60.854C97.5773 60.926 97.4033 61.031 97.2473 61.169C97.0973 61.301 96.9623 61.463 96.8423 61.655C96.7283 61.847 96.6203 62.066 96.5183 62.312V68H94.2953V58.766H95.6003C95.8283 58.766 95.9873 58.808 96.0773 58.892C96.1673 58.97 96.2273 59.114 96.2573 59.324L96.3923 60.368ZM117.816 58.766L114.882 68H113.1C112.896 68 112.755 67.868 112.677 67.604L111.021 62.267C110.967 62.087 110.916 61.91 110.868 61.736C110.826 61.556 110.79 61.376 110.76 61.196C110.724 61.376 110.682 61.559 110.634 61.745C110.592 61.925 110.544 62.105 110.49 62.285L108.807 67.604C108.735 67.868 108.576 68 108.33 68H106.62L103.695 58.766H105.468C105.63 58.766 105.768 58.805 105.882 58.883C105.996 58.961 106.071 59.06 106.107 59.18L107.43 64.112C107.496 64.382 107.553 64.646 107.601 64.904C107.655 65.162 107.7 65.42 107.736 65.678C107.802 65.42 107.871 65.162 107.943 64.904C108.021 64.646 108.102 64.382 108.186 64.112L109.716 59.162C109.752 59.042 109.821 58.943 109.923 58.865C110.031 58.787 110.16 58.748 110.31 58.748H111.291C111.447 58.748 111.579 58.787 111.687 58.865C111.801 58.943 111.876 59.042 111.912 59.162L113.397 64.112C113.475 64.382 113.547 64.649 113.613 64.913C113.685 65.171 113.754 65.429 113.82 65.687C113.898 65.177 114.009 64.652 114.153 64.112L115.512 59.18C115.554 59.06 115.629 58.961 115.737 58.883C115.845 58.805 115.974 58.766 116.124 58.766H117.816ZM123.008 58.622C123.692 58.622 124.313 58.733 124.871 58.955C125.435 59.177 125.915 59.492 126.311 59.9C126.713 60.308 127.022 60.806 127.238 61.394C127.454 61.982 127.562 62.639 127.562 63.365C127.562 64.097 127.454 64.757 127.238 65.345C127.022 65.933 126.713 66.434 126.311 66.848C125.915 67.262 125.435 67.58 124.871 67.802C124.313 68.024 123.692 68.135 123.008 68.135C122.318 68.135 121.691 68.024 121.127 67.802C120.563 67.58 120.08 67.262 119.678 66.848C119.282 66.434 118.973 65.933 118.751 65.345C118.535 64.757 118.427 64.097 118.427 63.365C118.427 62.639 118.535 61.982 118.751 61.394C118.973 60.806 119.282 60.308 119.678 59.9C120.08 59.492 120.563 59.177 121.127 58.955C121.691 58.733 122.318 58.622 123.008 58.622ZM123.008 66.425C123.776 66.425 124.343 66.167 124.709 65.651C125.081 65.135 125.267 64.379 125.267 63.383C125.267 62.387 125.081 61.628 124.709 61.106C124.343 60.584 123.776 60.323 123.008 60.323C122.228 60.323 121.649 60.587 121.271 61.115C120.899 61.637 120.713 62.393 120.713 63.383C120.713 64.373 120.899 65.129 121.271 65.651C121.649 66.167 122.228 66.425 123.008 66.425ZM131.355 60.368C131.643 59.816 131.985 59.384 132.381 59.072C132.777 58.754 133.245 58.595 133.785 58.595C134.211 58.595 134.553 58.688 134.811 58.874L134.667 60.539C134.637 60.647 134.592 60.725 134.532 60.773C134.478 60.815 134.403 60.836 134.307 60.836C134.217 60.836 134.082 60.821 133.902 60.791C133.728 60.761 133.557 60.746 133.389 60.746C133.143 60.746 132.924 60.782 132.732 60.854C132.54 60.926 132.366 61.031 132.21 61.169C132.06 61.301 131.925 61.463 131.805 61.655C131.691 61.847 131.583 62.066 131.481 62.312V68H129.258V58.766H130.563C130.791 58.766 130.95 58.808 131.04 58.892C131.13 58.97 131.19 59.114 131.22 59.324L131.355 60.368ZM138.196 54.626V62.285H138.61C138.76 62.285 138.877 62.267 138.961 62.231C139.051 62.189 139.141 62.108 139.231 61.988L141.526 59.153C141.622 59.027 141.727 58.931 141.841 58.865C141.961 58.799 142.114 58.766 142.3 58.766H144.334L141.463 62.195C141.259 62.465 141.037 62.672 140.797 62.816C140.923 62.906 141.034 63.011 141.13 63.131C141.232 63.251 141.328 63.38 141.418 63.518L144.496 68H142.489C142.315 68 142.165 67.973 142.039 67.919C141.913 67.859 141.808 67.754 141.724 67.604L139.366 64.103C139.282 63.965 139.195 63.875 139.105 63.833C139.015 63.791 138.88 63.77 138.7 63.77H138.196V68H135.973V54.626H138.196ZM151.222 60.566C151.162 60.662 151.099 60.731 151.033 60.773C150.967 60.809 150.883 60.827 150.781 60.827C150.673 60.827 150.556 60.797 150.43 60.737C150.31 60.677 150.169 60.611 150.007 60.539C149.845 60.461 149.659 60.392 149.449 60.332C149.245 60.272 149.002 60.242 148.72 60.242C148.282 60.242 147.937 60.335 147.685 60.521C147.439 60.707 147.316 60.95 147.316 61.25C147.316 61.448 147.379 61.616 147.505 61.754C147.637 61.886 147.808 62.003 148.018 62.105C148.234 62.207 148.477 62.3 148.747 62.384C149.017 62.462 149.29 62.549 149.566 62.645C149.848 62.741 150.124 62.852 150.394 62.978C150.664 63.098 150.904 63.254 151.114 63.446C151.33 63.632 151.501 63.857 151.627 64.121C151.759 64.385 151.825 64.703 151.825 65.075C151.825 65.519 151.744 65.93 151.582 66.308C151.426 66.68 151.192 67.004 150.88 67.28C150.568 67.55 150.181 67.763 149.719 67.919C149.263 68.069 148.735 68.144 148.135 68.144C147.817 68.144 147.505 68.114 147.199 68.054C146.899 68 146.608 67.922 146.326 67.82C146.05 67.718 145.792 67.598 145.552 67.46C145.318 67.322 145.111 67.172 144.931 67.01L145.444 66.164C145.51 66.062 145.588 65.984 145.678 65.93C145.768 65.876 145.882 65.849 146.02 65.849C146.158 65.849 146.287 65.888 146.407 65.966C146.533 66.044 146.677 66.128 146.839 66.218C147.001 66.308 147.19 66.392 147.406 66.47C147.628 66.548 147.907 66.587 148.243 66.587C148.507 66.587 148.732 66.557 148.918 66.497C149.11 66.431 149.266 66.347 149.386 66.245C149.512 66.143 149.602 66.026 149.656 65.894C149.716 65.756 149.746 65.615 149.746 65.471C149.746 65.255 149.68 65.078 149.548 64.94C149.422 64.802 149.251 64.682 149.035 64.58C148.825 64.478 148.582 64.388 148.306 64.31C148.036 64.226 147.757 64.136 147.469 64.04C147.187 63.944 146.908 63.833 146.632 63.707C146.362 63.575 146.119 63.41 145.903 63.212C145.693 63.014 145.522 62.771 145.39 62.483C145.264 62.195 145.201 61.847 145.201 61.439C145.201 61.061 145.276 60.701 145.426 60.359C145.576 60.017 145.795 59.72 146.083 59.468C146.377 59.21 146.74 59.006 147.172 58.856C147.61 58.7 148.114 58.622 148.684 58.622C149.32 58.622 149.899 58.727 150.421 58.937C150.943 59.147 151.378 59.423 151.726 59.765L151.222 60.566ZM155.721 65.606C155.973 65.912 156.246 66.128 156.54 66.254C156.84 66.38 157.164 66.443 157.512 66.443C157.848 66.443 158.151 66.38 158.421 66.254C158.691 66.128 158.919 65.936 159.105 65.678C159.297 65.42 159.444 65.096 159.546 64.706C159.648 64.31 159.699 63.845 159.699 63.311C159.699 62.771 159.654 62.315 159.564 61.943C159.48 61.565 159.357 61.259 159.195 61.025C159.033 60.791 158.835 60.62 158.601 60.512C158.373 60.404 158.112 60.35 157.818 60.35C157.356 60.35 156.963 60.449 156.639 60.647C156.315 60.839 156.009 61.112 155.721 61.466V65.606ZM155.604 60.026C155.982 59.6 156.411 59.255 156.891 58.991C157.371 58.727 157.935 58.595 158.583 58.595C159.087 58.595 159.546 58.7 159.96 58.91C160.38 59.12 160.74 59.426 161.04 59.828C161.346 60.224 161.58 60.716 161.742 61.304C161.91 61.886 161.994 62.555 161.994 63.311C161.994 64.001 161.901 64.64 161.715 65.228C161.529 65.816 161.262 66.326 160.914 66.758C160.572 67.19 160.155 67.529 159.663 67.775C159.177 68.015 158.631 68.135 158.025 68.135C157.509 68.135 157.068 68.057 156.702 67.901C156.336 67.739 156.009 67.517 155.721 67.235V71.015H153.498V58.766H154.857C155.145 58.766 155.334 58.901 155.424 59.171L155.604 60.026ZM168.607 64.058C167.965 64.088 167.425 64.145 166.987 64.229C166.549 64.307 166.198 64.409 165.934 64.535C165.67 64.661 165.481 64.808 165.367 64.976C165.253 65.144 165.196 65.327 165.196 65.525C165.196 65.915 165.31 66.194 165.538 66.362C165.772 66.53 166.075 66.614 166.447 66.614C166.903 66.614 167.296 66.533 167.626 66.371C167.962 66.203 168.289 65.951 168.607 65.615V64.058ZM163.513 60.053C164.575 59.081 165.853 58.595 167.347 58.595C167.887 58.595 168.37 58.685 168.796 58.865C169.222 59.039 169.582 59.285 169.876 59.603C170.17 59.915 170.392 60.29 170.542 60.728C170.698 61.166 170.776 61.646 170.776 62.168V68H169.768C169.558 68 169.396 67.97 169.282 67.91C169.168 67.844 169.078 67.715 169.012 67.523L168.814 66.857C168.58 67.067 168.352 67.253 168.13 67.415C167.908 67.571 167.677 67.703 167.437 67.811C167.197 67.919 166.939 68 166.663 68.054C166.393 68.114 166.093 68.144 165.763 68.144C165.373 68.144 165.013 68.093 164.683 67.991C164.353 67.883 164.068 67.724 163.828 67.514C163.588 67.304 163.402 67.043 163.27 66.731C163.138 66.419 163.072 66.056 163.072 65.642C163.072 65.408 163.111 65.177 163.189 64.949C163.267 64.715 163.393 64.493 163.567 64.283C163.747 64.073 163.978 63.875 164.26 63.689C164.542 63.503 164.887 63.341 165.295 63.203C165.709 63.065 166.189 62.954 166.735 62.87C167.281 62.78 167.905 62.726 168.607 62.708V62.168C168.607 61.55 168.475 61.094 168.211 60.8C167.947 60.5 167.566 60.35 167.068 60.35C166.708 60.35 166.408 60.392 166.168 60.476C165.934 60.56 165.727 60.656 165.547 60.764C165.367 60.866 165.202 60.959 165.052 61.043C164.908 61.127 164.746 61.169 164.566 61.169C164.41 61.169 164.278 61.13 164.17 61.052C164.062 60.968 163.975 60.872 163.909 60.764L163.513 60.053ZM179.484 60.719C179.418 60.803 179.352 60.869 179.286 60.917C179.226 60.965 179.136 60.989 179.016 60.989C178.902 60.989 178.791 60.956 178.683 60.89C178.575 60.818 178.446 60.74 178.296 60.656C178.146 60.566 177.966 60.488 177.756 60.422C177.552 60.35 177.297 60.314 176.991 60.314C176.601 60.314 176.259 60.386 175.965 60.53C175.671 60.668 175.425 60.869 175.227 61.133C175.035 61.397 174.891 61.718 174.795 62.096C174.699 62.468 174.651 62.891 174.651 63.365C174.651 63.857 174.702 64.295 174.804 64.679C174.912 65.063 175.065 65.387 175.263 65.651C175.461 65.909 175.701 66.107 175.983 66.245C176.265 66.377 176.583 66.443 176.937 66.443C177.291 66.443 177.576 66.401 177.792 66.317C178.014 66.227 178.2 66.131 178.35 66.029C178.5 65.921 178.629 65.825 178.737 65.741C178.851 65.651 178.977 65.606 179.115 65.606C179.295 65.606 179.43 65.675 179.52 65.813L180.159 66.623C179.913 66.911 179.646 67.154 179.358 67.352C179.07 67.544 178.77 67.7 178.458 67.82C178.152 67.934 177.834 68.015 177.504 68.063C177.18 68.111 176.856 68.135 176.532 68.135C175.962 68.135 175.425 68.03 174.921 67.82C174.417 67.604 173.976 67.292 173.598 66.884C173.22 66.476 172.92 65.978 172.698 65.39C172.482 64.796 172.374 64.121 172.374 63.365C172.374 62.687 172.47 62.06 172.662 61.484C172.86 60.902 173.148 60.401 173.526 59.981C173.904 59.555 174.372 59.222 174.93 58.982C175.488 58.742 176.13 58.622 176.856 58.622C177.546 58.622 178.149 58.733 178.665 58.955C179.187 59.177 179.655 59.495 180.069 59.909L179.484 60.719ZM187.344 62.321C187.344 62.033 187.302 61.763 187.218 61.511C187.14 61.253 187.02 61.028 186.858 60.836C186.696 60.644 186.489 60.494 186.237 60.386C185.991 60.272 185.703 60.215 185.373 60.215C184.731 60.215 184.224 60.398 183.852 60.764C183.486 61.13 183.252 61.649 183.15 62.321H187.344ZM183.105 63.662C183.141 64.136 183.225 64.547 183.357 64.895C183.489 65.237 183.663 65.522 183.879 65.75C184.095 65.972 184.35 66.14 184.644 66.254C184.944 66.362 185.274 66.416 185.634 66.416C185.994 66.416 186.303 66.374 186.561 66.29C186.825 66.206 187.053 66.113 187.245 66.011C187.443 65.909 187.614 65.816 187.758 65.732C187.908 65.648 188.052 65.606 188.19 65.606C188.376 65.606 188.514 65.675 188.604 65.813L189.243 66.623C188.997 66.911 188.721 67.154 188.415 67.352C188.109 67.544 187.788 67.7 187.452 67.82C187.122 67.934 186.783 68.015 186.435 68.063C186.093 68.111 185.76 68.135 185.436 68.135C184.794 68.135 184.197 68.03 183.645 67.82C183.093 67.604 182.613 67.289 182.205 66.875C181.797 66.455 181.476 65.939 181.242 65.327C181.008 64.709 180.891 63.995 180.891 63.185C180.891 62.555 180.993 61.964 181.197 61.412C181.401 60.854 181.692 60.371 182.07 59.963C182.454 59.549 182.919 59.222 183.465 58.982C184.017 58.742 184.638 58.622 185.328 58.622C185.91 58.622 186.447 58.715 186.939 58.901C187.431 59.087 187.854 59.36 188.208 59.72C188.562 60.074 188.838 60.512 189.036 61.034C189.24 61.55 189.342 62.141 189.342 62.807C189.342 63.143 189.306 63.371 189.234 63.491C189.162 63.605 189.024 63.662 188.82 63.662H183.105ZM190.686 66.776C190.686 66.59 190.719 66.413 190.785 66.245C190.857 66.077 190.953 65.933 191.073 65.813C191.193 65.693 191.337 65.597 191.505 65.525C191.673 65.453 191.853 65.417 192.045 65.417C192.237 65.417 192.414 65.453 192.576 65.525C192.744 65.597 192.888 65.693 193.008 65.813C193.134 65.933 193.233 66.077 193.305 66.245C193.377 66.413 193.413 66.59 193.413 66.776C193.413 66.968 193.377 67.148 193.305 67.316C193.233 67.478 193.134 67.619 193.008 67.739C192.888 67.859 192.744 67.952 192.576 68.018C192.414 68.09 192.237 68.126 192.045 68.126C191.853 68.126 191.673 68.09 191.505 68.018C191.337 67.952 191.193 67.859 191.073 67.739C190.953 67.619 190.857 67.478 190.785 67.316C190.719 67.148 190.686 66.968 190.686 66.776Z" fill="#1A2BC3"/>
<path d="M28.958 103.689C28.958 103.074 29.1748 102.55 29.6084 102.116C30.0479 101.683 30.5723 101.466 31.1816 101.466C31.7969 101.466 32.3213 101.683 32.7549 102.116C33.1943 102.55 33.4141 103.074 33.4141 103.689C33.4141 104.305 33.1943 104.832 32.7549 105.271C32.3213 105.705 31.7969 105.922 31.1816 105.922C30.5723 105.922 30.0479 105.705 29.6084 105.271C29.1748 104.832 28.958 104.305 28.958 103.689ZM38.292 110L43.2402 97.1152H45.0771L50.3506 110H48.4082L46.9053 106.098H41.5176L40.1025 110H38.292ZM42.0098 104.709H46.3779L45.0332 101.141C44.623 100.057 44.3184 99.166 44.1191 98.4688C43.9551 99.2949 43.7236 100.115 43.4248 100.93L42.0098 104.709ZM51.4932 110V100.666H52.917V102.081C53.2803 101.419 53.6143 100.982 53.9189 100.771C54.2295 100.561 54.5693 100.455 54.9385 100.455C55.4717 100.455 56.0137 100.625 56.5645 100.965L56.0195 102.433C55.6328 102.204 55.2461 102.09 54.8594 102.09C54.5137 102.09 54.2031 102.195 53.9277 102.406C53.6523 102.611 53.4561 102.898 53.3389 103.268C53.1631 103.83 53.0752 104.445 53.0752 105.113V110H51.4932ZM63.5605 110V108.822C62.9688 109.748 62.0986 110.211 60.9502 110.211C60.2061 110.211 59.5205 110.006 58.8936 109.596C58.2725 109.186 57.7891 108.614 57.4434 107.882C57.1035 107.144 56.9336 106.297 56.9336 105.342C56.9336 104.41 57.0889 103.566 57.3994 102.811C57.71 102.049 58.1758 101.466 58.7969 101.062C59.418 100.657 60.1123 100.455 60.8799 100.455C61.4424 100.455 61.9434 100.575 62.3828 100.815C62.8223 101.05 63.1797 101.357 63.4551 101.738V97.1152H65.0283V110H63.5605ZM58.5596 105.342C58.5596 106.537 58.8115 107.431 59.3154 108.022C59.8193 108.614 60.4141 108.91 61.0996 108.91C61.791 108.91 62.377 108.629 62.8574 108.066C63.3438 107.498 63.5869 106.634 63.5869 105.474C63.5869 104.196 63.3408 103.259 62.8486 102.661C62.3564 102.063 61.75 101.765 61.0293 101.765C60.3262 101.765 59.7373 102.052 59.2627 102.626C58.7939 103.2 58.5596 104.105 58.5596 105.342ZM73.6416 110V108.629C72.915 109.684 71.9277 110.211 70.6797 110.211C70.1289 110.211 69.6133 110.105 69.1328 109.895C68.6582 109.684 68.3037 109.42 68.0693 109.104C67.8408 108.781 67.6797 108.389 67.5859 107.926C67.5215 107.615 67.4893 107.123 67.4893 106.449V100.666H69.0713V105.843C69.0713 106.669 69.1035 107.226 69.168 107.513C69.2676 107.929 69.4785 108.257 69.8008 108.497C70.123 108.731 70.5215 108.849 70.9961 108.849C71.4707 108.849 71.916 108.729 72.332 108.488C72.748 108.242 73.041 107.911 73.2109 107.495C73.3867 107.073 73.4746 106.464 73.4746 105.667V100.666H75.0566V110H73.6416ZM77.5527 98.9346V97.1152H79.1348V98.9346H77.5527ZM77.5527 110V100.666H79.1348V110H77.5527ZM81.5518 110V100.666H82.9756V101.993C83.6611 100.968 84.6514 100.455 85.9463 100.455C86.5088 100.455 87.0244 100.558 87.4932 100.763C87.9678 100.962 88.3223 101.226 88.5566 101.554C88.791 101.882 88.9551 102.271 89.0488 102.723C89.1074 103.016 89.1367 103.528 89.1367 104.261V110H87.5547V104.322C87.5547 103.678 87.4932 103.197 87.3701 102.881C87.2471 102.559 87.0273 102.304 86.7109 102.116C86.4004 101.923 86.0342 101.826 85.6123 101.826C84.9385 101.826 84.3555 102.04 83.8633 102.468C83.377 102.896 83.1338 103.707 83.1338 104.902V110H81.5518ZM90.9824 105.333C90.9824 103.604 91.4629 102.324 92.4238 101.492C93.2266 100.801 94.2051 100.455 95.3594 100.455C96.6426 100.455 97.6914 100.877 98.5059 101.721C99.3203 102.559 99.7275 103.719 99.7275 105.201C99.7275 106.402 99.5459 107.349 99.1826 108.04C98.8252 108.726 98.3008 109.259 97.6094 109.64C96.9238 110.021 96.1738 110.211 95.3594 110.211C94.0527 110.211 92.9951 109.792 92.1865 108.954C91.3838 108.116 90.9824 106.909 90.9824 105.333ZM92.6084 105.333C92.6084 106.528 92.8691 107.425 93.3906 108.022C93.9121 108.614 94.5684 108.91 95.3594 108.91C96.1445 108.91 96.7979 108.611 97.3193 108.014C97.8408 107.416 98.1016 106.505 98.1016 105.28C98.1016 104.126 97.8379 103.253 97.3105 102.661C96.7891 102.063 96.1387 101.765 95.3594 101.765C94.5684 101.765 93.9121 102.061 93.3906 102.652C92.8691 103.244 92.6084 104.138 92.6084 105.333ZM115.258 97.1152H116.963V104.56C116.963 105.854 116.816 106.883 116.523 107.645C116.23 108.406 115.7 109.027 114.933 109.508C114.171 109.982 113.169 110.22 111.927 110.22C110.72 110.22 109.732 110.012 108.965 109.596C108.197 109.18 107.649 108.579 107.321 107.794C106.993 107.003 106.829 105.925 106.829 104.56V97.1152H108.534V104.551C108.534 105.67 108.637 106.496 108.842 107.029C109.053 107.557 109.41 107.964 109.914 108.251C110.424 108.538 111.045 108.682 111.777 108.682C113.031 108.682 113.925 108.397 114.458 107.829C114.991 107.261 115.258 106.168 115.258 104.551V97.1152ZM119.608 110V100.666H121.032V101.993C121.718 100.968 122.708 100.455 124.003 100.455C124.565 100.455 125.081 100.558 125.55 100.763C126.024 100.962 126.379 101.226 126.613 101.554C126.848 101.882 127.012 102.271 127.105 102.723C127.164 103.016 127.193 103.528 127.193 104.261V110H125.611V104.322C125.611 103.678 125.55 103.197 125.427 102.881C125.304 102.559 125.084 102.304 124.768 102.116C124.457 101.923 124.091 101.826 123.669 101.826C122.995 101.826 122.412 102.04 121.92 102.468C121.434 102.896 121.19 103.707 121.19 104.902V110H119.608ZM129.039 105.333C129.039 103.604 129.52 102.324 130.48 101.492C131.283 100.801 132.262 100.455 133.416 100.455C134.699 100.455 135.748 100.877 136.562 101.721C137.377 102.559 137.784 103.719 137.784 105.201C137.784 106.402 137.603 107.349 137.239 108.04C136.882 108.726 136.357 109.259 135.666 109.64C134.98 110.021 134.23 110.211 133.416 110.211C132.109 110.211 131.052 109.792 130.243 108.954C129.44 108.116 129.039 106.909 129.039 105.333ZM130.665 105.333C130.665 106.528 130.926 107.425 131.447 108.022C131.969 108.614 132.625 108.91 133.416 108.91C134.201 108.91 134.854 108.611 135.376 108.014C135.897 107.416 136.158 106.505 136.158 105.28C136.158 104.126 135.895 103.253 135.367 102.661C134.846 102.063 134.195 101.765 133.416 101.765C132.625 101.765 131.969 102.061 131.447 102.652C130.926 103.244 130.665 104.138 130.665 105.333ZM28.958 124.689C28.958 124.074 29.1748 123.55 29.6084 123.116C30.0479 122.683 30.5723 122.466 31.1816 122.466C31.7969 122.466 32.3213 122.683 32.7549 123.116C33.1943 123.55 33.4141 124.074 33.4141 124.689C33.4141 125.305 33.1943 125.832 32.7549 126.271C32.3213 126.705 31.7969 126.922 31.1816 126.922C30.5723 126.922 30.0479 126.705 29.6084 126.271C29.1748 125.832 28.958 125.305 28.958 124.689ZM40.6387 131V118.115H45.4727C46.457 118.115 47.2451 118.247 47.8369 118.511C48.4346 118.769 48.9004 119.17 49.2344 119.715C49.5742 120.254 49.7441 120.819 49.7441 121.411C49.7441 121.962 49.5947 122.48 49.2959 122.967C48.9971 123.453 48.5459 123.846 47.9424 124.145C48.7217 124.373 49.3193 124.763 49.7354 125.313C50.1572 125.864 50.3682 126.515 50.3682 127.265C50.3682 127.868 50.2393 128.431 49.9814 128.952C49.7295 129.468 49.416 129.866 49.041 130.147C48.666 130.429 48.1943 130.643 47.626 130.789C47.0635 130.93 46.3721 131 45.5518 131H40.6387ZM42.3438 123.529H45.1299C45.8857 123.529 46.4277 123.479 46.7559 123.38C47.1895 123.251 47.5146 123.037 47.7314 122.738C47.9541 122.439 48.0654 122.064 48.0654 121.613C48.0654 121.186 47.9629 120.811 47.7578 120.488C47.5527 120.16 47.2598 119.938 46.8789 119.82C46.498 119.697 45.8447 119.636 44.9189 119.636H42.3438V123.529ZM42.3438 129.479H45.5518C46.1025 129.479 46.4893 129.459 46.7119 129.418C47.1045 129.348 47.4326 129.23 47.6963 129.066C47.96 128.902 48.1768 128.665 48.3467 128.354C48.5166 128.038 48.6016 127.675 48.6016 127.265C48.6016 126.784 48.4785 126.368 48.2324 126.017C47.9863 125.659 47.6436 125.41 47.2041 125.27C46.7705 125.123 46.1436 125.05 45.3232 125.05H42.3438V129.479ZM52.4951 131V121.666H53.9189V123.081C54.2822 122.419 54.6162 121.982 54.9209 121.771C55.2314 121.561 55.5713 121.455 55.9404 121.455C56.4736 121.455 57.0156 121.625 57.5664 121.965L57.0215 123.433C56.6348 123.204 56.248 123.09 55.8613 123.09C55.5156 123.09 55.2051 123.195 54.9297 123.406C54.6543 123.611 54.458 123.898 54.3408 124.268C54.165 124.83 54.0771 125.445 54.0771 126.113V131H52.4951ZM64.8965 127.994L66.5312 128.196C66.2734 129.151 65.7959 129.893 65.0986 130.42C64.4014 130.947 63.5107 131.211 62.4268 131.211C61.0615 131.211 59.9775 130.792 59.1748 129.954C58.3779 129.11 57.9795 127.93 57.9795 126.412C57.9795 124.842 58.3838 123.623 59.1924 122.756C60.001 121.889 61.0498 121.455 62.3389 121.455C63.5869 121.455 64.6064 121.88 65.3975 122.729C66.1885 123.579 66.584 124.774 66.584 126.315C66.584 126.409 66.5811 126.55 66.5752 126.737H59.6143C59.6729 127.763 59.9629 128.548 60.4844 129.093C61.0059 129.638 61.6562 129.91 62.4355 129.91C63.0156 129.91 63.5107 129.758 63.9209 129.453C64.3311 129.148 64.6562 128.662 64.8965 127.994ZM59.7021 125.437H64.9141C64.8438 124.651 64.6445 124.062 64.3164 123.67C63.8125 123.061 63.1592 122.756 62.3564 122.756C61.6299 122.756 61.0176 122.999 60.5195 123.485C60.0273 123.972 59.7549 124.622 59.7021 125.437ZM74.6172 129.849C74.0312 130.347 73.4658 130.698 72.9209 130.903C72.3818 131.108 71.8018 131.211 71.1807 131.211C70.1553 131.211 69.3672 130.962 68.8164 130.464C68.2656 129.96 67.9902 129.318 67.9902 128.539C67.9902 128.082 68.0928 127.666 68.2979 127.291C68.5088 126.91 68.7812 126.605 69.1152 126.377C69.4551 126.148 69.8359 125.976 70.2578 125.858C70.5684 125.776 71.0371 125.697 71.6641 125.621C72.9414 125.469 73.8818 125.287 74.4854 125.076C74.4912 124.859 74.4941 124.722 74.4941 124.663C74.4941 124.019 74.3447 123.564 74.0459 123.301C73.6416 122.943 73.041 122.765 72.2441 122.765C71.5 122.765 70.9492 122.896 70.5918 123.16C70.2402 123.418 69.9795 123.878 69.8096 124.54L68.2627 124.329C68.4033 123.667 68.6348 123.134 68.957 122.729C69.2793 122.319 69.7451 122.006 70.3545 121.789C70.9639 121.566 71.6699 121.455 72.4727 121.455C73.2695 121.455 73.917 121.549 74.415 121.736C74.9131 121.924 75.2793 122.161 75.5137 122.448C75.748 122.729 75.9121 123.087 76.0059 123.521C76.0586 123.79 76.085 124.276 76.085 124.979V127.089C76.085 128.56 76.1172 129.491 76.1816 129.884C76.252 130.271 76.3867 130.643 76.5859 131H74.9336C74.7695 130.672 74.6641 130.288 74.6172 129.849ZM74.4854 126.315C73.9111 126.55 73.0498 126.749 71.9014 126.913C71.251 127.007 70.791 127.112 70.5215 127.229C70.252 127.347 70.0439 127.52 69.8975 127.748C69.751 127.971 69.6777 128.22 69.6777 128.495C69.6777 128.917 69.8359 129.269 70.1523 129.55C70.4746 129.831 70.9434 129.972 71.5586 129.972C72.168 129.972 72.71 129.84 73.1846 129.576C73.6592 129.307 74.0078 128.94 74.2305 128.478C74.4004 128.12 74.4854 127.593 74.4854 126.896V126.315ZM84.6016 131V129.822C84.0098 130.748 83.1396 131.211 81.9912 131.211C81.2471 131.211 80.5615 131.006 79.9346 130.596C79.3135 130.186 78.8301 129.614 78.4844 128.882C78.1445 128.144 77.9746 127.297 77.9746 126.342C77.9746 125.41 78.1299 124.566 78.4404 123.811C78.751 123.049 79.2168 122.466 79.8379 122.062C80.459 121.657 81.1533 121.455 81.9209 121.455C82.4834 121.455 82.9844 121.575 83.4238 121.815C83.8633 122.05 84.2207 122.357 84.4961 122.738V118.115H86.0693V131H84.6016ZM79.6006 126.342C79.6006 127.537 79.8525 128.431 80.3564 129.022C80.8604 129.614 81.4551 129.91 82.1406 129.91C82.832 129.91 83.418 129.629 83.8984 129.066C84.3848 128.498 84.6279 127.634 84.6279 126.474C84.6279 125.196 84.3818 124.259 83.8896 123.661C83.3975 123.063 82.791 122.765 82.0703 122.765C81.3672 122.765 80.7783 123.052 80.3037 123.626C79.835 124.2 79.6006 125.105 79.6006 126.342ZM90.0244 131H88.5566V118.115H90.1387V122.712C90.8066 121.874 91.6592 121.455 92.6963 121.455C93.2705 121.455 93.8125 121.572 94.3223 121.807C94.8379 122.035 95.2598 122.36 95.5879 122.782C95.9219 123.198 96.1826 123.702 96.3701 124.294C96.5576 124.886 96.6514 125.519 96.6514 126.192C96.6514 127.792 96.2559 129.028 95.4648 129.901C94.6738 130.774 93.7246 131.211 92.6172 131.211C91.5156 131.211 90.6514 130.751 90.0244 129.831V131ZM90.0068 126.263C90.0068 127.382 90.1592 128.19 90.4639 128.688C90.9619 129.503 91.6357 129.91 92.4854 129.91C93.1768 129.91 93.7744 129.611 94.2783 129.014C94.7822 128.41 95.0342 127.514 95.0342 126.324C95.0342 125.105 94.791 124.206 94.3047 123.626C93.8242 123.046 93.2412 122.756 92.5557 122.756C91.8643 122.756 91.2666 123.058 90.7627 123.661C90.2588 124.259 90.0068 125.126 90.0068 126.263ZM97.9961 126.333C97.9961 124.604 98.4766 123.324 99.4375 122.492C100.24 121.801 101.219 121.455 102.373 121.455C103.656 121.455 104.705 121.877 105.52 122.721C106.334 123.559 106.741 124.719 106.741 126.201C106.741 127.402 106.56 128.349 106.196 129.04C105.839 129.726 105.314 130.259 104.623 130.64C103.938 131.021 103.188 131.211 102.373 131.211C101.066 131.211 100.009 130.792 99.2002 129.954C98.3975 129.116 97.9961 127.909 97.9961 126.333ZM99.6221 126.333C99.6221 127.528 99.8828 128.425 100.404 129.022C100.926 129.614 101.582 129.91 102.373 129.91C103.158 129.91 103.812 129.611 104.333 129.014C104.854 128.416 105.115 127.505 105.115 126.28C105.115 125.126 104.852 124.253 104.324 123.661C103.803 123.063 103.152 122.765 102.373 122.765C101.582 122.765 100.926 123.061 100.404 123.652C99.8828 124.244 99.6221 125.138 99.6221 126.333ZM114.695 129.849C114.109 130.347 113.544 130.698 112.999 130.903C112.46 131.108 111.88 131.211 111.259 131.211C110.233 131.211 109.445 130.962 108.895 130.464C108.344 129.96 108.068 129.318 108.068 128.539C108.068 128.082 108.171 127.666 108.376 127.291C108.587 126.91 108.859 126.605 109.193 126.377C109.533 126.148 109.914 125.976 110.336 125.858C110.646 125.776 111.115 125.697 111.742 125.621C113.02 125.469 113.96 125.287 114.563 125.076C114.569 124.859 114.572 124.722 114.572 124.663C114.572 124.019 114.423 123.564 114.124 123.301C113.72 122.943 113.119 122.765 112.322 122.765C111.578 122.765 111.027 122.896 110.67 123.16C110.318 123.418 110.058 123.878 109.888 124.54L108.341 124.329C108.481 123.667 108.713 123.134 109.035 122.729C109.357 122.319 109.823 122.006 110.433 121.789C111.042 121.566 111.748 121.455 112.551 121.455C113.348 121.455 113.995 121.549 114.493 121.736C114.991 121.924 115.357 122.161 115.592 122.448C115.826 122.729 115.99 123.087 116.084 123.521C116.137 123.79 116.163 124.276 116.163 124.979V127.089C116.163 128.56 116.195 129.491 116.26 129.884C116.33 130.271 116.465 130.643 116.664 131H115.012C114.848 130.672 114.742 130.288 114.695 129.849ZM114.563 126.315C113.989 126.55 113.128 126.749 111.979 126.913C111.329 127.007 110.869 127.112 110.6 127.229C110.33 127.347 110.122 127.52 109.976 127.748C109.829 127.971 109.756 128.22 109.756 128.495C109.756 128.917 109.914 129.269 110.23 129.55C110.553 129.831 111.021 129.972 111.637 129.972C112.246 129.972 112.788 129.84 113.263 129.576C113.737 129.307 114.086 128.94 114.309 128.478C114.479 128.12 114.563 127.593 114.563 126.896V126.315ZM118.606 131V121.666H120.03V123.081C120.394 122.419 120.728 121.982 121.032 121.771C121.343 121.561 121.683 121.455 122.052 121.455C122.585 121.455 123.127 121.625 123.678 121.965L123.133 123.433C122.746 123.204 122.359 123.09 121.973 123.09C121.627 123.09 121.316 123.195 121.041 123.406C120.766 123.611 120.569 123.898 120.452 124.268C120.276 124.83 120.188 125.445 120.188 126.113V131H118.606ZM130.674 131V129.822C130.082 130.748 129.212 131.211 128.063 131.211C127.319 131.211 126.634 131.006 126.007 130.596C125.386 130.186 124.902 129.614 124.557 128.882C124.217 128.144 124.047 127.297 124.047 126.342C124.047 125.41 124.202 124.566 124.513 123.811C124.823 123.049 125.289 122.466 125.91 122.062C126.531 121.657 127.226 121.455 127.993 121.455C128.556 121.455 129.057 121.575 129.496 121.815C129.936 122.05 130.293 122.357 130.568 122.738V118.115H132.142V131H130.674ZM125.673 126.342C125.673 127.537 125.925 128.431 126.429 129.022C126.933 129.614 127.527 129.91 128.213 129.91C128.904 129.91 129.49 129.629 129.971 129.066C130.457 128.498 130.7 127.634 130.7 126.474C130.7 125.196 130.454 124.259 129.962 123.661C129.47 123.063 128.863 122.765 128.143 122.765C127.439 122.765 126.851 123.052 126.376 123.626C125.907 124.2 125.673 125.105 125.673 126.342ZM28.958 145.689C28.958 145.074 29.1748 144.55 29.6084 144.116C30.0479 143.683 30.5723 143.466 31.1816 143.466C31.7969 143.466 32.3213 143.683 32.7549 144.116C33.1943 144.55 33.4141 145.074 33.4141 145.689C33.4141 146.305 33.1943 146.832 32.7549 147.271C32.3213 147.705 31.7969 147.922 31.1816 147.922C30.5723 147.922 30.0479 147.705 29.6084 147.271C29.1748 146.832 28.958 146.305 28.958 145.689ZM40.6387 152V139.115H42.3438V150.479H48.6895V152H40.6387ZM50.7637 152V139.115H60.0801V140.636H52.4688V144.582H59.5967V146.094H52.4688V150.479H60.3789V152H50.7637ZM62.7344 152V139.115H67.1729C68.1748 139.115 68.9395 139.177 69.4668 139.3C70.2051 139.47 70.835 139.777 71.3564 140.223C72.0361 140.797 72.543 141.532 72.877 142.429C73.2168 143.319 73.3867 144.339 73.3867 145.487C73.3867 146.466 73.2725 147.333 73.0439 148.089C72.8154 148.845 72.5225 149.472 72.165 149.97C71.8076 150.462 71.415 150.852 70.9873 151.139C70.5654 151.42 70.0527 151.634 69.4492 151.78C68.8516 151.927 68.1631 152 67.3838 152H62.7344ZM64.4395 150.479H67.1904C68.04 150.479 68.7051 150.4 69.1855 150.242C69.6719 150.084 70.0586 149.861 70.3457 149.574C70.75 149.17 71.0635 148.628 71.2861 147.948C71.5146 147.263 71.6289 146.434 71.6289 145.461C71.6289 144.113 71.4062 143.079 70.9609 142.358C70.5215 141.632 69.9854 141.146 69.3525 140.899C68.8955 140.724 68.1602 140.636 67.1465 140.636H64.4395V150.479ZM28.958 166.689C28.958 166.074 29.1748 165.55 29.6084 165.116C30.0479 164.683 30.5723 164.466 31.1816 164.466C31.7969 164.466 32.3213 164.683 32.7549 165.116C33.1943 165.55 33.4141 166.074 33.4141 166.689C33.4141 167.305 33.1943 167.832 32.7549 168.271C32.3213 168.705 31.7969 168.922 31.1816 168.922C30.5723 168.922 30.0479 168.705 29.6084 168.271C29.1748 167.832 28.958 167.305 28.958 166.689ZM40.6387 173V160.115H45.4727C46.457 160.115 47.2451 160.247 47.8369 160.511C48.4346 160.769 48.9004 161.17 49.2344 161.715C49.5742 162.254 49.7441 162.819 49.7441 163.411C49.7441 163.962 49.5947 164.48 49.2959 164.967C48.9971 165.453 48.5459 165.846 47.9424 166.145C48.7217 166.373 49.3193 166.763 49.7354 167.313C50.1572 167.864 50.3682 168.515 50.3682 169.265C50.3682 169.868 50.2393 170.431 49.9814 170.952C49.7295 171.468 49.416 171.866 49.041 172.147C48.666 172.429 48.1943 172.643 47.626 172.789C47.0635 172.93 46.3721 173 45.5518 173H40.6387ZM42.3438 165.529H45.1299C45.8857 165.529 46.4277 165.479 46.7559 165.38C47.1895 165.251 47.5146 165.037 47.7314 164.738C47.9541 164.439 48.0654 164.064 48.0654 163.613C48.0654 163.186 47.9629 162.811 47.7578 162.488C47.5527 162.16 47.2598 161.938 46.8789 161.82C46.498 161.697 45.8447 161.636 44.9189 161.636H42.3438V165.529ZM42.3438 171.479H45.5518C46.1025 171.479 46.4893 171.459 46.7119 171.418C47.1045 171.348 47.4326 171.23 47.6963 171.066C47.96 170.902 48.1768 170.665 48.3467 170.354C48.5166 170.038 48.6016 169.675 48.6016 169.265C48.6016 168.784 48.4785 168.368 48.2324 168.017C47.9863 167.659 47.6436 167.41 47.2041 167.27C46.7705 167.123 46.1436 167.05 45.3232 167.05H42.3438V171.479ZM58.6299 173V171.629C57.9033 172.684 56.916 173.211 55.668 173.211C55.1172 173.211 54.6016 173.105 54.1211 172.895C53.6465 172.684 53.292 172.42 53.0576 172.104C52.8291 171.781 52.668 171.389 52.5742 170.926C52.5098 170.615 52.4775 170.123 52.4775 169.449V163.666H54.0596V168.843C54.0596 169.669 54.0918 170.226 54.1562 170.513C54.2559 170.929 54.4668 171.257 54.7891 171.497C55.1113 171.731 55.5098 171.849 55.9844 171.849C56.459 171.849 56.9043 171.729 57.3203 171.488C57.7363 171.242 58.0293 170.911 58.1992 170.495C58.375 170.073 58.4629 169.464 58.4629 168.667V163.666H60.0449V173H58.6299ZM65.9863 171.585L66.2148 172.982C65.7695 173.076 65.3711 173.123 65.0195 173.123C64.4453 173.123 64 173.032 63.6836 172.851C63.3672 172.669 63.1445 172.432 63.0156 172.139C62.8867 171.84 62.8223 171.216 62.8223 170.267V164.896H61.6621V163.666H62.8223V161.354L64.3955 160.405V163.666H65.9863V164.896H64.3955V170.354C64.3955 170.806 64.4219 171.096 64.4746 171.225C64.5332 171.354 64.624 171.456 64.7471 171.532C64.876 171.608 65.0576 171.646 65.292 171.646C65.4678 171.646 65.6992 171.626 65.9863 171.585ZM70.9961 171.585L71.2246 172.982C70.7793 173.076 70.3809 173.123 70.0293 173.123C69.4551 173.123 69.0098 173.032 68.6934 172.851C68.377 172.669 68.1543 172.432 68.0254 172.139C67.8965 171.84 67.832 171.216 67.832 170.267V164.896H66.6719V163.666H67.832V161.354L69.4053 160.405V163.666H70.9961V164.896H69.4053V170.354C69.4053 170.806 69.4316 171.096 69.4844 171.225C69.543 171.354 69.6338 171.456 69.7568 171.532C69.8857 171.608 70.0674 171.646 70.3018 171.646C70.4775 171.646 70.709 171.626 70.9961 171.585ZM71.9629 168.333C71.9629 166.604 72.4434 165.324 73.4043 164.492C74.207 163.801 75.1855 163.455 76.3398 163.455C77.623 163.455 78.6719 163.877 79.4863 164.721C80.3008 165.559 80.708 166.719 80.708 168.201C80.708 169.402 80.5264 170.349 80.1631 171.04C79.8057 171.726 79.2812 172.259 78.5898 172.64C77.9043 173.021 77.1543 173.211 76.3398 173.211C75.0332 173.211 73.9756 172.792 73.167 171.954C72.3643 171.116 71.9629 169.909 71.9629 168.333ZM73.5889 168.333C73.5889 169.528 73.8496 170.425 74.3711 171.022C74.8926 171.614 75.5488 171.91 76.3398 171.91C77.125 171.91 77.7783 171.611 78.2998 171.014C78.8213 170.416 79.082 169.505 79.082 168.28C79.082 167.126 78.8184 166.253 78.291 165.661C77.7695 165.063 77.1191 164.765 76.3398 164.765C75.5488 164.765 74.8926 165.061 74.3711 165.652C73.8496 166.244 73.5889 167.138 73.5889 168.333ZM82.5713 173V163.666H83.9951V164.993C84.6807 163.968 85.6709 163.455 86.9658 163.455C87.5283 163.455 88.0439 163.558 88.5127 163.763C88.9873 163.962 89.3418 164.226 89.5762 164.554C89.8105 164.882 89.9746 165.271 90.0684 165.723C90.127 166.016 90.1562 166.528 90.1562 167.261V173H88.5742V167.322C88.5742 166.678 88.5127 166.197 88.3896 165.881C88.2666 165.559 88.0469 165.304 87.7305 165.116C87.4199 164.923 87.0537 164.826 86.6318 164.826C85.958 164.826 85.375 165.04 84.8828 165.468C84.3965 165.896 84.1533 166.707 84.1533 167.902V173H82.5713ZM28.958 187.689C28.958 187.074 29.1748 186.55 29.6084 186.116C30.0479 185.683 30.5723 185.466 31.1816 185.466C31.7969 185.466 32.3213 185.683 32.7549 186.116C33.1943 186.55 33.4141 187.074 33.4141 187.689C33.4141 188.305 33.1943 188.832 32.7549 189.271C32.3213 189.705 31.7969 189.922 31.1816 189.922C30.5723 189.922 30.0479 189.705 29.6084 189.271C29.1748 188.832 28.958 188.305 28.958 187.689ZM48.3818 192.479V194H39.8652C39.8535 193.619 39.915 193.253 40.0498 192.901C40.2666 192.321 40.6123 191.75 41.0869 191.188C41.5674 190.625 42.2588 189.975 43.1611 189.236C44.5615 188.088 45.5078 187.18 46 186.512C46.4922 185.838 46.7383 185.202 46.7383 184.604C46.7383 183.978 46.5127 183.45 46.0615 183.022C45.6162 182.589 45.0332 182.372 44.3125 182.372C43.5508 182.372 42.9414 182.601 42.4844 183.058C42.0273 183.515 41.7959 184.147 41.79 184.956L40.1641 184.789C40.2754 183.576 40.6943 182.653 41.4209 182.021C42.1475 181.382 43.123 181.062 44.3477 181.062C45.584 181.062 46.5625 181.405 47.2832 182.091C48.0039 182.776 48.3643 183.626 48.3643 184.64C48.3643 185.155 48.2588 185.662 48.0479 186.16C47.8369 186.658 47.4854 187.183 46.9932 187.733C46.5068 188.284 45.6953 189.04 44.5586 190.001C43.6094 190.798 43 191.34 42.7305 191.627C42.4609 191.908 42.2383 192.192 42.0625 192.479H48.3818ZM58.4014 192.479V194H49.8848C49.873 193.619 49.9346 193.253 50.0693 192.901C50.2861 192.321 50.6318 191.75 51.1064 191.188C51.5869 190.625 52.2783 189.975 53.1807 189.236C54.5811 188.088 55.5273 187.18 56.0195 186.512C56.5117 185.838 56.7578 185.202 56.7578 184.604C56.7578 183.978 56.5322 183.45 56.0811 183.022C55.6357 182.589 55.0527 182.372 54.332 182.372C53.5703 182.372 52.9609 182.601 52.5039 183.058C52.0469 183.515 51.8154 184.147 51.8096 184.956L50.1836 184.789C50.2949 183.576 50.7139 182.653 51.4404 182.021C52.167 181.382 53.1426 181.062 54.3672 181.062C55.6035 181.062 56.582 181.405 57.3027 182.091C58.0234 182.776 58.3838 183.626 58.3838 184.64C58.3838 185.155 58.2783 185.662 58.0674 186.16C57.8564 186.658 57.5049 187.183 57.0127 187.733C56.5264 188.284 55.7148 189.04 54.5781 190.001C53.6289 190.798 53.0195 191.34 52.75 191.627C52.4805 191.908 52.2578 192.192 52.082 192.479H58.4014ZM60.1064 187.646C60.1064 186.122 60.2617 184.897 60.5723 183.972C60.8887 183.04 61.3545 182.322 61.9697 181.818C62.5908 181.314 63.3701 181.062 64.3076 181.062C64.999 181.062 65.6055 181.203 66.127 181.484C66.6484 181.76 67.0791 182.161 67.4189 182.688C67.7588 183.21 68.0254 183.849 68.2188 184.604C68.4121 185.354 68.5088 186.368 68.5088 187.646C68.5088 189.157 68.3535 190.379 68.043 191.311C67.7324 192.236 67.2666 192.954 66.6455 193.464C66.0303 193.968 65.251 194.22 64.3076 194.22C63.0654 194.22 62.0898 193.774 61.3809 192.884C60.5312 191.812 60.1064 190.065 60.1064 187.646ZM61.7324 187.646C61.7324 189.761 61.9785 191.17 62.4707 191.873C62.9688 192.57 63.5811 192.919 64.3076 192.919C65.0342 192.919 65.6436 192.567 66.1357 191.864C66.6338 191.161 66.8828 189.755 66.8828 187.646C66.8828 185.524 66.6338 184.115 66.1357 183.418C65.6436 182.721 65.0283 182.372 64.29 182.372C63.5635 182.372 62.9834 182.68 62.5498 183.295C62.0049 184.08 61.7324 185.53 61.7324 187.646ZM70.2314 192.479H73.0439C71.2627 190.991 70.3721 189.175 70.3721 187.03C70.3721 185.864 70.6064 184.818 71.0752 183.893C71.5439 182.967 72.2061 182.237 73.0615 181.704C73.917 181.165 74.9453 180.896 76.1465 180.896C77.3359 180.896 78.3262 181.142 79.1172 181.634C79.9141 182.126 80.5674 182.832 81.0771 183.752C81.5928 184.672 81.8506 185.765 81.8506 187.03C81.8506 189.175 80.96 190.991 79.1787 192.479H81.9912V194H76.9814V192.576C79.0674 191.604 80.1104 189.843 80.1104 187.294C80.1104 185.858 79.7412 184.678 79.0029 183.752C78.2705 182.82 77.3154 182.354 76.1377 182.354C74.9248 182.354 73.9551 182.823 73.2285 183.761C72.502 184.692 72.1387 185.841 72.1387 187.206C72.1387 189.79 73.1758 191.58 75.25 192.576V194H70.2314V192.479ZM89.2686 194V181.115H94.9814C96.1299 181.115 97.0029 181.232 97.6006 181.467C98.1982 181.695 98.6758 182.103 99.0332 182.688C99.3906 183.274 99.5693 183.922 99.5693 184.631C99.5693 185.545 99.2734 186.315 98.6816 186.942C98.0898 187.569 97.1758 187.968 95.9395 188.138C96.3906 188.354 96.7334 188.568 96.9678 188.779C97.4658 189.236 97.9375 189.808 98.3828 190.493L100.624 194H98.4795L96.7744 191.319C96.2764 190.546 95.8662 189.954 95.5439 189.544C95.2217 189.134 94.9316 188.847 94.6738 188.683C94.4219 188.519 94.1641 188.404 93.9004 188.34C93.707 188.299 93.3906 188.278 92.9512 188.278H90.9736V194H89.2686ZM90.9736 186.802H94.6387C95.418 186.802 96.0273 186.723 96.4668 186.564C96.9062 186.4 97.2402 186.143 97.4688 185.791C97.6973 185.434 97.8115 185.047 97.8115 184.631C97.8115 184.021 97.5889 183.521 97.1436 183.128C96.7041 182.735 96.0068 182.539 95.0518 182.539H90.9736V186.802ZM108.438 190.994L110.072 191.196C109.814 192.151 109.337 192.893 108.64 193.42C107.942 193.947 107.052 194.211 105.968 194.211C104.603 194.211 103.519 193.792 102.716 192.954C101.919 192.11 101.521 190.93 101.521 189.412C101.521 187.842 101.925 186.623 102.733 185.756C103.542 184.889 104.591 184.455 105.88 184.455C107.128 184.455 108.147 184.88 108.938 185.729C109.729 186.579 110.125 187.774 110.125 189.315C110.125 189.409 110.122 189.55 110.116 189.737H103.155C103.214 190.763 103.504 191.548 104.025 192.093C104.547 192.638 105.197 192.91 105.977 192.91C106.557 192.91 107.052 192.758 107.462 192.453C107.872 192.148 108.197 191.662 108.438 190.994ZM103.243 188.437H108.455C108.385 187.651 108.186 187.062 107.857 186.67C107.354 186.061 106.7 185.756 105.897 185.756C105.171 185.756 104.559 185.999 104.061 186.485C103.568 186.972 103.296 187.622 103.243 188.437ZM111.435 191.214L112.999 190.968C113.087 191.595 113.33 192.075 113.729 192.409C114.133 192.743 114.695 192.91 115.416 192.91C116.143 192.91 116.682 192.764 117.033 192.471C117.385 192.172 117.561 191.823 117.561 191.425C117.561 191.067 117.405 190.786 117.095 190.581C116.878 190.44 116.339 190.262 115.478 190.045C114.317 189.752 113.512 189.5 113.061 189.289C112.615 189.072 112.275 188.776 112.041 188.401C111.812 188.021 111.698 187.602 111.698 187.145C111.698 186.729 111.792 186.345 111.979 185.993C112.173 185.636 112.434 185.34 112.762 185.105C113.008 184.924 113.342 184.771 113.764 184.648C114.191 184.52 114.648 184.455 115.135 184.455C115.867 184.455 116.509 184.561 117.06 184.771C117.616 184.982 118.026 185.27 118.29 185.633C118.554 185.99 118.735 186.471 118.835 187.074L117.288 187.285C117.218 186.805 117.013 186.43 116.673 186.16C116.339 185.891 115.864 185.756 115.249 185.756C114.522 185.756 114.004 185.876 113.693 186.116C113.383 186.356 113.228 186.638 113.228 186.96C113.228 187.165 113.292 187.35 113.421 187.514C113.55 187.684 113.752 187.824 114.027 187.936C114.186 187.994 114.651 188.129 115.425 188.34C116.544 188.639 117.323 188.885 117.763 189.078C118.208 189.266 118.557 189.541 118.809 189.904C119.061 190.268 119.187 190.719 119.187 191.258C119.187 191.785 119.031 192.283 118.721 192.752C118.416 193.215 117.974 193.575 117.394 193.833C116.813 194.085 116.157 194.211 115.425 194.211C114.212 194.211 113.286 193.959 112.647 193.455C112.015 192.951 111.61 192.204 111.435 191.214ZM121.076 182.935V181.115H122.658V182.935H121.076ZM121.076 194V184.666H122.658V194H121.076ZM124.442 191.214L126.007 190.968C126.095 191.595 126.338 192.075 126.736 192.409C127.141 192.743 127.703 192.91 128.424 192.91C129.15 192.91 129.689 192.764 130.041 192.471C130.393 192.172 130.568 191.823 130.568 191.425C130.568 191.067 130.413 190.786 130.103 190.581C129.886 190.44 129.347 190.262 128.485 190.045C127.325 189.752 126.52 189.5 126.068 189.289C125.623 189.072 125.283 188.776 125.049 188.401C124.82 188.021 124.706 187.602 124.706 187.145C124.706 186.729 124.8 186.345 124.987 185.993C125.181 185.636 125.441 185.34 125.77 185.105C126.016 184.924 126.35 184.771 126.771 184.648C127.199 184.52 127.656 184.455 128.143 184.455C128.875 184.455 129.517 184.561 130.067 184.771C130.624 184.982 131.034 185.27 131.298 185.633C131.562 185.99 131.743 186.471 131.843 187.074L130.296 187.285C130.226 186.805 130.021 186.43 129.681 186.16C129.347 185.891 128.872 185.756 128.257 185.756C127.53 185.756 127.012 185.876 126.701 186.116C126.391 186.356 126.235 186.638 126.235 186.96C126.235 187.165 126.3 187.35 126.429 187.514C126.558 187.684 126.76 187.824 127.035 187.936C127.193 187.994 127.659 188.129 128.433 188.34C129.552 188.639 130.331 188.885 130.771 189.078C131.216 189.266 131.564 189.541 131.816 189.904C132.068 190.268 132.194 190.719 132.194 191.258C132.194 191.785 132.039 192.283 131.729 192.752C131.424 193.215 130.981 193.575 130.401 193.833C129.821 194.085 129.165 194.211 128.433 194.211C127.22 194.211 126.294 193.959 125.655 193.455C125.022 192.951 124.618 192.204 124.442 191.214ZM137.529 192.585L137.758 193.982C137.312 194.076 136.914 194.123 136.562 194.123C135.988 194.123 135.543 194.032 135.227 193.851C134.91 193.669 134.688 193.432 134.559 193.139C134.43 192.84 134.365 192.216 134.365 191.267V185.896H133.205V184.666H134.365V182.354L135.938 181.405V184.666H137.529V185.896H135.938V191.354C135.938 191.806 135.965 192.096 136.018 192.225C136.076 192.354 136.167 192.456 136.29 192.532C136.419 192.608 136.601 192.646 136.835 192.646C137.011 192.646 137.242 192.626 137.529 192.585ZM138.496 189.333C138.496 187.604 138.977 186.324 139.938 185.492C140.74 184.801 141.719 184.455 142.873 184.455C144.156 184.455 145.205 184.877 146.02 185.721C146.834 186.559 147.241 187.719 147.241 189.201C147.241 190.402 147.06 191.349 146.696 192.04C146.339 192.726 145.814 193.259 145.123 193.64C144.438 194.021 143.688 194.211 142.873 194.211C141.566 194.211 140.509 193.792 139.7 192.954C138.897 192.116 138.496 190.909 138.496 189.333ZM140.122 189.333C140.122 190.528 140.383 191.425 140.904 192.022C141.426 192.614 142.082 192.91 142.873 192.91C143.658 192.91 144.312 192.611 144.833 192.014C145.354 191.416 145.615 190.505 145.615 189.28C145.615 188.126 145.352 187.253 144.824 186.661C144.303 186.063 143.652 185.765 142.873 185.765C142.082 185.765 141.426 186.061 140.904 186.652C140.383 187.244 140.122 188.138 140.122 189.333ZM149.087 194V184.666H150.511V186.081C150.874 185.419 151.208 184.982 151.513 184.771C151.823 184.561 152.163 184.455 152.532 184.455C153.065 184.455 153.607 184.625 154.158 184.965L153.613 186.433C153.227 186.204 152.84 186.09 152.453 186.09C152.107 186.09 151.797 186.195 151.521 186.406C151.246 186.611 151.05 186.898 150.933 187.268C150.757 187.83 150.669 188.445 150.669 189.113V194H149.087Z" fill="black"/>
</g>
<path d="M580.207 187.11C592.329 176.091 573.491 144.285 564.882 138.431C586.37 137.054 602.841 125.251 601.705 109.624C599.984 85.9465 563.619 93.2051 551.108 95.7304C559.372 88.1545 574.151 48.2509 551.108 48.2512C534.744 48.2514 521.677 67.2305 519.082 76.1019C518.25 78.9451 511.234 31.2061 497.388 32.7127C485.728 33.9812 486.922 66.1473 490.5 82.9891C490.5 82.9891 483.308 75.0714 470.763 66.8523C458.218 58.6332 443.078 61.6613 437.022 69.0153C430.966 76.3692 433.013 91.2446 445.975 100.539C459.081 109.937 475.882 116.197 475.348 116.392C473.278 117.148 457.638 120.88 454.194 122.601C445.11 127.144 431.337 132.462 434.426 146.88C437.022 158.992 462.416 160.148 470.527 155.993C466.527 162.026 455.021 180.16 464.707 191.004C477.99 205.873 502.209 163.914 502.209 163.914C502.209 163.914 508.235 198.11 519.082 193.978C529.93 189.845 532.742 169.882 532.512 160.126C538.548 173.646 568.086 198.13 580.207 187.11Z" fill="#FFC425"/>
<ellipse cx="9.81424" cy="11.536" rx="9.81424" ry="11.536" transform="matrix(-1 0 0 1 540.799 108.389)" fill="#FDFCFC"/>
<circle cx="6.48877" cy="6.48877" r="6.48877" transform="matrix(-1 0 0 1 536.15 113.436)" fill="black"/>
<ellipse cx="9.81424" cy="11.536" rx="9.81424" ry="11.536" transform="matrix(-1 0 0 1 508.429 103.568)" fill="#FDFCFC"/>
<circle cx="6.92135" cy="6.92135" r="6.92135" transform="matrix(-1 0 0 1 503.78 108.184)" fill="black"/>
<path d="M517.351 124.961C516.949 126.338 515.436 128.318 513.563 128.318C511.41 128.318 510.98 125.879 510.636 124.961" stroke="black" stroke-width="2.06616" stroke-linecap="round"/>
<ellipse cx="485.038" cy="124.386" rx="11.6798" ry="11.2472" fill="url(#paint0_radial_1086_2754)"/>
<ellipse cx="540.409" cy="133.903" rx="11.6798" ry="11.2472" fill="url(#paint1_radial_1086_2754)"/>
<path d="M420.135 86.1074C428.908 103.111 437.76 115.549 462.738 110.704" stroke="black" stroke-width="5" stroke-linecap="round"/>
<defs>
<radialGradient id="paint0_radial_1086_2754" cx="0" cy="0" r="1" gradientUnits="userSpaceOnUse" gradientTransform="translate(485.038 124.386) rotate(90) scale(11.2472 11.6798)">
<stop offset="0.0769231" stop-color="#FF6062"/>
<stop offset="1" stop-color="#D9D9D9" stop-opacity="0"/>
</radialGradient>
<radialGradient id="paint1_radial_1086_2754" cx="0" cy="0" r="1" gradientUnits="userSpaceOnUse" gradientTransform="translate(540.409 133.903) rotate(90) scale(11.2472 11.6798)">
<stop offset="0.134615" stop-color="#FF6062"/>
<stop offset="1" stop-color="#D9D9D9" stop-opacity="0"/>
</radialGradient>
</defs>
</svg>
