<svg width="57" height="179" viewBox="0 0 57 179" fill="none" xmlns="http://www.w3.org/2000/svg">
<rect x="17" y="166.5" width="2" height="12" fill="#8C8C8C"/>
<path d="M22 109.5V63H26.5V109.5C26.5 115 20.5 120 20.5 124V167H16V124C16 116.5 22 115.5 22 109.5Z" fill="#414042" stroke="#222222"/>
<rect x="37" y="166.5" width="2" height="12" fill="#8C8C8C"/>
<path d="M34.5 109.5V63H30V109.5C30 115 36 120 36 124V167H40.5V124C40.5 116.5 34.5 115.5 34.5 109.5Z" fill="#E91B22" stroke="#9F1114"/>
<rect x="18.75" y="48.75" width="18.5" height="14.5" rx="3.25" fill="#D9D9D9" stroke="#797979" stroke-width="1.5"/>
<circle cx="28.5" cy="28.5" r="27.75" fill="#D9D9D9" stroke="#797979" stroke-width="1.5"/>
<circle cx="28.5" cy="28.5" r="23.75" fill="#231F20" stroke="black" stroke-width="1.5"/>
</svg>
