<svg width="106" height="111" viewBox="0 0 106 111" fill="none" xmlns="http://www.w3.org/2000/svg">
<path d="M12.4812 95.4703C4.04302 87.7992 13.9195 77.731 19.9125 73.6558C4.954 72.6969 -0.328517 63.0463 0.0156772 58.3137C1.21428 41.8311 20.7914 42.1726 29.5012 43.9305C23.7479 38.6567 18.2344 1.73981 29.5012 0.0617645C38.9798 -1.34995 49.4765 21.8397 51.5705 28.5226C51.9803 21.9041 58.4883 -0.853159 66.8975 0.0617645C75.0138 0.944824 74.1832 23.3367 71.6919 35.0609L75.048 31.4651C82.3195 25.7118 97.3965 16.9778 103.335 25.7118C110.979 36.9545 81.5004 58.0439 82.2396 58.3137C83.6808 58.8398 88.9517 60.7109 91.3489 61.9095C96.0634 64.946 106.615 73.287 105.972 82.2857C105.308 91.568 91.2426 88.7737 85.5957 85.8815L85.5985 85.8857C88.3852 90.0885 95.6924 101.109 88.9517 108.655C79.7054 119.006 63.5414 91.3951 63.5414 91.3951C63.5414 91.3951 56.7094 111.532 49.1582 108.655C41.6071 105.778 42.2863 95.5502 42.4461 88.7581C35.9737 94.1918 20.9193 103.141 12.4812 95.4703Z" fill="#1A2BC3"/>
<ellipse cx="43.5088" cy="55.4955" rx="6.83202" ry="8.03061" fill="#FDFCFC"/>
<circle cx="43.5089" cy="55.4957" r="3.5958" fill="black"/>
<ellipse cx="66.043" cy="52.139" rx="6.83202" ry="8.03061" fill="#FDFCFC"/>
<circle cx="66.0431" cy="52.1393" r="3.5958" fill="black"/>
<path d="M53.2178 56.9336C53.4974 57.8925 54.5505 59.2709 55.8547 59.2709C57.3529 59.2709 57.6526 57.5728 57.8923 56.9336" stroke="white" stroke-width="1.43832" stroke-linecap="round"/>
</svg>
