<svg width="202" height="196" viewBox="0 0 202 196" fill="none" xmlns="http://www.w3.org/2000/svg">
<path d="M34.0127 168.938C20.0022 156.201 32.6245 129.001 42.5752 122.234C17.7384 120.642 -0.558467 96.7956 0.0130253 88.9377C2.00315 61.5704 44.0345 69.9602 58.4961 72.8791C48.9435 64.1225 39.7889 19.7237 58.4961 16.9375C77.2033 14.1513 92.5127 39.9376 95.5124 50.1916C96.4738 53.4778 104.583 -1.70094 120.588 0.040376C134.064 1.50659 132.685 38.6855 128.549 58.1521L139.013 50.1916C155.013 37.6916 195.013 26.9375 200.513 42.9377C204.308 53.9785 194.995 67.6942 180.013 78.4376C164.864 89.2997 145.445 96.5353 146.062 96.7606C148.455 97.6341 166.533 101.948 170.513 103.938C181.013 109.188 204.084 116.773 200.513 133.438C197.513 147.438 161.01 147.336 151.634 142.533C156.258 149.506 171.709 179.904 160.513 192.438C145.16 209.625 115.016 151.688 115.016 151.688C115.016 151.688 108.05 191.214 95.5124 186.438C82.9746 181.661 79.7241 158.587 79.9894 147.31C73.0127 162.938 48.0232 181.674 34.0127 168.938Z" fill="#1A2BC3"/>
<path d="M97.5127 106.663C97.9771 108.255 99.7255 110.544 101.891 110.544C104.379 110.544 104.876 107.724 105.274 106.663" stroke="white" stroke-width="2.38815" stroke-linecap="round"/>
<ellipse cx="81.7539" cy="100.844" rx="11.3437" ry="13.3339" fill="#FDFCFC"/>
<circle cx="81.7539" cy="100.844" r="8" fill="black"/>
<ellipse cx="119.169" cy="95.2713" rx="11.3437" ry="13.3339" fill="#FDFCFC"/>
<circle cx="119.169" cy="95.2715" r="7.5" fill="black"/>
<ellipse cx="73.0127" cy="118.938" rx="13.5" ry="13" fill="url(#paint0_radial_967_834)"/>
<ellipse cx="133.013" cy="108.938" rx="13.5" ry="13" fill="url(#paint1_radial_967_834)"/>
<defs>
<radialGradient id="paint0_radial_967_834" cx="0" cy="0" r="1" gradientUnits="userSpaceOnUse" gradientTransform="translate(73.0127 118.938) rotate(90) scale(13 13.5)">
<stop stop-color="#D74040"/>
<stop offset="1" stop-color="#D9D9D9" stop-opacity="0"/>
</radialGradient>
<radialGradient id="paint1_radial_967_834" cx="0" cy="0" r="1" gradientUnits="userSpaceOnUse" gradientTransform="translate(133.013 108.938) rotate(90) scale(13 13.5)">
<stop stop-color="#D74040"/>
<stop offset="1" stop-color="#D9D9D9" stop-opacity="0"/>
</radialGradient>
</defs>
</svg>
