<svg width="656" height="162" viewBox="0 0 656 162" fill="none" xmlns="http://www.w3.org/2000/svg">
<path d="M146.449 154.436C158.571 143.416 139.732 111.61 131.123 105.756C152.612 104.378 169.083 92.5756 167.947 76.9479C166.226 53.27 129.861 60.5287 117.349 63.0541C125.613 55.478 140.393 15.5735 117.349 15.5738C100.985 15.574 87.9179 34.5535 85.3225 43.4251C84.4908 46.2684 77.4744 -1.47163 63.6274 0.0349328C51.9679 1.30348 53.1612 33.4703 56.74 50.3125C56.74 50.3125 49.5479 42.3946 37.0027 34.1754C24.4575 25.9561 9.3167 28.9842 3.26038 36.3383C-2.79594 43.6924 -0.748962 58.5682 12.2139 67.8633C25.3199 77.261 42.1217 83.5212 41.5879 83.7161C39.5176 84.4719 23.8766 88.2039 20.4329 89.9257C11.3485 94.4679 -2.42485 99.7864 0.66481 114.205C3.26038 126.317 28.6548 127.473 36.7667 123.318C32.7665 129.351 21.2599 147.485 30.9464 158.329C44.2291 173.199 68.4485 131.239 68.4485 131.239C68.4485 131.239 74.475 165.436 85.3225 161.304C96.1701 157.171 98.9824 137.208 98.7528 127.451C104.789 140.972 134.327 165.456 146.449 154.436Z" fill="#FFC425"/>
<path d="M107.714 88.2477C107.645 87.1229 106.001 82.0147 100.464 81.5368C94.9268 81.0589 91.2459 84.0193 90.843 84.6738" stroke="black" stroke-width="2.59556" stroke-linecap="round"/>
<ellipse cx="9.81446" cy="11.5363" rx="9.81446" ry="11.5363" transform="matrix(-1 0 0 1 74.668 70.8906)" fill="#FDFCFC"/>
<circle cx="6.92151" cy="6.92151" r="6.92151" transform="matrix(-1 0 0 1 71.7754 75.5059)" fill="black"/>
<path d="M91.709 100.794C91.3072 102.171 86.5179 105.057 79.1638 104.192C71.8097 103.327 67.8281 98.6839 67.4837 97.7656" stroke="black" stroke-width="2.59556" stroke-linecap="round"/>
<ellipse cx="51.2777" cy="91.7103" rx="11.68" ry="11.2474" fill="url(#paint0_radial_1088_6667)"/>
<ellipse cx="106.65" cy="101.228" rx="11.68" ry="11.2474" fill="url(#paint1_radial_1088_6667)"/>
<path d="M206.704 63.1602C206.8 63.1602 206.884 63.1992 206.956 63.2772L207.649 64.0242C207.121 64.6362 206.479 65.1132 205.723 65.4552C204.973 65.7972 204.064 65.9682 202.996 65.9682C202.072 65.9682 201.232 65.8092 200.476 65.4912C199.72 65.1672 199.075 64.7172 198.541 64.1412C198.007 63.5592 197.593 62.8632 197.299 62.0532C197.005 61.2432 196.858 60.3522 196.858 59.3802C196.858 58.4082 197.011 57.5172 197.317 56.7072C197.623 55.8972 198.052 55.2012 198.604 54.6192C199.162 54.0372 199.828 53.5872 200.602 53.2692C201.376 52.9452 202.231 52.7832 203.167 52.7832C204.085 52.7832 204.895 52.9302 205.597 53.2242C206.299 53.5182 206.917 53.9172 207.451 54.4212L206.875 55.2222C206.839 55.2822 206.791 55.3332 206.731 55.3752C206.677 55.4112 206.602 55.4292 206.506 55.4292C206.398 55.4292 206.266 55.3722 206.11 55.2582C205.954 55.1382 205.75 55.0062 205.498 54.8622C205.246 54.7182 204.931 54.5892 204.553 54.4752C204.175 54.3552 203.71 54.2952 203.158 54.2952C202.492 54.2952 201.883 54.4122 201.331 54.6462C200.779 54.8742 200.302 55.2072 199.9 55.6452C199.504 56.0832 199.195 56.6172 198.973 57.2472C198.751 57.8772 198.64 58.5882 198.64 59.3802C198.64 60.1842 198.754 60.9012 198.982 61.5312C199.216 62.1612 199.531 62.6952 199.927 63.1332C200.329 63.5652 200.8 63.8952 201.34 64.1232C201.886 64.3512 202.474 64.4652 203.104 64.4652C203.488 64.4652 203.833 64.4442 204.139 64.4022C204.451 64.3542 204.736 64.2822 204.994 64.1862C205.258 64.0902 205.501 63.9702 205.723 63.8262C205.951 63.6762 206.176 63.4992 206.398 63.2952C206.5 63.2052 206.602 63.1602 206.704 63.1602ZM210.951 52.5672V65.8242H209.349V52.5672H210.951ZM215.241 56.7072V65.8242H213.639V56.7072H215.241ZM215.583 53.8452C215.583 54.0012 215.55 54.1482 215.484 54.2862C215.424 54.4182 215.34 54.5382 215.232 54.6462C215.13 54.7482 215.007 54.8292 214.863 54.8892C214.725 54.9492 214.578 54.9792 214.422 54.9792C214.266 54.9792 214.119 54.9492 213.981 54.8892C213.849 54.8292 213.732 54.7482 213.63 54.6462C213.528 54.5382 213.447 54.4182 213.387 54.2862C213.327 54.1482 213.297 54.0012 213.297 53.8452C213.297 53.6892 213.327 53.5422 213.387 53.4042C213.447 53.2602 213.528 53.1372 213.63 53.0352C213.732 52.9272 213.849 52.8432 213.981 52.7832C214.119 52.7232 214.266 52.6932 214.422 52.6932C214.578 52.6932 214.725 52.7232 214.863 52.7832C215.007 52.8432 215.13 52.9272 215.232 53.0352C215.34 53.1372 215.424 53.2602 215.484 53.4042C215.55 53.5422 215.583 53.6892 215.583 53.8452ZM224.218 58.3272C224.17 58.3932 224.122 58.4442 224.074 58.4802C224.026 58.5162 223.96 58.5342 223.876 58.5342C223.786 58.5342 223.687 58.4982 223.579 58.4262C223.471 58.3482 223.336 58.2642 223.174 58.1742C223.018 58.0842 222.823 58.0032 222.589 57.9312C222.361 57.8532 222.079 57.8142 221.743 57.8142C221.293 57.8142 220.897 57.8952 220.555 58.0572C220.213 58.2132 219.925 58.4412 219.691 58.7412C219.463 59.0412 219.289 59.4042 219.169 59.8302C219.055 60.2562 218.998 60.7332 218.998 61.2612C218.998 61.8132 219.061 62.3052 219.187 62.7372C219.313 63.1632 219.49 63.5232 219.718 63.8172C219.952 64.1052 220.231 64.3272 220.555 64.4832C220.885 64.6332 221.254 64.7082 221.662 64.7082C222.052 64.7082 222.373 64.6632 222.625 64.5732C222.877 64.4772 223.084 64.3722 223.246 64.2582C223.414 64.1442 223.552 64.0422 223.66 63.9522C223.774 63.8562 223.885 63.8082 223.993 63.8082C224.125 63.8082 224.227 63.8592 224.299 63.9612L224.749 64.5462C224.551 64.7922 224.326 65.0022 224.074 65.1762C223.822 65.3502 223.549 65.4972 223.255 65.6172C222.967 65.7312 222.664 65.8152 222.346 65.8692C222.028 65.9232 221.704 65.9502 221.374 65.9502C220.804 65.9502 220.273 65.8452 219.781 65.6352C219.295 65.4252 218.872 65.1222 218.512 64.7262C218.152 64.3242 217.87 63.8322 217.666 63.2502C217.462 62.6682 217.36 62.0052 217.36 61.2612C217.36 60.5832 217.453 59.9562 217.639 59.3802C217.831 58.8042 218.107 58.3092 218.467 57.8952C218.833 57.4752 219.28 57.1482 219.808 56.9142C220.342 56.6802 220.954 56.5632 221.644 56.5632C222.286 56.5632 222.85 56.6682 223.336 56.8782C223.828 57.0822 224.263 57.3732 224.641 57.7512L224.218 58.3272ZM228.08 52.5672V60.3702H228.494C228.614 60.3702 228.713 60.3552 228.791 60.3252C228.875 60.2892 228.962 60.2202 229.052 60.1182L231.932 57.0312C232.016 56.9292 232.103 56.8512 232.193 56.7972C232.289 56.7372 232.415 56.7072 232.571 56.7072H234.02L230.663 60.2802C230.501 60.4842 230.327 60.6432 230.141 60.7572C230.249 60.8292 230.345 60.9132 230.429 61.0092C230.519 61.0992 230.603 61.2042 230.681 61.3242L234.245 65.8242H232.814C232.676 65.8242 232.556 65.8032 232.454 65.7612C232.358 65.7132 232.274 65.6292 232.202 65.5092L229.205 61.7742C229.115 61.6482 229.025 61.5672 228.935 61.5312C228.851 61.4892 228.719 61.4682 228.539 61.4682H228.08V65.8242H226.469V52.5672H228.08ZM242.123 52.7112V55.2852L241.871 56.7072C241.817 57.0312 241.721 57.2802 241.583 57.4542C241.445 57.6222 241.217 57.7062 240.899 57.7062C240.629 57.7062 240.419 57.6222 240.269 57.4542C240.119 57.2802 240.011 57.0312 239.945 56.7072L239.693 55.2852V52.7112H242.123ZM245.723 52.7112V55.2852L245.471 56.7072C245.417 57.0312 245.321 57.2802 245.183 57.4542C245.045 57.6222 244.817 57.7062 244.499 57.7062C244.229 57.7062 244.019 57.6222 243.869 57.4542C243.719 57.2802 243.611 57.0312 243.545 56.7072L243.293 55.2852V52.7112H245.723ZM254.984 55.3752C254.894 55.5192 254.798 55.6272 254.696 55.6992C254.6 55.7712 254.474 55.8072 254.318 55.8072C254.18 55.8072 254.03 55.7652 253.868 55.6812C253.712 55.5912 253.532 55.4922 253.328 55.3842C253.13 55.2762 252.902 55.1802 252.644 55.0962C252.386 55.0062 252.092 54.9612 251.762 54.9612C251.192 54.9612 250.766 55.0842 250.484 55.3302C250.208 55.5702 250.07 55.8972 250.07 56.3112C250.07 56.5752 250.154 56.7942 250.322 56.9682C250.49 57.1422 250.709 57.2922 250.979 57.4182C251.255 57.5442 251.567 57.6612 251.915 57.7692C252.269 57.8712 252.629 57.9882 252.995 58.1202C253.361 58.2462 253.718 58.3962 254.066 58.5702C254.42 58.7442 254.732 58.9662 255.002 59.2362C255.278 59.5062 255.5 59.8362 255.668 60.2262C255.836 60.6102 255.92 61.0752 255.92 61.6212C255.92 62.2272 255.815 62.7942 255.605 63.3222C255.395 63.8502 255.089 64.3122 254.687 64.7082C254.291 65.0982 253.799 65.4072 253.211 65.6352C252.629 65.8572 251.966 65.9682 251.222 65.9682C250.814 65.9682 250.397 65.9262 249.971 65.8422C249.551 65.7582 249.143 65.6412 248.747 65.4912C248.351 65.3352 247.979 65.1522 247.631 64.9422C247.283 64.7322 246.98 64.4982 246.722 64.2402L247.622 62.8182C247.694 62.7162 247.787 62.6322 247.901 62.5662C248.021 62.4942 248.15 62.4582 248.288 62.4582C248.468 62.4582 248.648 62.5152 248.828 62.6292C249.014 62.7432 249.221 62.8692 249.449 63.0072C249.683 63.1452 249.95 63.2712 250.25 63.3852C250.55 63.4992 250.904 63.5562 251.312 63.5562C251.864 63.5562 252.293 63.4362 252.599 63.1962C252.905 62.9502 253.058 62.5632 253.058 62.0352C253.058 61.7292 252.974 61.4802 252.806 61.2882C252.638 61.0962 252.416 60.9372 252.14 60.8112C251.87 60.6852 251.561 60.5742 251.213 60.4782C250.865 60.3822 250.508 60.2772 250.142 60.1632C249.776 60.0432 249.419 59.8992 249.071 59.7312C248.723 59.5572 248.411 59.3322 248.135 59.0562C247.865 58.7742 247.646 58.4262 247.478 58.0122C247.31 57.5922 247.226 57.0762 247.226 56.4642C247.226 55.9722 247.325 55.4922 247.523 55.0242C247.721 54.5562 248.012 54.1392 248.396 53.7732C248.78 53.4072 249.251 53.1162 249.809 52.9002C250.367 52.6782 251.006 52.5672 251.726 52.5672C252.128 52.5672 252.518 52.6002 252.896 52.6662C253.28 52.7262 253.643 52.8192 253.985 52.9452C254.327 53.0652 254.645 53.2122 254.939 53.3862C255.239 53.5542 255.506 53.7462 255.74 53.9622L254.984 55.3752ZM260.316 65.9682C259.872 65.9682 259.479 65.9052 259.137 65.7792C258.801 65.6472 258.516 65.4642 258.282 65.2302C258.054 64.9902 257.88 64.7022 257.76 64.3662C257.64 64.0302 257.58 63.6552 257.58 63.2412V58.4172H256.788C256.644 58.4172 256.521 58.3722 256.419 58.2822C256.317 58.1862 256.266 58.0482 256.266 57.8682V56.7792L257.751 56.4912L258.3 54.2142C258.372 53.9262 258.576 53.7822 258.912 53.7822H260.37V56.5092H262.683V58.4172H260.37V63.0522C260.37 63.2682 260.421 63.4482 260.523 63.5922C260.631 63.7302 260.784 63.7992 260.982 63.7992C261.084 63.7992 261.168 63.7902 261.234 63.7722C261.306 63.7482 261.366 63.7242 261.414 63.7002C261.468 63.6702 261.516 63.6462 261.558 63.6282C261.606 63.6042 261.66 63.5922 261.72 63.5922C261.804 63.5922 261.87 63.6132 261.918 63.6552C261.972 63.6912 262.026 63.7512 262.08 63.8352L262.926 65.1582C262.566 65.4282 262.161 65.6322 261.711 65.7702C261.261 65.9022 260.796 65.9682 260.316 65.9682ZM268.7 62.0262C268.142 62.0502 267.683 62.0982 267.323 62.1702C266.963 62.2422 266.678 62.3322 266.468 62.4402C266.258 62.5482 266.111 62.6712 266.027 62.8092C265.949 62.9472 265.91 63.0972 265.91 63.2592C265.91 63.5772 265.997 63.8022 266.171 63.9342C266.345 64.0602 266.6 64.1232 266.936 64.1232C267.296 64.1232 267.611 64.0602 267.881 63.9342C268.151 63.8082 268.424 63.6042 268.7 63.3222V62.0262ZM263.678 57.7872C264.242 57.2892 264.866 56.9202 265.55 56.6802C266.24 56.4342 266.978 56.3112 267.764 56.3112C268.328 56.3112 268.835 56.4042 269.285 56.5902C269.741 56.7702 270.125 57.0252 270.437 57.3552C270.755 57.6792 270.998 58.0662 271.166 58.5162C271.334 58.9662 271.418 59.4582 271.418 59.9922V65.8242H270.14C269.876 65.8242 269.675 65.7882 269.537 65.7162C269.405 65.6442 269.294 65.4942 269.204 65.2662L269.006 64.7532C268.772 64.9512 268.547 65.1252 268.331 65.2752C268.115 65.4252 267.89 65.5542 267.656 65.6622C267.428 65.7642 267.182 65.8392 266.918 65.8872C266.66 65.9412 266.372 65.9682 266.054 65.9682C265.628 65.9682 265.241 65.9142 264.893 65.8062C264.545 65.6922 264.248 65.5272 264.002 65.3112C263.762 65.0952 263.576 64.8282 263.444 64.5102C263.312 64.1862 263.246 63.8142 263.246 63.3942C263.246 63.0582 263.33 62.7192 263.498 62.3772C263.666 62.0292 263.957 61.7142 264.371 61.4322C264.785 61.1442 265.343 60.9042 266.045 60.7122C266.747 60.5202 267.632 60.4122 268.7 60.3882V59.9922C268.7 59.4462 268.586 59.0532 268.358 58.8132C268.136 58.5672 267.818 58.4442 267.404 58.4442C267.074 58.4442 266.804 58.4802 266.594 58.5522C266.384 58.6242 266.195 58.7052 266.027 58.7952C265.865 58.8852 265.706 58.9662 265.55 59.0382C265.394 59.1102 265.208 59.1462 264.992 59.1462C264.8 59.1462 264.638 59.0982 264.506 59.0022C264.374 58.9062 264.266 58.7922 264.182 58.6602L263.678 57.7872ZM275.812 57.9312C276.1 57.4272 276.43 57.0312 276.802 56.7432C277.18 56.4552 277.612 56.3112 278.098 56.3112C278.518 56.3112 278.86 56.4102 279.124 56.6082L278.944 58.6602C278.914 58.7922 278.863 58.8822 278.791 58.9302C278.725 58.9782 278.632 59.0022 278.512 59.0022C278.464 59.0022 278.401 58.9992 278.323 58.9932C278.245 58.9872 278.164 58.9812 278.08 58.9752C277.996 58.9632 277.909 58.9542 277.819 58.9482C277.735 58.9362 277.657 58.9302 277.585 58.9302C277.177 58.9302 276.85 59.0382 276.604 59.2542C276.364 59.4702 276.16 59.7702 275.992 60.1542V65.8242H273.202V56.4912H274.858C274.996 56.4912 275.11 56.5032 275.2 56.5272C275.296 56.5512 275.374 56.5902 275.434 56.6442C275.5 56.6922 275.548 56.7582 275.578 56.8422C275.614 56.9262 275.644 57.0282 275.668 57.1482L275.812 57.9312ZM283.414 65.9682C282.97 65.9682 282.577 65.9052 282.235 65.7792C281.899 65.6472 281.614 65.4642 281.38 65.2302C281.152 64.9902 280.978 64.7022 280.858 64.3662C280.738 64.0302 280.678 63.6552 280.678 63.2412V58.4172H279.886C279.742 58.4172 279.619 58.3722 279.517 58.2822C279.415 58.1862 279.364 58.0482 279.364 57.8682V56.7792L280.849 56.4912L281.398 54.2142C281.47 53.9262 281.674 53.7822 282.01 53.7822H283.468V56.5092H285.781V58.4172H283.468V63.0522C283.468 63.2682 283.519 63.4482 283.621 63.5922C283.729 63.7302 283.882 63.7992 284.08 63.7992C284.182 63.7992 284.266 63.7902 284.332 63.7722C284.404 63.7482 284.464 63.7242 284.512 63.7002C284.566 63.6702 284.614 63.6462 284.656 63.6282C284.704 63.6042 284.758 63.5922 284.818 63.5922C284.902 63.5922 284.968 63.6132 285.016 63.6552C285.07 63.6912 285.124 63.7512 285.178 63.8352L286.024 65.1582C285.664 65.4282 285.259 65.6322 284.809 65.7702C284.359 65.9022 283.894 65.9682 283.414 65.9682ZM298.718 55.3752C298.628 55.5192 298.532 55.6272 298.43 55.6992C298.334 55.7712 298.208 55.8072 298.052 55.8072C297.914 55.8072 297.764 55.7652 297.602 55.6812C297.446 55.5912 297.266 55.4922 297.062 55.3842C296.864 55.2762 296.636 55.1802 296.378 55.0962C296.12 55.0062 295.826 54.9612 295.496 54.9612C294.926 54.9612 294.5 55.0842 294.218 55.3302C293.942 55.5702 293.804 55.8972 293.804 56.3112C293.804 56.5752 293.888 56.7942 294.056 56.9682C294.224 57.1422 294.443 57.2922 294.713 57.4182C294.989 57.5442 295.301 57.6612 295.649 57.7692C296.003 57.8712 296.363 57.9882 296.729 58.1202C297.095 58.2462 297.452 58.3962 297.8 58.5702C298.154 58.7442 298.466 58.9662 298.736 59.2362C299.012 59.5062 299.234 59.8362 299.402 60.2262C299.57 60.6102 299.654 61.0752 299.654 61.6212C299.654 62.2272 299.549 62.7942 299.339 63.3222C299.129 63.8502 298.823 64.3122 298.421 64.7082C298.025 65.0982 297.533 65.4072 296.945 65.6352C296.363 65.8572 295.7 65.9682 294.956 65.9682C294.548 65.9682 294.131 65.9262 293.705 65.8422C293.285 65.7582 292.877 65.6412 292.481 65.4912C292.085 65.3352 291.713 65.1522 291.365 64.9422C291.017 64.7322 290.714 64.4982 290.456 64.2402L291.356 62.8182C291.428 62.7162 291.521 62.6322 291.635 62.5662C291.755 62.4942 291.884 62.4582 292.022 62.4582C292.202 62.4582 292.382 62.5152 292.562 62.6292C292.748 62.7432 292.955 62.8692 293.183 63.0072C293.417 63.1452 293.684 63.2712 293.984 63.3852C294.284 63.4992 294.638 63.5562 295.046 63.5562C295.598 63.5562 296.027 63.4362 296.333 63.1962C296.639 62.9502 296.792 62.5632 296.792 62.0352C296.792 61.7292 296.708 61.4802 296.54 61.2882C296.372 61.0962 296.15 60.9372 295.874 60.8112C295.604 60.6852 295.295 60.5742 294.947 60.4782C294.599 60.3822 294.242 60.2772 293.876 60.1632C293.51 60.0432 293.153 59.8992 292.805 59.7312C292.457 59.5572 292.145 59.3322 291.869 59.0562C291.599 58.7742 291.38 58.4262 291.212 58.0122C291.044 57.5922 290.96 57.0762 290.96 56.4642C290.96 55.9722 291.059 55.4922 291.257 55.0242C291.455 54.5562 291.746 54.1392 292.13 53.7732C292.514 53.4072 292.985 53.1162 293.543 52.9002C294.101 52.6782 294.74 52.5672 295.46 52.5672C295.862 52.5672 296.252 52.6002 296.63 52.6662C297.014 52.7262 297.377 52.8192 297.719 52.9452C298.061 53.0652 298.379 53.2122 298.673 53.3862C298.973 53.5542 299.24 53.7462 299.474 53.9622L298.718 55.3752ZM303.969 56.4912V65.8242H301.179V56.4912H303.969ZM304.257 53.9352C304.257 54.1572 304.212 54.3672 304.122 54.5652C304.032 54.7572 303.909 54.9282 303.753 55.0782C303.597 55.2222 303.414 55.3392 303.204 55.4292C303 55.5132 302.781 55.5552 302.547 55.5552C302.319 55.5552 302.106 55.5132 301.908 55.4292C301.71 55.3392 301.533 55.2222 301.377 55.0782C301.227 54.9282 301.107 54.7572 301.017 54.5652C300.933 54.3672 300.891 54.1572 300.891 53.9352C300.891 53.7072 300.933 53.4942 301.017 53.2962C301.107 53.0982 301.227 52.9242 301.377 52.7742C301.533 52.6242 301.71 52.5072 301.908 52.4232C302.106 52.3392 302.319 52.2972 302.547 52.2972C302.781 52.2972 303 52.3392 303.204 52.4232C303.414 52.5072 303.597 52.6242 303.753 52.7742C303.909 52.9242 304.032 53.0982 304.122 53.2962C304.212 53.4942 304.257 53.7072 304.257 53.9352ZM305.915 65.8242V56.4912H307.643C307.991 56.4912 308.219 56.6472 308.327 56.9592L308.48 57.4632C308.636 57.3012 308.798 57.1542 308.966 57.0222C309.134 56.8842 309.314 56.7672 309.506 56.6712C309.704 56.5692 309.914 56.4912 310.136 56.4372C310.364 56.3772 310.613 56.3472 310.883 56.3472C311.447 56.3472 311.912 56.4942 312.278 56.7882C312.65 57.0762 312.932 57.4632 313.124 57.9492C313.28 57.6612 313.469 57.4152 313.691 57.2112C313.919 57.0072 314.162 56.8422 314.42 56.7162C314.684 56.5902 314.96 56.4972 315.248 56.4372C315.542 56.3772 315.833 56.3472 316.121 56.3472C316.655 56.3472 317.129 56.4282 317.543 56.5902C317.957 56.7462 318.302 56.9772 318.578 57.2832C318.86 57.5832 319.073 57.9552 319.217 58.3992C319.361 58.8372 319.433 59.3352 319.433 59.8932V65.8242H316.643V59.8932C316.643 58.9272 316.229 58.4442 315.401 58.4442C315.023 58.4442 314.708 58.5702 314.456 58.8222C314.21 59.0682 314.087 59.4252 314.087 59.8932V65.8242H311.297V59.8932C311.297 59.3592 311.192 58.9842 310.982 58.7682C310.772 58.5522 310.463 58.4442 310.055 58.4442C309.803 58.4442 309.563 58.5012 309.335 58.6152C309.113 58.7292 308.903 58.8822 308.705 59.0742V65.8242H305.915ZM329.595 56.4912V65.8242H327.867C327.519 65.8242 327.291 65.6682 327.183 65.3562L327.021 64.8162C326.841 64.9902 326.655 65.1492 326.463 65.2932C326.271 65.4312 326.064 65.5512 325.842 65.6532C325.626 65.7492 325.389 65.8242 325.131 65.8782C324.879 65.9382 324.603 65.9682 324.303 65.9682C323.793 65.9682 323.34 65.8812 322.944 65.7072C322.554 65.5272 322.224 65.2782 321.954 64.9602C321.684 64.6422 321.48 64.2672 321.342 63.8352C321.204 63.4032 321.135 62.9292 321.135 62.4132V56.4912H323.925V62.4132C323.925 62.8752 324.03 63.2322 324.24 63.4842C324.45 63.7362 324.759 63.8622 325.167 63.8622C325.473 63.8622 325.758 63.7992 326.022 63.6732C326.292 63.5412 326.553 63.3642 326.805 63.1422V56.4912H329.595ZM334.281 52.3512V65.8242H331.491V52.3512H334.281ZM340.982 62.0262C340.424 62.0502 339.965 62.0982 339.605 62.1702C339.245 62.2422 338.96 62.3322 338.75 62.4402C338.54 62.5482 338.393 62.6712 338.309 62.8092C338.231 62.9472 338.192 63.0972 338.192 63.2592C338.192 63.5772 338.279 63.8022 338.453 63.9342C338.627 64.0602 338.882 64.1232 339.218 64.1232C339.578 64.1232 339.893 64.0602 340.163 63.9342C340.433 63.8082 340.706 63.6042 340.982 63.3222V62.0262ZM335.96 57.7872C336.524 57.2892 337.148 56.9202 337.832 56.6802C338.522 56.4342 339.26 56.3112 340.046 56.3112C340.61 56.3112 341.117 56.4042 341.567 56.5902C342.023 56.7702 342.407 57.0252 342.719 57.3552C343.037 57.6792 343.28 58.0662 343.448 58.5162C343.616 58.9662 343.7 59.4582 343.7 59.9922V65.8242H342.422C342.158 65.8242 341.957 65.7882 341.819 65.7162C341.687 65.6442 341.576 65.4942 341.486 65.2662L341.288 64.7532C341.054 64.9512 340.829 65.1252 340.613 65.2752C340.397 65.4252 340.172 65.5542 339.938 65.6622C339.71 65.7642 339.464 65.8392 339.2 65.8872C338.942 65.9412 338.654 65.9682 338.336 65.9682C337.91 65.9682 337.523 65.9142 337.175 65.8062C336.827 65.6922 336.53 65.5272 336.284 65.3112C336.044 65.0952 335.858 64.8282 335.726 64.5102C335.594 64.1862 335.528 63.8142 335.528 63.3942C335.528 63.0582 335.612 62.7192 335.78 62.3772C335.948 62.0292 336.239 61.7142 336.653 61.4322C337.067 61.1442 337.625 60.9042 338.327 60.7122C339.029 60.5202 339.914 60.4122 340.982 60.3882V59.9922C340.982 59.4462 340.868 59.0532 340.64 58.8132C340.418 58.5672 340.1 58.4442 339.686 58.4442C339.356 58.4442 339.086 58.4802 338.876 58.5522C338.666 58.6242 338.477 58.7052 338.309 58.7952C338.147 58.8852 337.988 58.9662 337.832 59.0382C337.676 59.1102 337.49 59.1462 337.274 59.1462C337.082 59.1462 336.92 59.0982 336.788 59.0022C336.656 58.9062 336.548 58.7922 336.464 58.6602L335.96 57.7872ZM355.431 65.8242H352.641V58.4172H348.735V63.0522C348.735 63.2682 348.786 63.4482 348.888 63.5922C348.996 63.7302 349.149 63.7992 349.347 63.7992C349.449 63.7992 349.533 63.7902 349.599 63.7722C349.671 63.7482 349.731 63.7242 349.779 63.7002C349.833 63.6702 349.881 63.6462 349.923 63.6282C349.971 63.6042 350.025 63.5922 350.085 63.5922C350.169 63.5922 350.235 63.6132 350.283 63.6552C350.337 63.6912 350.391 63.7512 350.445 63.8352L351.291 65.1582C350.931 65.4282 350.526 65.6322 350.076 65.7702C349.626 65.9022 349.161 65.9682 348.681 65.9682C348.237 65.9682 347.844 65.9052 347.502 65.7792C347.166 65.6472 346.881 65.4642 346.647 65.2302C346.419 64.9902 346.245 64.7022 346.125 64.3662C346.005 64.0302 345.945 63.6552 345.945 63.2412V58.4172H345.153C345.009 58.4172 344.886 58.3722 344.784 58.2822C344.682 58.1862 344.631 58.0482 344.631 57.8682V56.7792L346.116 56.4822L346.665 54.2142C346.737 53.9262 346.941 53.7822 347.277 53.7822H348.735V56.5092H355.431V65.8242ZM355.818 53.9262C355.818 54.1482 355.773 54.3582 355.683 54.5562C355.593 54.7542 355.47 54.9282 355.314 55.0782C355.158 55.2222 354.975 55.3362 354.765 55.4202C354.561 55.5042 354.342 55.5462 354.108 55.5462C353.88 55.5462 353.667 55.5042 353.469 55.4202C353.271 55.3362 353.094 55.2222 352.938 55.0782C352.788 54.9282 352.668 54.7542 352.578 54.5562C352.494 54.3582 352.452 54.1482 352.452 53.9262C352.452 53.7042 352.494 53.4942 352.578 53.2962C352.668 53.0922 352.788 52.9182 352.938 52.7742C353.094 52.6242 353.271 52.5072 353.469 52.4232C353.667 52.3332 353.88 52.2882 354.108 52.2882C354.342 52.2882 354.561 52.3332 354.765 52.4232C354.975 52.5072 355.158 52.6242 355.314 52.7742C355.47 52.9182 355.593 53.0922 355.683 53.2962C355.773 53.4942 355.818 53.7042 355.818 53.9262ZM361.685 56.3472C362.393 56.3472 363.038 56.4582 363.62 56.6802C364.202 56.9022 364.7 57.2202 365.114 57.6342C365.534 58.0482 365.858 58.5522 366.086 59.1462C366.32 59.7342 366.437 60.3972 366.437 61.1352C366.437 61.8792 366.32 62.5512 366.086 63.1512C365.858 63.7452 365.534 64.2522 365.114 64.6722C364.7 65.0862 364.202 65.4072 363.62 65.6352C363.038 65.8572 362.393 65.9682 361.685 65.9682C360.971 65.9682 360.32 65.8572 359.732 65.6352C359.15 65.4072 358.646 65.0862 358.22 64.6722C357.8 64.2522 357.473 63.7452 357.239 63.1512C357.011 62.5512 356.897 61.8792 356.897 61.1352C356.897 60.3972 357.011 59.7342 357.239 59.1462C357.473 58.5522 357.8 58.0482 358.22 57.6342C358.646 57.2202 359.15 56.9022 359.732 56.6802C360.32 56.4582 360.971 56.3472 361.685 56.3472ZM361.685 63.8982C362.327 63.8982 362.798 63.6732 363.098 63.2232C363.404 62.7672 363.557 62.0772 363.557 61.1532C363.557 60.2292 363.404 59.5422 363.098 59.0922C362.798 58.6422 362.327 58.4172 361.685 58.4172C361.025 58.4172 360.542 58.6422 360.236 59.0922C359.93 59.5422 359.777 60.2292 359.777 61.1532C359.777 62.0772 359.93 62.7672 360.236 63.2232C360.542 63.6732 361.025 63.8982 361.685 63.8982ZM370.416 57.4992C370.596 57.3312 370.782 57.1752 370.974 57.0312C371.166 56.8872 371.37 56.7672 371.586 56.6712C371.808 56.5692 372.045 56.4912 372.297 56.4372C372.555 56.3772 372.834 56.3472 373.134 56.3472C373.644 56.3472 374.094 56.4372 374.484 56.6172C374.88 56.7912 375.213 57.0372 375.483 57.3552C375.753 57.6672 375.957 58.0422 376.095 58.4802C376.233 58.9122 376.302 59.3832 376.302 59.8932V65.8242H373.512V59.8932C373.512 59.4372 373.407 59.0832 373.197 58.8312C372.987 58.5732 372.678 58.4442 372.27 58.4442C371.964 58.4442 371.676 58.5102 371.406 58.6422C371.142 58.7682 370.884 58.9422 370.632 59.1642V65.8242H367.842V56.4912H369.57C369.918 56.4912 370.146 56.6472 370.254 56.9592L370.416 57.4992ZM380.006 52.7112V55.2852L379.754 56.7072C379.7 57.0312 379.604 57.2802 379.466 57.4542C379.328 57.6222 379.1 57.7062 378.782 57.7062C378.512 57.7062 378.302 57.6222 378.152 57.4542C378.002 57.2802 377.894 57.0312 377.828 56.7072L377.576 55.2852V52.7112H380.006ZM383.606 52.7112V55.2852L383.354 56.7072C383.3 57.0312 383.204 57.2802 383.066 57.4542C382.928 57.6222 382.7 57.7062 382.382 57.7062C382.112 57.7062 381.902 57.6222 381.752 57.4542C381.602 57.2802 381.494 57.0312 381.428 56.7072L381.176 55.2852V52.7112H383.606ZM395.168 61.7202C394.43 61.7442 393.8 61.8042 393.278 61.9002C392.762 61.9902 392.339 62.1102 392.009 62.2602C391.685 62.4102 391.448 62.5872 391.298 62.7912C391.154 62.9952 391.082 63.2232 391.082 63.4752C391.082 63.7152 391.121 63.9222 391.199 64.0962C391.277 64.2702 391.382 64.4142 391.514 64.5282C391.652 64.6362 391.811 64.7172 391.991 64.7712C392.177 64.8192 392.375 64.8432 392.585 64.8432C392.867 64.8432 393.125 64.8162 393.359 64.7622C393.593 64.7022 393.812 64.6182 394.016 64.5102C394.226 64.4022 394.424 64.2732 394.61 64.1232C394.802 63.9732 394.988 63.8022 395.168 63.6102V61.7202ZM389.993 57.9942C390.497 57.5082 391.04 57.1452 391.622 56.9052C392.204 56.6652 392.849 56.5452 393.557 56.5452C394.067 56.5452 394.52 56.6292 394.916 56.7972C395.312 56.9652 395.645 57.1992 395.915 57.4992C396.185 57.7992 396.389 58.1622 396.527 58.5882C396.665 59.0142 396.734 59.4822 396.734 59.9922V65.8242H396.023C395.867 65.8242 395.747 65.8002 395.663 65.7522C395.579 65.6982 395.513 65.5962 395.465 65.4462L395.285 64.5822C395.045 64.8042 394.811 65.0022 394.583 65.1762C394.355 65.3442 394.115 65.4882 393.863 65.6082C393.611 65.7222 393.341 65.8092 393.053 65.8692C392.771 65.9352 392.456 65.9682 392.108 65.9682C391.754 65.9682 391.421 65.9202 391.109 65.8242C390.797 65.7222 390.524 65.5722 390.29 65.3742C390.062 65.1762 389.879 64.9272 389.741 64.6272C389.609 64.3212 389.543 63.9612 389.543 63.5472C389.543 63.1872 389.642 62.8422 389.84 62.5122C390.038 62.1762 390.359 61.8792 390.803 61.6212C391.247 61.3632 391.826 61.1532 392.54 60.9912C393.254 60.8232 394.13 60.7272 395.168 60.7032V59.9922C395.168 59.2842 395.015 58.7502 394.709 58.3902C394.403 58.0242 393.956 57.8412 393.368 57.8412C392.972 57.8412 392.639 57.8922 392.369 57.9942C392.105 58.0902 391.874 58.2012 391.676 58.3272C391.484 58.4472 391.316 58.5582 391.172 58.6602C391.034 58.7562 390.896 58.8042 390.758 58.8042C390.65 58.8042 390.557 58.7772 390.479 58.7232C390.401 58.6632 390.335 58.5912 390.281 58.5072L389.993 57.9942ZM400.686 58.0302C400.884 57.8082 401.094 57.6072 401.316 57.4272C401.538 57.2472 401.772 57.0942 402.018 56.9682C402.27 56.8362 402.534 56.7372 402.81 56.6712C403.092 56.5992 403.395 56.5632 403.719 56.5632C404.217 56.5632 404.655 56.6472 405.033 56.8152C405.417 56.9772 405.735 57.2112 405.987 57.5172C406.245 57.8172 406.44 58.1802 406.572 58.6062C406.704 59.0322 406.77 59.5032 406.77 60.0192V65.8242H405.159V60.0192C405.159 59.3292 405 58.7952 404.682 58.4172C404.37 58.0332 403.893 57.8412 403.251 57.8412C402.777 57.8412 402.333 57.9552 401.919 58.1832C401.511 58.4112 401.133 58.7202 400.785 59.1102V65.8242H399.174V56.7072H400.137C400.365 56.7072 400.506 56.8182 400.56 57.0402L400.686 58.0302ZM415.151 58.8762C414.851 58.4742 414.527 58.1952 414.179 58.0392C413.831 57.8772 413.441 57.7962 413.009 57.7962C412.163 57.7962 411.512 58.0992 411.056 58.7052C410.6 59.3112 410.372 60.1752 410.372 61.2972C410.372 61.8912 410.423 62.4012 410.525 62.8272C410.627 63.2472 410.777 63.5952 410.975 63.8712C411.173 64.1412 411.416 64.3392 411.704 64.4652C411.992 64.5912 412.319 64.6542 412.685 64.6542C413.213 64.6542 413.672 64.5342 414.062 64.2942C414.458 64.0542 414.821 63.7152 415.151 63.2772V58.8762ZM416.753 52.5672V65.8242H415.799C415.571 65.8242 415.427 65.7132 415.367 65.4912L415.223 64.3842C414.833 64.8522 414.389 65.2302 413.891 65.5182C413.393 65.8062 412.817 65.9502 412.163 65.9502C411.641 65.9502 411.167 65.8512 410.741 65.6532C410.315 65.4492 409.952 65.1522 409.652 64.7622C409.352 64.3722 409.121 63.8862 408.959 63.3042C408.797 62.7222 408.716 62.0532 408.716 61.2972C408.716 60.6252 408.806 60.0012 408.986 59.4252C409.166 58.8432 409.424 58.3392 409.76 57.9132C410.096 57.4872 410.507 57.1542 410.993 56.9142C411.485 56.6682 412.037 56.5452 412.649 56.5452C413.207 56.5452 413.684 56.6412 414.08 56.8332C414.482 57.0192 414.839 57.2802 415.151 57.6162V52.5672H416.753ZM436.093 56.7072L433.141 65.8242H431.872C431.716 65.8242 431.608 65.7222 431.548 65.5182L429.532 59.3352C429.484 59.1972 429.445 59.0592 429.415 58.9212C429.385 58.7772 429.355 58.6362 429.325 58.4982C429.295 58.6362 429.265 58.7772 429.235 58.9212C429.205 59.0592 429.166 59.2002 429.118 59.3442L427.066 65.5182C427.012 65.7222 426.892 65.8242 426.706 65.8242H425.5L422.548 56.7072H423.808C423.934 56.7072 424.039 56.7402 424.123 56.8062C424.213 56.8722 424.273 56.9502 424.303 57.0402L426.049 62.9082C426.151 63.3402 426.232 63.7482 426.292 64.1322C426.346 63.9342 426.4 63.7332 426.454 63.5292C426.514 63.3252 426.577 63.1182 426.643 62.9082L428.569 57.0042C428.599 56.9142 428.65 56.8392 428.722 56.7792C428.8 56.7192 428.893 56.6892 429.001 56.6892H429.703C429.823 56.6892 429.922 56.7192 430 56.7792C430.078 56.8392 430.132 56.9142 430.162 57.0042L432.043 62.9082C432.109 63.1182 432.169 63.3252 432.223 63.5292C432.277 63.7332 432.328 63.9342 432.376 64.1322C432.406 63.9342 432.442 63.7362 432.484 63.5382C432.532 63.3342 432.583 63.1242 432.637 62.9082L434.419 57.0402C434.449 56.9442 434.506 56.8662 434.59 56.8062C434.674 56.7402 434.773 56.7072 434.887 56.7072H436.093ZM442.488 61.7202C441.75 61.7442 441.12 61.8042 440.598 61.9002C440.082 61.9902 439.659 62.1102 439.329 62.2602C439.005 62.4102 438.768 62.5872 438.618 62.7912C438.474 62.9952 438.402 63.2232 438.402 63.4752C438.402 63.7152 438.441 63.9222 438.519 64.0962C438.597 64.2702 438.702 64.4142 438.834 64.5282C438.972 64.6362 439.131 64.7172 439.311 64.7712C439.497 64.8192 439.695 64.8432 439.905 64.8432C440.187 64.8432 440.445 64.8162 440.679 64.7622C440.913 64.7022 441.132 64.6182 441.336 64.5102C441.546 64.4022 441.744 64.2732 441.93 64.1232C442.122 63.9732 442.308 63.8022 442.488 63.6102V61.7202ZM437.313 57.9942C437.817 57.5082 438.36 57.1452 438.942 56.9052C439.524 56.6652 440.169 56.5452 440.877 56.5452C441.387 56.5452 441.84 56.6292 442.236 56.7972C442.632 56.9652 442.965 57.1992 443.235 57.4992C443.505 57.7992 443.709 58.1622 443.847 58.5882C443.985 59.0142 444.054 59.4822 444.054 59.9922V65.8242H443.343C443.187 65.8242 443.067 65.8002 442.983 65.7522C442.899 65.6982 442.833 65.5962 442.785 65.4462L442.605 64.5822C442.365 64.8042 442.131 65.0022 441.903 65.1762C441.675 65.3442 441.435 65.4882 441.183 65.6082C440.931 65.7222 440.661 65.8092 440.373 65.8692C440.091 65.9352 439.776 65.9682 439.428 65.9682C439.074 65.9682 438.741 65.9202 438.429 65.8242C438.117 65.7222 437.844 65.5722 437.61 65.3742C437.382 65.1762 437.199 64.9272 437.061 64.6272C436.929 64.3212 436.863 63.9612 436.863 63.5472C436.863 63.1872 436.962 62.8422 437.16 62.5122C437.358 62.1762 437.679 61.8792 438.123 61.6212C438.567 61.3632 439.146 61.1532 439.86 60.9912C440.574 60.8232 441.45 60.7272 442.488 60.7032V59.9922C442.488 59.2842 442.335 58.7502 442.029 58.3902C441.723 58.0242 441.276 57.8412 440.688 57.8412C440.292 57.8412 439.959 57.8922 439.689 57.9942C439.425 58.0902 439.194 58.2012 438.996 58.3272C438.804 58.4472 438.636 58.5582 438.492 58.6602C438.354 58.7562 438.216 58.8042 438.078 58.8042C437.97 58.8042 437.877 58.7772 437.799 58.7232C437.721 58.6632 437.655 58.5912 437.601 58.5072L437.313 57.9942ZM449.171 65.9682C448.451 65.9682 447.896 65.7672 447.506 65.3652C447.122 64.9632 446.93 64.3842 446.93 63.6282V58.0482H445.832C445.736 58.0482 445.655 58.0212 445.589 57.9672C445.523 57.9072 445.49 57.8172 445.49 57.6972V57.0582L446.984 56.8692L447.353 54.0522C447.371 53.9622 447.41 53.8902 447.47 53.8362C447.536 53.7762 447.62 53.7462 447.722 53.7462H448.532V56.8872H451.169V58.0482H448.532V63.5202C448.532 63.9042 448.625 64.1892 448.811 64.3752C448.997 64.5612 449.237 64.6542 449.531 64.6542C449.699 64.6542 449.843 64.6332 449.963 64.5912C450.089 64.5432 450.197 64.4922 450.287 64.4382C450.377 64.3842 450.452 64.3362 450.512 64.2942C450.578 64.2462 450.635 64.2222 450.683 64.2222C450.767 64.2222 450.842 64.2732 450.908 64.3752L451.376 65.1402C451.1 65.3982 450.767 65.6022 450.377 65.7522C449.987 65.8962 449.585 65.9682 449.171 65.9682ZM459.115 58.3272C459.067 58.3932 459.019 58.4442 458.971 58.4802C458.923 58.5162 458.857 58.5342 458.773 58.5342C458.683 58.5342 458.584 58.4982 458.476 58.4262C458.368 58.3482 458.233 58.2642 458.071 58.1742C457.915 58.0842 457.72 58.0032 457.486 57.9312C457.258 57.8532 456.976 57.8142 456.64 57.8142C456.19 57.8142 455.794 57.8952 455.452 58.0572C455.11 58.2132 454.822 58.4412 454.588 58.7412C454.36 59.0412 454.186 59.4042 454.066 59.8302C453.952 60.2562 453.895 60.7332 453.895 61.2612C453.895 61.8132 453.958 62.3052 454.084 62.7372C454.21 63.1632 454.387 63.5232 454.615 63.8172C454.849 64.1052 455.128 64.3272 455.452 64.4832C455.782 64.6332 456.151 64.7082 456.559 64.7082C456.949 64.7082 457.27 64.6632 457.522 64.5732C457.774 64.4772 457.981 64.3722 458.143 64.2582C458.311 64.1442 458.449 64.0422 458.557 63.9522C458.671 63.8562 458.782 63.8082 458.89 63.8082C459.022 63.8082 459.124 63.8592 459.196 63.9612L459.646 64.5462C459.448 64.7922 459.223 65.0022 458.971 65.1762C458.719 65.3502 458.446 65.4972 458.152 65.6172C457.864 65.7312 457.561 65.8152 457.243 65.8692C456.925 65.9232 456.601 65.9502 456.271 65.9502C455.701 65.9502 455.17 65.8452 454.678 65.6352C454.192 65.4252 453.769 65.1222 453.409 64.7262C453.049 64.3242 452.767 63.8322 452.563 63.2502C452.359 62.6682 452.257 62.0052 452.257 61.2612C452.257 60.5832 452.35 59.9562 452.536 59.3802C452.728 58.8042 453.004 58.3092 453.364 57.8952C453.73 57.4752 454.177 57.1482 454.705 56.9142C455.239 56.6802 455.851 56.5632 456.541 56.5632C457.183 56.5632 457.747 56.6682 458.233 56.8782C458.725 57.0822 459.16 57.3732 459.538 57.7512L459.115 58.3272ZM462.977 57.9222C463.367 57.5082 463.799 57.1782 464.273 56.9322C464.747 56.6862 465.293 56.5632 465.911 56.5632C466.409 56.5632 466.847 56.6472 467.225 56.8152C467.609 56.9772 467.927 57.2112 468.179 57.5172C468.437 57.8172 468.632 58.1802 468.764 58.6062C468.896 59.0322 468.962 59.5032 468.962 60.0192V65.8242H467.351V60.0192C467.351 59.3292 467.192 58.7952 466.874 58.4172C466.562 58.0332 466.085 57.8412 465.443 57.8412C464.969 57.8412 464.525 57.9552 464.111 58.1832C463.703 58.4112 463.325 58.7202 462.977 59.1102V65.8242H461.366V52.5672H462.977V57.9222ZM483.417 56.7072L478.332 68.5152C478.278 68.6352 478.209 68.7312 478.125 68.8032C478.047 68.8752 477.924 68.9112 477.756 68.9112H476.568L478.233 65.2932L474.471 56.7072H475.857C475.995 56.7072 476.103 56.7432 476.181 56.8152C476.265 56.8812 476.322 56.9562 476.352 57.0402L478.791 62.7822C478.887 63.0342 478.968 63.2982 479.034 63.5742C479.118 63.2922 479.208 63.0252 479.304 62.7732L481.671 57.0402C481.707 56.9442 481.767 56.8662 481.851 56.8062C481.941 56.7402 482.04 56.7072 482.148 56.7072H483.417ZM488.429 56.5632C489.095 56.5632 489.695 56.6742 490.229 56.8962C490.763 57.1182 491.219 57.4332 491.597 57.8412C491.975 58.2492 492.263 58.7442 492.461 59.3262C492.665 59.9022 492.767 60.5472 492.767 61.2612C492.767 61.9812 492.665 62.6292 492.461 63.2052C492.263 63.7812 491.975 64.2732 491.597 64.6812C491.219 65.0892 490.763 65.4042 490.229 65.6262C489.695 65.8422 489.095 65.9502 488.429 65.9502C487.757 65.9502 487.151 65.8422 486.611 65.6262C486.077 65.4042 485.621 65.0892 485.243 64.6812C484.865 64.2732 484.574 63.7812 484.37 63.2052C484.172 62.6292 484.073 61.9812 484.073 61.2612C484.073 60.5472 484.172 59.9022 484.37 59.3262C484.574 58.7442 484.865 58.2492 485.243 57.8412C485.621 57.4332 486.077 57.1182 486.611 56.8962C487.151 56.6742 487.757 56.5632 488.429 56.5632ZM488.429 64.6992C489.329 64.6992 490.001 64.3992 490.445 63.7992C490.889 63.1932 491.111 62.3502 491.111 61.2702C491.111 60.1842 490.889 59.3382 490.445 58.7322C490.001 58.1262 489.329 57.8232 488.429 57.8232C487.973 57.8232 487.574 57.9012 487.232 58.0572C486.896 58.2132 486.614 58.4382 486.386 58.7322C486.164 59.0262 485.996 59.3892 485.882 59.8212C485.774 60.2472 485.72 60.7302 485.72 61.2702C485.72 62.3502 485.942 63.1932 486.386 63.7992C486.836 64.3992 487.517 64.6992 488.429 64.6992ZM502.296 56.7072V65.8242H501.342C501.114 65.8242 500.97 65.7132 500.91 65.4912L500.784 64.5102C500.388 64.9482 499.944 65.3022 499.452 65.5722C498.96 65.8362 498.396 65.9682 497.76 65.9682C497.262 65.9682 496.821 65.8872 496.437 65.7252C496.059 65.5572 495.741 65.3232 495.483 65.0232C495.225 64.7232 495.03 64.3602 494.898 63.9342C494.772 63.5082 494.709 63.0372 494.709 62.5212V56.7072H496.311V62.5212C496.311 63.2112 496.467 63.7452 496.779 64.1232C497.097 64.5012 497.58 64.6902 498.228 64.6902C498.702 64.6902 499.143 64.5792 499.551 64.3572C499.965 64.1292 500.346 63.8172 500.694 63.4212V56.7072H502.296ZM506.357 58.5342C506.645 57.9102 506.999 57.4242 507.419 57.0762C507.839 56.7222 508.352 56.5452 508.958 56.5452C509.15 56.5452 509.333 56.5662 509.507 56.6082C509.687 56.6502 509.846 56.7162 509.984 56.8062L509.867 58.0032C509.831 58.1532 509.741 58.2282 509.597 58.2282C509.513 58.2282 509.39 58.2102 509.228 58.1742C509.066 58.1382 508.883 58.1202 508.679 58.1202C508.391 58.1202 508.133 58.1622 507.905 58.2462C507.683 58.3302 507.482 58.4562 507.302 58.6242C507.128 58.7862 506.969 58.9902 506.825 59.2362C506.687 59.4762 506.561 59.7522 506.447 60.0642V65.8242H504.836V56.7072H505.754C505.928 56.7072 506.048 56.7402 506.114 56.8062C506.18 56.8722 506.225 56.9862 506.249 57.1482L506.357 58.5342ZM523.307 64.3572V65.8242H515.99V52.9272H517.727V64.3572H523.307ZM533.192 64.4022L533.183 65.8242H525.236V52.9272H533.183V54.3492H526.982V58.6332H532.004V60.0012H526.982V64.4022H533.192ZM546.803 59.3802C546.803 60.3462 546.65 61.2252 546.344 62.0172C546.038 62.8092 545.606 63.4872 545.048 64.0512C544.49 64.6152 543.818 65.0532 543.032 65.3652C542.252 65.6712 541.388 65.8242 540.44 65.8242H535.625V52.9272H540.44C541.388 52.9272 542.252 53.0832 543.032 53.3952C543.818 53.7012 544.49 54.1392 545.048 54.7092C545.606 55.2732 546.038 55.9512 546.344 56.7432C546.65 57.5352 546.803 58.4142 546.803 59.3802ZM545.012 59.3802C545.012 58.5882 544.904 57.8802 544.688 57.2562C544.472 56.6322 544.166 56.1042 543.77 55.6722C543.374 55.2402 542.894 54.9102 542.33 54.6822C541.766 54.4542 541.136 54.3402 540.44 54.3402H537.371V64.4112H540.44C541.136 64.4112 541.766 64.2972 542.33 64.0692C542.894 63.8412 543.374 63.5142 543.77 63.0882C544.166 62.6562 544.472 62.1282 544.688 61.5042C544.904 60.8802 545.012 60.1722 545.012 59.3802ZM555.201 52.5672V65.8242H553.599V52.5672H555.201ZM559.491 56.7072V65.8242H557.889V56.7072H559.491ZM559.833 53.8452C559.833 54.0012 559.8 54.1482 559.734 54.2862C559.674 54.4182 559.59 54.5382 559.482 54.6462C559.38 54.7482 559.257 54.8292 559.113 54.8892C558.975 54.9492 558.828 54.9792 558.672 54.9792C558.516 54.9792 558.369 54.9492 558.231 54.8892C558.099 54.8292 557.982 54.7482 557.88 54.6462C557.778 54.5382 557.697 54.4182 557.637 54.2862C557.577 54.1482 557.547 54.0012 557.547 53.8452C557.547 53.6892 557.577 53.5422 557.637 53.4042C557.697 53.2602 557.778 53.1372 557.88 53.0352C557.982 52.9272 558.099 52.8432 558.231 52.7832C558.369 52.7232 558.516 52.6932 558.672 52.6932C558.828 52.6932 558.975 52.7232 559.113 52.7832C559.257 52.8432 559.38 52.9272 559.482 53.0352C559.59 53.1372 559.674 53.2602 559.734 53.4042C559.8 53.5422 559.833 53.6892 559.833 53.8452ZM565.3 61.3692C565.624 61.3692 565.909 61.3242 566.155 61.2342C566.401 61.1442 566.608 61.0182 566.776 60.8562C566.944 60.6942 567.07 60.5022 567.154 60.2802C567.238 60.0522 567.28 59.8032 567.28 59.5332C567.28 58.9752 567.109 58.5312 566.767 58.2012C566.431 57.8712 565.942 57.7062 565.3 57.7062C564.652 57.7062 564.157 57.8712 563.815 58.2012C563.479 58.5312 563.311 58.9752 563.311 59.5332C563.311 59.8032 563.353 60.0522 563.437 60.2802C563.527 60.5022 563.656 60.6942 563.824 60.8562C563.992 61.0182 564.199 61.1442 564.445 61.2342C564.691 61.3242 564.976 61.3692 565.3 61.3692ZM568.189 66.3192C568.189 66.0972 568.126 65.9172 568 65.7792C567.874 65.6412 567.703 65.5332 567.487 65.4552C567.277 65.3772 567.031 65.3232 566.749 65.2932C566.467 65.2572 566.167 65.2302 565.849 65.2122C565.537 65.1942 565.219 65.1762 564.895 65.1582C564.571 65.1402 564.259 65.1102 563.959 65.0682C563.623 65.2242 563.347 65.4222 563.131 65.6622C562.921 65.8962 562.816 66.1722 562.816 66.4902C562.816 66.6942 562.867 66.8832 562.969 67.0572C563.077 67.2372 563.239 67.3902 563.455 67.5162C563.671 67.6482 563.941 67.7502 564.265 67.8222C564.595 67.9002 564.982 67.9392 565.426 67.9392C565.858 67.9392 566.245 67.9002 566.587 67.8222C566.929 67.7442 567.217 67.6332 567.451 67.4892C567.691 67.3452 567.874 67.1742 568 66.9762C568.126 66.7782 568.189 66.5592 568.189 66.3192ZM569.818 57.0672V57.6612C569.818 57.8592 569.692 57.9852 569.44 58.0392L568.405 58.1742C568.609 58.5702 568.711 59.0082 568.711 59.4882C568.711 59.9322 568.624 60.3372 568.45 60.7032C568.282 61.0632 568.048 61.3722 567.748 61.6302C567.448 61.8882 567.088 62.0862 566.668 62.2242C566.248 62.3622 565.792 62.4312 565.3 62.4312C564.874 62.4312 564.472 62.3802 564.094 62.2782C563.902 62.3982 563.755 62.5272 563.653 62.6652C563.551 62.7972 563.5 62.9322 563.5 63.0702C563.5 63.2862 563.587 63.4512 563.761 63.5652C563.941 63.6732 564.175 63.7512 564.463 63.7992C564.751 63.8472 565.078 63.8772 565.444 63.8892C565.816 63.9012 566.194 63.9222 566.578 63.9522C566.968 63.9762 567.346 64.0212 567.712 64.0872C568.084 64.1532 568.414 64.2612 568.702 64.4112C568.99 64.5612 569.221 64.7682 569.395 65.0322C569.575 65.2962 569.665 65.6382 569.665 66.0582C569.665 66.4482 569.566 66.8262 569.368 67.1922C569.176 67.5582 568.897 67.8822 568.531 68.1642C568.165 68.4522 567.715 68.6802 567.181 68.8482C566.653 69.0222 566.056 69.1092 565.39 69.1092C564.724 69.1092 564.142 69.0432 563.644 68.9112C563.146 68.7792 562.732 68.6022 562.402 68.3802C562.072 68.1582 561.823 67.9002 561.655 67.6062C561.493 67.3182 561.412 67.0152 561.412 66.6972C561.412 66.2472 561.553 65.8662 561.835 65.5542C562.117 65.2422 562.504 64.9932 562.996 64.8072C562.726 64.6872 562.51 64.5282 562.348 64.3302C562.192 64.1262 562.114 63.8532 562.114 63.5112C562.114 63.3792 562.138 63.2442 562.186 63.1062C562.234 62.9622 562.306 62.8212 562.402 62.6832C562.504 62.5392 562.627 62.4042 562.771 62.2782C562.915 62.1522 563.083 62.0412 563.275 61.9452C562.825 61.6932 562.474 61.3602 562.222 60.9462C561.97 60.5262 561.844 60.0402 561.844 59.4882C561.844 59.0442 561.928 58.6422 562.096 58.2822C562.27 57.9162 562.51 57.6072 562.816 57.3552C563.122 57.0972 563.485 56.8992 563.905 56.7612C564.331 56.6232 564.796 56.5542 565.3 56.5542C565.696 56.5542 566.065 56.5992 566.407 56.6892C566.749 56.7732 567.061 56.8992 567.343 57.0672H569.818ZM573.086 57.9222C573.476 57.5082 573.908 57.1782 574.382 56.9322C574.856 56.6862 575.402 56.5632 576.02 56.5632C576.518 56.5632 576.956 56.6472 577.334 56.8152C577.718 56.9772 578.036 57.2112 578.288 57.5172C578.546 57.8172 578.741 58.1802 578.873 58.6062C579.005 59.0322 579.071 59.5032 579.071 60.0192V65.8242H577.46V60.0192C577.46 59.3292 577.301 58.7952 576.983 58.4172C576.671 58.0332 576.194 57.8412 575.552 57.8412C575.078 57.8412 574.634 57.9552 574.22 58.1832C573.812 58.4112 573.434 58.7202 573.086 59.1102V65.8242H571.475V52.5672H573.086V57.9222ZM584.188 65.9682C583.468 65.9682 582.913 65.7672 582.523 65.3652C582.139 64.9632 581.947 64.3842 581.947 63.6282V58.0482H580.849C580.753 58.0482 580.672 58.0212 580.606 57.9672C580.54 57.9072 580.507 57.8172 580.507 57.6972V57.0582L582.001 56.8692L582.37 54.0522C582.388 53.9622 582.427 53.8902 582.487 53.8362C582.553 53.7762 582.637 53.7462 582.739 53.7462H583.549V56.8872H586.186V58.0482H583.549V63.5202C583.549 63.9042 583.642 64.1892 583.828 64.3752C584.014 64.5612 584.254 64.6542 584.548 64.6542C584.716 64.6542 584.86 64.6332 584.98 64.5912C585.106 64.5432 585.214 64.4922 585.304 64.4382C585.394 64.3842 585.469 64.3362 585.529 64.2942C585.595 64.2462 585.652 64.2222 585.7 64.2222C585.784 64.2222 585.859 64.2732 585.925 64.3752L586.393 65.1402C586.117 65.3982 585.784 65.6022 585.394 65.7522C585.004 65.8962 584.602 65.9682 584.188 65.9682ZM599.943 56.7072V65.8242H598.989C598.761 65.8242 598.617 65.7132 598.557 65.4912L598.431 64.5102C598.035 64.9482 597.591 65.3022 597.099 65.5722C596.607 65.8362 596.043 65.9682 595.407 65.9682C594.909 65.9682 594.468 65.8872 594.084 65.7252C593.706 65.5572 593.388 65.3232 593.13 65.0232C592.872 64.7232 592.677 64.3602 592.545 63.9342C592.419 63.5082 592.356 63.0372 592.356 62.5212V56.7072H593.958V62.5212C593.958 63.2112 594.114 63.7452 594.426 64.1232C594.744 64.5012 595.227 64.6902 595.875 64.6902C596.349 64.6902 596.79 64.5792 597.198 64.3572C597.612 64.1292 597.993 63.8172 598.341 63.4212V56.7072H599.943ZM604.094 63.6282C604.388 64.0242 604.709 64.3032 605.057 64.4652C605.405 64.6272 605.795 64.7082 606.227 64.7082C607.079 64.7082 607.733 64.4052 608.189 63.7992C608.645 63.1932 608.873 62.3292 608.873 61.2072C608.873 60.6132 608.819 60.1032 608.711 59.6772C608.609 59.2512 608.459 58.9032 608.261 58.6332C608.063 58.3572 607.82 58.1562 607.532 58.0302C607.244 57.9042 606.917 57.8412 606.551 57.8412C606.029 57.8412 605.57 57.9612 605.174 58.2012C604.784 58.4412 604.424 58.7802 604.094 59.2182V63.6282ZM604.013 58.1202C604.397 57.6462 604.841 57.2652 605.345 56.9772C605.849 56.6892 606.425 56.5452 607.073 56.5452C607.601 56.5452 608.078 56.6472 608.504 56.8512C608.93 57.0492 609.293 57.3462 609.593 57.7422C609.893 58.1322 610.124 58.6182 610.286 59.2002C610.448 59.7822 610.529 60.4512 610.529 61.2072C610.529 61.8792 610.439 62.5062 610.259 63.0882C610.079 63.6642 609.818 64.1652 609.476 64.5912C609.14 65.0112 608.726 65.3442 608.234 65.5902C607.748 65.8302 607.199 65.9502 606.587 65.9502C606.029 65.9502 605.549 65.8572 605.147 65.6712C604.751 65.4792 604.4 65.2152 604.094 64.8792V68.9112H602.483V56.7072H603.446C603.674 56.7072 603.815 56.8182 603.869 57.0402L604.013 58.1202ZM614.499 52.9272V58.0752C614.499 58.3452 614.493 58.6092 614.481 58.8672C614.469 59.1252 614.454 59.3862 614.436 59.6502C614.418 59.9082 614.394 60.1752 614.364 60.4512C614.34 60.7212 614.31 61.0122 614.274 61.3242H613.194C613.158 61.0122 613.125 60.7212 613.095 60.4512C613.071 60.1752 613.05 59.9082 613.032 59.6502C613.014 59.3862 612.999 59.1252 612.987 58.8672C612.975 58.6092 612.969 58.3452 612.969 58.0752V52.9272H614.499ZM612.582 64.8342C612.582 64.6782 612.609 64.5312 612.663 64.3932C612.723 64.2552 612.804 64.1352 612.906 64.0332C613.008 63.9312 613.125 63.8502 613.257 63.7902C613.395 63.7302 613.545 63.7002 613.707 63.7002C613.863 63.7002 614.007 63.7302 614.139 63.7902C614.277 63.8502 614.397 63.9312 614.499 64.0332C614.601 64.1352 614.682 64.2552 614.742 64.3932C614.802 64.5312 614.832 64.6782 614.832 64.8342C614.832 64.9962 614.802 65.1462 614.742 65.2842C614.682 65.4162 614.601 65.5332 614.499 65.6352C614.397 65.7372 614.277 65.8152 614.139 65.8692C614.007 65.9292 613.863 65.9592 613.707 65.9592C613.545 65.9592 613.395 65.9292 613.257 65.8692C613.125 65.8152 613.008 65.7372 612.906 65.6352C612.804 65.5332 612.723 65.4162 612.663 65.2842C612.609 65.1462 612.582 64.9962 612.582 64.8342Z" fill="black"/>
<path d="M209.008 103.317C209.008 104.271 208.849 105.147 208.531 105.945C208.213 106.743 207.766 107.43 207.19 108.006C206.614 108.582 205.921 109.029 205.111 109.347C204.301 109.665 203.401 109.824 202.411 109.824H197.452V96.8102H202.411C203.401 96.8102 204.301 96.9722 205.111 97.2962C205.921 97.6142 206.614 98.0612 207.19 98.6372C207.766 99.2072 208.213 99.8912 208.531 100.689C208.849 101.487 209.008 102.363 209.008 103.317ZM206.524 103.317C206.524 102.603 206.428 101.964 206.236 101.4C206.05 100.83 205.777 100.35 205.417 99.9602C205.063 99.5642 204.631 99.2612 204.121 99.0512C203.617 98.8412 203.047 98.7362 202.411 98.7362H199.882V107.898H202.411C203.047 107.898 203.617 107.793 204.121 107.583C204.631 107.373 205.063 107.073 205.417 106.683C205.777 106.287 206.05 105.807 206.236 105.243C206.428 104.673 206.524 104.031 206.524 103.317ZM214.757 100.446C215.441 100.446 216.062 100.557 216.62 100.779C217.184 101.001 217.664 101.316 218.06 101.724C218.462 102.132 218.771 102.63 218.987 103.218C219.203 103.806 219.311 104.463 219.311 105.189C219.311 105.921 219.203 106.581 218.987 107.169C218.771 107.757 218.462 108.258 218.06 108.672C217.664 109.086 217.184 109.404 216.62 109.626C216.062 109.848 215.441 109.959 214.757 109.959C214.067 109.959 213.44 109.848 212.876 109.626C212.312 109.404 211.829 109.086 211.427 108.672C211.031 108.258 210.722 107.757 210.5 107.169C210.284 106.581 210.176 105.921 210.176 105.189C210.176 104.463 210.284 103.806 210.5 103.218C210.722 102.63 211.031 102.132 211.427 101.724C211.829 101.316 212.312 101.001 212.876 100.779C213.44 100.557 214.067 100.446 214.757 100.446ZM214.757 108.249C215.525 108.249 216.092 107.991 216.458 107.475C216.83 106.959 217.016 106.203 217.016 105.207C217.016 104.211 216.83 103.452 216.458 102.93C216.092 102.408 215.525 102.147 214.757 102.147C213.977 102.147 213.398 102.411 213.02 102.939C212.648 103.461 212.462 104.217 212.462 105.207C212.462 106.197 212.648 106.953 213.02 107.475C213.398 107.991 213.977 108.249 214.757 108.249ZM223.086 101.724C223.272 101.538 223.467 101.367 223.671 101.211C223.881 101.049 224.1 100.914 224.328 100.806C224.562 100.692 224.811 100.605 225.075 100.545C225.339 100.479 225.627 100.446 225.939 100.446C226.443 100.446 226.89 100.533 227.28 100.707C227.67 100.875 227.994 101.115 228.252 101.427C228.516 101.733 228.714 102.102 228.846 102.534C228.984 102.96 229.053 103.431 229.053 103.947V109.824H226.83V103.947C226.83 103.383 226.701 102.948 226.443 102.642C226.185 102.33 225.792 102.174 225.264 102.174C224.88 102.174 224.52 102.261 224.184 102.435C223.848 102.609 223.53 102.846 223.23 103.146V109.824H221.007V100.59H222.366C222.654 100.59 222.843 100.725 222.933 100.995L223.086 101.724ZM232.416 95.9372C232.704 96.4112 232.899 96.9062 233.001 97.4222C233.103 97.9322 233.112 98.4392 233.028 98.9432C232.944 99.4412 232.767 99.9212 232.497 100.383C232.233 100.839 231.876 101.25 231.426 101.616L230.724 101.193C230.664 101.157 230.622 101.115 230.598 101.067C230.574 101.013 230.562 100.962 230.562 100.914C230.568 100.86 230.58 100.809 230.598 100.761C230.622 100.713 230.652 100.671 230.688 100.635C230.814 100.485 230.934 100.287 231.048 100.041C231.162 99.7952 231.24 99.5192 231.282 99.2132C231.33 98.9072 231.324 98.5802 231.264 98.2322C231.21 97.8842 231.075 97.5362 230.859 97.1882C230.757 97.0142 230.727 96.8642 230.769 96.7382C230.817 96.6062 230.916 96.5132 231.066 96.4592L232.416 95.9372ZM237.954 109.968C237.15 109.968 236.532 109.743 236.1 109.293C235.674 108.837 235.461 108.21 235.461 107.412V102.255H234.516C234.396 102.255 234.294 102.216 234.21 102.138C234.126 102.06 234.084 101.943 234.084 101.787V100.905L235.569 100.662L236.037 98.1422C236.067 98.0222 236.124 97.9292 236.208 97.8632C236.292 97.7972 236.4 97.7642 236.532 97.7642H237.684V100.671H240.15V102.255H237.684V107.259C237.684 107.547 237.753 107.772 237.891 107.934C238.035 108.096 238.23 108.177 238.476 108.177C238.614 108.177 238.728 108.162 238.818 108.132C238.914 108.096 238.995 108.06 239.061 108.024C239.133 107.988 239.196 107.955 239.25 107.925C239.304 107.889 239.358 107.871 239.412 107.871C239.478 107.871 239.532 107.889 239.574 107.925C239.616 107.955 239.661 108.003 239.709 108.069L240.375 109.149C240.051 109.419 239.679 109.623 239.259 109.761C238.839 109.899 238.404 109.968 237.954 109.968ZM246.599 109.824V102.264L245.798 102.138C245.624 102.102 245.483 102.042 245.375 101.958C245.273 101.868 245.222 101.742 245.222 101.58V100.671H246.599V99.9872C246.599 99.4592 246.677 98.9852 246.833 98.5652C246.995 98.1452 247.223 97.7882 247.517 97.4942C247.817 97.2002 248.18 96.9752 248.606 96.8192C249.032 96.6632 249.512 96.5852 250.046 96.5852C250.472 96.5852 250.868 96.6422 251.234 96.7562L251.189 97.8722C251.183 97.9562 251.159 98.0252 251.117 98.0792C251.075 98.1272 251.018 98.1662 250.946 98.1962C250.88 98.2202 250.802 98.2382 250.712 98.2502C250.622 98.2562 250.526 98.2592 250.424 98.2592C250.16 98.2592 249.923 98.2892 249.713 98.3492C249.509 98.4032 249.335 98.5022 249.191 98.6462C249.047 98.7842 248.936 98.9702 248.858 99.2042C248.786 99.4322 248.75 99.7172 248.75 100.059V100.671H251.153V102.255H248.822V109.824H246.599ZM256.242 100.446C256.926 100.446 257.547 100.557 258.105 100.779C258.669 101.001 259.149 101.316 259.545 101.724C259.947 102.132 260.256 102.63 260.472 103.218C260.688 103.806 260.796 104.463 260.796 105.189C260.796 105.921 260.688 106.581 260.472 107.169C260.256 107.757 259.947 108.258 259.545 108.672C259.149 109.086 258.669 109.404 258.105 109.626C257.547 109.848 256.926 109.959 256.242 109.959C255.552 109.959 254.925 109.848 254.361 109.626C253.797 109.404 253.314 109.086 252.912 108.672C252.516 108.258 252.207 107.757 251.985 107.169C251.769 106.581 251.661 105.921 251.661 105.189C251.661 104.463 251.769 103.806 251.985 103.218C252.207 102.63 252.516 102.132 252.912 101.724C253.314 101.316 253.797 101.001 254.361 100.779C254.925 100.557 255.552 100.446 256.242 100.446ZM256.242 108.249C257.01 108.249 257.577 107.991 257.943 107.475C258.315 106.959 258.501 106.203 258.501 105.207C258.501 104.211 258.315 103.452 257.943 102.93C257.577 102.408 257.01 102.147 256.242 102.147C255.462 102.147 254.883 102.411 254.505 102.939C254.133 103.461 253.947 104.217 253.947 105.207C253.947 106.197 254.133 106.953 254.505 107.475C254.883 107.991 255.462 108.249 256.242 108.249ZM264.589 102.192C264.877 101.64 265.219 101.208 265.615 100.896C266.011 100.578 266.479 100.419 267.019 100.419C267.445 100.419 267.787 100.512 268.045 100.698L267.901 102.363C267.871 102.471 267.826 102.549 267.766 102.597C267.712 102.639 267.637 102.66 267.541 102.66C267.451 102.66 267.316 102.645 267.136 102.615C266.962 102.585 266.791 102.57 266.623 102.57C266.377 102.57 266.158 102.606 265.966 102.678C265.774 102.75 265.6 102.855 265.444 102.993C265.294 103.125 265.159 103.287 265.039 103.479C264.925 103.671 264.817 103.89 264.715 104.136V109.824H262.492V100.59H263.797C264.025 100.59 264.184 100.632 264.274 100.716C264.364 100.794 264.424 100.938 264.454 101.148L264.589 102.192ZM272.476 104.982C272.752 104.982 272.992 104.946 273.196 104.874C273.4 104.796 273.568 104.691 273.7 104.559C273.838 104.427 273.94 104.268 274.006 104.082C274.078 103.896 274.114 103.692 274.114 103.47C274.114 103.014 273.976 102.654 273.7 102.39C273.43 102.12 273.022 101.985 272.476 101.985C271.93 101.985 271.519 102.12 271.243 102.39C270.973 102.654 270.838 103.014 270.838 103.47C270.838 103.686 270.871 103.887 270.937 104.073C271.009 104.259 271.111 104.421 271.243 104.559C271.381 104.691 271.552 104.796 271.756 104.874C271.966 104.946 272.206 104.982 272.476 104.982ZM274.987 110.238C274.987 110.058 274.933 109.911 274.825 109.797C274.717 109.683 274.57 109.596 274.384 109.536C274.198 109.47 273.979 109.422 273.727 109.392C273.481 109.362 273.217 109.341 272.935 109.329C272.659 109.311 272.371 109.296 272.071 109.284C271.777 109.272 271.489 109.248 271.207 109.212C270.961 109.35 270.76 109.512 270.604 109.698C270.454 109.884 270.379 110.1 270.379 110.346C270.379 110.508 270.418 110.658 270.496 110.796C270.58 110.94 270.709 111.063 270.883 111.165C271.063 111.267 271.294 111.345 271.576 111.399C271.858 111.459 272.203 111.489 272.611 111.489C273.025 111.489 273.382 111.456 273.682 111.39C273.982 111.33 274.228 111.243 274.42 111.129C274.618 111.021 274.762 110.889 274.852 110.733C274.942 110.583 274.987 110.418 274.987 110.238ZM277.201 100.905V101.733C277.201 101.997 277.042 102.159 276.724 102.219L275.896 102.372C276.022 102.69 276.085 103.038 276.085 103.416C276.085 103.872 275.992 104.286 275.806 104.658C275.626 105.024 275.374 105.336 275.05 105.594C274.726 105.852 274.342 106.053 273.898 106.197C273.46 106.335 272.986 106.404 272.476 106.404C272.296 106.404 272.122 106.395 271.954 106.377C271.786 106.359 271.621 106.335 271.459 106.305C271.171 106.479 271.027 106.674 271.027 106.89C271.027 107.076 271.111 107.214 271.279 107.304C271.453 107.388 271.681 107.448 271.963 107.484C272.245 107.52 272.566 107.544 272.926 107.556C273.286 107.562 273.655 107.58 274.033 107.61C274.411 107.64 274.78 107.694 275.14 107.772C275.5 107.844 275.821 107.961 276.103 108.123C276.385 108.285 276.61 108.507 276.778 108.789C276.952 109.065 277.039 109.422 277.039 109.86C277.039 110.268 276.937 110.664 276.733 111.048C276.535 111.432 276.244 111.774 275.86 112.074C275.482 112.374 275.014 112.614 274.456 112.794C273.904 112.98 273.274 113.073 272.566 113.073C271.87 113.073 271.264 113.004 270.748 112.866C270.232 112.734 269.803 112.554 269.461 112.326C269.119 112.104 268.864 111.846 268.696 111.552C268.528 111.258 268.444 110.952 268.444 110.634C268.444 110.202 268.573 109.842 268.831 109.554C269.095 109.26 269.455 109.026 269.911 108.852C269.665 108.726 269.47 108.558 269.326 108.348C269.182 108.138 269.11 107.862 269.11 107.52C269.11 107.382 269.134 107.241 269.182 107.097C269.236 106.947 269.311 106.8 269.407 106.656C269.509 106.512 269.635 106.377 269.785 106.251C269.935 106.119 270.112 106.002 270.316 105.9C269.848 105.648 269.479 105.312 269.209 104.892C268.945 104.472 268.813 103.98 268.813 103.416C268.813 102.96 268.903 102.549 269.083 102.183C269.269 101.811 269.524 101.496 269.848 101.238C270.178 100.974 270.565 100.773 271.009 100.635C271.459 100.497 271.948 100.428 272.476 100.428C272.872 100.428 273.244 100.47 273.592 100.554C273.94 100.632 274.258 100.749 274.546 100.905H277.201ZM284.401 104.145C284.401 103.857 284.359 103.587 284.275 103.335C284.197 103.077 284.077 102.852 283.915 102.66C283.753 102.468 283.546 102.318 283.294 102.21C283.048 102.096 282.76 102.039 282.43 102.039C281.788 102.039 281.281 102.222 280.909 102.588C280.543 102.954 280.309 103.473 280.207 104.145H284.401ZM280.162 105.486C280.198 105.96 280.282 106.371 280.414 106.719C280.546 107.061 280.72 107.346 280.936 107.574C281.152 107.796 281.407 107.964 281.701 108.078C282.001 108.186 282.331 108.24 282.691 108.24C283.051 108.24 283.36 108.198 283.618 108.114C283.882 108.03 284.11 107.937 284.302 107.835C284.5 107.733 284.671 107.64 284.815 107.556C284.965 107.472 285.109 107.43 285.247 107.43C285.433 107.43 285.571 107.499 285.661 107.637L286.3 108.447C286.054 108.735 285.778 108.978 285.472 109.176C285.166 109.368 284.845 109.524 284.509 109.644C284.179 109.758 283.84 109.839 283.492 109.887C283.15 109.935 282.817 109.959 282.493 109.959C281.851 109.959 281.254 109.854 280.702 109.644C280.15 109.428 279.67 109.113 279.262 108.699C278.854 108.279 278.533 107.763 278.299 107.151C278.065 106.533 277.948 105.819 277.948 105.009C277.948 104.379 278.05 103.788 278.254 103.236C278.458 102.678 278.749 102.195 279.127 101.787C279.511 101.373 279.976 101.046 280.522 100.806C281.074 100.566 281.695 100.446 282.385 100.446C282.967 100.446 283.504 100.539 283.996 100.725C284.488 100.911 284.911 101.184 285.265 101.544C285.619 101.898 285.895 102.336 286.093 102.858C286.297 103.374 286.399 103.965 286.399 104.631C286.399 104.967 286.363 105.195 286.291 105.315C286.219 105.429 286.081 105.486 285.877 105.486H280.162ZM291.058 109.968C290.254 109.968 289.636 109.743 289.204 109.293C288.778 108.837 288.565 108.21 288.565 107.412V102.255H287.62C287.5 102.255 287.398 102.216 287.314 102.138C287.23 102.06 287.188 101.943 287.188 101.787V100.905L288.673 100.662L289.141 98.1422C289.171 98.0222 289.228 97.9292 289.312 97.8632C289.396 97.7972 289.504 97.7642 289.636 97.7642H290.788V100.671H293.254V102.255H290.788V107.259C290.788 107.547 290.857 107.772 290.995 107.934C291.139 108.096 291.334 108.177 291.58 108.177C291.718 108.177 291.832 108.162 291.922 108.132C292.018 108.096 292.099 108.06 292.165 108.024C292.237 107.988 292.3 107.955 292.354 107.925C292.408 107.889 292.462 107.871 292.516 107.871C292.582 107.871 292.636 107.889 292.678 107.925C292.72 107.955 292.765 108.003 292.813 108.069L293.479 109.149C293.155 109.419 292.783 109.623 292.363 109.761C291.943 109.899 291.508 109.968 291.058 109.968ZM302.132 109.968C301.328 109.968 300.71 109.743 300.278 109.293C299.852 108.837 299.639 108.21 299.639 107.412V102.255H298.694C298.574 102.255 298.472 102.216 298.388 102.138C298.304 102.06 298.262 101.943 298.262 101.787V100.905L299.747 100.662L300.215 98.1422C300.245 98.0222 300.302 97.9292 300.386 97.8632C300.47 97.7972 300.578 97.7642 300.71 97.7642H301.862V100.671H304.328V102.255H301.862V107.259C301.862 107.547 301.931 107.772 302.069 107.934C302.213 108.096 302.408 108.177 302.654 108.177C302.792 108.177 302.906 108.162 302.996 108.132C303.092 108.096 303.173 108.06 303.239 108.024C303.311 107.988 303.374 107.955 303.428 107.925C303.482 107.889 303.536 107.871 303.59 107.871C303.656 107.871 303.71 107.889 303.752 107.925C303.794 107.955 303.839 108.003 303.887 108.069L304.553 109.149C304.229 109.419 303.857 109.623 303.437 109.761C303.017 109.899 302.582 109.968 302.132 109.968ZM309.767 100.446C310.451 100.446 311.072 100.557 311.63 100.779C312.194 101.001 312.674 101.316 313.07 101.724C313.472 102.132 313.781 102.63 313.997 103.218C314.213 103.806 314.321 104.463 314.321 105.189C314.321 105.921 314.213 106.581 313.997 107.169C313.781 107.757 313.472 108.258 313.07 108.672C312.674 109.086 312.194 109.404 311.63 109.626C311.072 109.848 310.451 109.959 309.767 109.959C309.077 109.959 308.45 109.848 307.886 109.626C307.322 109.404 306.839 109.086 306.437 108.672C306.041 108.258 305.732 107.757 305.51 107.169C305.294 106.581 305.186 105.921 305.186 105.189C305.186 104.463 305.294 103.806 305.51 103.218C305.732 102.63 306.041 102.132 306.437 101.724C306.839 101.316 307.322 101.001 307.886 100.779C308.45 100.557 309.077 100.446 309.767 100.446ZM309.767 108.249C310.535 108.249 311.102 107.991 311.468 107.475C311.84 106.959 312.026 106.203 312.026 105.207C312.026 104.211 311.84 103.452 311.468 102.93C311.102 102.408 310.535 102.147 309.767 102.147C308.987 102.147 308.408 102.411 308.03 102.939C307.658 103.461 307.472 104.217 307.472 105.207C307.472 106.197 307.658 106.953 308.03 107.475C308.408 107.991 308.987 108.249 309.767 108.249ZM322.617 107.43C322.869 107.736 323.142 107.952 323.436 108.078C323.736 108.204 324.06 108.267 324.408 108.267C324.744 108.267 325.047 108.204 325.317 108.078C325.587 107.952 325.815 107.76 326.001 107.502C326.193 107.244 326.34 106.92 326.442 106.53C326.544 106.134 326.595 105.669 326.595 105.135C326.595 104.595 326.55 104.139 326.46 103.767C326.376 103.389 326.253 103.083 326.091 102.849C325.929 102.615 325.731 102.444 325.497 102.336C325.269 102.228 325.008 102.174 324.714 102.174C324.252 102.174 323.859 102.273 323.535 102.471C323.211 102.663 322.905 102.936 322.617 103.29V107.43ZM322.5 101.85C322.878 101.424 323.307 101.079 323.787 100.815C324.267 100.551 324.831 100.419 325.479 100.419C325.983 100.419 326.442 100.524 326.856 100.734C327.276 100.944 327.636 101.25 327.936 101.652C328.242 102.048 328.476 102.54 328.638 103.128C328.806 103.71 328.89 104.379 328.89 105.135C328.89 105.825 328.797 106.464 328.611 107.052C328.425 107.64 328.158 108.15 327.81 108.582C327.468 109.014 327.051 109.353 326.559 109.599C326.073 109.839 325.527 109.959 324.921 109.959C324.405 109.959 323.964 109.881 323.598 109.725C323.232 109.563 322.905 109.341 322.617 109.059V112.839H320.394V100.59H321.753C322.041 100.59 322.23 100.725 322.32 100.995L322.5 101.85ZM332.721 102.192C333.009 101.64 333.351 101.208 333.747 100.896C334.143 100.578 334.611 100.419 335.151 100.419C335.577 100.419 335.919 100.512 336.177 100.698L336.033 102.363C336.003 102.471 335.958 102.549 335.898 102.597C335.844 102.639 335.769 102.66 335.673 102.66C335.583 102.66 335.448 102.645 335.268 102.615C335.094 102.585 334.923 102.57 334.755 102.57C334.509 102.57 334.29 102.606 334.098 102.678C333.906 102.75 333.732 102.855 333.576 102.993C333.426 103.125 333.291 103.287 333.171 103.479C333.057 103.671 332.949 103.89 332.847 104.136V109.824H330.624V100.59H331.929C332.157 100.59 332.316 100.632 332.406 100.716C332.496 100.794 332.556 100.938 332.586 101.148L332.721 102.192ZM343.025 104.145C343.025 103.857 342.983 103.587 342.899 103.335C342.821 103.077 342.701 102.852 342.539 102.66C342.377 102.468 342.17 102.318 341.918 102.21C341.672 102.096 341.384 102.039 341.054 102.039C340.412 102.039 339.905 102.222 339.533 102.588C339.167 102.954 338.933 103.473 338.831 104.145H343.025ZM338.786 105.486C338.822 105.96 338.906 106.371 339.038 106.719C339.17 107.061 339.344 107.346 339.56 107.574C339.776 107.796 340.031 107.964 340.325 108.078C340.625 108.186 340.955 108.24 341.315 108.24C341.675 108.24 341.984 108.198 342.242 108.114C342.506 108.03 342.734 107.937 342.926 107.835C343.124 107.733 343.295 107.64 343.439 107.556C343.589 107.472 343.733 107.43 343.871 107.43C344.057 107.43 344.195 107.499 344.285 107.637L344.924 108.447C344.678 108.735 344.402 108.978 344.096 109.176C343.79 109.368 343.469 109.524 343.133 109.644C342.803 109.758 342.464 109.839 342.116 109.887C341.774 109.935 341.441 109.959 341.117 109.959C340.475 109.959 339.878 109.854 339.326 109.644C338.774 109.428 338.294 109.113 337.886 108.699C337.478 108.279 337.157 107.763 336.923 107.151C336.689 106.533 336.572 105.819 336.572 105.009C336.572 104.379 336.674 103.788 336.878 103.236C337.082 102.678 337.373 102.195 337.751 101.787C338.135 101.373 338.6 101.046 339.146 100.806C339.698 100.566 340.319 100.446 341.009 100.446C341.591 100.446 342.128 100.539 342.62 100.725C343.112 100.911 343.535 101.184 343.889 101.544C344.243 101.898 344.519 102.336 344.717 102.858C344.921 103.374 345.023 103.965 345.023 104.631C345.023 104.967 344.987 105.195 344.915 105.315C344.843 105.429 344.705 105.486 344.501 105.486H338.786ZM352.325 102.39C352.265 102.486 352.202 102.555 352.136 102.597C352.07 102.633 351.986 102.651 351.884 102.651C351.776 102.651 351.659 102.621 351.533 102.561C351.413 102.501 351.272 102.435 351.11 102.363C350.948 102.285 350.762 102.216 350.552 102.156C350.348 102.096 350.105 102.066 349.823 102.066C349.385 102.066 349.04 102.159 348.788 102.345C348.542 102.531 348.419 102.774 348.419 103.074C348.419 103.272 348.482 103.44 348.608 103.578C348.74 103.71 348.911 103.827 349.121 103.929C349.337 104.031 349.58 104.124 349.85 104.208C350.12 104.286 350.393 104.373 350.669 104.469C350.951 104.565 351.227 104.676 351.497 104.802C351.767 104.922 352.007 105.078 352.217 105.27C352.433 105.456 352.604 105.681 352.73 105.945C352.862 106.209 352.928 106.527 352.928 106.899C352.928 107.343 352.847 107.754 352.685 108.132C352.529 108.504 352.295 108.828 351.983 109.104C351.671 109.374 351.284 109.587 350.822 109.743C350.366 109.893 349.838 109.968 349.238 109.968C348.92 109.968 348.608 109.938 348.302 109.878C348.002 109.824 347.711 109.746 347.429 109.644C347.153 109.542 346.895 109.422 346.655 109.284C346.421 109.146 346.214 108.996 346.034 108.834L346.547 107.988C346.613 107.886 346.691 107.808 346.781 107.754C346.871 107.7 346.985 107.673 347.123 107.673C347.261 107.673 347.39 107.712 347.51 107.79C347.636 107.868 347.78 107.952 347.942 108.042C348.104 108.132 348.293 108.216 348.509 108.294C348.731 108.372 349.01 108.411 349.346 108.411C349.61 108.411 349.835 108.381 350.021 108.321C350.213 108.255 350.369 108.171 350.489 108.069C350.615 107.967 350.705 107.85 350.759 107.718C350.819 107.58 350.849 107.439 350.849 107.295C350.849 107.079 350.783 106.902 350.651 106.764C350.525 106.626 350.354 106.506 350.138 106.404C349.928 106.302 349.685 106.212 349.409 106.134C349.139 106.05 348.86 105.96 348.572 105.864C348.29 105.768 348.011 105.657 347.735 105.531C347.465 105.399 347.222 105.234 347.006 105.036C346.796 104.838 346.625 104.595 346.493 104.307C346.367 104.019 346.304 103.671 346.304 103.263C346.304 102.885 346.379 102.525 346.529 102.183C346.679 101.841 346.898 101.544 347.186 101.292C347.48 101.034 347.843 100.83 348.275 100.68C348.713 100.524 349.217 100.446 349.787 100.446C350.423 100.446 351.002 100.551 351.524 100.761C352.046 100.971 352.481 101.247 352.829 101.589L352.325 102.39ZM360.235 102.39C360.175 102.486 360.112 102.555 360.046 102.597C359.98 102.633 359.896 102.651 359.794 102.651C359.686 102.651 359.569 102.621 359.443 102.561C359.323 102.501 359.182 102.435 359.02 102.363C358.858 102.285 358.672 102.216 358.462 102.156C358.258 102.096 358.015 102.066 357.733 102.066C357.295 102.066 356.95 102.159 356.698 102.345C356.452 102.531 356.329 102.774 356.329 103.074C356.329 103.272 356.392 103.44 356.518 103.578C356.65 103.71 356.821 103.827 357.031 103.929C357.247 104.031 357.49 104.124 357.76 104.208C358.03 104.286 358.303 104.373 358.579 104.469C358.861 104.565 359.137 104.676 359.407 104.802C359.677 104.922 359.917 105.078 360.127 105.27C360.343 105.456 360.514 105.681 360.64 105.945C360.772 106.209 360.838 106.527 360.838 106.899C360.838 107.343 360.757 107.754 360.595 108.132C360.439 108.504 360.205 108.828 359.893 109.104C359.581 109.374 359.194 109.587 358.732 109.743C358.276 109.893 357.748 109.968 357.148 109.968C356.83 109.968 356.518 109.938 356.212 109.878C355.912 109.824 355.621 109.746 355.339 109.644C355.063 109.542 354.805 109.422 354.565 109.284C354.331 109.146 354.124 108.996 353.944 108.834L354.457 107.988C354.523 107.886 354.601 107.808 354.691 107.754C354.781 107.7 354.895 107.673 355.033 107.673C355.171 107.673 355.3 107.712 355.42 107.79C355.546 107.868 355.69 107.952 355.852 108.042C356.014 108.132 356.203 108.216 356.419 108.294C356.641 108.372 356.92 108.411 357.256 108.411C357.52 108.411 357.745 108.381 357.931 108.321C358.123 108.255 358.279 108.171 358.399 108.069C358.525 107.967 358.615 107.85 358.669 107.718C358.729 107.58 358.759 107.439 358.759 107.295C358.759 107.079 358.693 106.902 358.561 106.764C358.435 106.626 358.264 106.506 358.048 106.404C357.838 106.302 357.595 106.212 357.319 106.134C357.049 106.05 356.77 105.96 356.482 105.864C356.2 105.768 355.921 105.657 355.645 105.531C355.375 105.399 355.132 105.234 354.916 105.036C354.706 104.838 354.535 104.595 354.403 104.307C354.277 104.019 354.214 103.671 354.214 103.263C354.214 102.885 354.289 102.525 354.439 102.183C354.589 101.841 354.808 101.544 355.096 101.292C355.39 101.034 355.753 100.83 356.185 100.68C356.623 100.524 357.127 100.446 357.697 100.446C358.333 100.446 358.912 100.551 359.434 100.761C359.956 100.971 360.391 101.247 360.739 101.589L360.235 102.39ZM369.966 109.968C369.162 109.968 368.544 109.743 368.112 109.293C367.686 108.837 367.473 108.21 367.473 107.412V102.255H366.528C366.408 102.255 366.306 102.216 366.222 102.138C366.138 102.06 366.096 101.943 366.096 101.787V100.905L367.581 100.662L368.049 98.1422C368.079 98.0222 368.136 97.9292 368.22 97.8632C368.304 97.7972 368.412 97.7642 368.544 97.7642H369.696V100.671H372.162V102.255H369.696V107.259C369.696 107.547 369.765 107.772 369.903 107.934C370.047 108.096 370.242 108.177 370.488 108.177C370.626 108.177 370.74 108.162 370.83 108.132C370.926 108.096 371.007 108.06 371.073 108.024C371.145 107.988 371.208 107.955 371.262 107.925C371.316 107.889 371.37 107.871 371.424 107.871C371.49 107.871 371.544 107.889 371.586 107.925C371.628 107.955 371.673 108.003 371.721 108.069L372.387 109.149C372.063 109.419 371.691 109.623 371.271 109.761C370.851 109.899 370.416 109.968 369.966 109.968ZM375.808 101.58C376.168 101.244 376.564 100.971 376.996 100.761C377.428 100.551 377.935 100.446 378.517 100.446C379.021 100.446 379.468 100.533 379.858 100.707C380.248 100.875 380.572 101.115 380.83 101.427C381.094 101.733 381.292 102.102 381.424 102.534C381.562 102.96 381.631 103.431 381.631 103.947V109.824H379.408V103.947C379.408 103.383 379.279 102.948 379.021 102.642C378.763 102.33 378.37 102.174 377.842 102.174C377.458 102.174 377.098 102.261 376.762 102.435C376.426 102.609 376.108 102.846 375.808 103.146V109.824H373.585V96.4502H375.808V101.58ZM389.694 104.145C389.694 103.857 389.652 103.587 389.568 103.335C389.49 103.077 389.37 102.852 389.208 102.66C389.046 102.468 388.839 102.318 388.587 102.21C388.341 102.096 388.053 102.039 387.723 102.039C387.081 102.039 386.574 102.222 386.202 102.588C385.836 102.954 385.602 103.473 385.5 104.145H389.694ZM385.455 105.486C385.491 105.96 385.575 106.371 385.707 106.719C385.839 107.061 386.013 107.346 386.229 107.574C386.445 107.796 386.7 107.964 386.994 108.078C387.294 108.186 387.624 108.24 387.984 108.24C388.344 108.24 388.653 108.198 388.911 108.114C389.175 108.03 389.403 107.937 389.595 107.835C389.793 107.733 389.964 107.64 390.108 107.556C390.258 107.472 390.402 107.43 390.54 107.43C390.726 107.43 390.864 107.499 390.954 107.637L391.593 108.447C391.347 108.735 391.071 108.978 390.765 109.176C390.459 109.368 390.138 109.524 389.802 109.644C389.472 109.758 389.133 109.839 388.785 109.887C388.443 109.935 388.11 109.959 387.786 109.959C387.144 109.959 386.547 109.854 385.995 109.644C385.443 109.428 384.963 109.113 384.555 108.699C384.147 108.279 383.826 107.763 383.592 107.151C383.358 106.533 383.241 105.819 383.241 105.009C383.241 104.379 383.343 103.788 383.547 103.236C383.751 102.678 384.042 102.195 384.42 101.787C384.804 101.373 385.269 101.046 385.815 100.806C386.367 100.566 386.988 100.446 387.678 100.446C388.26 100.446 388.797 100.539 389.289 100.725C389.781 100.911 390.204 101.184 390.558 101.544C390.912 101.898 391.188 102.336 391.386 102.858C391.59 103.374 391.692 103.965 391.692 104.631C391.692 104.967 391.656 105.195 391.584 105.315C391.512 105.429 391.374 105.486 391.17 105.486H385.455ZM399.961 107.43C400.213 107.736 400.486 107.952 400.78 108.078C401.08 108.204 401.395 108.267 401.725 108.267C402.067 108.267 402.373 108.207 402.643 108.087C402.919 107.961 403.153 107.769 403.345 107.511C403.537 107.247 403.684 106.914 403.786 106.512C403.888 106.104 403.939 105.618 403.939 105.054C403.939 104.04 403.771 103.308 403.435 102.858C403.099 102.402 402.616 102.174 401.986 102.174C401.56 102.174 401.188 102.273 400.87 102.471C400.552 102.663 400.249 102.936 399.961 103.29V107.43ZM399.961 101.724C400.333 101.334 400.744 101.025 401.194 100.797C401.65 100.563 402.169 100.446 402.751 100.446C403.285 100.446 403.765 100.551 404.191 100.761C404.623 100.971 404.989 101.274 405.289 101.67C405.595 102.06 405.829 102.534 405.991 103.092C406.153 103.65 406.234 104.277 406.234 104.973C406.234 105.723 406.141 106.404 405.955 107.016C405.769 107.628 405.502 108.153 405.154 108.591C404.812 109.023 404.398 109.359 403.912 109.599C403.426 109.839 402.886 109.959 402.292 109.959C402.004 109.959 401.743 109.929 401.509 109.869C401.275 109.815 401.059 109.737 400.861 109.635C400.663 109.533 400.48 109.41 400.312 109.266C400.15 109.116 399.994 108.951 399.844 108.771L399.745 109.392C399.709 109.548 399.646 109.659 399.556 109.725C399.472 109.791 399.355 109.824 399.205 109.824H397.738V96.4502H399.961V101.724ZM415.907 100.59V109.824H414.548C414.254 109.824 414.068 109.689 413.99 109.419L413.837 108.681C413.459 109.065 413.042 109.377 412.586 109.617C412.13 109.851 411.593 109.968 410.975 109.968C410.471 109.968 410.024 109.884 409.634 109.716C409.25 109.542 408.926 109.299 408.662 108.987C408.398 108.675 408.197 108.306 408.059 107.88C407.927 107.448 407.861 106.974 407.861 106.458V100.59H410.084V106.458C410.084 107.022 410.213 107.46 410.471 107.772C410.735 108.078 411.128 108.231 411.65 108.231C412.034 108.231 412.394 108.147 412.73 107.979C413.066 107.805 413.384 107.568 413.684 107.268V100.59H415.907ZM421.189 109.968C420.385 109.968 419.767 109.743 419.335 109.293C418.909 108.837 418.696 108.21 418.696 107.412V102.255H417.751C417.631 102.255 417.529 102.216 417.445 102.138C417.361 102.06 417.319 101.943 417.319 101.787V100.905L418.804 100.662L419.272 98.1422C419.302 98.0222 419.359 97.9292 419.443 97.8632C419.527 97.7972 419.635 97.7642 419.767 97.7642H420.919V100.671H424.762L425.239 98.1422C425.269 98.0222 425.323 97.9292 425.401 97.8632C425.485 97.7972 425.596 97.7642 425.734 97.7642H426.877V100.671H429.343V102.255H426.877V107.259C426.877 107.547 426.949 107.772 427.093 107.934C427.237 108.096 427.432 108.177 427.678 108.177C427.81 108.177 427.924 108.162 428.02 108.132C428.116 108.096 428.197 108.06 428.263 108.024C428.335 107.988 428.398 107.955 428.452 107.925C428.506 107.889 428.56 107.871 428.614 107.871C428.68 107.871 428.734 107.889 428.776 107.925C428.818 107.955 428.863 108.003 428.911 108.069L429.577 109.149C429.253 109.419 428.881 109.623 428.461 109.761C428.041 109.899 427.606 109.968 427.156 109.968C426.352 109.968 425.734 109.743 425.302 109.293C424.87 108.837 424.654 108.21 424.654 107.412V102.255H420.919V107.259C420.919 107.547 420.988 107.772 421.126 107.934C421.27 108.096 421.465 108.177 421.711 108.177C421.849 108.177 421.963 108.162 422.053 108.132C422.149 108.096 422.23 108.06 422.296 108.024C422.368 107.988 422.431 107.955 422.485 107.925C422.539 107.889 422.593 107.871 422.647 107.871C422.713 107.871 422.767 107.889 422.809 107.925C422.851 107.955 422.896 108.003 422.944 108.069L423.61 109.149C423.286 109.419 422.914 109.623 422.494 109.761C422.074 109.899 421.639 109.968 421.189 109.968ZM434.783 100.446C435.467 100.446 436.088 100.557 436.646 100.779C437.21 101.001 437.69 101.316 438.086 101.724C438.488 102.132 438.797 102.63 439.013 103.218C439.229 103.806 439.337 104.463 439.337 105.189C439.337 105.921 439.229 106.581 439.013 107.169C438.797 107.757 438.488 108.258 438.086 108.672C437.69 109.086 437.21 109.404 436.646 109.626C436.088 109.848 435.467 109.959 434.783 109.959C434.093 109.959 433.466 109.848 432.902 109.626C432.338 109.404 431.855 109.086 431.453 108.672C431.057 108.258 430.748 107.757 430.526 107.169C430.31 106.581 430.202 105.921 430.202 105.189C430.202 104.463 430.31 103.806 430.526 103.218C430.748 102.63 431.057 102.132 431.453 101.724C431.855 101.316 432.338 101.001 432.902 100.779C433.466 100.557 434.093 100.446 434.783 100.446ZM434.783 108.249C435.551 108.249 436.118 107.991 436.484 107.475C436.856 106.959 437.042 106.203 437.042 105.207C437.042 104.211 436.856 103.452 436.484 102.93C436.118 102.408 435.551 102.147 434.783 102.147C434.003 102.147 433.424 102.411 433.046 102.939C432.674 103.461 432.488 104.217 432.488 105.207C432.488 106.197 432.674 106.953 433.046 107.475C433.424 107.991 434.003 108.249 434.783 108.249ZM443.112 101.724C443.298 101.538 443.493 101.367 443.697 101.211C443.907 101.049 444.126 100.914 444.354 100.806C444.588 100.692 444.837 100.605 445.101 100.545C445.365 100.479 445.653 100.446 445.965 100.446C446.469 100.446 446.916 100.533 447.306 100.707C447.696 100.875 448.02 101.115 448.278 101.427C448.542 101.733 448.74 102.102 448.872 102.534C449.01 102.96 449.079 103.431 449.079 103.947V109.824H446.856V103.947C446.856 103.383 446.727 102.948 446.469 102.642C446.211 102.33 445.818 102.174 445.29 102.174C444.906 102.174 444.546 102.261 444.21 102.435C443.874 102.609 443.556 102.846 443.256 103.146V109.824H441.033V100.59H442.392C442.68 100.59 442.869 100.725 442.959 100.995L443.112 101.724ZM450.869 108.6C450.869 108.414 450.902 108.237 450.968 108.069C451.04 107.901 451.136 107.757 451.256 107.637C451.376 107.517 451.52 107.421 451.688 107.349C451.856 107.277 452.036 107.241 452.228 107.241C452.42 107.241 452.597 107.277 452.759 107.349C452.927 107.421 453.071 107.517 453.191 107.637C453.317 107.757 453.416 107.901 453.488 108.069C453.56 108.237 453.596 108.414 453.596 108.6C453.596 108.792 453.56 108.972 453.488 109.14C453.416 109.302 453.317 109.443 453.191 109.563C453.071 109.683 452.927 109.776 452.759 109.842C452.597 109.914 452.42 109.95 452.228 109.95C452.036 109.95 451.856 109.914 451.688 109.842C451.52 109.776 451.376 109.683 451.256 109.563C451.136 109.443 451.04 109.302 450.968 109.14C450.902 108.972 450.869 108.792 450.869 108.6Z" fill="#1A2BC3"/>
<defs>
<radialGradient id="paint0_radial_1088_6667" cx="0" cy="0" r="1" gradientUnits="userSpaceOnUse" gradientTransform="translate(51.2777 91.7103) rotate(90) scale(11.2474 11.68)">
<stop offset="0.0769231" stop-color="#FF6062"/>
<stop offset="1" stop-color="#D9D9D9" stop-opacity="0"/>
</radialGradient>
<radialGradient id="paint1_radial_1088_6667" cx="0" cy="0" r="1" gradientUnits="userSpaceOnUse" gradientTransform="translate(106.65 101.228) rotate(90) scale(11.2474 11.68)">
<stop offset="0.134615" stop-color="#FF6062"/>
<stop offset="1" stop-color="#D9D9D9" stop-opacity="0"/>
</radialGradient>
</defs>
</svg>
