<svg width="656" height="162" viewBox="0 0 656 162" fill="none" xmlns="http://www.w3.org/2000/svg">
<path d="M49.958 44.7991C51.9062 45.9239 53.5268 47.5381 54.6594 49.4817C55.7921 51.4254 56.3974 53.6312 56.4156 55.8807C56.4338 58.1302 55.8641 60.3455 54.763 62.3072C53.6619 64.2689 52.0676 65.909 50.1379 67.0652C48.2081 68.2214 46.0099 68.8535 43.7607 68.8991C41.5116 68.9446 39.2896 68.4019 37.3146 67.3247C35.3396 66.2476 33.6803 64.6733 32.5007 62.7578C31.3211 60.8422 30.6623 58.6518 30.5895 56.4034L30.583 55.9849L30.5895 55.5664C30.6618 53.3357 31.3109 51.1618 32.4735 49.2566C33.6362 47.3514 35.2726 45.78 37.2233 44.6956C39.1741 43.6111 41.3725 43.0506 43.6043 43.0688C45.8361 43.0869 48.0252 43.6831 49.958 44.7991ZM48.2879 52.4883C48.0655 52.266 47.7695 52.1324 47.4556 52.1126C47.1417 52.0929 46.8314 52.1884 46.5829 52.3811L46.4615 52.4883L42.208 56.7405L40.5379 55.0717L40.4165 54.9645C40.1679 54.7718 39.8577 54.6765 39.5438 54.6963C39.23 54.7161 38.9342 54.8497 38.7118 55.072C38.4895 55.2944 38.3558 55.5902 38.336 55.904C38.3162 56.2179 38.4116 56.5281 38.6043 56.7767L38.7115 56.8981L41.2948 59.4814L41.4162 59.5886C41.6427 59.7644 41.9213 59.8598 42.208 59.8598C42.4947 59.8598 42.7733 59.7644 42.9998 59.5886L43.1212 59.4814L48.2879 54.3148L48.3951 54.1933C48.5879 53.9448 48.6834 53.6345 48.6636 53.3206C48.6439 53.0067 48.5103 52.7108 48.2879 52.4883Z" fill="#72AB00"/>
<path d="M76.3037 57.7471V55.5762H81.9111V60.709C81.3662 61.2363 80.5752 61.7021 79.5381 62.1064C78.5068 62.5049 77.4609 62.7041 76.4004 62.7041C75.0527 62.7041 73.8779 62.4229 72.876 61.8604C71.874 61.292 71.1211 60.4834 70.6172 59.4346C70.1133 58.3799 69.8613 57.2344 69.8613 55.998C69.8613 54.6562 70.1426 53.4639 70.7051 52.4209C71.2676 51.3779 72.0908 50.5781 73.1748 50.0215C74.001 49.5938 75.0293 49.3799 76.2598 49.3799C77.8594 49.3799 79.1074 49.7168 80.0039 50.3906C80.9062 51.0586 81.4863 51.9844 81.7441 53.168L79.1602 53.6514C78.9785 53.0186 78.6357 52.5205 78.1318 52.1572C77.6338 51.7881 77.0098 51.6035 76.2598 51.6035C75.123 51.6035 74.2178 51.9639 73.5439 52.6846C72.876 53.4053 72.542 54.4746 72.542 55.8926C72.542 57.4219 72.8818 58.5703 73.5615 59.3379C74.2412 60.0996 75.1318 60.4805 76.2334 60.4805C76.7783 60.4805 77.3232 60.375 77.8682 60.1641C78.4189 59.9473 78.8906 59.6865 79.2832 59.3818V57.7471H76.3037ZM86.666 62.4844H84.1963V53.1504H86.4902V54.4775C86.8828 53.8506 87.2344 53.4375 87.5449 53.2383C87.8613 53.0391 88.2188 52.9395 88.6172 52.9395C89.1797 52.9395 89.7217 53.0947 90.2432 53.4053L89.4785 55.5586C89.0625 55.2891 88.6758 55.1543 88.3184 55.1543C87.9727 55.1543 87.6797 55.251 87.4395 55.4443C87.1992 55.6318 87.0088 55.9746 86.8682 56.4727C86.7334 56.9707 86.666 58.0137 86.666 59.6016V62.4844ZM96.7207 59.5137L99.1816 59.9268C98.8652 60.8291 98.3643 61.5176 97.6787 61.9922C96.999 62.4609 96.1465 62.6953 95.1211 62.6953C93.498 62.6953 92.2969 62.165 91.5176 61.1045C90.9023 60.2549 90.5947 59.1826 90.5947 57.8877C90.5947 56.3408 90.999 55.1309 91.8076 54.2578C92.6162 53.3789 93.6387 52.9395 94.875 52.9395C96.2637 52.9395 97.3594 53.3994 98.1621 54.3193C98.9648 55.2334 99.3486 56.6367 99.3135 58.5293H93.126C93.1436 59.2617 93.3428 59.833 93.7236 60.2432C94.1045 60.6475 94.5791 60.8496 95.1475 60.8496C95.5342 60.8496 95.8594 60.7441 96.123 60.5332C96.3867 60.3223 96.5859 59.9824 96.7207 59.5137ZM96.8613 57.0176C96.8438 56.3027 96.6592 55.7607 96.3076 55.3916C95.9561 55.0166 95.5283 54.8291 95.0244 54.8291C94.4854 54.8291 94.04 55.0254 93.6885 55.418C93.3369 55.8105 93.1641 56.3438 93.1699 57.0176H96.8613ZM103.181 55.998L100.939 55.5938C101.191 54.6914 101.625 54.0234 102.24 53.5898C102.855 53.1562 103.77 52.9395 104.982 52.9395C106.084 52.9395 106.904 53.0713 107.443 53.335C107.982 53.5928 108.36 53.9238 108.577 54.3281C108.8 54.7266 108.911 55.4619 108.911 56.5342L108.885 59.417C108.885 60.2373 108.923 60.8438 108.999 61.2363C109.081 61.623 109.23 62.0391 109.447 62.4844H107.004C106.939 62.3203 106.86 62.0771 106.767 61.7549C106.726 61.6084 106.696 61.5117 106.679 61.4648C106.257 61.875 105.806 62.1826 105.325 62.3877C104.845 62.5928 104.332 62.6953 103.787 62.6953C102.826 62.6953 102.067 62.4346 101.511 61.9131C100.96 61.3916 100.685 60.7324 100.685 59.9355C100.685 59.4082 100.811 58.9395 101.062 58.5293C101.314 58.1133 101.666 57.7969 102.117 57.5801C102.574 57.3574 103.23 57.1641 104.086 57C105.24 56.7832 106.04 56.5811 106.485 56.3936V56.1475C106.485 55.6729 106.368 55.3359 106.134 55.1367C105.899 54.9316 105.457 54.8291 104.807 54.8291C104.367 54.8291 104.024 54.917 103.778 55.0928C103.532 55.2627 103.333 55.5645 103.181 55.998ZM106.485 58.002C106.169 58.1074 105.668 58.2334 104.982 58.3799C104.297 58.5264 103.849 58.6699 103.638 58.8105C103.315 59.0391 103.154 59.3291 103.154 59.6807C103.154 60.0264 103.283 60.3252 103.541 60.5771C103.799 60.8291 104.127 60.9551 104.525 60.9551C104.971 60.9551 105.396 60.8086 105.8 60.5156C106.099 60.293 106.295 60.0205 106.389 59.6982C106.453 59.4873 106.485 59.0859 106.485 58.4941V58.002ZM115.635 53.1504V55.1191H113.947V58.8809C113.947 59.6426 113.962 60.0879 113.991 60.2168C114.026 60.3398 114.1 60.4424 114.211 60.5244C114.328 60.6064 114.469 60.6475 114.633 60.6475C114.861 60.6475 115.192 60.5684 115.626 60.4102L115.837 62.3262C115.263 62.5723 114.612 62.6953 113.886 62.6953C113.44 62.6953 113.039 62.6221 112.682 62.4756C112.324 62.3232 112.061 62.1299 111.891 61.8955C111.727 61.6553 111.612 61.333 111.548 60.9287C111.495 60.6416 111.469 60.0615 111.469 59.1885V55.1191H110.335V53.1504H111.469V51.2959L113.947 49.8545V53.1504H115.635ZM121.488 59.8213L123.967 59.4434C124.072 59.9238 124.286 60.29 124.608 60.542C124.931 60.7881 125.382 60.9111 125.962 60.9111C126.601 60.9111 127.081 60.7939 127.403 60.5596C127.62 60.3955 127.729 60.1758 127.729 59.9004C127.729 59.7129 127.67 59.5576 127.553 59.4346C127.43 59.3174 127.154 59.209 126.727 59.1094C124.734 58.6699 123.472 58.2686 122.938 57.9053C122.2 57.4014 121.831 56.7012 121.831 55.8047C121.831 54.9961 122.15 54.3164 122.789 53.7656C123.428 53.2148 124.418 52.9395 125.76 52.9395C127.037 52.9395 127.986 53.1475 128.607 53.5635C129.229 53.9795 129.656 54.5947 129.891 55.4092L127.562 55.8398C127.462 55.4766 127.271 55.1982 126.99 55.0049C126.715 54.8115 126.319 54.7148 125.804 54.7148C125.153 54.7148 124.688 54.8057 124.406 54.9873C124.219 55.1162 124.125 55.2832 124.125 55.4883C124.125 55.6641 124.207 55.8135 124.371 55.9365C124.594 56.1006 125.361 56.332 126.674 56.6309C127.992 56.9297 128.912 57.2959 129.434 57.7295C129.949 58.1689 130.207 58.7812 130.207 59.5664C130.207 60.4219 129.85 61.1572 129.135 61.7725C128.42 62.3877 127.362 62.6953 125.962 62.6953C124.69 62.6953 123.683 62.4375 122.938 61.9219C122.2 61.4062 121.717 60.7061 121.488 59.8213ZM136.658 53.1504V55.1191H134.971V58.8809C134.971 59.6426 134.985 60.0879 135.015 60.2168C135.05 60.3398 135.123 60.4424 135.234 60.5244C135.352 60.6064 135.492 60.6475 135.656 60.6475C135.885 60.6475 136.216 60.5684 136.649 60.4102L136.86 62.3262C136.286 62.5723 135.636 62.6953 134.909 62.6953C134.464 62.6953 134.062 62.6221 133.705 62.4756C133.348 62.3232 133.084 62.1299 132.914 61.8955C132.75 61.6553 132.636 61.333 132.571 60.9287C132.519 60.6416 132.492 60.0615 132.492 59.1885V55.1191H131.358V53.1504H132.492V51.2959L134.971 49.8545V53.1504H136.658ZM140.218 55.998L137.977 55.5938C138.229 54.6914 138.662 54.0234 139.277 53.5898C139.893 53.1562 140.807 52.9395 142.02 52.9395C143.121 52.9395 143.941 53.0713 144.48 53.335C145.02 53.5928 145.397 53.9238 145.614 54.3281C145.837 54.7266 145.948 55.4619 145.948 56.5342L145.922 59.417C145.922 60.2373 145.96 60.8438 146.036 61.2363C146.118 61.623 146.268 62.0391 146.484 62.4844H144.041C143.977 62.3203 143.897 62.0771 143.804 61.7549C143.763 61.6084 143.733 61.5117 143.716 61.4648C143.294 61.875 142.843 62.1826 142.362 62.3877C141.882 62.5928 141.369 62.6953 140.824 62.6953C139.863 62.6953 139.104 62.4346 138.548 61.9131C137.997 61.3916 137.722 60.7324 137.722 59.9355C137.722 59.4082 137.848 58.9395 138.1 58.5293C138.352 58.1133 138.703 57.7969 139.154 57.5801C139.611 57.3574 140.268 57.1641 141.123 57C142.277 56.7832 143.077 56.5811 143.522 56.3936V56.1475C143.522 55.6729 143.405 55.3359 143.171 55.1367C142.937 54.9316 142.494 54.8291 141.844 54.8291C141.404 54.8291 141.062 54.917 140.815 55.0928C140.569 55.2627 140.37 55.5645 140.218 55.998ZM143.522 58.002C143.206 58.1074 142.705 58.2334 142.02 58.3799C141.334 58.5264 140.886 58.6699 140.675 58.8105C140.353 59.0391 140.191 59.3291 140.191 59.6807C140.191 60.0264 140.32 60.3252 140.578 60.5771C140.836 60.8291 141.164 60.9551 141.562 60.9551C142.008 60.9551 142.433 60.8086 142.837 60.5156C143.136 60.293 143.332 60.0205 143.426 59.6982C143.49 59.4873 143.522 59.0859 143.522 58.4941V58.002ZM150.756 62.4844H148.286V53.1504H150.58V54.4775C150.973 53.8506 151.324 53.4375 151.635 53.2383C151.951 53.0391 152.309 52.9395 152.707 52.9395C153.27 52.9395 153.812 53.0947 154.333 53.4053L153.568 55.5586C153.152 55.2891 152.766 55.1543 152.408 55.1543C152.062 55.1543 151.77 55.251 151.529 55.4443C151.289 55.6318 151.099 55.9746 150.958 56.4727C150.823 56.9707 150.756 58.0137 150.756 59.6016V62.4844ZM159.686 53.1504V55.1191H157.998V58.8809C157.998 59.6426 158.013 60.0879 158.042 60.2168C158.077 60.3398 158.15 60.4424 158.262 60.5244C158.379 60.6064 158.52 60.6475 158.684 60.6475C158.912 60.6475 159.243 60.5684 159.677 60.4102L159.888 62.3262C159.313 62.5723 158.663 62.6953 157.937 62.6953C157.491 62.6953 157.09 62.6221 156.732 62.4756C156.375 62.3232 156.111 62.1299 155.941 61.8955C155.777 61.6553 155.663 61.333 155.599 60.9287C155.546 60.6416 155.52 60.0615 155.52 59.1885V55.1191H154.386V53.1504H155.52V51.2959L157.998 49.8545V53.1504H159.686ZM162.366 59.1621L161.725 52.623V49.5996H164.396V52.623L163.764 59.1621H162.366ZM161.83 62.4844V60.0146H164.3V62.4844H161.83ZM175.471 62.4844V57.0615L170.751 49.5996H173.801L176.833 54.6973L179.804 49.5996H182.801L178.063 57.0791V62.4844H175.471ZM182.168 57.6855C182.168 56.8652 182.37 56.0713 182.774 55.3037C183.179 54.5361 183.75 53.9502 184.488 53.5459C185.232 53.1416 186.062 52.9395 186.976 52.9395C188.388 52.9395 189.545 53.3994 190.447 54.3193C191.35 55.2334 191.801 56.3906 191.801 57.791C191.801 59.2031 191.344 60.375 190.43 61.3066C189.521 62.2324 188.376 62.6953 186.993 62.6953C186.138 62.6953 185.32 62.502 184.541 62.1152C183.768 61.7285 183.179 61.1631 182.774 60.4189C182.37 59.6689 182.168 58.7578 182.168 57.6855ZM184.699 57.8174C184.699 58.7432 184.919 59.4521 185.358 59.9443C185.798 60.4365 186.34 60.6826 186.984 60.6826C187.629 60.6826 188.168 60.4365 188.602 59.9443C189.041 59.4521 189.261 58.7373 189.261 57.7998C189.261 56.8857 189.041 56.1826 188.602 55.6904C188.168 55.1982 187.629 54.9521 186.984 54.9521C186.34 54.9521 185.798 55.1982 185.358 55.6904C184.919 56.1826 184.699 56.8916 184.699 57.8174ZM199.887 62.4844V61.0869C199.547 61.585 199.099 61.9775 198.542 62.2646C197.991 62.5518 197.408 62.6953 196.793 62.6953C196.166 62.6953 195.604 62.5576 195.105 62.2822C194.607 62.0068 194.247 61.6201 194.024 61.1221C193.802 60.624 193.69 59.9355 193.69 59.0566V53.1504H196.16V57.4395C196.16 58.752 196.204 59.5576 196.292 59.8564C196.386 60.1494 196.553 60.3838 196.793 60.5596C197.033 60.7295 197.338 60.8145 197.707 60.8145C198.129 60.8145 198.507 60.7002 198.841 60.4717C199.175 60.2373 199.403 59.9502 199.526 59.6104C199.649 59.2646 199.711 58.4238 199.711 57.0879V53.1504H202.181V62.4844H199.887ZM204.729 54.1787L204.264 51.7793V49.5996H206.953V51.7793L206.549 54.1787H204.729ZM211.603 62.4844L207.841 53.1504H210.434L212.191 57.9141L212.701 59.5049C212.836 59.1006 212.921 58.834 212.956 58.7051C213.038 58.4414 213.126 58.1777 213.22 57.9141L214.995 53.1504H217.535L213.826 62.4844H211.603ZM224.461 59.5137L226.922 59.9268C226.605 60.8291 226.104 61.5176 225.419 61.9922C224.739 62.4609 223.887 62.6953 222.861 62.6953C221.238 62.6953 220.037 62.165 219.258 61.1045C218.643 60.2549 218.335 59.1826 218.335 57.8877C218.335 56.3408 218.739 55.1309 219.548 54.2578C220.356 53.3789 221.379 52.9395 222.615 52.9395C224.004 52.9395 225.1 53.3994 225.902 54.3193C226.705 55.2334 227.089 56.6367 227.054 58.5293H220.866C220.884 59.2617 221.083 59.833 221.464 60.2432C221.845 60.6475 222.319 60.8496 222.888 60.8496C223.274 60.8496 223.6 60.7441 223.863 60.5332C224.127 60.3223 224.326 59.9824 224.461 59.5137ZM224.602 57.0176C224.584 56.3027 224.399 55.7607 224.048 55.3916C223.696 55.0166 223.269 54.8291 222.765 54.8291C222.226 54.8291 221.78 55.0254 221.429 55.418C221.077 55.8105 220.904 56.3438 220.91 57.0176H224.602ZM233.856 63.0996L236.678 63.4424C236.725 63.7705 236.833 63.9961 237.003 64.1191C237.237 64.2949 237.606 64.3828 238.11 64.3828C238.755 64.3828 239.238 64.2861 239.561 64.0928C239.777 63.9639 239.941 63.7559 240.053 63.4688C240.129 63.2637 240.167 62.8857 240.167 62.335V60.9727C239.429 61.9805 238.497 62.4844 237.372 62.4844C236.118 62.4844 235.125 61.9541 234.393 60.8936C233.818 60.0557 233.531 59.0127 233.531 57.7646C233.531 56.2002 233.906 55.0049 234.656 54.1787C235.412 53.3525 236.35 52.9395 237.469 52.9395C238.623 52.9395 239.575 53.4463 240.325 54.46V53.1504H242.637V61.5264C242.637 62.6279 242.546 63.4512 242.364 63.9961C242.183 64.541 241.928 64.9688 241.6 65.2793C241.271 65.5898 240.832 65.833 240.281 66.0088C239.736 66.1846 239.045 66.2725 238.207 66.2725C236.625 66.2725 235.503 66 234.841 65.4551C234.179 64.916 233.848 64.2305 233.848 63.3984C233.848 63.3164 233.851 63.2168 233.856 63.0996ZM236.062 57.624C236.062 58.6143 236.253 59.3408 236.634 59.8037C237.021 60.2607 237.495 60.4893 238.058 60.4893C238.661 60.4893 239.171 60.2549 239.587 59.7861C240.003 59.3115 240.211 58.6113 240.211 57.6855C240.211 56.7188 240.012 56.001 239.613 55.5322C239.215 55.0635 238.711 54.8291 238.102 54.8291C237.51 54.8291 237.021 55.0605 236.634 55.5234C236.253 55.9805 236.062 56.6807 236.062 57.624ZM244.518 57.6855C244.518 56.8652 244.72 56.0713 245.124 55.3037C245.528 54.5361 246.1 53.9502 246.838 53.5459C247.582 53.1416 248.411 52.9395 249.325 52.9395C250.737 52.9395 251.895 53.3994 252.797 54.3193C253.699 55.2334 254.15 56.3906 254.15 57.791C254.15 59.2031 253.693 60.375 252.779 61.3066C251.871 62.2324 250.726 62.6953 249.343 62.6953C248.487 62.6953 247.67 62.502 246.891 62.1152C246.117 61.7285 245.528 61.1631 245.124 60.4189C244.72 59.6689 244.518 58.7578 244.518 57.6855ZM247.049 57.8174C247.049 58.7432 247.269 59.4521 247.708 59.9443C248.147 60.4365 248.689 60.6826 249.334 60.6826C249.979 60.6826 250.518 60.4365 250.951 59.9443C251.391 59.4521 251.61 58.7373 251.61 57.7998C251.61 56.8857 251.391 56.1826 250.951 55.6904C250.518 55.1982 249.979 54.9521 249.334 54.9521C248.689 54.9521 248.147 55.1982 247.708 55.6904C247.269 56.1826 247.049 56.8916 247.049 57.8174ZM260.373 53.1504V55.1191H258.686V58.8809C258.686 59.6426 258.7 60.0879 258.729 60.2168C258.765 60.3398 258.838 60.4424 258.949 60.5244C259.066 60.6064 259.207 60.6475 259.371 60.6475C259.6 60.6475 259.931 60.5684 260.364 60.4102L260.575 62.3262C260.001 62.5723 259.351 62.6953 258.624 62.6953C258.179 62.6953 257.777 62.6221 257.42 62.4756C257.062 62.3232 256.799 62.1299 256.629 61.8955C256.465 61.6553 256.351 61.333 256.286 60.9287C256.233 60.6416 256.207 60.0615 256.207 59.1885V55.1191H255.073V53.1504H256.207V51.2959L258.686 49.8545V53.1504H260.373ZM268.942 55.998L266.701 55.5938C266.953 54.6914 267.387 54.0234 268.002 53.5898C268.617 53.1562 269.531 52.9395 270.744 52.9395C271.846 52.9395 272.666 53.0713 273.205 53.335C273.744 53.5928 274.122 53.9238 274.339 54.3281C274.562 54.7266 274.673 55.4619 274.673 56.5342L274.646 59.417C274.646 60.2373 274.685 60.8438 274.761 61.2363C274.843 61.623 274.992 62.0391 275.209 62.4844H272.766C272.701 62.3203 272.622 62.0771 272.528 61.7549C272.487 61.6084 272.458 61.5117 272.44 61.4648C272.019 61.875 271.567 62.1826 271.087 62.3877C270.606 62.5928 270.094 62.6953 269.549 62.6953C268.588 62.6953 267.829 62.4346 267.272 61.9131C266.722 61.3916 266.446 60.7324 266.446 59.9355C266.446 59.4082 266.572 58.9395 266.824 58.5293C267.076 58.1133 267.428 57.7969 267.879 57.5801C268.336 57.3574 268.992 57.1641 269.848 57C271.002 56.7832 271.802 56.5811 272.247 56.3936V56.1475C272.247 55.6729 272.13 55.3359 271.896 55.1367C271.661 54.9316 271.219 54.8291 270.568 54.8291C270.129 54.8291 269.786 54.917 269.54 55.0928C269.294 55.2627 269.095 55.5645 268.942 55.998ZM272.247 58.002C271.931 58.1074 271.43 58.2334 270.744 58.3799C270.059 58.5264 269.61 58.6699 269.399 58.8105C269.077 59.0391 268.916 59.3291 268.916 59.6807C268.916 60.0264 269.045 60.3252 269.303 60.5771C269.561 60.8291 269.889 60.9551 270.287 60.9551C270.732 60.9551 271.157 60.8086 271.562 60.5156C271.86 60.293 272.057 60.0205 272.15 59.6982C272.215 59.4873 272.247 59.0859 272.247 58.4941V58.002ZM277.116 62.4844V49.5996H279.586V62.4844H277.116ZM282.126 62.4844V49.5996H284.596V62.4844H282.126ZM290.977 53.1504H293.604L295.837 59.7773L298.017 53.1504H300.574L297.278 62.1328L296.689 63.7588C296.473 64.3037 296.265 64.7197 296.065 65.0068C295.872 65.2939 295.646 65.5254 295.389 65.7012C295.137 65.8828 294.823 66.0234 294.448 66.123C294.079 66.2227 293.66 66.2725 293.191 66.2725C292.717 66.2725 292.251 66.2227 291.794 66.123L291.574 64.1895C291.961 64.2656 292.31 64.3037 292.62 64.3037C293.194 64.3037 293.619 64.1338 293.895 63.7939C294.17 63.46 294.381 63.0322 294.527 62.5107L290.977 53.1504ZM301.594 57.6855C301.594 56.8652 301.796 56.0713 302.2 55.3037C302.604 54.5361 303.176 53.9502 303.914 53.5459C304.658 53.1416 305.487 52.9395 306.401 52.9395C307.813 52.9395 308.971 53.3994 309.873 54.3193C310.775 55.2334 311.227 56.3906 311.227 57.791C311.227 59.2031 310.77 60.375 309.855 61.3066C308.947 62.2324 307.802 62.6953 306.419 62.6953C305.563 62.6953 304.746 62.502 303.967 62.1152C303.193 61.7285 302.604 61.1631 302.2 60.4189C301.796 59.6689 301.594 58.7578 301.594 57.6855ZM304.125 57.8174C304.125 58.7432 304.345 59.4521 304.784 59.9443C305.224 60.4365 305.766 60.6826 306.41 60.6826C307.055 60.6826 307.594 60.4365 308.027 59.9443C308.467 59.4521 308.687 58.7373 308.687 57.7998C308.687 56.8857 308.467 56.1826 308.027 55.6904C307.594 55.1982 307.055 54.9521 306.41 54.9521C305.766 54.9521 305.224 55.1982 304.784 55.6904C304.345 56.1826 304.125 56.8916 304.125 57.8174ZM319.312 62.4844V61.0869C318.973 61.585 318.524 61.9775 317.968 62.2646C317.417 62.5518 316.834 62.6953 316.219 62.6953C315.592 62.6953 315.029 62.5576 314.531 62.2822C314.033 62.0068 313.673 61.6201 313.45 61.1221C313.228 60.624 313.116 59.9355 313.116 59.0566V53.1504H315.586V57.4395C315.586 58.752 315.63 59.5576 315.718 59.8564C315.812 60.1494 315.979 60.3838 316.219 60.5596C316.459 60.7295 316.764 60.8145 317.133 60.8145C317.555 60.8145 317.933 60.7002 318.267 60.4717C318.601 60.2373 318.829 59.9502 318.952 59.6104C319.075 59.2646 319.137 58.4238 319.137 57.0879V53.1504H321.606V62.4844H319.312ZM326.537 62.4844H324.067V53.1504H326.361V54.4775C326.754 53.8506 327.105 53.4375 327.416 53.2383C327.732 53.0391 328.09 52.9395 328.488 52.9395C329.051 52.9395 329.593 53.0947 330.114 53.4053L329.35 55.5586C328.934 55.2891 328.547 55.1543 328.189 55.1543C327.844 55.1543 327.551 55.251 327.311 55.4443C327.07 55.6318 326.88 55.9746 326.739 56.4727C326.604 56.9707 326.537 58.0137 326.537 59.6016V62.4844ZM336.126 53.1504H338.429V54.5215C338.728 54.0527 339.132 53.6719 339.642 53.3789C340.151 53.0859 340.717 52.9395 341.338 52.9395C342.422 52.9395 343.342 53.3643 344.098 54.2139C344.854 55.0635 345.231 56.2471 345.231 57.7646C345.231 59.3232 344.851 60.5361 344.089 61.4033C343.327 62.2646 342.404 62.6953 341.32 62.6953C340.805 62.6953 340.336 62.5928 339.914 62.3877C339.498 62.1826 339.059 61.8311 338.596 61.333V66.0352H336.126V53.1504ZM338.569 57.6592C338.569 58.708 338.777 59.4844 339.193 59.9883C339.609 60.4863 340.116 60.7354 340.714 60.7354C341.288 60.7354 341.766 60.5068 342.146 60.0498C342.527 59.5869 342.718 58.8311 342.718 57.7822C342.718 56.8037 342.521 56.0771 342.129 55.6025C341.736 55.1279 341.25 54.8906 340.67 54.8906C340.066 54.8906 339.565 55.125 339.167 55.5938C338.769 56.0566 338.569 56.7451 338.569 57.6592ZM349.046 55.998L346.805 55.5938C347.057 54.6914 347.49 54.0234 348.105 53.5898C348.721 53.1562 349.635 52.9395 350.848 52.9395C351.949 52.9395 352.77 53.0713 353.309 53.335C353.848 53.5928 354.226 53.9238 354.442 54.3281C354.665 54.7266 354.776 55.4619 354.776 56.5342L354.75 59.417C354.75 60.2373 354.788 60.8438 354.864 61.2363C354.946 61.623 355.096 62.0391 355.312 62.4844H352.869C352.805 62.3203 352.726 62.0771 352.632 61.7549C352.591 61.6084 352.562 61.5117 352.544 61.4648C352.122 61.875 351.671 62.1826 351.19 62.3877C350.71 62.5928 350.197 62.6953 349.652 62.6953C348.691 62.6953 347.933 62.4346 347.376 61.9131C346.825 61.3916 346.55 60.7324 346.55 59.9355C346.55 59.4082 346.676 58.9395 346.928 58.5293C347.18 58.1133 347.531 57.7969 347.982 57.5801C348.439 57.3574 349.096 57.1641 349.951 57C351.105 56.7832 351.905 56.5811 352.351 56.3936V56.1475C352.351 55.6729 352.233 55.3359 351.999 55.1367C351.765 54.9316 351.322 54.8291 350.672 54.8291C350.232 54.8291 349.89 54.917 349.644 55.0928C349.397 55.2627 349.198 55.5645 349.046 55.998ZM352.351 58.002C352.034 58.1074 351.533 58.2334 350.848 58.3799C350.162 58.5264 349.714 58.6699 349.503 58.8105C349.181 59.0391 349.02 59.3291 349.02 59.6807C349.02 60.0264 349.148 60.3252 349.406 60.5771C349.664 60.8291 349.992 60.9551 350.391 60.9551C350.836 60.9551 351.261 60.8086 351.665 60.5156C351.964 60.293 352.16 60.0205 352.254 59.6982C352.318 59.4873 352.351 59.0859 352.351 58.4941V58.002ZM359.584 62.4844H357.114V53.1504H359.408V54.4775C359.801 53.8506 360.152 53.4375 360.463 53.2383C360.779 53.0391 361.137 52.9395 361.535 52.9395C362.098 52.9395 362.64 53.0947 363.161 53.4053L362.396 55.5586C361.98 55.2891 361.594 55.1543 361.236 55.1543C360.891 55.1543 360.598 55.251 360.357 55.4443C360.117 55.6318 359.927 55.9746 359.786 56.4727C359.651 56.9707 359.584 58.0137 359.584 59.6016V62.4844ZM368.514 53.1504V55.1191H366.826V58.8809C366.826 59.6426 366.841 60.0879 366.87 60.2168C366.905 60.3398 366.979 60.4424 367.09 60.5244C367.207 60.6064 367.348 60.6475 367.512 60.6475C367.74 60.6475 368.071 60.5684 368.505 60.4102L368.716 62.3262C368.142 62.5723 367.491 62.6953 366.765 62.6953C366.319 62.6953 365.918 62.6221 365.561 62.4756C365.203 62.3232 364.939 62.1299 364.77 61.8955C364.605 61.6553 364.491 61.333 364.427 60.9287C364.374 60.6416 364.348 60.0615 364.348 59.1885V55.1191H363.214V53.1504H364.348V51.2959L366.826 49.8545V53.1504H368.514ZM369.357 59.8213L371.836 59.4434C371.941 59.9238 372.155 60.29 372.478 60.542C372.8 60.7881 373.251 60.9111 373.831 60.9111C374.47 60.9111 374.95 60.7939 375.272 60.5596C375.489 60.3955 375.598 60.1758 375.598 59.9004C375.598 59.7129 375.539 59.5576 375.422 59.4346C375.299 59.3174 375.023 59.209 374.596 59.1094C372.604 58.6699 371.341 58.2686 370.808 57.9053C370.069 57.4014 369.7 56.7012 369.7 55.8047C369.7 54.9961 370.02 54.3164 370.658 53.7656C371.297 53.2148 372.287 52.9395 373.629 52.9395C374.906 52.9395 375.855 53.1475 376.477 53.5635C377.098 53.9795 377.525 54.5947 377.76 55.4092L375.431 55.8398C375.331 55.4766 375.141 55.1982 374.859 55.0049C374.584 54.8115 374.188 54.7148 373.673 54.7148C373.022 54.7148 372.557 54.8057 372.275 54.9873C372.088 55.1162 371.994 55.2832 371.994 55.4883C371.994 55.6641 372.076 55.8135 372.24 55.9365C372.463 56.1006 373.23 56.332 374.543 56.6309C375.861 56.9297 376.781 57.2959 377.303 57.7295C377.818 58.1689 378.076 58.7812 378.076 59.5664C378.076 60.4219 377.719 61.1572 377.004 61.7725C376.289 62.3877 375.231 62.6953 373.831 62.6953C372.56 62.6953 371.552 62.4375 370.808 61.9219C370.069 61.4062 369.586 60.7061 369.357 59.8213ZM387.621 62.4844H385.151V53.1504H387.445V54.4775C387.838 53.8506 388.189 53.4375 388.5 53.2383C388.816 53.0391 389.174 52.9395 389.572 52.9395C390.135 52.9395 390.677 53.0947 391.198 53.4053L390.434 55.5586C390.018 55.2891 389.631 55.1543 389.273 55.1543C388.928 55.1543 388.635 55.251 388.395 55.4443C388.154 55.6318 387.964 55.9746 387.823 56.4727C387.688 56.9707 387.621 58.0137 387.621 59.6016V62.4844ZM397.676 59.5137L400.137 59.9268C399.82 60.8291 399.319 61.5176 398.634 61.9922C397.954 62.4609 397.102 62.6953 396.076 62.6953C394.453 62.6953 393.252 62.165 392.473 61.1045C391.857 60.2549 391.55 59.1826 391.55 57.8877C391.55 56.3408 391.954 55.1309 392.763 54.2578C393.571 53.3789 394.594 52.9395 395.83 52.9395C397.219 52.9395 398.314 53.3994 399.117 54.3193C399.92 55.2334 400.304 56.6367 400.269 58.5293H394.081C394.099 59.2617 394.298 59.833 394.679 60.2432C395.06 60.6475 395.534 60.8496 396.103 60.8496C396.489 60.8496 396.814 60.7441 397.078 60.5332C397.342 60.3223 397.541 59.9824 397.676 59.5137ZM397.816 57.0176C397.799 56.3027 397.614 55.7607 397.263 55.3916C396.911 55.0166 396.483 54.8291 395.979 54.8291C395.44 54.8291 394.995 55.0254 394.644 55.418C394.292 55.8105 394.119 56.3438 394.125 57.0176H397.816ZM404.136 55.998L401.895 55.5938C402.146 54.6914 402.58 54.0234 403.195 53.5898C403.811 53.1562 404.725 52.9395 405.938 52.9395C407.039 52.9395 407.859 53.0713 408.398 53.335C408.938 53.5928 409.315 53.9238 409.532 54.3281C409.755 54.7266 409.866 55.4619 409.866 56.5342L409.84 59.417C409.84 60.2373 409.878 60.8438 409.954 61.2363C410.036 61.623 410.186 62.0391 410.402 62.4844H407.959C407.895 62.3203 407.815 62.0771 407.722 61.7549C407.681 61.6084 407.651 61.5117 407.634 61.4648C407.212 61.875 406.761 62.1826 406.28 62.3877C405.8 62.5928 405.287 62.6953 404.742 62.6953C403.781 62.6953 403.022 62.4346 402.466 61.9131C401.915 61.3916 401.64 60.7324 401.64 59.9355C401.64 59.4082 401.766 58.9395 402.018 58.5293C402.27 58.1133 402.621 57.7969 403.072 57.5801C403.529 57.3574 404.186 57.1641 405.041 57C406.195 56.7832 406.995 56.5811 407.44 56.3936V56.1475C407.44 55.6729 407.323 55.3359 407.089 55.1367C406.854 54.9316 406.412 54.8291 405.762 54.8291C405.322 54.8291 404.979 54.917 404.733 55.0928C404.487 55.2627 404.288 55.5645 404.136 55.998ZM407.44 58.002C407.124 58.1074 406.623 58.2334 405.938 58.3799C405.252 58.5264 404.804 58.6699 404.593 58.8105C404.271 59.0391 404.109 59.3291 404.109 59.6807C404.109 60.0264 404.238 60.3252 404.496 60.5771C404.754 60.8291 405.082 60.9551 405.48 60.9551C405.926 60.9551 406.351 60.8086 406.755 60.5156C407.054 60.293 407.25 60.0205 407.344 59.6982C407.408 59.4873 407.44 59.0859 407.44 58.4941V58.002ZM420.87 62.4844H418.576V61.1133C418.195 61.6465 417.744 62.0449 417.223 62.3086C416.707 62.5664 416.186 62.6953 415.658 62.6953C414.586 62.6953 413.666 62.2646 412.898 61.4033C412.137 60.5361 411.756 59.3291 411.756 57.7822C411.756 56.2002 412.128 54.999 412.872 54.1787C413.616 53.3525 414.557 52.9395 415.693 52.9395C416.736 52.9395 417.639 53.373 418.4 54.2402V49.5996H420.87V62.4844ZM414.278 57.6152C414.278 58.6113 414.416 59.332 414.691 59.7773C415.09 60.4219 415.646 60.7441 416.361 60.7441C416.93 60.7441 417.413 60.5039 417.812 60.0234C418.21 59.5371 418.409 58.8135 418.409 57.8525C418.409 56.7803 418.216 56.0098 417.829 55.541C417.442 55.0664 416.947 54.8291 416.344 54.8291C415.758 54.8291 415.266 55.0635 414.867 55.5322C414.475 55.9951 414.278 56.6895 414.278 57.6152ZM422.145 53.1504H424.772L427.005 59.7773L429.185 53.1504H431.742L428.446 62.1328L427.857 63.7588C427.641 64.3037 427.433 64.7197 427.233 65.0068C427.04 65.2939 426.814 65.5254 426.557 65.7012C426.305 65.8828 425.991 66.0234 425.616 66.123C425.247 66.2227 424.828 66.2725 424.359 66.2725C423.885 66.2725 423.419 66.2227 422.962 66.123L422.742 64.1895C423.129 64.2656 423.478 64.3037 423.788 64.3037C424.362 64.3037 424.787 64.1338 425.062 63.7939C425.338 63.46 425.549 63.0322 425.695 62.5107L422.145 53.1504ZM431.997 62.4844V60.0146H434.467V62.4844H431.997Z" fill="#1A2BC3"/>
<path d="M202 92.7153C202 86.5126 207.028 81.4844 213.231 81.4844H250.769C256.972 81.4844 262 86.5126 262 92.7153V109.936C262 116.139 256.972 121.167 250.769 121.167H213.231C207.028 121.167 202 116.139 202 109.936V92.7153Z" fill="#1A2BC3"/>
<path d="M215.662 106.592V95.0151H217.936L222.674 102.746V95.0151H224.846V106.592H222.5L217.833 99.0425V106.592H215.662ZM232.166 103.923L234.377 104.294C234.093 105.105 233.643 105.723 233.027 106.15C232.416 106.571 231.65 106.781 230.729 106.781C229.27 106.781 228.191 106.305 227.491 105.352C226.938 104.589 226.662 103.625 226.662 102.462C226.662 101.072 227.025 99.9848 227.752 99.2004C228.478 98.4108 229.397 98.0159 230.508 98.0159C231.755 98.0159 232.74 98.4292 233.461 99.2557C234.182 100.077 234.527 101.338 234.495 103.038H228.936C228.952 103.696 229.131 104.21 229.473 104.578C229.815 104.941 230.242 105.123 230.752 105.123C231.1 105.123 231.392 105.028 231.629 104.839C231.866 104.649 232.045 104.344 232.166 103.923ZM232.292 101.68C232.276 101.038 232.111 100.551 231.795 100.219C231.479 99.8822 231.095 99.7137 230.642 99.7137C230.157 99.7137 229.757 99.8901 229.441 100.243C229.126 100.596 228.97 101.075 228.976 101.68H232.292ZM235.246 106.592L238.27 102.272L235.372 98.2054H238.081L239.565 100.511L241.129 98.2054H243.735L240.892 102.178L243.995 106.592H241.271L239.565 103.994L237.844 106.592H235.246ZM249.16 98.2054V99.9743H247.643V103.354C247.643 104.039 247.657 104.439 247.683 104.554C247.715 104.665 247.78 104.757 247.88 104.831C247.986 104.905 248.112 104.941 248.259 104.941C248.465 104.941 248.762 104.87 249.152 104.728L249.341 106.45C248.825 106.671 248.241 106.781 247.588 106.781C247.188 106.781 246.827 106.716 246.506 106.584C246.185 106.447 245.948 106.273 245.796 106.063C245.648 105.847 245.546 105.557 245.488 105.194C245.44 104.936 245.417 104.415 245.417 103.631V99.9743H244.398V98.2054H245.417V96.5392L247.643 95.2442V98.2054H249.16Z" fill="#FAFAFA"/>
<path d="M634.212 154.436C646.333 143.416 627.495 111.61 618.886 105.756C640.374 104.378 656.846 92.5756 655.71 76.9479C653.988 53.27 617.623 60.5287 605.111 63.0541C613.376 55.478 628.155 15.5735 605.111 15.5738C588.748 15.574 575.681 34.5535 573.085 43.4251C572.253 46.2684 565.237 -1.47163 551.39 0.0349328C539.731 1.30348 540.924 33.4703 544.503 50.3125C544.503 50.3125 537.311 42.3946 524.765 34.1754C512.22 25.9561 497.079 28.9842 491.023 36.3383C484.967 43.6924 487.014 58.5682 499.977 67.8633C513.083 77.261 529.884 83.5212 529.351 83.7161C527.28 84.4719 511.639 88.2039 508.196 89.9257C499.111 94.4679 485.338 99.7864 488.428 114.205C491.023 126.317 516.417 127.473 524.529 123.318C520.529 129.351 509.023 147.485 518.709 158.329C531.992 173.199 556.211 131.239 556.211 131.239C556.211 131.239 562.238 165.436 573.085 161.304C583.933 157.171 586.745 137.208 586.516 127.451C592.552 140.972 622.09 165.456 634.212 154.436Z" fill="#FFC425"/>
<path d="M595.477 88.2477C595.408 87.1229 593.764 82.0147 588.227 81.5368C582.69 81.0589 579.009 84.0193 578.606 84.6738" stroke="black" stroke-width="2.59556" stroke-linecap="round"/>
<ellipse cx="9.81446" cy="11.5363" rx="9.81446" ry="11.5363" transform="matrix(-1 0 0 1 562.431 70.8906)" fill="#FDFCFC"/>
<circle cx="6.92151" cy="6.92151" r="6.92151" transform="matrix(-1 0 0 1 559.538 75.5059)" fill="black"/>
<path d="M579.472 100.794C579.07 102.171 574.281 105.057 566.926 104.192C559.572 103.327 555.591 98.6839 555.246 97.7656" stroke="black" stroke-width="2.59556" stroke-linecap="round"/>
<ellipse cx="539.039" cy="91.7103" rx="11.68" ry="11.2474" fill="url(#paint0_radial_1085_2748)"/>
<ellipse cx="594.411" cy="101.228" rx="11.68" ry="11.2474" fill="url(#paint1_radial_1085_2748)"/>
<path d="M469.135 69C477.908 86.0035 486.76 98.4411 511.738 93.5967" stroke="black" stroke-width="5" stroke-linecap="round"/>
<defs>
<radialGradient id="paint0_radial_1085_2748" cx="0" cy="0" r="1" gradientUnits="userSpaceOnUse" gradientTransform="translate(539.039 91.7103) rotate(90) scale(11.2474 11.68)">
<stop offset="0.0769231" stop-color="#FF6062"/>
<stop offset="1" stop-color="#D9D9D9" stop-opacity="0"/>
</radialGradient>
<radialGradient id="paint1_radial_1085_2748" cx="0" cy="0" r="1" gradientUnits="userSpaceOnUse" gradientTransform="translate(594.411 101.228) rotate(90) scale(11.2474 11.68)">
<stop offset="0.134615" stop-color="#FF6062"/>
<stop offset="1" stop-color="#D9D9D9" stop-opacity="0"/>
</radialGradient>
</defs>
</svg>
