<svg width="546" height="162" viewBox="0 0 546 162" fill="none" xmlns="http://www.w3.org/2000/svg">
<path d="M49.958 69.6389C51.9062 70.7638 53.5268 72.3779 54.6594 74.3216C55.7921 76.2652 56.3974 78.471 56.4156 80.7205C56.4338 82.9701 55.8641 85.1853 54.763 87.147C53.6619 89.1088 52.0676 90.7489 50.1379 91.9051C48.2081 93.0612 46.0099 93.6934 43.7607 93.7389C41.5116 93.7844 39.2896 93.2417 37.3146 92.1646C35.3396 91.0874 33.6803 89.5132 32.5007 87.5976C31.3211 85.6821 30.6623 83.4916 30.5895 81.2432L30.583 80.8247L30.5895 80.4062C30.6618 78.1755 31.3109 76.0016 32.4735 74.0964C33.6362 72.1913 35.2726 70.6199 37.2233 69.5354C39.1741 68.451 41.3725 67.8905 43.6043 67.9086C45.8361 67.9268 48.0252 68.5229 49.958 69.6389ZM48.2879 77.3282C48.0655 77.1058 47.7695 76.9722 47.4556 76.9525C47.1417 76.9327 46.8314 77.0282 46.5829 77.221L46.4615 77.3282L42.208 81.5804L40.5379 79.9115L40.4165 79.8043C40.1679 79.6117 39.8577 79.5163 39.5438 79.5361C39.23 79.5559 38.9342 79.6895 38.7118 79.9119C38.4895 80.1342 38.3558 80.43 38.336 80.7439C38.3162 81.0577 38.4116 81.368 38.6043 81.6165L38.7115 81.7379L41.2948 84.3213L41.4162 84.4285C41.6427 84.6042 41.9213 84.6996 42.208 84.6996C42.4947 84.6996 42.7733 84.6042 42.9998 84.4285L43.1212 84.3213L48.2879 79.1546L48.3951 79.0332C48.5879 78.7847 48.6834 78.4743 48.6636 78.1604C48.6439 77.8465 48.5103 77.5506 48.2879 77.3282Z" fill="#72AB00"/>
<path d="M72.879 76.7362V80.5882H77.757V82.5232H72.879V87.8242H70.449V74.8102H78.657V76.7362H72.879ZM83.9584 83.8822C83.3164 83.9122 82.7764 83.9692 82.3384 84.0532C81.9004 84.1312 81.5494 84.2332 81.2854 84.3592C81.0214 84.4852 80.8324 84.6322 80.7184 84.8002C80.6044 84.9682 80.5474 85.1512 80.5474 85.3492C80.5474 85.7392 80.6614 86.0182 80.8894 86.1862C81.1234 86.3542 81.4264 86.4382 81.7984 86.4382C82.2544 86.4382 82.6474 86.3572 82.9774 86.1952C83.3134 86.0272 83.6404 85.7752 83.9584 85.4392V83.8822ZM78.8644 79.8772C79.9264 78.9052 81.2044 78.4192 82.6984 78.4192C83.2384 78.4192 83.7214 78.5092 84.1474 78.6892C84.5734 78.8632 84.9334 79.1092 85.2274 79.4272C85.5214 79.7392 85.7434 80.1142 85.8934 80.5522C86.0494 80.9902 86.1274 81.4702 86.1274 81.9922V87.8242H85.1194C84.9094 87.8242 84.7474 87.7942 84.6334 87.7342C84.5194 87.6682 84.4294 87.5392 84.3634 87.3472L84.1654 86.6812C83.9314 86.8912 83.7034 87.0772 83.4814 87.2392C83.2594 87.3952 83.0284 87.5272 82.7884 87.6352C82.5484 87.7432 82.2904 87.8242 82.0144 87.8782C81.7444 87.9382 81.4444 87.9682 81.1144 87.9682C80.7244 87.9682 80.3644 87.9172 80.0344 87.8152C79.7044 87.7072 79.4194 87.5482 79.1794 87.3382C78.9394 87.1282 78.7534 86.8672 78.6214 86.5552C78.4894 86.2432 78.4234 85.8802 78.4234 85.4662C78.4234 85.2322 78.4624 85.0012 78.5404 84.7732C78.6184 84.5392 78.7444 84.3172 78.9184 84.1072C79.0984 83.8972 79.3294 83.6992 79.6114 83.5132C79.8934 83.3272 80.2384 83.1652 80.6464 83.0272C81.0604 82.8892 81.5404 82.7782 82.0864 82.6942C82.6324 82.6042 83.2564 82.5502 83.9584 82.5322V81.9922C83.9584 81.3742 83.8264 80.9182 83.5624 80.6242C83.2984 80.3242 82.9174 80.1742 82.4194 80.1742C82.0594 80.1742 81.7594 80.2162 81.5194 80.3002C81.2854 80.3842 81.0784 80.4802 80.8984 80.5882C80.7184 80.6902 80.5534 80.7832 80.4034 80.8672C80.2594 80.9512 80.0974 80.9932 79.9174 80.9932C79.7614 80.9932 79.6294 80.9542 79.5214 80.8762C79.4134 80.7922 79.3264 80.6962 79.2604 80.5882L78.8644 79.8772ZM90.444 85.4302C90.696 85.7362 90.969 85.9522 91.263 86.0782C91.563 86.2042 91.878 86.2672 92.208 86.2672C92.55 86.2672 92.856 86.2072 93.126 86.0872C93.402 85.9612 93.636 85.7692 93.828 85.5112C94.02 85.2472 94.167 84.9142 94.269 84.5122C94.371 84.1042 94.422 83.6182 94.422 83.0542C94.422 82.0402 94.254 81.3082 93.918 80.8582C93.582 80.4022 93.099 80.1742 92.469 80.1742C92.043 80.1742 91.671 80.2732 91.353 80.4712C91.035 80.6632 90.732 80.9362 90.444 81.2902V85.4302ZM90.444 79.7242C90.816 79.3342 91.227 79.0252 91.677 78.7972C92.133 78.5632 92.652 78.4462 93.234 78.4462C93.768 78.4462 94.248 78.5512 94.674 78.7612C95.106 78.9712 95.472 79.2742 95.772 79.6702C96.078 80.0602 96.312 80.5342 96.474 81.0922C96.636 81.6502 96.717 82.2772 96.717 82.9732C96.717 83.7232 96.624 84.4042 96.438 85.0162C96.252 85.6282 95.985 86.1532 95.637 86.5912C95.295 87.0232 94.881 87.3592 94.395 87.5992C93.909 87.8392 93.369 87.9592 92.775 87.9592C92.487 87.9592 92.226 87.9292 91.992 87.8692C91.758 87.8152 91.542 87.7372 91.344 87.6352C91.146 87.5332 90.963 87.4102 90.795 87.2662C90.633 87.1162 90.477 86.9512 90.327 86.7712L90.228 87.3922C90.192 87.5482 90.129 87.6592 90.039 87.7252C89.955 87.7912 89.838 87.8242 89.688 87.8242H88.221V74.4502H90.444V79.7242ZM106.39 78.5902V87.8242H105.031C104.737 87.8242 104.551 87.6892 104.473 87.4192L104.32 86.6812C103.942 87.0652 103.525 87.3772 103.069 87.6172C102.613 87.8512 102.076 87.9682 101.458 87.9682C100.954 87.9682 100.507 87.8842 100.117 87.7162C99.7329 87.5422 99.4089 87.2992 99.1449 86.9872C98.8809 86.6752 98.6799 86.3062 98.5419 85.8802C98.4099 85.4482 98.3439 84.9742 98.3439 84.4582V78.5902H100.567V84.4582C100.567 85.0222 100.696 85.4602 100.954 85.7722C101.218 86.0782 101.611 86.2312 102.133 86.2312C102.517 86.2312 102.877 86.1472 103.213 85.9792C103.549 85.8052 103.867 85.5682 104.167 85.2682V78.5902H106.39ZM110.844 74.4502V87.8242H108.621V74.4502H110.844ZM117.145 78.4462C117.829 78.4462 118.45 78.5572 119.008 78.7792C119.572 79.0012 120.052 79.3162 120.448 79.7242C120.85 80.1322 121.159 80.6302 121.375 81.2182C121.591 81.8062 121.699 82.4632 121.699 83.1892C121.699 83.9212 121.591 84.5812 121.375 85.1692C121.159 85.7572 120.85 86.2582 120.448 86.6722C120.052 87.0862 119.572 87.4042 119.008 87.6262C118.45 87.8482 117.829 87.9592 117.145 87.9592C116.455 87.9592 115.828 87.8482 115.264 87.6262C114.7 87.4042 114.217 87.0862 113.815 86.6722C113.419 86.2582 113.11 85.7572 112.888 85.1692C112.672 84.5812 112.564 83.9212 112.564 83.1892C112.564 82.4632 112.672 81.8062 112.888 81.2182C113.11 80.6302 113.419 80.1322 113.815 79.7242C114.217 79.3162 114.7 79.0012 115.264 78.7792C115.828 78.5572 116.455 78.4462 117.145 78.4462ZM117.145 86.2492C117.913 86.2492 118.48 85.9912 118.846 85.4752C119.218 84.9592 119.404 84.2032 119.404 83.2072C119.404 82.2112 119.218 81.4522 118.846 80.9302C118.48 80.4082 117.913 80.1472 117.145 80.1472C116.365 80.1472 115.786 80.4112 115.408 80.9392C115.036 81.4612 114.85 82.2172 114.85 83.2072C114.85 84.1972 115.036 84.9532 115.408 85.4752C115.786 85.9912 116.365 86.2492 117.145 86.2492ZM131.351 78.5902V87.8242H129.992C129.698 87.8242 129.512 87.6892 129.434 87.4192L129.281 86.6812C128.903 87.0652 128.486 87.3772 128.03 87.6172C127.574 87.8512 127.037 87.9682 126.419 87.9682C125.915 87.9682 125.468 87.8842 125.078 87.7162C124.694 87.5422 124.37 87.2992 124.106 86.9872C123.842 86.6752 123.641 86.3062 123.503 85.8802C123.371 85.4482 123.305 84.9742 123.305 84.4582V78.5902H125.528V84.4582C125.528 85.0222 125.657 85.4602 125.915 85.7722C126.179 86.0782 126.572 86.2312 127.094 86.2312C127.478 86.2312 127.838 86.1472 128.174 85.9792C128.51 85.8052 128.828 85.5682 129.128 85.2682V78.5902H131.351ZM139.189 80.3902C139.129 80.4862 139.066 80.5552 139 80.5972C138.934 80.6332 138.85 80.6512 138.748 80.6512C138.64 80.6512 138.523 80.6212 138.397 80.5612C138.277 80.5012 138.136 80.4352 137.974 80.3632C137.812 80.2852 137.626 80.2162 137.416 80.1562C137.212 80.0962 136.969 80.0662 136.687 80.0662C136.249 80.0662 135.904 80.1592 135.652 80.3452C135.406 80.5312 135.283 80.7742 135.283 81.0742C135.283 81.2722 135.346 81.4402 135.472 81.5782C135.604 81.7102 135.775 81.8272 135.985 81.9292C136.201 82.0312 136.444 82.1242 136.714 82.2082C136.984 82.2862 137.257 82.3732 137.533 82.4692C137.815 82.5652 138.091 82.6762 138.361 82.8022C138.631 82.9222 138.871 83.0782 139.081 83.2702C139.297 83.4562 139.468 83.6812 139.594 83.9452C139.726 84.2092 139.792 84.5272 139.792 84.8992C139.792 85.3432 139.711 85.7542 139.549 86.1322C139.393 86.5042 139.159 86.8282 138.847 87.1042C138.535 87.3742 138.148 87.5872 137.686 87.7432C137.23 87.8932 136.702 87.9682 136.102 87.9682C135.784 87.9682 135.472 87.9382 135.166 87.8782C134.866 87.8242 134.575 87.7462 134.293 87.6442C134.017 87.5422 133.759 87.4222 133.519 87.2842C133.285 87.1462 133.078 86.9962 132.898 86.8342L133.411 85.9882C133.477 85.8862 133.555 85.8082 133.645 85.7542C133.735 85.7002 133.849 85.6732 133.987 85.6732C134.125 85.6732 134.254 85.7122 134.374 85.7902C134.5 85.8682 134.644 85.9522 134.806 86.0422C134.968 86.1322 135.157 86.2162 135.373 86.2942C135.595 86.3722 135.874 86.4112 136.21 86.4112C136.474 86.4112 136.699 86.3812 136.885 86.3212C137.077 86.2552 137.233 86.1712 137.353 86.0692C137.479 85.9672 137.569 85.8502 137.623 85.7182C137.683 85.5802 137.713 85.4392 137.713 85.2952C137.713 85.0792 137.647 84.9022 137.515 84.7642C137.389 84.6262 137.218 84.5062 137.002 84.4042C136.792 84.3022 136.549 84.2122 136.273 84.1342C136.003 84.0502 135.724 83.9602 135.436 83.8642C135.154 83.7682 134.875 83.6572 134.599 83.5312C134.329 83.3992 134.086 83.2342 133.87 83.0362C133.66 82.8382 133.489 82.5952 133.357 82.3072C133.231 82.0192 133.168 81.6712 133.168 81.2632C133.168 80.8852 133.243 80.5252 133.393 80.1832C133.543 79.8412 133.762 79.5442 134.05 79.2922C134.344 79.0342 134.707 78.8302 135.139 78.6802C135.577 78.5242 136.081 78.4462 136.651 78.4462C137.287 78.4462 137.866 78.5512 138.388 78.7612C138.91 78.9712 139.345 79.2472 139.693 79.5892L139.189 80.3902ZM143.949 74.8102V79.9582C143.949 80.5042 143.922 81.0412 143.868 81.5692C143.814 82.0912 143.745 82.6462 143.661 83.2342H142.149C142.065 82.6462 141.996 82.0912 141.942 81.5692C141.888 81.0412 141.861 80.5042 141.861 79.9582V74.8102H143.949ZM141.51 86.6002C141.51 86.4142 141.543 86.2372 141.609 86.0692C141.681 85.9012 141.777 85.7572 141.897 85.6372C142.023 85.5172 142.17 85.4212 142.338 85.3492C142.506 85.2772 142.686 85.2412 142.878 85.2412C143.064 85.2412 143.241 85.2772 143.409 85.3492C143.577 85.4212 143.721 85.5172 143.841 85.6372C143.967 85.7572 144.066 85.9012 144.138 86.0692C144.21 86.2372 144.246 86.4142 144.246 86.6002C144.246 86.7922 144.21 86.9722 144.138 87.1402C144.066 87.3022 143.967 87.4432 143.841 87.5632C143.721 87.6832 143.577 87.7762 143.409 87.8422C143.241 87.9142 143.064 87.9502 142.878 87.9502C142.686 87.9502 142.506 87.9142 142.338 87.8422C142.17 87.7762 142.023 87.6832 141.897 87.5632C141.777 87.4432 141.681 87.3022 141.609 87.1402C141.543 86.9722 141.51 86.7922 141.51 86.6002ZM159.801 76.7992H155.877V87.8242H153.456V76.7992H149.532V74.8102H159.801V76.7992ZM163.217 79.5802C163.577 79.2442 163.973 78.9712 164.405 78.7612C164.837 78.5512 165.344 78.4462 165.926 78.4462C166.43 78.4462 166.877 78.5332 167.267 78.7072C167.657 78.8752 167.981 79.1152 168.239 79.4272C168.503 79.7332 168.701 80.1022 168.833 80.5342C168.971 80.9602 169.04 81.4312 169.04 81.9472V87.8242H166.817V81.9472C166.817 81.3832 166.688 80.9482 166.43 80.6422C166.172 80.3302 165.779 80.1742 165.251 80.1742C164.867 80.1742 164.507 80.2612 164.171 80.4352C163.835 80.6092 163.517 80.8462 163.217 81.1462V87.8242H160.994V74.4502H163.217V79.5802ZM177.104 82.1452C177.104 81.8572 177.062 81.5872 176.978 81.3352C176.9 81.0772 176.78 80.8522 176.618 80.6602C176.456 80.4682 176.249 80.3182 175.997 80.2102C175.751 80.0962 175.463 80.0392 175.133 80.0392C174.491 80.0392 173.984 80.2222 173.612 80.5882C173.246 80.9542 173.012 81.4732 172.91 82.1452H177.104ZM172.865 83.4862C172.901 83.9602 172.985 84.3712 173.117 84.7192C173.249 85.0612 173.423 85.3462 173.639 85.5742C173.855 85.7962 174.11 85.9642 174.404 86.0782C174.704 86.1862 175.034 86.2402 175.394 86.2402C175.754 86.2402 176.063 86.1982 176.321 86.1142C176.585 86.0302 176.813 85.9372 177.005 85.8352C177.203 85.7332 177.374 85.6402 177.518 85.5562C177.668 85.4722 177.812 85.4302 177.95 85.4302C178.136 85.4302 178.274 85.4992 178.364 85.6372L179.003 86.4472C178.757 86.7352 178.481 86.9782 178.175 87.1762C177.869 87.3682 177.548 87.5242 177.212 87.6442C176.882 87.7582 176.543 87.8392 176.195 87.8872C175.853 87.9352 175.52 87.9592 175.196 87.9592C174.554 87.9592 173.957 87.8542 173.405 87.6442C172.853 87.4282 172.373 87.1132 171.965 86.6992C171.557 86.2792 171.236 85.7632 171.002 85.1512C170.768 84.5332 170.651 83.8192 170.651 83.0092C170.651 82.3792 170.753 81.7882 170.957 81.2362C171.161 80.6782 171.452 80.1952 171.83 79.7872C172.214 79.3732 172.679 79.0462 173.225 78.8062C173.777 78.5662 174.398 78.4462 175.088 78.4462C175.67 78.4462 176.207 78.5392 176.699 78.7252C177.191 78.9112 177.614 79.1842 177.968 79.5442C178.322 79.8982 178.598 80.3362 178.796 80.8582C179 81.3742 179.102 81.9652 179.102 82.6312C179.102 82.9672 179.066 83.1952 178.994 83.3152C178.922 83.4292 178.784 83.4862 178.58 83.4862H172.865ZM187.37 85.4302C187.622 85.7362 187.895 85.9522 188.189 86.0782C188.489 86.2042 188.804 86.2672 189.134 86.2672C189.476 86.2672 189.782 86.2072 190.052 86.0872C190.328 85.9612 190.562 85.7692 190.754 85.5112C190.946 85.2472 191.093 84.9142 191.195 84.5122C191.297 84.1042 191.348 83.6182 191.348 83.0542C191.348 82.0402 191.18 81.3082 190.844 80.8582C190.508 80.4022 190.025 80.1742 189.395 80.1742C188.969 80.1742 188.597 80.2732 188.279 80.4712C187.961 80.6632 187.658 80.9362 187.37 81.2902V85.4302ZM187.37 79.7242C187.742 79.3342 188.153 79.0252 188.603 78.7972C189.059 78.5632 189.578 78.4462 190.16 78.4462C190.694 78.4462 191.174 78.5512 191.6 78.7612C192.032 78.9712 192.398 79.2742 192.698 79.6702C193.004 80.0602 193.238 80.5342 193.4 81.0922C193.562 81.6502 193.643 82.2772 193.643 82.9732C193.643 83.7232 193.55 84.4042 193.364 85.0162C193.178 85.6282 192.911 86.1532 192.563 86.5912C192.221 87.0232 191.807 87.3592 191.321 87.5992C190.835 87.8392 190.295 87.9592 189.701 87.9592C189.413 87.9592 189.152 87.9292 188.918 87.8692C188.684 87.8152 188.468 87.7372 188.27 87.6352C188.072 87.5332 187.889 87.4102 187.721 87.2662C187.559 87.1162 187.403 86.9512 187.253 86.7712L187.154 87.3922C187.118 87.5482 187.055 87.6592 186.965 87.7252C186.881 87.7912 186.764 87.8242 186.614 87.8242H185.147V74.4502H187.37V79.7242ZM203.316 78.5902V87.8242H201.957C201.663 87.8242 201.477 87.6892 201.399 87.4192L201.246 86.6812C200.868 87.0652 200.451 87.3772 199.995 87.6172C199.539 87.8512 199.002 87.9682 198.384 87.9682C197.88 87.9682 197.433 87.8842 197.043 87.7162C196.659 87.5422 196.335 87.2992 196.071 86.9872C195.807 86.6752 195.606 86.3062 195.468 85.8802C195.336 85.4482 195.27 84.9742 195.27 84.4582V78.5902H197.493V84.4582C197.493 85.0222 197.622 85.4602 197.88 85.7722C198.144 86.0782 198.537 86.2312 199.059 86.2312C199.443 86.2312 199.803 86.1472 200.139 85.9792C200.475 85.8052 200.793 85.5682 201.093 85.2682V78.5902H203.316ZM208.598 87.9682C207.794 87.9682 207.176 87.7432 206.744 87.2932C206.318 86.8372 206.105 86.2102 206.105 85.4122V80.2552H205.16C205.04 80.2552 204.938 80.2162 204.854 80.1382C204.77 80.0602 204.728 79.9432 204.728 79.7872V78.9052L206.213 78.6622L206.681 76.1422C206.711 76.0222 206.768 75.9292 206.852 75.8632C206.936 75.7972 207.044 75.7642 207.176 75.7642H208.328V78.6712H212.171L212.648 76.1422C212.678 76.0222 212.732 75.9292 212.81 75.8632C212.894 75.7972 213.005 75.7642 213.143 75.7642H214.286V78.6712H216.752V80.2552H214.286V85.2592C214.286 85.5472 214.358 85.7722 214.502 85.9342C214.646 86.0962 214.841 86.1772 215.087 86.1772C215.219 86.1772 215.333 86.1622 215.429 86.1322C215.525 86.0962 215.606 86.0602 215.672 86.0242C215.744 85.9882 215.807 85.9552 215.861 85.9252C215.915 85.8892 215.969 85.8712 216.023 85.8712C216.089 85.8712 216.143 85.8892 216.185 85.9252C216.227 85.9552 216.272 86.0032 216.32 86.0692L216.986 87.1492C216.662 87.4192 216.29 87.6232 215.87 87.7612C215.45 87.8992 215.015 87.9682 214.565 87.9682C213.761 87.9682 213.143 87.7432 212.711 87.2932C212.279 86.8372 212.063 86.2102 212.063 85.4122V80.2552H208.328V85.2592C208.328 85.5472 208.397 85.7722 208.535 85.9342C208.679 86.0962 208.874 86.1772 209.12 86.1772C209.258 86.1772 209.372 86.1622 209.462 86.1322C209.558 86.0962 209.639 86.0602 209.705 86.0242C209.777 85.9882 209.84 85.9552 209.894 85.9252C209.948 85.8892 210.002 85.8712 210.056 85.8712C210.122 85.8712 210.176 85.8892 210.218 85.9252C210.26 85.9552 210.305 86.0032 210.353 86.0692L211.019 87.1492C210.695 87.4192 210.323 87.6232 209.903 87.7612C209.483 87.8992 209.048 87.9682 208.598 87.9682ZM222.192 78.4462C222.876 78.4462 223.497 78.5572 224.055 78.7792C224.619 79.0012 225.099 79.3162 225.495 79.7242C225.897 80.1322 226.206 80.6302 226.422 81.2182C226.638 81.8062 226.746 82.4632 226.746 83.1892C226.746 83.9212 226.638 84.5812 226.422 85.1692C226.206 85.7572 225.897 86.2582 225.495 86.6722C225.099 87.0862 224.619 87.4042 224.055 87.6262C223.497 87.8482 222.876 87.9592 222.192 87.9592C221.502 87.9592 220.875 87.8482 220.311 87.6262C219.747 87.4042 219.264 87.0862 218.862 86.6722C218.466 86.2582 218.157 85.7572 217.935 85.1692C217.719 84.5812 217.611 83.9212 217.611 83.1892C217.611 82.4632 217.719 81.8062 217.935 81.2182C218.157 80.6302 218.466 80.1322 218.862 79.7242C219.264 79.3162 219.747 79.0012 220.311 78.7792C220.875 78.5572 221.502 78.4462 222.192 78.4462ZM222.192 86.2492C222.96 86.2492 223.527 85.9912 223.893 85.4752C224.265 84.9592 224.451 84.2032 224.451 83.2072C224.451 82.2112 224.265 81.4522 223.893 80.9302C223.527 80.4082 222.96 80.1472 222.192 80.1472C221.412 80.1472 220.833 80.4112 220.455 80.9392C220.083 81.4612 219.897 82.2172 219.897 83.2072C219.897 84.1972 220.083 84.9532 220.455 85.4752C220.833 85.9912 221.412 86.2492 222.192 86.2492ZM230.521 79.7242C230.707 79.5382 230.902 79.3672 231.106 79.2112C231.316 79.0492 231.535 78.9142 231.763 78.8062C231.997 78.6922 232.246 78.6052 232.51 78.5452C232.774 78.4792 233.062 78.4462 233.374 78.4462C233.878 78.4462 234.325 78.5332 234.715 78.7072C235.105 78.8752 235.429 79.1152 235.687 79.4272C235.951 79.7332 236.149 80.1022 236.281 80.5342C236.419 80.9602 236.488 81.4312 236.488 81.9472V87.8242H234.265V81.9472C234.265 81.3832 234.136 80.9482 233.878 80.6422C233.62 80.3302 233.227 80.1742 232.699 80.1742C232.315 80.1742 231.955 80.2612 231.619 80.4352C231.283 80.6092 230.965 80.8462 230.665 81.1462V87.8242H228.442V78.5902H229.801C230.089 78.5902 230.278 78.7252 230.368 78.9952L230.521 79.7242ZM245.283 78.5902V87.8242H243.051V78.5902H245.283ZM245.589 75.8992C245.589 76.0912 245.55 76.2712 245.472 76.4392C245.394 76.6072 245.289 76.7542 245.157 76.8802C245.031 77.0062 244.881 77.1082 244.707 77.1862C244.533 77.2582 244.347 77.2942 244.149 77.2942C243.957 77.2942 243.774 77.2582 243.6 77.1862C243.432 77.1082 243.285 77.0062 243.159 76.8802C243.033 76.7542 242.931 76.6072 242.853 76.4392C242.781 76.2712 242.745 76.0912 242.745 75.8992C242.745 75.7012 242.781 75.5152 242.853 75.3412C242.931 75.1672 243.033 75.0172 243.159 74.8912C243.285 74.7652 243.432 74.6662 243.6 74.5942C243.774 74.5162 243.957 74.4772 244.149 74.4772C244.347 74.4772 244.533 74.5162 244.707 74.5942C244.881 74.6662 245.031 74.7652 245.157 74.8912C245.289 75.0172 245.394 75.1672 245.472 75.3412C245.55 75.5152 245.589 75.7012 245.589 75.8992ZM253.183 80.3902C253.123 80.4862 253.06 80.5552 252.994 80.5972C252.928 80.6332 252.844 80.6512 252.742 80.6512C252.634 80.6512 252.517 80.6212 252.391 80.5612C252.271 80.5012 252.13 80.4352 251.968 80.3632C251.806 80.2852 251.62 80.2162 251.41 80.1562C251.206 80.0962 250.963 80.0662 250.681 80.0662C250.243 80.0662 249.898 80.1592 249.646 80.3452C249.4 80.5312 249.277 80.7742 249.277 81.0742C249.277 81.2722 249.34 81.4402 249.466 81.5782C249.598 81.7102 249.769 81.8272 249.979 81.9292C250.195 82.0312 250.438 82.1242 250.708 82.2082C250.978 82.2862 251.251 82.3732 251.527 82.4692C251.809 82.5652 252.085 82.6762 252.355 82.8022C252.625 82.9222 252.865 83.0782 253.075 83.2702C253.291 83.4562 253.462 83.6812 253.588 83.9452C253.72 84.2092 253.786 84.5272 253.786 84.8992C253.786 85.3432 253.705 85.7542 253.543 86.1322C253.387 86.5042 253.153 86.8282 252.841 87.1042C252.529 87.3742 252.142 87.5872 251.68 87.7432C251.224 87.8932 250.696 87.9682 250.096 87.9682C249.778 87.9682 249.466 87.9382 249.16 87.8782C248.86 87.8242 248.569 87.7462 248.287 87.6442C248.011 87.5422 247.753 87.4222 247.513 87.2842C247.279 87.1462 247.072 86.9962 246.892 86.8342L247.405 85.9882C247.471 85.8862 247.549 85.8082 247.639 85.7542C247.729 85.7002 247.843 85.6732 247.981 85.6732C248.119 85.6732 248.248 85.7122 248.368 85.7902C248.494 85.8682 248.638 85.9522 248.8 86.0422C248.962 86.1322 249.151 86.2162 249.367 86.2942C249.589 86.3722 249.868 86.4112 250.204 86.4112C250.468 86.4112 250.693 86.3812 250.879 86.3212C251.071 86.2552 251.227 86.1712 251.347 86.0692C251.473 85.9672 251.563 85.8502 251.617 85.7182C251.677 85.5802 251.707 85.4392 251.707 85.2952C251.707 85.0792 251.641 84.9022 251.509 84.7642C251.383 84.6262 251.212 84.5062 250.996 84.4042C250.786 84.3022 250.543 84.2122 250.267 84.1342C249.997 84.0502 249.718 83.9602 249.43 83.8642C249.148 83.7682 248.869 83.6572 248.593 83.5312C248.323 83.3992 248.08 83.2342 247.864 83.0362C247.654 82.8382 247.483 82.5952 247.351 82.3072C247.225 82.0192 247.162 81.6712 247.162 81.2632C247.162 80.8852 247.237 80.5252 247.387 80.1832C247.537 79.8412 247.756 79.5442 248.044 79.2922C248.338 79.0342 248.701 78.8302 249.133 78.6802C249.571 78.5242 250.075 78.4462 250.645 78.4462C251.281 78.4462 251.86 78.5512 252.382 78.7612C252.904 78.9712 253.339 79.2472 253.687 79.5892L253.183 80.3902ZM262.14 78.5902V87.8242H259.908V78.5902H262.14ZM262.446 75.8992C262.446 76.0912 262.407 76.2712 262.329 76.4392C262.251 76.6072 262.146 76.7542 262.014 76.8802C261.888 77.0062 261.738 77.1082 261.564 77.1862C261.39 77.2582 261.204 77.2942 261.006 77.2942C260.814 77.2942 260.631 77.2582 260.457 77.1862C260.289 77.1082 260.142 77.0062 260.016 76.8802C259.89 76.7542 259.788 76.6072 259.71 76.4392C259.638 76.2712 259.602 76.0912 259.602 75.8992C259.602 75.7012 259.638 75.5152 259.71 75.3412C259.788 75.1672 259.89 75.0172 260.016 74.8912C260.142 74.7652 260.289 74.6662 260.457 74.5942C260.631 74.5162 260.814 74.4772 261.006 74.4772C261.204 74.4772 261.39 74.5162 261.564 74.5942C261.738 74.6662 261.888 74.7652 262.014 74.8912C262.146 75.0172 262.251 75.1672 262.329 75.3412C262.407 75.5152 262.446 75.7012 262.446 75.8992ZM266.486 79.7242C266.672 79.5382 266.867 79.3672 267.071 79.2112C267.281 79.0492 267.5 78.9142 267.728 78.8062C267.962 78.6922 268.211 78.6052 268.475 78.5452C268.739 78.4792 269.027 78.4462 269.339 78.4462C269.843 78.4462 270.29 78.5332 270.68 78.7072C271.07 78.8752 271.394 79.1152 271.652 79.4272C271.916 79.7332 272.114 80.1022 272.246 80.5342C272.384 80.9602 272.453 81.4312 272.453 81.9472V87.8242H270.23V81.9472C270.23 81.3832 270.101 80.9482 269.843 80.6422C269.585 80.3302 269.192 80.1742 268.664 80.1742C268.28 80.1742 267.92 80.2612 267.584 80.4352C267.248 80.6092 266.93 80.8462 266.63 81.1462V87.8242H264.407V78.5902H265.766C266.054 78.5902 266.243 78.7252 266.333 78.9952L266.486 79.7242ZM281.167 85.4302C281.419 85.7362 281.692 85.9522 281.986 86.0782C282.286 86.2042 282.61 86.2672 282.958 86.2672C283.294 86.2672 283.597 86.2042 283.867 86.0782C284.137 85.9522 284.365 85.7602 284.551 85.5022C284.743 85.2442 284.89 84.9202 284.992 84.5302C285.094 84.1342 285.145 83.6692 285.145 83.1352C285.145 82.5952 285.1 82.1392 285.01 81.7672C284.926 81.3892 284.803 81.0832 284.641 80.8492C284.479 80.6152 284.281 80.4442 284.047 80.3362C283.819 80.2282 283.558 80.1742 283.264 80.1742C282.802 80.1742 282.409 80.2732 282.085 80.4712C281.761 80.6632 281.455 80.9362 281.167 81.2902V85.4302ZM281.05 79.8502C281.428 79.4242 281.857 79.0792 282.337 78.8152C282.817 78.5512 283.381 78.4192 284.029 78.4192C284.533 78.4192 284.992 78.5242 285.406 78.7342C285.826 78.9442 286.186 79.2502 286.486 79.6522C286.792 80.0482 287.026 80.5402 287.188 81.1282C287.356 81.7102 287.44 82.3792 287.44 83.1352C287.44 83.8252 287.347 84.4642 287.161 85.0522C286.975 85.6402 286.708 86.1502 286.36 86.5822C286.018 87.0142 285.601 87.3532 285.109 87.5992C284.623 87.8392 284.077 87.9592 283.471 87.9592C282.955 87.9592 282.514 87.8812 282.148 87.7252C281.782 87.5632 281.455 87.3412 281.167 87.0592V90.8392H278.944V78.5902H280.303C280.591 78.5902 280.78 78.7252 280.87 78.9952L281.05 79.8502ZM291.424 74.4502V87.8242H289.201V74.4502H291.424ZM298.517 83.8822C297.875 83.9122 297.335 83.9692 296.897 84.0532C296.459 84.1312 296.108 84.2332 295.844 84.3592C295.58 84.4852 295.391 84.6322 295.277 84.8002C295.163 84.9682 295.106 85.1512 295.106 85.3492C295.106 85.7392 295.22 86.0182 295.448 86.1862C295.682 86.3542 295.985 86.4382 296.357 86.4382C296.813 86.4382 297.206 86.3572 297.536 86.1952C297.872 86.0272 298.199 85.7752 298.517 85.4392V83.8822ZM293.423 79.8772C294.485 78.9052 295.763 78.4192 297.257 78.4192C297.797 78.4192 298.28 78.5092 298.706 78.6892C299.132 78.8632 299.492 79.1092 299.786 79.4272C300.08 79.7392 300.302 80.1142 300.452 80.5522C300.608 80.9902 300.686 81.4702 300.686 81.9922V87.8242H299.678C299.468 87.8242 299.306 87.7942 299.192 87.7342C299.078 87.6682 298.988 87.5392 298.922 87.3472L298.724 86.6812C298.49 86.8912 298.262 87.0772 298.04 87.2392C297.818 87.3952 297.587 87.5272 297.347 87.6352C297.107 87.7432 296.849 87.8242 296.573 87.8782C296.303 87.9382 296.003 87.9682 295.673 87.9682C295.283 87.9682 294.923 87.9172 294.593 87.8152C294.263 87.7072 293.978 87.5482 293.738 87.3382C293.498 87.1282 293.312 86.8672 293.18 86.5552C293.048 86.2432 292.982 85.8802 292.982 85.4662C292.982 85.2322 293.021 85.0012 293.099 84.7732C293.177 84.5392 293.303 84.3172 293.477 84.1072C293.657 83.8972 293.888 83.6992 294.17 83.5132C294.452 83.3272 294.797 83.1652 295.205 83.0272C295.619 82.8892 296.099 82.7782 296.645 82.6942C297.191 82.6042 297.815 82.5502 298.517 82.5322V81.9922C298.517 81.3742 298.385 80.9182 298.121 80.6242C297.857 80.3242 297.476 80.1742 296.978 80.1742C296.618 80.1742 296.318 80.2162 296.078 80.3002C295.844 80.3842 295.637 80.4802 295.457 80.5882C295.277 80.6902 295.112 80.7832 294.962 80.8672C294.818 80.9512 294.656 80.9932 294.476 80.9932C294.32 80.9932 294.188 80.9542 294.08 80.8762C293.972 80.7922 293.885 80.6962 293.819 80.5882L293.423 79.8772ZM309.395 80.5432C309.329 80.6272 309.263 80.6932 309.197 80.7412C309.137 80.7892 309.047 80.8132 308.927 80.8132C308.813 80.8132 308.702 80.7802 308.594 80.7142C308.486 80.6422 308.357 80.5642 308.207 80.4802C308.057 80.3902 307.877 80.3122 307.667 80.2462C307.463 80.1742 307.208 80.1382 306.902 80.1382C306.512 80.1382 306.17 80.2102 305.876 80.3542C305.582 80.4922 305.336 80.6932 305.138 80.9572C304.946 81.2212 304.802 81.5422 304.706 81.9202C304.61 82.2922 304.562 82.7152 304.562 83.1892C304.562 83.6812 304.613 84.1192 304.715 84.5032C304.823 84.8872 304.976 85.2112 305.174 85.4752C305.372 85.7332 305.612 85.9312 305.894 86.0692C306.176 86.2012 306.494 86.2672 306.848 86.2672C307.202 86.2672 307.487 86.2252 307.703 86.1412C307.925 86.0512 308.111 85.9552 308.261 85.8532C308.411 85.7452 308.54 85.6492 308.648 85.5652C308.762 85.4752 308.888 85.4302 309.026 85.4302C309.206 85.4302 309.341 85.4992 309.431 85.6372L310.07 86.4472C309.824 86.7352 309.557 86.9782 309.269 87.1762C308.981 87.3682 308.681 87.5242 308.369 87.6442C308.063 87.7582 307.745 87.8392 307.415 87.8872C307.091 87.9352 306.767 87.9592 306.443 87.9592C305.873 87.9592 305.336 87.8542 304.832 87.6442C304.328 87.4282 303.887 87.1162 303.509 86.7082C303.131 86.3002 302.831 85.8022 302.609 85.2142C302.393 84.6202 302.285 83.9452 302.285 83.1892C302.285 82.5112 302.381 81.8842 302.573 81.3082C302.771 80.7262 303.059 80.2252 303.437 79.8052C303.815 79.3792 304.283 79.0462 304.841 78.8062C305.399 78.5662 306.041 78.4462 306.767 78.4462C307.457 78.4462 308.06 78.5572 308.576 78.7792C309.098 79.0012 309.566 79.3192 309.98 79.7332L309.395 80.5432ZM317.254 82.1452C317.254 81.8572 317.212 81.5872 317.128 81.3352C317.05 81.0772 316.93 80.8522 316.768 80.6602C316.606 80.4682 316.399 80.3182 316.147 80.2102C315.901 80.0962 315.613 80.0392 315.283 80.0392C314.641 80.0392 314.134 80.2222 313.762 80.5882C313.396 80.9542 313.162 81.4732 313.06 82.1452H317.254ZM313.015 83.4862C313.051 83.9602 313.135 84.3712 313.267 84.7192C313.399 85.0612 313.573 85.3462 313.789 85.5742C314.005 85.7962 314.26 85.9642 314.554 86.0782C314.854 86.1862 315.184 86.2402 315.544 86.2402C315.904 86.2402 316.213 86.1982 316.471 86.1142C316.735 86.0302 316.963 85.9372 317.155 85.8352C317.353 85.7332 317.524 85.6402 317.668 85.5562C317.818 85.4722 317.962 85.4302 318.1 85.4302C318.286 85.4302 318.424 85.4992 318.514 85.6372L319.153 86.4472C318.907 86.7352 318.631 86.9782 318.325 87.1762C318.019 87.3682 317.698 87.5242 317.362 87.6442C317.032 87.7582 316.693 87.8392 316.345 87.8872C316.003 87.9352 315.67 87.9592 315.346 87.9592C314.704 87.9592 314.107 87.8542 313.555 87.6442C313.003 87.4282 312.523 87.1132 312.115 86.6992C311.707 86.2792 311.386 85.7632 311.152 85.1512C310.918 84.5332 310.801 83.8192 310.801 83.0092C310.801 82.3792 310.903 81.7882 311.107 81.2362C311.311 80.6782 311.602 80.1952 311.98 79.7872C312.364 79.3732 312.829 79.0462 313.375 78.8062C313.927 78.5662 314.548 78.4462 315.238 78.4462C315.82 78.4462 316.357 78.5392 316.849 78.7252C317.341 78.9112 317.764 79.1842 318.118 79.5442C318.472 79.8982 318.748 80.3362 318.946 80.8582C319.15 81.3742 319.252 81.9652 319.252 82.6312C319.252 82.9672 319.216 83.1952 319.144 83.3152C319.072 83.4292 318.934 83.4862 318.73 83.4862H313.015ZM320.596 86.6002C320.596 86.4142 320.629 86.2372 320.695 86.0692C320.767 85.9012 320.863 85.7572 320.983 85.6372C321.103 85.5172 321.247 85.4212 321.415 85.3492C321.583 85.2772 321.763 85.2412 321.955 85.2412C322.147 85.2412 322.324 85.2772 322.486 85.3492C322.654 85.4212 322.798 85.5172 322.918 85.6372C323.044 85.7572 323.143 85.9012 323.215 86.0692C323.287 86.2372 323.323 86.4142 323.323 86.6002C323.323 86.7922 323.287 86.9722 323.215 87.1402C323.143 87.3022 323.044 87.4432 322.918 87.5632C322.798 87.6832 322.654 87.7762 322.486 87.8422C322.324 87.9142 322.147 87.9502 321.955 87.9502C321.763 87.9502 321.583 87.9142 321.415 87.8422C321.247 87.7762 321.103 87.6832 320.983 87.5632C320.863 87.4432 320.767 87.3022 320.695 87.1402C320.629 86.9722 320.596 86.7922 320.596 86.6002Z" fill="#1A2BC3"/>
<path d="M524.45 154.436C536.572 143.416 517.733 111.61 509.124 105.756C530.613 104.378 547.084 92.5756 545.948 76.9479C544.227 53.27 507.862 60.5287 495.35 63.0541C503.614 55.478 518.394 15.5735 495.35 15.5738C478.986 15.574 465.919 34.5535 463.324 43.4251C462.492 46.2684 455.475 -1.47163 441.628 0.0349328C429.969 1.30348 431.162 33.4703 434.741 50.3125C434.741 50.3125 427.549 42.3946 415.004 34.1754C402.458 25.9561 387.318 28.9842 381.261 36.3383C375.205 43.6924 377.252 58.5682 390.215 67.8633C403.321 77.261 420.123 83.5212 419.589 83.7161C417.519 84.4719 401.878 88.2039 398.434 89.9257C389.349 94.4679 375.576 99.7864 378.666 114.205C381.261 126.317 406.656 127.473 414.768 123.318C410.768 129.351 399.261 147.485 408.947 158.329C422.23 173.199 446.45 131.239 446.45 131.239C446.45 131.239 452.476 165.436 463.324 161.304C474.171 157.171 476.983 137.208 476.754 127.451C482.79 140.972 512.328 165.456 524.45 154.436Z" fill="#FFC425"/>
<path d="M485.715 88.2477C485.646 87.1229 484.002 82.0147 478.465 81.5368C472.928 81.0589 469.247 84.0193 468.844 84.6738" stroke="black" stroke-width="2.59556" stroke-linecap="round"/>
<ellipse cx="9.81446" cy="11.5363" rx="9.81446" ry="11.5363" transform="matrix(-1 0 0 1 452.669 70.8906)" fill="#FDFCFC"/>
<circle cx="6.92151" cy="6.92151" r="6.92151" transform="matrix(-1 0 0 1 449.776 75.5059)" fill="black"/>
<path d="M469.71 100.794C469.308 102.171 464.519 105.057 457.165 104.192C449.811 103.327 445.829 98.6839 445.485 97.7656" stroke="black" stroke-width="2.59556" stroke-linecap="round"/>
<ellipse cx="429.279" cy="91.7103" rx="11.68" ry="11.2474" fill="url(#paint0_radial_1087_5289)"/>
<ellipse cx="484.651" cy="101.228" rx="11.68" ry="11.2474" fill="url(#paint1_radial_1087_5289)"/>
<path d="M358.135 73C366.908 90.0035 375.76 102.441 400.738 97.5967" stroke="black" stroke-width="5" stroke-linecap="round"/>
<defs>
<radialGradient id="paint0_radial_1087_5289" cx="0" cy="0" r="1" gradientUnits="userSpaceOnUse" gradientTransform="translate(429.279 91.7103) rotate(90) scale(11.2474 11.68)">
<stop offset="0.0769231" stop-color="#FF6062"/>
<stop offset="1" stop-color="#D9D9D9" stop-opacity="0"/>
</radialGradient>
<radialGradient id="paint1_radial_1087_5289" cx="0" cy="0" r="1" gradientUnits="userSpaceOnUse" gradientTransform="translate(484.651 101.228) rotate(90) scale(11.2474 11.68)">
<stop offset="0.134615" stop-color="#FF6062"/>
<stop offset="1" stop-color="#D9D9D9" stop-opacity="0"/>
</radialGradient>
</defs>
</svg>
