<svg width="645" height="162" viewBox="0 0 645 162" fill="none" xmlns="http://www.w3.org/2000/svg">
<path d="M49.958 69.6389C51.9062 70.7638 53.5268 72.3779 54.6594 74.3216C55.7921 76.2652 56.3974 78.471 56.4156 80.7205C56.4338 82.9701 55.8641 85.1853 54.763 87.147C53.6619 89.1088 52.0676 90.7489 50.1379 91.9051C48.2081 93.0612 46.0099 93.6934 43.7607 93.7389C41.5116 93.7844 39.2896 93.2417 37.3146 92.1646C35.3396 91.0874 33.6803 89.5132 32.5007 87.5976C31.3211 85.6821 30.6623 83.4916 30.5895 81.2432L30.583 80.8247L30.5895 80.4062C30.6618 78.1755 31.3109 76.0016 32.4735 74.0964C33.6362 72.1913 35.2726 70.6199 37.2233 69.5354C39.1741 68.451 41.3725 67.8905 43.6043 67.9086C45.8361 67.9268 48.0252 68.5229 49.958 69.6389ZM48.2879 77.3282C48.0655 77.1058 47.7695 76.9722 47.4556 76.9525C47.1417 76.9327 46.8314 77.0282 46.5829 77.221L46.4615 77.3282L42.208 81.5804L40.5379 79.9115L40.4165 79.8043C40.1679 79.6117 39.8577 79.5163 39.5438 79.5361C39.23 79.5559 38.9342 79.6895 38.7118 79.9119C38.4895 80.1342 38.3558 80.43 38.336 80.7439C38.3162 81.0577 38.4116 81.368 38.6043 81.6165L38.7115 81.7379L41.2948 84.3213L41.4162 84.4285C41.6427 84.6042 41.9213 84.6996 42.208 84.6996C42.4947 84.6996 42.7733 84.6042 42.9998 84.4285L43.1212 84.3213L48.2879 79.1546L48.3951 79.0332C48.5879 78.7847 48.6834 78.4743 48.6636 78.1604C48.6439 77.8465 48.5103 77.5506 48.2879 77.3282Z" fill="#72AB00"/>
<path d="M70.3096 87.3242V74.4395H74.4844C76.0664 74.4395 77.0977 74.5039 77.5781 74.6328C78.3164 74.8262 78.9346 75.248 79.4326 75.8984C79.9307 76.543 80.1797 77.3779 80.1797 78.4033C80.1797 79.1943 80.0361 79.8594 79.749 80.3984C79.4619 80.9375 79.0957 81.3623 78.6504 81.6729C78.2109 81.9775 77.7627 82.1797 77.3057 82.2793C76.6846 82.4023 75.7852 82.4639 74.6074 82.4639H72.9111V87.3242H70.3096ZM72.9111 76.6191V80.2754H74.335C75.3604 80.2754 76.0459 80.208 76.3916 80.0732C76.7373 79.9385 77.0068 79.7275 77.2002 79.4404C77.3994 79.1533 77.499 78.8193 77.499 78.4385C77.499 77.9697 77.3613 77.583 77.0859 77.2783C76.8105 76.9736 76.4619 76.7832 76.04 76.707C75.7295 76.6484 75.1055 76.6191 74.168 76.6191H72.9111ZM87.7031 84.3535L90.1641 84.7666C89.8477 85.6689 89.3467 86.3574 88.6611 86.832C87.9814 87.3008 87.1289 87.5352 86.1035 87.5352C84.4805 87.5352 83.2793 87.0049 82.5 85.9443C81.8848 85.0947 81.5771 84.0225 81.5771 82.7275C81.5771 81.1807 81.9814 79.9707 82.79 79.0977C83.5986 78.2188 84.6211 77.7793 85.8574 77.7793C87.2461 77.7793 88.3418 78.2393 89.1445 79.1592C89.9473 80.0732 90.3311 81.4766 90.2959 83.3691H84.1084C84.126 84.1016 84.3252 84.6729 84.7061 85.083C85.0869 85.4873 85.5615 85.6895 86.1299 85.6895C86.5166 85.6895 86.8418 85.584 87.1055 85.373C87.3691 85.1621 87.5684 84.8223 87.7031 84.3535ZM87.8438 81.8574C87.8262 81.1426 87.6416 80.6006 87.29 80.2314C86.9385 79.8564 86.5107 79.6689 86.0068 79.6689C85.4678 79.6689 85.0225 79.8652 84.6709 80.2578C84.3193 80.6504 84.1465 81.1836 84.1523 81.8574H87.8438ZM94.6816 87.3242H92.2119V77.9902H94.5059V79.3174C94.8984 78.6904 95.25 78.2773 95.5605 78.0781C95.877 77.8789 96.2344 77.7793 96.6328 77.7793C97.1953 77.7793 97.7373 77.9346 98.2588 78.2451L97.4941 80.3984C97.0781 80.1289 96.6914 79.9941 96.334 79.9941C95.9883 79.9941 95.6953 80.0908 95.4551 80.2842C95.2148 80.4717 95.0244 80.8145 94.8838 81.3125C94.749 81.8105 94.6816 82.8535 94.6816 84.4414V87.3242ZM98.25 77.9902H99.6211V77.2871C99.6211 76.502 99.7031 75.916 99.8672 75.5293C100.037 75.1426 100.345 74.8291 100.79 74.5889C101.241 74.3428 101.81 74.2197 102.495 74.2197C103.198 74.2197 103.887 74.3252 104.561 74.5361L104.227 76.2588C103.834 76.165 103.456 76.1182 103.093 76.1182C102.735 76.1182 102.478 76.2031 102.319 76.373C102.167 76.5371 102.091 76.8564 102.091 77.3311V77.9902H103.937V79.9326H102.091V87.3242H99.6211V79.9326H98.25V77.9902ZM110.73 84.3535L113.191 84.7666C112.875 85.6689 112.374 86.3574 111.688 86.832C111.009 87.3008 110.156 87.5352 109.131 87.5352C107.508 87.5352 106.307 87.0049 105.527 85.9443C104.912 85.0947 104.604 84.0225 104.604 82.7275C104.604 81.1807 105.009 79.9707 105.817 79.0977C106.626 78.2188 107.648 77.7793 108.885 77.7793C110.273 77.7793 111.369 78.2393 112.172 79.1592C112.975 80.0732 113.358 81.4766 113.323 83.3691H107.136C107.153 84.1016 107.353 84.6729 107.733 85.083C108.114 85.4873 108.589 85.6895 109.157 85.6895C109.544 85.6895 109.869 85.584 110.133 85.373C110.396 85.1621 110.596 84.8223 110.73 84.3535ZM110.871 81.8574C110.854 81.1426 110.669 80.6006 110.317 80.2314C109.966 79.8564 109.538 79.6689 109.034 79.6689C108.495 79.6689 108.05 79.8652 107.698 80.2578C107.347 80.6504 107.174 81.1836 107.18 81.8574H110.871ZM123.483 80.75L121.049 81.1895C120.967 80.7031 120.779 80.3369 120.486 80.0908C120.199 79.8447 119.824 79.7217 119.361 79.7217C118.746 79.7217 118.254 79.9355 117.885 80.3633C117.521 80.7852 117.34 81.4941 117.34 82.4902C117.34 83.5977 117.524 84.3799 117.894 84.8369C118.269 85.2939 118.77 85.5225 119.396 85.5225C119.865 85.5225 120.249 85.3906 120.548 85.127C120.847 84.8574 121.058 84.3975 121.181 83.7471L123.606 84.1602C123.354 85.2734 122.871 86.1143 122.156 86.6826C121.441 87.251 120.483 87.5352 119.282 87.5352C117.917 87.5352 116.827 87.1045 116.013 86.2432C115.204 85.3818 114.8 84.1895 114.8 82.666C114.8 81.125 115.207 79.9268 116.021 79.0713C116.836 78.21 117.938 77.7793 119.326 77.7793C120.463 77.7793 121.365 78.0254 122.033 78.5176C122.707 79.0039 123.19 79.748 123.483 80.75ZM129.645 77.9902V79.959H127.957V83.7207C127.957 84.4824 127.972 84.9277 128.001 85.0566C128.036 85.1797 128.109 85.2822 128.221 85.3643C128.338 85.4463 128.479 85.4873 128.643 85.4873C128.871 85.4873 129.202 85.4082 129.636 85.25L129.847 87.166C129.272 87.4121 128.622 87.5352 127.896 87.5352C127.45 87.5352 127.049 87.4619 126.691 87.3154C126.334 87.1631 126.07 86.9697 125.9 86.7354C125.736 86.4951 125.622 86.1729 125.558 85.7686C125.505 85.4814 125.479 84.9014 125.479 84.0283V79.959H124.345V77.9902H125.479V76.1357L127.957 74.6943V77.9902H129.645ZM132.325 84.002L131.684 77.4629V74.4395H134.355V77.4629L133.723 84.002H132.325ZM131.789 87.3242V84.8545H134.259V87.3242H131.789ZM145.43 87.3242V81.9014L140.71 74.4395H143.76L146.792 79.5371L149.763 74.4395H152.76L148.022 81.9189V87.3242H145.43ZM152.127 82.5254C152.127 81.7051 152.329 80.9111 152.733 80.1436C153.138 79.376 153.709 78.79 154.447 78.3857C155.191 77.9814 156.021 77.7793 156.935 77.7793C158.347 77.7793 159.504 78.2393 160.406 79.1592C161.309 80.0732 161.76 81.2305 161.76 82.6309C161.76 84.043 161.303 85.2148 160.389 86.1465C159.48 87.0723 158.335 87.5352 156.952 87.5352C156.097 87.5352 155.279 87.3418 154.5 86.9551C153.727 86.5684 153.138 86.0029 152.733 85.2588C152.329 84.5088 152.127 83.5977 152.127 82.5254ZM154.658 82.6572C154.658 83.583 154.878 84.292 155.317 84.7842C155.757 85.2764 156.299 85.5225 156.943 85.5225C157.588 85.5225 158.127 85.2764 158.561 84.7842C159 84.292 159.22 83.5771 159.22 82.6396C159.22 81.7256 159 81.0225 158.561 80.5303C158.127 80.0381 157.588 79.792 156.943 79.792C156.299 79.792 155.757 80.0381 155.317 80.5303C154.878 81.0225 154.658 81.7314 154.658 82.6572ZM169.846 87.3242V85.9268C169.506 86.4248 169.058 86.8174 168.501 87.1045C167.95 87.3916 167.367 87.5352 166.752 87.5352C166.125 87.5352 165.562 87.3975 165.064 87.1221C164.566 86.8467 164.206 86.46 163.983 85.9619C163.761 85.4639 163.649 84.7754 163.649 83.8965V77.9902H166.119V82.2793C166.119 83.5918 166.163 84.3975 166.251 84.6963C166.345 84.9893 166.512 85.2236 166.752 85.3994C166.992 85.5693 167.297 85.6543 167.666 85.6543C168.088 85.6543 168.466 85.54 168.8 85.3115C169.134 85.0771 169.362 84.79 169.485 84.4502C169.608 84.1045 169.67 83.2637 169.67 81.9277V77.9902H172.14V87.3242H169.846ZM177.07 87.3242H174.601V77.9902H176.895V79.3174C177.287 78.6904 177.639 78.2773 177.949 78.0781C178.266 77.8789 178.623 77.7793 179.021 77.7793C179.584 77.7793 180.126 77.9346 180.647 78.2451L179.883 80.3984C179.467 80.1289 179.08 79.9941 178.723 79.9941C178.377 79.9941 178.084 80.0908 177.844 80.2842C177.604 80.4717 177.413 80.8145 177.272 81.3125C177.138 81.8105 177.07 82.8535 177.07 84.4414V87.3242ZM186.624 87.3242V74.4395H189.094V79.0801C189.855 78.2129 190.758 77.7793 191.801 77.7793C192.938 77.7793 193.878 78.1924 194.622 79.0186C195.366 79.8389 195.738 81.0195 195.738 82.5605C195.738 84.1543 195.357 85.3818 194.596 86.2432C193.84 87.1045 192.92 87.5352 191.836 87.5352C191.303 87.5352 190.775 87.4033 190.254 87.1396C189.738 86.8701 189.293 86.4746 188.918 85.9531V87.3242H186.624ZM189.076 82.4551C189.076 83.4219 189.229 84.1367 189.533 84.5996C189.961 85.2559 190.529 85.584 191.238 85.584C191.783 85.584 192.246 85.3525 192.627 84.8896C193.014 84.4209 193.207 83.6855 193.207 82.6836C193.207 81.6172 193.014 80.8496 192.627 80.3809C192.24 79.9062 191.745 79.6689 191.142 79.6689C190.55 79.6689 190.058 79.9004 189.665 80.3633C189.272 80.8203 189.076 81.5176 189.076 82.4551ZM200.098 87.3242H197.628V77.9902H199.922V79.3174C200.314 78.6904 200.666 78.2773 200.977 78.0781C201.293 77.8789 201.65 77.7793 202.049 77.7793C202.611 77.7793 203.153 77.9346 203.675 78.2451L202.91 80.3984C202.494 80.1289 202.107 79.9941 201.75 79.9941C201.404 79.9941 201.111 80.0908 200.871 80.2842C200.631 80.4717 200.44 80.8145 200.3 81.3125C200.165 81.8105 200.098 82.8535 200.098 84.4414V87.3242ZM210.152 84.3535L212.613 84.7666C212.297 85.6689 211.796 86.3574 211.11 86.832C210.431 87.3008 209.578 87.5352 208.553 87.5352C206.93 87.5352 205.729 87.0049 204.949 85.9443C204.334 85.0947 204.026 84.0225 204.026 82.7275C204.026 81.1807 204.431 79.9707 205.239 79.0977C206.048 78.2188 207.07 77.7793 208.307 77.7793C209.695 77.7793 210.791 78.2393 211.594 79.1592C212.396 80.0732 212.78 81.4766 212.745 83.3691H206.558C206.575 84.1016 206.774 84.6729 207.155 85.083C207.536 85.4873 208.011 85.6895 208.579 85.6895C208.966 85.6895 209.291 85.584 209.555 85.373C209.818 85.1621 210.018 84.8223 210.152 84.3535ZM210.293 81.8574C210.275 81.1426 210.091 80.6006 209.739 80.2314C209.388 79.8564 208.96 79.6689 208.456 79.6689C207.917 79.6689 207.472 79.8652 207.12 80.2578C206.769 80.6504 206.596 81.1836 206.602 81.8574H210.293ZM216.612 80.8379L214.371 80.4336C214.623 79.5312 215.057 78.8633 215.672 78.4297C216.287 77.9961 217.201 77.7793 218.414 77.7793C219.516 77.7793 220.336 77.9111 220.875 78.1748C221.414 78.4326 221.792 78.7637 222.009 79.168C222.231 79.5664 222.343 80.3018 222.343 81.374L222.316 84.2568C222.316 85.0771 222.354 85.6836 222.431 86.0762C222.513 86.4629 222.662 86.8789 222.879 87.3242H220.436C220.371 87.1602 220.292 86.917 220.198 86.5947C220.157 86.4482 220.128 86.3516 220.11 86.3047C219.688 86.7148 219.237 87.0225 218.757 87.2275C218.276 87.4326 217.764 87.5352 217.219 87.5352C216.258 87.5352 215.499 87.2744 214.942 86.7529C214.392 86.2314 214.116 85.5723 214.116 84.7754C214.116 84.248 214.242 83.7793 214.494 83.3691C214.746 82.9531 215.098 82.6367 215.549 82.4199C216.006 82.1973 216.662 82.0039 217.518 81.8398C218.672 81.623 219.472 81.4209 219.917 81.2334V80.9873C219.917 80.5127 219.8 80.1758 219.565 79.9766C219.331 79.7715 218.889 79.6689 218.238 79.6689C217.799 79.6689 217.456 79.7568 217.21 79.9326C216.964 80.1025 216.765 80.4043 216.612 80.8379ZM219.917 82.8418C219.601 82.9473 219.1 83.0732 218.414 83.2197C217.729 83.3662 217.28 83.5098 217.069 83.6504C216.747 83.8789 216.586 84.1689 216.586 84.5205C216.586 84.8662 216.715 85.165 216.973 85.417C217.23 85.6689 217.559 85.7949 217.957 85.7949C218.402 85.7949 218.827 85.6484 219.231 85.3555C219.53 85.1328 219.727 84.8604 219.82 84.5381C219.885 84.3271 219.917 83.9258 219.917 83.334V82.8418ZM233.347 87.3242H231.053V85.9531C230.672 86.4863 230.221 86.8848 229.699 87.1484C229.184 87.4062 228.662 87.5352 228.135 87.5352C227.062 87.5352 226.143 87.1045 225.375 86.2432C224.613 85.376 224.232 84.1689 224.232 82.6221C224.232 81.04 224.604 79.8389 225.349 79.0186C226.093 78.1924 227.033 77.7793 228.17 77.7793C229.213 77.7793 230.115 78.2129 230.877 79.0801V74.4395H233.347V87.3242ZM226.755 82.4551C226.755 83.4512 226.893 84.1719 227.168 84.6172C227.566 85.2617 228.123 85.584 228.838 85.584C229.406 85.584 229.89 85.3438 230.288 84.8633C230.687 84.377 230.886 83.6533 230.886 82.6924C230.886 81.6201 230.692 80.8496 230.306 80.3809C229.919 79.9062 229.424 79.6689 228.82 79.6689C228.234 79.6689 227.742 79.9033 227.344 80.3721C226.951 80.835 226.755 81.5293 226.755 82.4551ZM235.685 87.3242V74.4395H238.154V79.0801C238.916 78.2129 239.818 77.7793 240.861 77.7793C241.998 77.7793 242.938 78.1924 243.683 79.0186C244.427 79.8389 244.799 81.0195 244.799 82.5605C244.799 84.1543 244.418 85.3818 243.656 86.2432C242.9 87.1045 241.98 87.5352 240.896 87.5352C240.363 87.5352 239.836 87.4033 239.314 87.1396C238.799 86.8701 238.354 86.4746 237.979 85.9531V87.3242H235.685ZM238.137 82.4551C238.137 83.4219 238.289 84.1367 238.594 84.5996C239.021 85.2559 239.59 85.584 240.299 85.584C240.844 85.584 241.307 85.3525 241.688 84.8896C242.074 84.4209 242.268 83.6855 242.268 82.6836C242.268 81.6172 242.074 80.8496 241.688 80.3809C241.301 79.9062 240.806 79.6689 240.202 79.6689C239.61 79.6689 239.118 79.9004 238.726 80.3633C238.333 80.8203 238.137 81.5176 238.137 82.4551ZM246.223 82.5254C246.223 81.7051 246.425 80.9111 246.829 80.1436C247.233 79.376 247.805 78.79 248.543 78.3857C249.287 77.9814 250.116 77.7793 251.03 77.7793C252.442 77.7793 253.6 78.2393 254.502 79.1592C255.404 80.0732 255.855 81.2305 255.855 82.6309C255.855 84.043 255.398 85.2148 254.484 86.1465C253.576 87.0723 252.431 87.5352 251.048 87.5352C250.192 87.5352 249.375 87.3418 248.596 86.9551C247.822 86.5684 247.233 86.0029 246.829 85.2588C246.425 84.5088 246.223 83.5977 246.223 82.5254ZM248.754 82.6572C248.754 83.583 248.974 84.292 249.413 84.7842C249.853 85.2764 250.395 85.5225 251.039 85.5225C251.684 85.5225 252.223 85.2764 252.656 84.7842C253.096 84.292 253.315 83.5771 253.315 82.6396C253.315 81.7256 253.096 81.0225 252.656 80.5303C252.223 80.0381 251.684 79.792 251.039 79.792C250.395 79.792 249.853 80.0381 249.413 80.5303C248.974 81.0225 248.754 81.7314 248.754 82.6572ZM259.644 80.8379L257.402 80.4336C257.654 79.5312 258.088 78.8633 258.703 78.4297C259.318 77.9961 260.232 77.7793 261.445 77.7793C262.547 77.7793 263.367 77.9111 263.906 78.1748C264.445 78.4326 264.823 78.7637 265.04 79.168C265.263 79.5664 265.374 80.3018 265.374 81.374L265.348 84.2568C265.348 85.0771 265.386 85.6836 265.462 86.0762C265.544 86.4629 265.693 86.8789 265.91 87.3242H263.467C263.402 87.1602 263.323 86.917 263.229 86.5947C263.188 86.4482 263.159 86.3516 263.142 86.3047C262.72 86.7148 262.269 87.0225 261.788 87.2275C261.308 87.4326 260.795 87.5352 260.25 87.5352C259.289 87.5352 258.53 87.2744 257.974 86.7529C257.423 86.2314 257.147 85.5723 257.147 84.7754C257.147 84.248 257.273 83.7793 257.525 83.3691C257.777 82.9531 258.129 82.6367 258.58 82.4199C259.037 82.1973 259.693 82.0039 260.549 81.8398C261.703 81.623 262.503 81.4209 262.948 81.2334V80.9873C262.948 80.5127 262.831 80.1758 262.597 79.9766C262.362 79.7715 261.92 79.6689 261.27 79.6689C260.83 79.6689 260.487 79.7568 260.241 79.9326C259.995 80.1025 259.796 80.4043 259.644 80.8379ZM262.948 82.8418C262.632 82.9473 262.131 83.0732 261.445 83.2197C260.76 83.3662 260.312 83.5098 260.101 83.6504C259.778 83.8789 259.617 84.1689 259.617 84.5205C259.617 84.8662 259.746 85.165 260.004 85.417C260.262 85.6689 260.59 85.7949 260.988 85.7949C261.434 85.7949 261.858 85.6484 262.263 85.3555C262.562 85.1328 262.758 84.8604 262.852 84.5381C262.916 84.3271 262.948 83.9258 262.948 83.334V82.8418ZM270.182 87.3242H267.712V77.9902H270.006V79.3174C270.398 78.6904 270.75 78.2773 271.061 78.0781C271.377 77.8789 271.734 77.7793 272.133 77.7793C272.695 77.7793 273.237 77.9346 273.759 78.2451L272.994 80.3984C272.578 80.1289 272.191 79.9941 271.834 79.9941C271.488 79.9941 271.195 80.0908 270.955 80.2842C270.715 80.4717 270.524 80.8145 270.384 81.3125C270.249 81.8105 270.182 82.8535 270.182 84.4414V87.3242ZM283.392 87.3242H281.098V85.9531C280.717 86.4863 280.266 86.8848 279.744 87.1484C279.229 87.4062 278.707 87.5352 278.18 87.5352C277.107 87.5352 276.188 87.1045 275.42 86.2432C274.658 85.376 274.277 84.1689 274.277 82.6221C274.277 81.04 274.649 79.8389 275.394 79.0186C276.138 78.1924 277.078 77.7793 278.215 77.7793C279.258 77.7793 280.16 78.2129 280.922 79.0801V74.4395H283.392V87.3242ZM276.8 82.4551C276.8 83.4512 276.938 84.1719 277.213 84.6172C277.611 85.2617 278.168 85.584 278.883 85.584C279.451 85.584 279.935 85.3438 280.333 84.8633C280.731 84.377 280.931 83.6533 280.931 82.6924C280.931 81.6201 280.737 80.8496 280.351 80.3809C279.964 79.9062 279.469 79.6689 278.865 79.6689C278.279 79.6689 277.787 79.9033 277.389 80.3721C276.996 80.835 276.8 81.5293 276.8 82.4551ZM299.335 87.3242H296.865V82.5605C296.865 81.5527 296.812 80.9023 296.707 80.6094C296.602 80.3105 296.429 80.0791 296.188 79.915C295.954 79.751 295.67 79.6689 295.336 79.6689C294.908 79.6689 294.524 79.7861 294.185 80.0205C293.845 80.2549 293.61 80.5654 293.481 80.9521C293.358 81.3389 293.297 82.0537 293.297 83.0967V87.3242H290.827V77.9902H293.121V79.3613C293.936 78.3066 294.961 77.7793 296.197 77.7793C296.742 77.7793 297.24 77.8789 297.691 78.0781C298.143 78.2715 298.482 78.5205 298.711 78.8252C298.945 79.1299 299.106 79.4756 299.194 79.8623C299.288 80.249 299.335 80.8027 299.335 81.5234V87.3242ZM301.277 82.5254C301.277 81.7051 301.479 80.9111 301.884 80.1436C302.288 79.376 302.859 78.79 303.598 78.3857C304.342 77.9814 305.171 77.7793 306.085 77.7793C307.497 77.7793 308.654 78.2393 309.557 79.1592C310.459 80.0732 310.91 81.2305 310.91 82.6309C310.91 84.043 310.453 85.2148 309.539 86.1465C308.631 87.0723 307.485 87.5352 306.103 87.5352C305.247 87.5352 304.43 87.3418 303.65 86.9551C302.877 86.5684 302.288 86.0029 301.884 85.2588C301.479 84.5088 301.277 83.5977 301.277 82.5254ZM303.809 82.6572C303.809 83.583 304.028 84.292 304.468 84.7842C304.907 85.2764 305.449 85.5225 306.094 85.5225C306.738 85.5225 307.277 85.2764 307.711 84.7842C308.15 84.292 308.37 83.5771 308.37 82.6396C308.37 81.7256 308.15 81.0225 307.711 80.5303C307.277 80.0381 306.738 79.792 306.094 79.792C305.449 79.792 304.907 80.0381 304.468 80.5303C304.028 81.0225 303.809 81.7314 303.809 82.6572ZM314.593 87.3242L311.64 77.9902H314.039L315.788 84.1074L317.396 77.9902H319.778L321.334 84.1074L323.118 77.9902H325.553L322.556 87.3242H320.183L318.574 81.3213L316.992 87.3242H314.593ZM334.333 74.4395V79.1768C335.13 78.2451 336.082 77.7793 337.189 77.7793C337.758 77.7793 338.271 77.8848 338.728 78.0957C339.185 78.3066 339.527 78.5762 339.756 78.9043C339.99 79.2324 340.148 79.5957 340.23 79.9941C340.318 80.3926 340.362 81.0107 340.362 81.8486V87.3242H337.893V82.3936C337.893 81.415 337.846 80.7939 337.752 80.5303C337.658 80.2666 337.491 80.0586 337.251 79.9062C337.017 79.748 336.721 79.6689 336.363 79.6689C335.953 79.6689 335.587 79.7686 335.265 79.9678C334.942 80.167 334.705 80.4688 334.553 80.873C334.406 81.2715 334.333 81.8633 334.333 82.6484V87.3242H331.863V74.4395H334.333ZM344.722 80.8379L342.48 80.4336C342.732 79.5312 343.166 78.8633 343.781 78.4297C344.396 77.9961 345.311 77.7793 346.523 77.7793C347.625 77.7793 348.445 77.9111 348.984 78.1748C349.523 78.4326 349.901 78.7637 350.118 79.168C350.341 79.5664 350.452 80.3018 350.452 81.374L350.426 84.2568C350.426 85.0771 350.464 85.6836 350.54 86.0762C350.622 86.4629 350.771 86.8789 350.988 87.3242H348.545C348.48 87.1602 348.401 86.917 348.308 86.5947C348.267 86.4482 348.237 86.3516 348.22 86.3047C347.798 86.7148 347.347 87.0225 346.866 87.2275C346.386 87.4326 345.873 87.5352 345.328 87.5352C344.367 87.5352 343.608 87.2744 343.052 86.7529C342.501 86.2314 342.226 85.5723 342.226 84.7754C342.226 84.248 342.352 83.7793 342.604 83.3691C342.855 82.9531 343.207 82.6367 343.658 82.4199C344.115 82.1973 344.771 82.0039 345.627 81.8398C346.781 81.623 347.581 81.4209 348.026 81.2334V80.9873C348.026 80.5127 347.909 80.1758 347.675 79.9766C347.44 79.7715 346.998 79.6689 346.348 79.6689C345.908 79.6689 345.565 79.7568 345.319 79.9326C345.073 80.1025 344.874 80.4043 344.722 80.8379ZM348.026 82.8418C347.71 82.9473 347.209 83.0732 346.523 83.2197C345.838 83.3662 345.39 83.5098 345.179 83.6504C344.856 83.8789 344.695 84.1689 344.695 84.5205C344.695 84.8662 344.824 85.165 345.082 85.417C345.34 85.6689 345.668 85.7949 346.066 85.7949C346.512 85.7949 346.937 85.6484 347.341 85.3555C347.64 85.1328 347.836 84.8604 347.93 84.5381C347.994 84.3271 348.026 83.9258 348.026 83.334V82.8418ZM352.025 84.6611L354.504 84.2832C354.609 84.7637 354.823 85.1299 355.146 85.3818C355.468 85.6279 355.919 85.751 356.499 85.751C357.138 85.751 357.618 85.6338 357.94 85.3994C358.157 85.2354 358.266 85.0156 358.266 84.7402C358.266 84.5527 358.207 84.3975 358.09 84.2744C357.967 84.1572 357.691 84.0488 357.264 83.9492C355.271 83.5098 354.009 83.1084 353.476 82.7451C352.737 82.2412 352.368 81.541 352.368 80.6445C352.368 79.8359 352.688 79.1562 353.326 78.6055C353.965 78.0547 354.955 77.7793 356.297 77.7793C357.574 77.7793 358.523 77.9873 359.145 78.4033C359.766 78.8193 360.193 79.4346 360.428 80.249L358.099 80.6797C357.999 80.3164 357.809 80.0381 357.527 79.8447C357.252 79.6514 356.856 79.5547 356.341 79.5547C355.69 79.5547 355.225 79.6455 354.943 79.8271C354.756 79.9561 354.662 80.123 354.662 80.3281C354.662 80.5039 354.744 80.6533 354.908 80.7764C355.131 80.9404 355.898 81.1719 357.211 81.4707C358.529 81.7695 359.449 82.1357 359.971 82.5693C360.486 83.0088 360.744 83.6211 360.744 84.4062C360.744 85.2617 360.387 85.9971 359.672 86.6123C358.957 87.2275 357.899 87.5352 356.499 87.5352C355.228 87.5352 354.22 87.2773 353.476 86.7617C352.737 86.2461 352.254 85.5459 352.025 84.6611ZM367.854 77.9902H370.157V79.3613C370.456 78.8926 370.86 78.5117 371.37 78.2188C371.88 77.9258 372.445 77.7793 373.066 77.7793C374.15 77.7793 375.07 78.2041 375.826 79.0537C376.582 79.9033 376.96 81.0869 376.96 82.6045C376.96 84.1631 376.579 85.376 375.817 86.2432C375.056 87.1045 374.133 87.5352 373.049 87.5352C372.533 87.5352 372.064 87.4326 371.643 87.2275C371.227 87.0225 370.787 86.6709 370.324 86.1729V90.875H367.854V77.9902ZM370.298 82.499C370.298 83.5479 370.506 84.3242 370.922 84.8281C371.338 85.3262 371.845 85.5752 372.442 85.5752C373.017 85.5752 373.494 85.3467 373.875 84.8896C374.256 84.4268 374.446 83.6709 374.446 82.6221C374.446 81.6436 374.25 80.917 373.857 80.4424C373.465 79.9678 372.979 79.7305 372.398 79.7305C371.795 79.7305 371.294 79.9648 370.896 80.4336C370.497 80.8965 370.298 81.585 370.298 82.499ZM378.357 82.5254C378.357 81.7051 378.56 80.9111 378.964 80.1436C379.368 79.376 379.939 78.79 380.678 78.3857C381.422 77.9814 382.251 77.7793 383.165 77.7793C384.577 77.7793 385.734 78.2393 386.637 79.1592C387.539 80.0732 387.99 81.2305 387.99 82.6309C387.99 84.043 387.533 85.2148 386.619 86.1465C385.711 87.0723 384.565 87.5352 383.183 87.5352C382.327 87.5352 381.51 87.3418 380.73 86.9551C379.957 86.5684 379.368 86.0029 378.964 85.2588C378.56 84.5088 378.357 83.5977 378.357 82.5254ZM380.889 82.6572C380.889 83.583 381.108 84.292 381.548 84.7842C381.987 85.2764 382.529 85.5225 383.174 85.5225C383.818 85.5225 384.357 85.2764 384.791 84.7842C385.23 84.292 385.45 83.5771 385.45 82.6396C385.45 81.7256 385.23 81.0225 384.791 80.5303C384.357 80.0381 383.818 79.792 383.174 79.792C382.529 79.792 381.987 80.0381 381.548 80.5303C381.108 81.0225 380.889 81.7314 380.889 82.6572ZM391.673 87.3242L388.72 77.9902H391.119L392.868 84.1074L394.477 77.9902H396.858L398.414 84.1074L400.198 77.9902H402.633L399.636 87.3242H397.263L395.654 81.3213L394.072 87.3242H391.673ZM409.348 84.3535L411.809 84.7666C411.492 85.6689 410.991 86.3574 410.306 86.832C409.626 87.3008 408.773 87.5352 407.748 87.5352C406.125 87.5352 404.924 87.0049 404.145 85.9443C403.529 85.0947 403.222 84.0225 403.222 82.7275C403.222 81.1807 403.626 79.9707 404.435 79.0977C405.243 78.2188 406.266 77.7793 407.502 77.7793C408.891 77.7793 409.986 78.2393 410.789 79.1592C411.592 80.0732 411.976 81.4766 411.94 83.3691H405.753C405.771 84.1016 405.97 84.6729 406.351 85.083C406.731 85.4873 407.206 85.6895 407.774 85.6895C408.161 85.6895 408.486 85.584 408.75 85.373C409.014 85.1621 409.213 84.8223 409.348 84.3535ZM409.488 81.8574C409.471 81.1426 409.286 80.6006 408.935 80.2314C408.583 79.8564 408.155 79.6689 407.651 79.6689C407.112 79.6689 406.667 79.8652 406.315 80.2578C405.964 80.6504 405.791 81.1836 405.797 81.8574H409.488ZM416.326 87.3242H413.856V77.9902H416.15V79.3174C416.543 78.6904 416.895 78.2773 417.205 78.0781C417.521 77.8789 417.879 77.7793 418.277 77.7793C418.84 77.7793 419.382 77.9346 419.903 78.2451L419.139 80.3984C418.723 80.1289 418.336 79.9941 417.979 79.9941C417.633 79.9941 417.34 80.0908 417.1 80.2842C416.859 80.4717 416.669 80.8145 416.528 81.3125C416.394 81.8105 416.326 82.8535 416.326 84.4414V87.3242ZM419.974 87.3242V84.8545H422.443V87.3242H419.974Z" fill="#1A2BC3"/>
<path d="M623.427 154.436C635.548 143.416 616.71 111.61 608.101 105.756C629.589 104.378 646.061 92.5756 644.925 76.9479C643.203 53.27 606.838 60.5287 594.326 63.0541C602.591 55.478 617.37 15.5735 594.326 15.5738C577.962 15.574 564.895 34.5535 562.3 43.4251C561.468 46.2684 554.452 -1.47163 540.605 0.0349328C528.945 1.30348 530.139 33.4703 533.718 50.3125C533.718 50.3125 526.525 42.3946 513.98 34.1754C501.435 25.9561 486.294 28.9842 480.238 36.3383C474.182 43.6924 476.229 58.5682 489.191 67.8633C502.297 77.261 519.099 83.5212 518.565 83.7161C516.495 84.4719 500.854 88.2039 497.41 89.9257C488.326 94.4679 474.553 99.7864 477.642 114.205C480.238 126.317 505.632 127.473 513.744 123.318C509.744 129.351 498.237 147.485 507.924 158.329C521.207 173.199 545.426 131.239 545.426 131.239C545.426 131.239 551.453 165.436 562.3 161.304C573.148 157.171 575.96 137.208 575.73 127.451C581.767 140.972 611.305 165.456 623.427 154.436Z" fill="#FFC425"/>
<path d="M584.691 88.2477C584.621 87.1229 582.977 82.0147 577.44 81.5368C571.903 81.0589 568.222 84.0193 567.82 84.6738" stroke="black" stroke-width="2.59556" stroke-linecap="round"/>
<ellipse cx="9.81446" cy="11.5363" rx="9.81446" ry="11.5363" transform="matrix(-1 0 0 1 551.645 70.8906)" fill="#FDFCFC"/>
<circle cx="6.92151" cy="6.92151" r="6.92151" transform="matrix(-1 0 0 1 548.752 75.5059)" fill="black"/>
<path d="M568.686 100.794C568.284 102.171 563.494 105.057 556.14 104.192C548.786 103.327 544.805 98.6839 544.46 97.7656" stroke="black" stroke-width="2.59556" stroke-linecap="round"/>
<ellipse cx="528.254" cy="91.7103" rx="11.68" ry="11.2474" fill="url(#paint0_radial_1085_2744)"/>
<ellipse cx="583.625" cy="101.228" rx="11.68" ry="11.2474" fill="url(#paint1_radial_1085_2744)"/>
<path d="M454.658 79C467.533 93.1534 479.303 102.876 502.175 91.7322" stroke="black" stroke-width="5" stroke-linecap="round"/>
<defs>
<radialGradient id="paint0_radial_1085_2744" cx="0" cy="0" r="1" gradientUnits="userSpaceOnUse" gradientTransform="translate(528.254 91.7103) rotate(90) scale(11.2474 11.68)">
<stop offset="0.0769231" stop-color="#FF6062"/>
<stop offset="1" stop-color="#D9D9D9" stop-opacity="0"/>
</radialGradient>
<radialGradient id="paint1_radial_1085_2744" cx="0" cy="0" r="1" gradientUnits="userSpaceOnUse" gradientTransform="translate(583.625 101.228) rotate(90) scale(11.2474 11.68)">
<stop offset="0.134615" stop-color="#FF6062"/>
<stop offset="1" stop-color="#D9D9D9" stop-opacity="0"/>
</radialGradient>
</defs>
</svg>
