<svg width="168" height="162" viewBox="0 0 168 162" fill="none" xmlns="http://www.w3.org/2000/svg">
<path d="M146.447 154.433C158.568 143.413 139.73 111.607 131.121 105.753C152.609 104.376 169.08 92.5735 167.945 76.9462C166.223 53.2688 129.859 60.5274 117.347 63.0527C125.611 55.4768 140.39 15.5732 117.347 15.5735C100.983 15.5737 87.9167 34.5528 85.3214 43.4242C84.4897 46.2673 77.4735 -1.4716 63.6268 0.0349321C51.9676 1.30345 53.1608 33.4695 56.7395 50.3114C56.7395 50.3114 49.5477 42.3937 37.0027 34.1746C24.4577 25.9555 9.31729 28.9836 3.26111 36.3375C-2.79507 43.6915 -0.748138 58.5669 12.2144 67.8618C25.3202 77.2593 42.1216 83.5194 41.5878 83.7143C39.5175 84.47 23.8769 88.2019 20.4333 89.9237C11.349 94.4658 -2.424 99.7842 0.665604 114.202C3.26111 126.315 28.6549 127.47 36.7667 123.316C32.7666 129.348 21.2602 147.482 30.9465 158.326C44.2289 173.196 68.4478 131.236 68.4478 131.236C68.4478 131.236 74.4741 165.432 85.3214 161.3C96.1688 157.168 98.981 137.205 98.7515 127.448C104.788 140.968 134.325 165.452 146.447 154.433Z" fill="#FFC425"/>
<ellipse cx="9.81424" cy="11.536" rx="9.81424" ry="11.536" transform="matrix(-1 0 0 1 107.038 75.7109)" fill="#FDFCFC"/>
<circle cx="6.48877" cy="6.48877" r="6.48877" transform="matrix(-1 0 0 1 103.713 80.7578)" fill="black"/>
<ellipse cx="9.81424" cy="11.536" rx="9.81424" ry="11.536" transform="matrix(-1 0 0 1 74.668 70.8906)" fill="#FDFCFC"/>
<circle cx="6.92135" cy="6.92135" r="6.92135" transform="matrix(-1 0 0 1 71.7754 75.5059)" fill="black"/>
<path d="M83.5898 92.2832C83.1881 93.6606 81.6754 95.6407 79.8019 95.6407C77.6496 95.6407 77.2192 93.2015 76.8748 92.2832" stroke="black" stroke-width="2.06616" stroke-linecap="round"/>
<ellipse cx="51.2774" cy="91.7081" rx="11.6798" ry="11.2472" fill="url(#paint0_radial_1106_6990)"/>
<ellipse cx="106.649" cy="101.226" rx="11.6798" ry="11.2472" fill="url(#paint1_radial_1106_6990)"/>
<defs>
<radialGradient id="paint0_radial_1106_6990" cx="0" cy="0" r="1" gradientUnits="userSpaceOnUse" gradientTransform="translate(51.2774 91.7081) rotate(90) scale(11.2472 11.6798)">
<stop offset="0.0769231" stop-color="#FF6062"/>
<stop offset="1" stop-color="#D9D9D9" stop-opacity="0"/>
</radialGradient>
<radialGradient id="paint1_radial_1106_6990" cx="0" cy="0" r="1" gradientUnits="userSpaceOnUse" gradientTransform="translate(106.649 101.226) rotate(90) scale(11.2472 11.6798)">
<stop offset="0.134615" stop-color="#FF6062"/>
<stop offset="1" stop-color="#D9D9D9" stop-opacity="0"/>
</radialGradient>
</defs>
</svg>
