<?xml version="1.0" encoding="UTF-8"?>
<svg version="1.1" viewBox="0 0 450 250" xmlns="http://www.w3.org/2000/svg">
  <title>Arduino Nano</title>
  <path d="m45.975 29.512v142.52h345.82v-142.52zm9.1758 2.1758a7 7 0 0 1 7 7 7 7 0 0 1-7 7 7 7 0 0 1-7-7 7 7 0 0 1 7-7zm327.46 0.27539a7 7 0 0 1 7 7 7 7 0 0 1-7 7 7 7 0 0 1-7-7 7 7 0 0 1 7-7zm-327.39 123.89a7 7 0 0 1 7 7 7 7 0 0 1-7 7 7 7 0 0 1-7-7 7 7 0 0 1 7-7zm327.39 0a7 7 0 0 1 7 7 7 7 0 0 1-7 7 7 7 0 0 1-7-7 7 7 0 0 1 7-7z" style="fill:#017e7b;stroke-linecap:round;stroke:#93ac93"/>
  <path d="m218.17 129 13.086 13.086c0.78347 0.78348 0.78347 2.045 0 2.8284l-2.935 2.935c-0.78347 0.78348-2.045 0.78348-2.8284 0l-13.086-13.086c-0.78348-0.78348-0.78348-2.045 0-2.8284l2.935-2.935c0.78348-0.78348 2.045-0.78348 2.8284 0z" style="fill:#c9b6b0;stroke-linecap:round;stroke-width:.81404;stroke:#e3d17e"/>
  <path d="m125.25 148.88h18.371v23.666h-18.371zm-22.876-96.193h-18.371v-23.666h18.371z" style="fill:#f5f9fc;stroke-linecap:square"/>
  <path d="m298.06 100.77-31.863 31.863-31.863-31.863 31.863-31.863z" style="fill:#414141;stroke-linecap:round"/>
  <path d="m295.24 93.715 1.7678 1.7678-2.1213 2.1213-1.7678-1.7678z" style="fill:#b9b4ac;stroke-linecap:round;stroke-width:1.0815"/>
  <path d="m237.5 103.94 1.7678 1.7678-2.1213 2.1213-1.7678-1.7678zm3.3944 3.3944 1.7678 1.7678-2.1213 2.1213-1.7678-1.7678zm3.3944 3.3944 1.7678 1.7678-2.1213 2.1213-1.7678-1.7678zm3.3944 3.3944 1.7678 1.7678-2.1213 2.1213-1.7678-1.7678zm3.3944 3.3944 1.7678 1.7678-2.1213 2.1213-1.7678-1.7678zm3.3944 3.3944 1.7678 1.7678-2.1213 2.1213-1.7678-1.7678zm3.3944 3.3944 1.7678 1.7678-2.1213 2.1213-1.7678-1.7678zm3.3944 3.3944 1.7678 1.7678-2.1213 2.1213-1.7678-1.7678zm10.223-57.745 1.7678 1.7678-2.1213 2.1213-1.7678-1.7678zm3.3944 3.3944 1.7678 1.7678-2.1213 2.1213-1.7678-1.7678zm3.3944 3.3944 1.7678 1.7678-2.1213 2.1213-1.7678-1.7678zm3.3944 3.3944 1.7678 1.7678-2.1213 2.1213-1.7678-1.7678zm3.3944 3.3944 1.7678 1.7678-2.1213 2.1213-1.7678-1.7678zm3.3944 3.3944 1.7678 1.7678-2.1213 2.1213-1.7678-1.7678zm3.3944 3.3944 1.7678 1.7678-2.1213 2.1213-1.7678-1.7678zm-18.599 39.5-1.7678 1.7678-2.1213-2.1213 1.7678-1.7678zm3.3944-3.3944-1.7678 1.7678-2.1213-2.1213 1.7678-1.7678zm3.3944-3.3944-1.7678 1.7678-2.1213-2.1213 1.7678-1.7678zm3.3944-3.3944-1.7678 1.7678-2.1213-2.1213 1.7678-1.7678zm3.3944-3.3944-1.7678 1.7678-2.1213-2.1213 1.7678-1.7678zm3.3944-3.3944-1.7678 1.7678-2.1213-2.1213 1.7678-1.7678zm3.3944-3.3944-1.7678 1.7678-2.1213-2.1213 1.7678-1.7678zm3.3944-3.3944-1.7678 1.7678-2.1213-2.1213 1.7678-1.7678zm-54.35-13.618-1.7678 1.7678-2.1213-2.1213 1.7678-1.7678zm3.3944-3.3944-1.7678 1.7678-2.1213-2.1213 1.7678-1.7678zm3.3944-3.3944-1.7678 1.7678-2.1213-2.1213 1.7678-1.7678zm3.3944-3.3944-1.7678 1.7678-2.1213-2.1213 1.7678-1.7678zm3.3944-3.3944-1.7678 1.7678-2.1213-2.1213 1.7678-1.7678zm3.3944-3.3944-1.7678 1.7678-2.1213-2.1213 1.7678-1.7678zm-20.366 20.366-1.7678 1.7678-2.1213-2.1213 1.7678-1.7678zm23.761-23.761-1.7678 1.7678-2.1213-2.1213 1.7678-1.7678z" style="fill:#b9b4ac;stroke-linecap:round;stroke-width:1.0815"/>
  <path d="m47.069 69.967h32.934v61.609h-32.934z" style="fill:#141414;stroke-width:2"/>
  <path d="m68.442 112.39h-21.373l-4.4403 4.1726v10.846l4.4403 4.1671h32.934l4.4403-4.1671v-10.846l-4.4403-4.1726zm0-21.212h-21.373l-4.4403 4.1726v10.846l4.4403 4.1671h32.934l4.4403-4.1671v-10.846l-4.4403-4.1726zm0-21.212h-21.373l-4.4403 4.1726v10.846l4.4403 4.1671h32.934l4.4403-4.1671v-10.846l-4.4403-4.1726z" style="fill:#1a1a1a;stroke-width:1.25"/>
  <path d="m55.273 123.63-3.3158 1e-5 -7e-6 -3.3102h3.3158zm19.844 1e-5 -3.3158 1e-5 -6e-6 -3.3102 3.3158-2e-5zm-19.844-21.212-3.3158 1e-5 -7e-6 -3.3102 3.3158-7e-6zm19.844-1e-5 -3.3158 1e-5 -7e-6 -3.3102 3.3158-1.4e-5zm-19.844-21.212-3.3158 7e-6 -7e-6 -3.3102 3.3158-7e-6zm19.844 1.4e-5 -3.3158 1.4e-5 -7e-6 -3.3102 3.3158-1.4e-5z" style="fill:#f5e6d1;stroke-width:1.25"/>
  <path d="m55.264 120.33 1.5613-1.5642h-6.4217l1.5586 1.5642zm16.542 0h3.3018l1.5614-1.5642h-6.4217zm-19.844-21.212h3.3018l1.5613-1.5641h-6.4217zm18.285-1.5641 1.5586 1.5641h3.3018l1.5614-1.5641zm-19.844-21.212 1.5586 1.5641h3.3018l1.5613-1.5641zm26.266 0h-6.4217l1.5586 1.5641h3.3018z" style="fill:#cdcdcc;stroke-width:1.25"/>
  <path d="m56.825 125.2h-6.4217l1.5586-1.5614h3.3018zm18.283-1.5614 1.5614 1.5614h-6.4217l1.5586-1.5614zm-19.844-21.212 1.5613 1.5614h-6.4217l1.5586-1.5614zm16.542 0h3.3018l1.5614 1.5614h-6.4217zm-19.844-21.212h3.3018l1.5613 1.5613h-6.4217zm18.285 1.5613 1.5586-1.5613h3.3018l1.5614 1.5613z" style="fill:#797672;stroke-width:1.25"/>
  <path d="m51.962 123.64-1.5586 1.5614v-6.4273l1.5586 1.5642zm4.8631-4.8659v6.4273l-1.5613-1.5614v-3.3018zm14.981 1.5642v3.3018l-1.5586 1.5614v-6.4273zm3.3018 0 1.5614-1.5642v6.4273l-1.5614-1.5614zm-23.146-21.212v3.3018l-1.5586 1.5614v-6.4273zm3.3018 0 1.5613-1.5641v6.4273l-1.5613-1.5614zm14.984-1.5641 1.5586 1.5641v3.3018l-1.5586 1.5614zm4.8603 4.8659v-3.3018l1.5614-1.5641v6.4273zm-24.704-26.078 1.5586 1.5641v3.3018l-1.5586 1.5613zm4.8603 4.8659v-3.3018l1.5613-1.5641v6.4273zm14.984 1.5613v-6.4273l1.5586 1.5641v3.3018zm6.4217 0-1.5614-1.5613v-3.3018l1.5614-1.5641z" style="fill:#b5b2b0;stroke-width:1.25"/>
  <path d="m372.17 127.18h17.157v15.441h-17.157zm0-68.621h17.157v15.441h-17.157zm-43.219 68.621h17.157v15.441h-17.157zm0-68.621h17.157v15.441h-17.157zm-1.5555 53.346h11.134v4.9927h-11.134zm0-6.8162h11.134v4.9927h-11.134zm0-6.8162h11.134v4.9927h-11.134zm0-6.8162h11.134v4.9927h-11.134zm0-6.8162h11.134v4.9927h-11.134z" style="fill:#b9b4b8;stroke-linecap:square;stroke-width:1.5"/>
  <path d="m337.53 69.951h69.844v61.64h-69.844z" style="fill:#d7d4db;stroke-linecap:square;stroke-width:1.5"/>
  <path d="m346.31 114.39h5.7921c1.662 0 3 1.1205 3 2.5122 0 1.3918-1.338 2.5122-3 2.5122h-5.7921c-1.662 0-3-1.1205-3-2.5122 0-1.3918 1.338-2.5122 3-2.5122zm18.223-25.504h31.255c1.662 0 3 1.338 3 3v17.774c0 1.662-1.338 3-3 3h-31.255c-1.662 0-3-1.338-3-3v-17.774c0-1.662 1.338-3 3-3zm7.2941 28.528h26.961v9.0686h-26.961zm0-42.35h26.961v9.0686h-26.961zm-25.517 7.3212h5.7921c1.662 0 3 1.1205 3 2.5122 0 1.3918-1.338 2.5122-3 2.5122h-5.7921c-1.662 0-3-1.1205-3-2.5122 0-1.3918 1.338-2.5122 3-2.5122zm-7.788 2.5122h3.0724v32.005h-3.0724z" style="fill:#1a1a1a;stroke-linecap:square;stroke-width:1.5"/>
  <path d="m371.64 94.186h27.244c1.7258 0 3.1152 1.338 3.1152 3v7.1716c0 1.662-1.3894 3-3.1152 3h-27.244c-1.7258 0-3.1152-1.338-3.1152-3v-7.1716c0-1.662 1.3894-3 3.1152-3z" style="fill:#d7d4db;stroke-linecap:square;stroke-width:1.5"/>
  <path d="m145.32 134.43h27.035v11.636h-27.035zm0-26.111h27.035v11.636h-27.035zm0-26.111h27.035v11.636h-27.035zm0-26.111h27.035v11.636h-27.035z" style="fill:#8c948f;stroke-width:3"/>
  <path d="m150.62 134.29h16.448v11.909h-16.448zm0-26.111h16.448v11.909h-16.448zm0-26.111h16.448v11.909h-16.448zm0-26.111h16.448v11.909h-16.448z" style="fill:#ebe9d5;stroke-width:3"/>
  <path d="m156.86 139.07h3.9594v2.3509h-3.9594zm0-26.111h3.9594v2.3509h-3.9594zm0-26.111h3.9594v2.3509h-3.9594zm0-26.111h3.9594v2.3509h-3.9594z" style="fill:#dabb93;stroke-width:3"/>
  <path d="m218 129.85 12.557 12.405c0.75183 0.7427 0.82387 1.8655 0.16151 2.5174l-2.4812 2.4423c-0.66236 0.65197-1.8008 0.57893-2.5527-0.16377l-12.557-12.405c-0.75183-0.7427-0.82387-1.8655-0.16152-2.5175l2.4813-2.4423c0.66235-0.65197 1.8008-0.57892 2.5527 0.16378z" style="fill:none;stroke-linecap:round;stroke-width:.81404;stroke:#333333"/>
  <path d="m67.567 158.3h10v10h-10zm25.623 10a5 5 0 0 1-5-5 5 5 0 0 1 5-5 5 5 0 0 1 5 5 5 5 0 0 1-5 5zm20.623 0a5 5 0 0 1-5-5 5 5 0 0 1 5-5 5 5 0 0 1 5 5 5 5 0 0 1-5 5zm20.623 0a5 5 0 0 1-5-5 5 5 0 0 1 5-5 5 5 0 0 1 5 5 5 5 0 0 1-5 5zm20.623 0a5 5 0 0 1-5-5 5 5 0 0 1 5-5 5 5 0 0 1 5 5 5 5 0 0 1-5 5zm20.623 0a5 5 0 0 1-5-5 5 5 0 0 1 5-5 5 5 0 0 1 5 5 5 5 0 0 1-5 5zm20.623 0a5 5 0 0 1-5-5 5 5 0 0 1 5-5 5 5 0 0 1 5 5 5 5 0 0 1-5 5zm20.623 0a5 5 0 0 1-5-5 5 5 0 0 1 5-5 5 5 0 0 1 5 5 5 5 0 0 1-5 5zm20.623 0a5 5 0 0 1-5-5 5 5 0 0 1 5-5 5 5 0 0 1 5 5 5 5 0 0 1-5 5zm20.623 0a5 5 0 0 1-5-5 5 5 0 0 1 5-5 5 5 0 0 1 5 5 5 5 0 0 1-5 5zm20.623 0a5 5 0 0 1-5-5 5 5 0 0 1 5-5 5 5 0 0 1 5 5 5 5 0 0 1-5 5zm20.623 0a5 5 0 0 1-5-5 5 5 0 0 1 5-5 5 5 0 0 1 5 5 5 5 0 0 1-5 5zm20.623 0a5 5 0 0 1-5-5 5 5 0 0 1 5-5 5 5 0 0 1 5 5 5 5 0 0 1-5 5zm20.623 0a5 5 0 0 1-5-5 5 5 0 0 1 5-5 5 5 0 0 1 5 5 5 5 0 0 1-5 5zm20.623 0a5 5 0 0 1-5-5 5 5 0 0 1 5-5 5 5 0 0 1 5 5 5 5 0 0 1-5 5zm-293.73-135.04h10v10h-10zm25.623 10a5 5 0 0 1-5-5 5 5 0 0 1 5-5 5 5 0 0 1 5 5 5 5 0 0 1-5 5zm20.623 0a5 5 0 0 1-5-5 5 5 0 0 1 5-5 5 5 0 0 1 5 5 5 5 0 0 1-5 5zm20.623 0a5 5 0 0 1-5-5 5 5 0 0 1 5-5 5 5 0 0 1 5 5 5 5 0 0 1-5 5zm20.623 0a5 5 0 0 1-5-5 5 5 0 0 1 5-5 5 5 0 0 1 5 5 5 5 0 0 1-5 5zm20.623 0a5 5 0 0 1-5-5 5 5 0 0 1 5-5 5 5 0 0 1 5 5 5 5 0 0 1-5 5zm20.623 0a5 5 0 0 1-5-5 5 5 0 0 1 5-5 5 5 0 0 1 5 5 5 5 0 0 1-5 5zm20.623 0a5 5 0 0 1-5-5 5 5 0 0 1 5-5 5 5 0 0 1 5 5 5 5 0 0 1-5 5zm20.623 0a5 5 0 0 1-5-5 5 5 0 0 1 5-5 5 5 0 0 1 5 5 5 5 0 0 1-5 5zm20.623 0a5 5 0 0 1-5-5 5 5 0 0 1 5-5 5 5 0 0 1 5 5 5 5 0 0 1-5 5zm20.623 0a5 5 0 0 1-5-5 5 5 0 0 1 5-5 5 5 0 0 1 5 5 5 5 0 0 1-5 5zm20.623 0a5 5 0 0 1-5-5 5 5 0 0 1 5-5 5 5 0 0 1 5 5 5 5 0 0 1-5 5zm20.623 0a5 5 0 0 1-5-5 5 5 0 0 1 5-5 5 5 0 0 1 5 5 5 5 0 0 1-5 5zm20.623 0a5 5 0 0 1-5-5 5 5 0 0 1 5-5 5 5 0 0 1 5 5 5 5 0 0 1-5 5zm20.623 0a5 5 0 0 1-5-5 5 5 0 0 1 5-5 5 5 0 0 1 5 5 5 5 0 0 1-5 5z" style="fill:#b9b4b8;stroke-linecap:square;stroke:#333333"/>
  <path d="m187.16 117.72h12.132v5.131h-12.132zm0-39.036h12.132v5.131h-12.132z" style="fill:#b9b4b8;stroke-linecap:square;stroke-width:1.5"/>
  <path d="m203.28 83.369v34.804h-20.098v-34.804z" style="fill:#d7d4db;stroke-linecap:round;stroke:#b9b4ac"/>
  <path d="m193.23 106.84a6.0659 6.0659 0 0 1-6.0659-6.0659 6.0659 6.0659 0 0 1 6.0659-6.0659 6.0659 6.0659 0 0 1 6.0659 6.0659 6.0659 6.0659 0 0 1-6.0659 6.0659z" style="fill:#f2f2f2;stroke-linecap:round;stroke-width:.83333;stroke:#333333"/>
  <path d="m141.64 153.76q0 0.66797-0.167 1.2129-0.16259 0.54492-0.51416 0.93164-0.34716 0.38233-0.89209 0.59327-0.54492 0.20654-1.3052 0.20654h-1.459v-5.7436h1.7007q0.65918 0 1.1514 0.16699 0.49658 0.1626 0.82617 0.50537t0.49218 0.87012q0.167 0.52734 0.167 1.2568zm-1.1602 0.0703q0-0.46582-0.0747-0.83056-0.0747-0.36475-0.25488-0.61524-0.17578-0.25488-0.47461-0.38671-0.29883-0.13184-0.74267-0.13184h-0.54932v3.9331h0.47461q0.79541 0 1.2085-0.4746 0.41309-0.47461 0.41309-1.4942zm-5.2515 2.874-1.5381-3.4277-0.31641-0.73828v4.166h-0.98437v-5.7436h1.3272l1.5688 3.4497 0.27686 0.67237v-4.1221h0.98438v5.7436zm-5.6997-2.4302v-0.89209h2.0435v3.063q-0.39551 0.18457-0.82618 0.27246-0.43066 0.0879-0.93603 0.0879-0.59766 0-1.0767-0.18457-0.47461-0.18457-0.8086-0.54931-0.33398-0.36475-0.51416-0.90528-0.17578-0.54052-0.17578-1.2524 0-0.71631 0.18457-1.2832 0.18897-0.5669 0.54493-0.95801 0.36035-0.39551 0.8789-0.60205 0.52295-0.20654 1.1909-0.20654 0.39551 0 0.76904 0.0703 0.37793 0.0659 0.75147 0.18017v1.0679q-0.3252-0.15381-0.72071-0.25049-0.39111-0.10108-0.79101-0.10108-0.4043 0-0.71631 0.14063-0.30762 0.14062-0.51855 0.3999-0.20655 0.25928-0.31641 0.63721-0.10547 0.37793-0.10547 0.85254 0 0.45703 0.0835 0.82617 0.0835 0.36474 0.26806 0.62402 0.18897 0.25488 0.4834 0.39112 0.29444 0.13623 0.71631 0.13623 0.10107 0 0.17578-4e-3 0.0747-9e-3 0.14063-0.022 0.0659-0.0132 0.12304-0.0308 0.0615-0.0176 0.12744-0.0396v-1.4678zm-43.54-106.46q0-0.66797 0.16699-1.2129 0.1626-0.54492 0.51416-0.93164 0.34717-0.38232 0.89209-0.59326 0.54492-0.20654 1.3052-0.20654h1.459v5.7437h-1.7007q-0.65918 0-1.1514-0.16699-0.49658-0.1626-0.82617-0.50537-0.32959-0.34277-0.49219-0.87012-0.16699-0.52734-0.16699-1.2568zm1.1602-0.07031q0 0.46582 0.07471 0.83057t0.25488 0.61523q0.17578 0.25488 0.47461 0.38672t0.74268 0.13184h0.54932v-3.9331h-0.47461q-0.79541 0-1.2085 0.47461t-0.41309 1.4941zm5.2515-2.874 1.5381 3.4277 0.31641 0.73828v-4.166h0.98438v5.7437h-1.3271l-1.5688-3.4497-0.27686-0.67236v4.1221h-0.98438v-5.7437zm5.6997 2.4302v0.89209h-2.0435v-3.063q0.39551-0.18457 0.82617-0.27246t0.93604-0.08789q0.59766 0 1.0767 0.18457 0.47461 0.18457 0.80859 0.54932 0.33398 0.36475 0.51416 0.90527 0.17578 0.54053 0.17578 1.2524 0 0.71631-0.18457 1.2832-0.18896 0.56689-0.54492 0.95801-0.36035 0.39551-0.87891 0.60205-0.52295 0.20654-1.1909 0.20654-0.39551 0-0.76904-0.07031-0.37793-0.06592-0.75146-0.18018v-1.0679q0.3252 0.15381 0.7207 0.25049 0.39111 0.10107 0.79102 0.10107 0.4043 0 0.71631-0.14062 0.30762-0.14062 0.51856-0.3999 0.20654-0.25928 0.31641-0.63721 0.10547-0.37793 0.10547-0.85254 0-0.45703-0.0835-0.82617-0.0835-0.36475-0.26807-0.62402-0.18896-0.25488-0.4834-0.39111-0.29443-0.13623-0.71631-0.13623-0.10107 0-0.17578 0.0044-0.07471 0.0088-0.14062 0.02197-0.06592 0.01318-0.12305 0.03076-0.06152 0.01758-0.12744 0.03955v1.4678z" style="fill:#017e7b;font-family:Consolas;font-size:9px;font-weight:bold;letter-spacing:0px;line-height:1;text-align:center;text-anchor:middle;text-orientation:sideways"/>
  <path d="m130.52 136.86-2.1138 1.1074 2.1138 1.0898v1.3052l-2.9443-1.6567-2.7993 1.5469v-1.27l1.9995-1.0415-1.9995-1.0064v-1.27l2.7993 1.5381 2.9443-1.7183zm-4.8428 5.458h4.8428v1.1074h-4.8428v1.5732h-0.90087v-4.2539h0.90087zm4.8428-31.459-2.1138 1.1074 2.1138 1.0898v1.3052l-2.9443-1.6567-2.7993 1.5469v-1.27l1.9995-1.0415-1.9995-1.0063v-1.27l2.7993 1.5381 2.9443-1.7183zm0 5.023-1.8457 0.80859q-0.26367 0.11426-0.3955 0.3208-0.13623 0.20215-0.13623 0.47901v0.20654h2.3774v1.081h-5.7436v-1.6743q0-0.47461 0.0835-0.86133 0.0791-0.38672 0.26807-0.65918 0.18896-0.27246 0.49219-0.41748 0.30322-0.14941 0.74267-0.14941 0.31641 0 0.5625 0.0923t0.42627 0.25928q0.17578 0.16699 0.28565 0.3999 0.10986 0.22852 0.1538 0.50098 0.0439-0.21094 0.2417-0.38672 0.19336-0.17578 0.5625-0.35156l1.9248-0.91846zm-4.0518 0.26806q-0.42188 0-0.60645 0.26807t-0.18457 0.8042v0.47461h1.6216v-0.43945q0-0.25049-0.0527-0.45264-0.0527-0.20654-0.1582-0.35156-0.10547-0.14502-0.25928-0.22412-0.1582-0.0791-0.36035-0.0791zm15.3-31.49-3.4277 1.5381-0.73828 0.31641h4.166v0.98438h-5.7437v-1.3271l3.4497-1.5688 0.67236-0.27686h-4.1221v-0.98438h5.7437zm-2.896 3.4146q0.78223 0 1.3491 0.18457 0.56689 0.18018 0.93164 0.50098 0.36475 0.31641 0.54053 0.74707 0.17578 0.42627 0.17578 0.91406 0 1.1338-0.75147 1.7051-0.75585 0.57129-2.1929 0.57129-0.78222 0-1.3491-0.18018-0.56689-0.18457-0.93164-0.50098-0.36474-0.3208-0.54053-0.74707-0.17578-0.43066-0.17578-0.91846 0-1.1338 0.75147-1.7051 0.75146-0.57129 2.1929-0.57129zm0.0527 1.1426q-1.0195 0-1.5205 0.27246-0.50098 0.27246-0.50098 0.89648 0 0.31201 0.13184 0.53174 0.12744 0.21973 0.37792 0.36475 0.25049 0.14062 0.61963 0.20654 0.36475 0.06592 0.83936 0.06592 1.0195 0 1.5205-0.27246 0.50097-0.27686 0.50097-0.89648 0-0.31201-0.12744-0.53174-0.13183-0.22412-0.38232-0.36475t-0.61524-0.20654q-0.36914-0.06592-0.84375-0.06592zm2.7466-26.133h-5.7437v-1.0986h4.8164v-2.4258h0.92725zm222.71 93.675v-0.79102l1.3579-1.3579q0.38233-0.38232 0.61084-0.65918 0.23291-0.27685 0.35596-0.49219 0.12744-0.21972 0.16699-0.40429 0.0395-0.18457 0.0395-0.38233 0-0.16259-0.0527-0.30761-0.0527-0.14942-0.15381-0.25489-0.10107-0.10986-0.25488-0.17138-0.15381-0.0659-0.35157-0.0659-0.33837 0-0.62841 0.14941-0.29004 0.14502-0.54932 0.39112l-0.56689-0.7295q0.37353-0.34716 0.83935-0.55371 0.47022-0.21093 1.0151-0.21093 0.42187 0 0.76465 0.10986 0.34277 0.10547 0.58447 0.3164 0.24609 0.21094 0.37793 0.52735 0.13623 0.3164 0.13623 0.72949 0 0.34277-0.0923 0.6416-0.0923 0.29444-0.26806 0.57569-0.17578 0.28125-0.43506 0.5625-0.25488 0.28125-0.58447 0.59326l-0.83496 0.79541h2.4214v0.98877zm-4.8472 0v-0.95362h1.4634v-3.6914l-1.2744 0.70312-0.35156-0.87451 1.8237-0.9624h0.90088v4.8252h1.2612v0.95362zm-0.90088-2.9443q0 0.66797-0.167 1.2129-0.16259 0.54492-0.51416 0.93164-0.34716 0.38233-0.89209 0.59326-0.54492 0.20655-1.3052 0.20655h-1.459v-5.7437h1.7007q0.65918 0 1.1514 0.167 0.49659 0.16259 0.82618 0.50537 0.32959 0.34277 0.49218 0.87012 0.167 0.52734 0.167 1.2568zm-1.1602 0.0703q0-0.46582-0.0747-0.83056-0.0747-0.36475-0.25488-0.61524-0.17578-0.25488-0.47461-0.38672-0.29883-0.13183-0.74268-0.13183h-0.54931v3.9331h0.47461q0.79541 0 1.2085-0.47461 0.41309-0.4746 0.41309-1.4941zm-13.627 2.874v-0.95362h1.4634v-3.6914l-1.2744 0.70312-0.35156-0.87451 1.8237-0.9624h0.90087v4.8252h1.2612v0.95362zm-4.9482 0v-0.95362h1.4634v-3.6914l-1.2744 0.70312-0.35157-0.87451 1.8237-0.9624h0.90088v4.8252h1.2612v0.95362zm-0.90088-2.9443q0 0.66797-0.16699 1.2129-0.1626 0.54492-0.51416 0.93164-0.34717 0.38233-0.89209 0.59326-0.54492 0.20655-1.3052 0.20655h-1.459v-5.7437h1.7007q0.65918 0 1.1514 0.167 0.49658 0.16259 0.82617 0.50537 0.32959 0.34277 0.49219 0.87012 0.16699 0.52734 0.16699 1.2568zm-1.1602 0.0703q0-0.46582-0.0747-0.83056-0.0747-0.36475-0.25488-0.61524-0.17579-0.25488-0.47461-0.38672-0.29883-0.13183-0.74268-0.13183h-0.54932v3.9331h0.47461q0.79541 0 1.2085-0.47461 0.41309-0.4746 0.41309-1.4941zm-9.6786-0.022q0 0.70752-0.15381 1.2656-0.15381 0.5581-0.45264 0.94482-0.29443 0.38232-0.7207 0.58447t-0.97559 0.20215q-0.47461 0-0.87451-0.16699t-0.68994-0.52295q-0.29004-0.36035-0.45264-0.91846-0.1626-0.5581-0.1626-1.3359 0-0.70752 0.15381-1.2656 0.15821-0.5581 0.45264-0.94043 0.29443-0.38672 0.7251-0.58887 0.43066-0.20214 0.97558-0.20214 0.47461 0 0.87451 0.16699 0.39991 0.16699 0.68555 0.52295 0.29004 0.35595 0.45264 0.91406 0.1626 0.5581 0.1626 1.3403zm-3.4014 0.0176q0 0.0879 0 0.16699 0 0.0747 9e-3 0.15381l2.1533-1.5557q-0.15381-0.43506-0.40869-0.64161-0.25049-0.21093-0.59327-0.21093-0.24609 0-0.45703 0.12744-0.21093 0.12305-0.36914 0.38232-0.15381 0.25928-0.24609 0.65039-0.0879 0.39112-0.0879 0.92725zm2.3203 0.0176q0-0.0747-4e-3 -0.14942-4e-3 -0.0791-4e-3 -0.14941l-2.1401 1.5469q0.14062 0.42627 0.3955 0.63282 0.25489 0.20654 0.59326 0.20654 0.2461 0 0.45704-0.12744 0.21533-0.12744 0.36914-0.38233 0.1582-0.25927 0.24609-0.65039 0.0879-0.3955 0.0879-0.92724zm-7.9146 2.8608v-0.95362h1.4634v-3.6914l-1.2744 0.70312-0.35157-0.87451 1.8237-0.9624h0.90088v4.8252h1.2612v0.95362zm-0.90088-2.9443q0 0.66797-0.16699 1.2129-0.1626 0.54492-0.51416 0.93164-0.34717 0.38233-0.89209 0.59326-0.54492 0.20655-1.3052 0.20655h-1.459v-5.7437h1.7007q0.65918 0 1.1514 0.167 0.49658 0.16259 0.82617 0.50537 0.32959 0.34277 0.49219 0.87012 0.16699 0.52734 0.16699 1.2568zm-1.1602 0.0703q0-0.46582-0.0747-0.83056-0.0747-0.36475-0.25488-0.61524-0.17579-0.25488-0.47461-0.38672-0.29883-0.13183-0.74268-0.13183h-0.54932v3.9331h0.47461q0.79541 0 1.2085-0.47461 0.41309-0.4746 0.41309-1.4941zm-12.153-0.33837q0 0.67676-0.11425 1.1821-0.11426 0.50098-0.3252 0.85694-0.20654 0.35595-0.49658 0.58447t-0.646 0.36035q-0.35156 0.13184-0.75586 0.18018-0.3999 0.0483-0.83056 0.0483h-0.66358v-0.91846h0.78223q0.51416 0 0.85693-0.0879 0.34717-0.0923 0.55811-0.26367 0.21533-0.17578 0.3164-0.43506 0.10547-0.25928 0.14063-0.59766l9e-3 -0.10986q-0.23291 0.10986-0.53174 0.18018-0.29883 0.0703-0.60205 0.0703-0.41748 0-0.76025-0.0967-0.34278-0.0967-0.59327-0.30762-0.24609-0.21094-0.38232-0.54492-0.13623-0.33838-0.13623-0.81299 0-0.43066 0.15381-0.78223 0.1582-0.35595 0.43506-0.60644 0.28125-0.25049 0.66357-0.38672 0.38672-0.14062 0.84375-0.14062 0.44824 0 0.82617 0.12744 0.38233 0.12744 0.65918 0.43506 0.28125 0.30322 0.43506 0.80859 0.1582 0.50537 0.1582 1.2568zm-2.1313-1.727q-0.21094 0-0.38233 0.0703-0.17138 0.0703-0.29443 0.19775-0.11865 0.12744-0.18457 0.30762-0.0659 0.17578-0.0659 0.39551 0 0.46582 0.24609 0.69433 0.2461 0.22412 0.68116 0.22412 0.11865 0 0.25048-0.022 0.13623-0.022 0.26807-0.0615 0.13623-0.0395 0.25488-0.0879 0.12305-0.0527 0.21534-0.10987 0-0.39111-0.0527-0.68994-0.0483-0.29883-0.16699-0.50098-0.11426-0.20654-0.30322-0.31201-0.18897-0.10547-0.46582-0.10547zm-2.5928 1.9951q0 0.66797-0.16699 1.2129-0.1626 0.54492-0.51416 0.93164-0.34717 0.38233-0.89209 0.59326-0.54492 0.20655-1.3052 0.20655h-1.459v-5.7437h1.7007q0.65918 0 1.1514 0.167 0.49658 0.16259 0.82617 0.50537 0.32959 0.34277 0.49219 0.87012 0.16699 0.52734 0.16699 1.2568zm-1.1602 0.0703q0-0.46582-0.0747-0.83056-0.0747-0.36475-0.25488-0.61524-0.17578-0.25488-0.47461-0.38672-0.29883-0.13183-0.74268-0.13183h-0.54931v3.9331h0.4746q0.79541 0 1.2085-0.47461 0.41309-0.4746 0.41309-1.4941zm-15.807-0.16698q0.21533 0.11865 0.40869 0.26367 0.19776 0.14063 0.34278 0.32959 0.14941 0.18457 0.23291 0.42188 0.0879 0.23291 0.0879 0.53174 0 0.39111-0.1582 0.68994-0.15821 0.29883-0.43946 0.50097-0.27685 0.20215-0.65478 0.30323-0.37354 0.10107-0.8086 0.10107-0.4834 0-0.85693-0.10107-0.36914-0.10547-0.62402-0.29444-0.25049-0.18896-0.38233-0.45703-0.12744-0.26806-0.12744-0.59765 0-0.29444 0.0835-0.52295 0.0879-0.23291 0.2373-0.42188 0.14942-0.18896 0.34277-0.33838 0.19776-0.14941 0.41749-0.27685-0.19776-0.11426-0.37354-0.25049-0.17139-0.13623-0.30322-0.30762-0.13184-0.17138-0.21094-0.38232-0.0747-0.21094-0.0747-0.47901 0-0.31201 0.11866-0.58447 0.12304-0.27685 0.36035-0.4834 0.2417-0.20654 0.60205-0.32519 0.36474-0.11865 0.85254-0.11865 0.44824 0 0.7998 0.0967 0.35156 0.0923 0.58887 0.26807 0.2417 0.17578 0.36474 0.42188 0.12745 0.2417 0.12745 0.53613 0 0.27246-0.0747 0.49219-0.0747 0.21972-0.20215 0.3999-0.12744 0.17578-0.30322 0.3208-0.17578 0.14062-0.37354 0.26367zm-0.84375-0.41308q0.15821-0.0879 0.29444-0.18457 0.14062-0.10108 0.2417-0.21973 0.10107-0.11865 0.16259-0.25928 0.0615-0.14062 0.0615-0.31201 0-0.28564-0.22412-0.43506-0.22413-0.14941-0.646-0.14941-0.41309 0-0.63721 0.15381-0.22412 0.1538-0.22412 0.46142 0 0.16699 0.0747 0.29883t0.20654 0.24609q0.13184 0.10987 0.30762 0.20655 0.18017 0.0967 0.38232 0.19336zm-0.22412 0.97119q-0.17139 0.0923-0.32519 0.19775-0.14942 0.10547-0.26368 0.23291-0.10986 0.12744-0.17578 0.28125-0.0659 0.14942-0.0659 0.33838 0 0.33398 0.25927 0.50977 0.25928 0.17578 0.68555 0.17578 0.19336 0 0.36475-0.0395 0.17138-0.0395 0.29882-0.12305 0.13184-0.0835 0.20655-0.21094 0.0747-0.13183 0.0747-0.31201 0-0.18457-0.0835-0.32959-0.0835-0.14941-0.22852-0.27246t-0.33838-0.23291-0.40869-0.21533zm-2.5928-0.46143q0 0.66797-0.16699 1.2129-0.1626 0.54492-0.51416 0.93164-0.34717 0.38233-0.89209 0.59326-0.54493 0.20655-1.3052 0.20655h-1.459v-5.7437h1.7007q0.65918 0 1.1514 0.167 0.49658 0.16259 0.82617 0.50537 0.32959 0.34277 0.49219 0.87012 0.16699 0.52734 0.16699 1.2568zm-1.1602 0.0703q0-0.46582-0.0747-0.83056-0.0747-0.36475-0.25488-0.61524-0.17578-0.25488-0.47461-0.38672-0.29883-0.13183-0.74267-0.13183h-0.54932v3.9331h0.47461q0.79541 0 1.2085-0.47461 0.41308-0.4746 0.41308-1.4941zm-17.059 2.874h-1.2129l2.2852-4.7066h-2.7554v-1.0371h3.9902v0.93604zm-2.3818-2.9443q0 0.66797-0.16699 1.2129-0.1626 0.54492-0.51416 0.93164-0.34717 0.38233-0.89209 0.59326-0.54492 0.20655-1.3052 0.20655h-1.459v-5.7437h1.7007q0.65918 0 1.1514 0.167 0.49658 0.16259 0.82617 0.50537 0.32959 0.34277 0.49219 0.87012 0.16699 0.52734 0.16699 1.2568zm-1.1602 0.0703q0-0.46582-0.0747-0.83056-0.0747-0.36475-0.25489-0.61524-0.17578-0.25488-0.47461-0.38672-0.29882-0.13183-0.74267-0.13183h-0.54932v3.9331h0.47461q0.79541 0 1.2085-0.47461 0.41308-0.4746 0.41308-1.4941zm-14.697 1.0547q0 0.43506-0.1582 0.79102-0.15821 0.35156-0.43946 0.60644-0.27685 0.25049-0.66357 0.38672t-0.84815 0.13623q-1.0063 0-1.5381-0.63281t-0.53174-1.9336q0-0.47461 0.0571-0.90088 0.0571-0.43067 0.18896-0.79102 0.13623-0.36475 0.36036-0.65918 0.22851-0.29443 0.56689-0.49658 0.33838-0.20654 0.7998-0.31641 0.46143-0.11426 1.0723-0.11426h0.65479v0.90967h-0.76465q-0.47461 0-0.79541 0.0967t-0.52295 0.27686q-0.20215 0.18017-0.30322 0.43945-0.10108 0.25928-0.13184 0.58447l-9e-3 0.10547q0.22852-0.10986 0.51855-0.18017 0.29444-0.0703 0.61524-0.0703 0.46582 0 0.81738 0.12305 0.35156 0.11865 0.58447 0.34717 0.23731 0.22851 0.35157 0.55371 0.11865 0.3252 0.11865 0.73828zm-1.1162 0.0483q0-0.20215-0.0527-0.36914-0.0527-0.17139-0.16699-0.29004-0.10986-0.12305-0.28564-0.18896-0.17139-0.0703-0.41309-0.0703-0.14062 0-0.28125 0.0264-0.13623 0.022-0.26806 0.0615-0.12745 0.0396-0.2461 0.0879-0.11426 0.0483-0.20654 0.10107 0 0.44385 0.0615 0.75146 0.0615 0.30323 0.18457 0.49659 0.12744 0.19336 0.31201 0.28125 0.18897 0.0835 0.43506 0.0835 0.21094 0 0.38233-0.0703 0.17138-0.0703 0.29004-0.19775 0.12304-0.13184 0.18896-0.30762 0.0659-0.18018 0.0659-0.39551zm-3.7266-1.1733q0 0.66797-0.167 1.2129-0.16259 0.54492-0.51416 0.93164-0.34716 0.38233-0.89209 0.59326-0.54492 0.20655-1.3052 0.20655h-1.459v-5.7437h1.7007q0.65918 0 1.1514 0.167 0.49659 0.16259 0.82618 0.50537 0.32959 0.34277 0.49218 0.87012 0.167 0.52734 0.167 1.2568zm-1.1602 0.0703q0-0.46582-0.0747-0.83056-0.0747-0.36475-0.25488-0.61524-0.17578-0.25488-0.47461-0.38672-0.29883-0.13183-0.74268-0.13183h-0.54931v3.9331h0.47461q0.79541 0 1.2085-0.47461 0.41309-0.4746 0.41309-1.4941zm-14.715 1.0371q0 0.46143-0.19336 0.82178-0.19336 0.35596-0.53613 0.60205-0.34277 0.2461-0.80859 0.37354t-1.0108 0.12744q-0.13623 0-0.29004-9e-3 -0.1538-9e-3 -0.31201-0.022-0.1582-0.0132-0.30761-0.0352-0.14942-0.0176-0.27686-0.0396v-0.93604q0.25049 0.0615 0.57568 0.10108 0.3252 0.0352 0.66358 0.0352 0.65918 0 1.002-0.25048 0.34717-0.25489 0.34717-0.70313 0-0.46582-0.3208-0.68994-0.3208-0.22852-1.0371-0.22852h-1.125v-3.0542h3.3135v1.0108h-2.3115v1.1689h0.41309q0.43945 0 0.83935 0.0791 0.39991 0.0791 0.70313 0.27686 0.30762 0.19336 0.48779 0.52734 0.18457 0.33399 0.18457 0.84375zm-4.6538-1.1074q0 0.66797-0.16699 1.2129-0.1626 0.54492-0.51416 0.93164-0.34717 0.38233-0.89209 0.59326-0.54492 0.20655-1.3052 0.20655h-1.459v-5.7437h1.7007q0.65918 0 1.1514 0.167 0.49658 0.16259 0.82617 0.50537 0.32959 0.34277 0.49219 0.87012 0.16699 0.52734 0.16699 1.2568zm-1.1602 0.0703q0-0.46582-0.0747-0.83056-0.0747-0.36475-0.25488-0.61524-0.17578-0.25488-0.47461-0.38672-0.29883-0.13183-0.74268-0.13183h-0.54931v3.9331h0.4746q0.79542 0 1.2085-0.47461 0.41309-0.4746 0.41309-1.4941zm-15.51 1.749v1.1689h-1.0459v-1.1689h-2.6719v-0.91846l2.2412-3.6562h1.4766v3.6299h0.87012v0.94483zm-1.0327-3.5376-1.6348 2.5928h1.6348zm-3.0894 1.7622q0 0.66797-0.16699 1.2129-0.1626 0.54492-0.51416 0.93164-0.34717 0.38232-0.89209 0.59326-0.54492 0.20654-1.3052 0.20654h-1.459v-5.7436h1.7007q0.65918 0 1.1514 0.16699 0.49658 0.1626 0.82617 0.50537 0.32959 0.34278 0.49219 0.87012 0.16699 0.52734 0.16699 1.2568zm-1.1602 0.0703q0-0.46582-0.0747-0.83057-0.0747-0.36474-0.25488-0.61523-0.17578-0.25488-0.47461-0.38672t-0.74268-0.13184h-0.54931v3.9331h0.47461q0.79541 0 1.2085-0.47461 0.41309-0.47461 0.41309-1.4941zm-14.609 1.1206q0 0.42627-0.15821 0.76905-0.1582 0.33838-0.48779 0.58008-0.32519 0.2373-0.82178 0.36474-0.49658 0.12744-1.1689 0.12744-0.14941 0-0.31641-9e-3 -0.16259-4e-3 -0.32519-0.0176-0.1626-9e-3 -0.31641-0.0264-0.15381-0.0132-0.27685-0.0352v-0.93164q0.27685 0.0527 0.61962 0.0879 0.34717 0.0308 0.72071 0.0308 0.36474 0 0.62842-0.0615 0.26367-0.0615 0.43505-0.17578 0.17139-0.11865 0.25049-0.29004 0.0835-0.17139 0.0835-0.38672 0-0.18896-0.0835-0.34277t-0.25488-0.25928q-0.17139-0.10986-0.43945-0.16699-0.26368-0.0615-0.62842-0.0615h-0.63721v-0.81739h0.58447q0.34278 0 0.5669-0.0659 0.22851-0.0703 0.36035-0.18457 0.13623-0.11425 0.19336-0.26806 0.0571-0.15821 0.0571-0.32959 0-0.35156-0.22852-0.53174-0.22851-0.18457-0.70752-0.18457-0.34277 0-0.67675 0.0659-0.33399 0.0659-0.68995 0.17578v-0.90088q0.19776-0.0659 0.37793-0.10986 0.18018-0.0439 0.36036-0.0747 0.18017-0.0308 0.36474-0.0439 0.18457-0.0132 0.38233-0.0132 0.47461 0 0.83056 0.10107 0.36035 0.10108 0.60205 0.29004 0.2461 0.18457 0.36914 0.45264 0.12305 0.26807 0.12305 0.59766 0 0.52295-0.2417 0.84814-0.2373 0.3208-0.66797 0.49219 0.27686 0.0439 0.50098 0.15381 0.22412 0.10547 0.38232 0.27685 0.1626 0.167 0.2461 0.38672 0.0879 0.21973 0.0879 0.48779zm-4.7153-1.1909q0 0.66797-0.167 1.2129-0.16259 0.54492-0.51416 0.93164-0.34716 0.38232-0.89209 0.59326-0.54492 0.20654-1.3052 0.20654h-1.459v-5.7436h1.7007q0.65918 0 1.1514 0.16699 0.49659 0.1626 0.82618 0.50537 0.32959 0.34278 0.49218 0.87012 0.167 0.52734 0.167 1.2568zm-1.1602 0.0703q0-0.46582-0.0747-0.83057-0.0747-0.36474-0.25488-0.61523-0.17578-0.25488-0.47461-0.38672t-0.74268-0.13184h-0.54931v3.9331h0.47461q0.79541 0 1.2085-0.47461 0.41309-0.47461 0.41309-1.4941zm-18.654 2.874v-0.79101l1.3579-1.3579q0.38233-0.38233 0.61084-0.65918 0.23291-0.27686 0.35596-0.49219 0.12744-0.21973 0.16699-0.4043 0.0395-0.18457 0.0395-0.38232 0-0.1626-0.0527-0.30762-0.0527-0.14941-0.15381-0.25488-0.10107-0.10986-0.25488-0.17139-0.15381-0.0659-0.35156-0.0659-0.33838 0-0.62842 0.14942-0.29004 0.14502-0.54932 0.39111l-0.56689-0.72949q0.37353-0.34717 0.83935-0.55371 0.47022-0.21094 1.0151-0.21094 0.42187 0 0.76465 0.10986 0.34277 0.10547 0.58447 0.31641 0.24609 0.21094 0.37793 0.52734 0.13623 0.31641 0.13623 0.7295 0 0.34277-0.0923 0.6416-0.0923 0.29443-0.26807 0.57568-0.17578 0.28125-0.43506 0.5625-0.25488 0.28125-0.58447 0.59326l-0.83496 0.79541h2.4214v0.98877zm-0.7998-2.9443q0 0.66797-0.16699 1.2129-0.1626 0.54492-0.51416 0.93164-0.34717 0.38232-0.89209 0.59326-0.54492 0.20654-1.3052 0.20654h-1.459v-5.7436h1.7007q0.65918 0 1.1514 0.16699 0.49658 0.1626 0.82617 0.50537 0.32959 0.34278 0.49219 0.87012 0.16699 0.52734 0.16699 1.2568zm-1.1602 0.0703q0-0.46582-0.0747-0.83057-0.0747-0.36474-0.25489-0.61523-0.17578-0.25488-0.47461-0.38672-0.29882-0.13184-0.74267-0.13184h-0.54932v3.9331h0.47461q0.79541 0 1.2085-0.47461 0.41308-0.47461 0.41308-1.4941zm-34.514-1.751v4.8428h-1.1074v-4.8428h-1.5732v-0.90088h4.2539v0.90088zm-3.4936 3.1069q0 0.47021-0.17578 0.81738-0.17139 0.34717-0.4834 0.57568-0.31201 0.22412-0.74268 0.33399-0.43066 0.10986-0.94043 0.10986-0.45263 0-0.87451-0.0527-0.42187-0.0527-0.83496-0.17579v-1.0679q0.20215 0.0703 0.42187 0.13184 0.21973 0.0615 0.43946 0.10986 0.22412 0.0439 0.44385 0.0703 0.21972 0.0264 0.42626 0.0264 0.30762 0 0.52295-0.0527 0.21534-0.0527 0.35157-0.14502 0.13623-0.0923 0.19775-0.21973 0.0615-0.12744 0.0615-0.28125 0-0.21094-0.12304-0.35156-0.11866-0.14502-0.31641-0.25488-0.19775-0.10987-0.45264-0.19776-0.25048-0.0879-0.51416-0.18896-0.25927-0.10108-0.51416-0.22852-0.25048-0.12744-0.44824-0.3164-0.19775-0.18897-0.3208-0.44825-0.11865-0.26367-0.11865-0.63281 0-0.33838 0.12305-0.6416 0.12304-0.30322 0.38671-0.52734 0.26368-0.22852 0.67676-0.36036 0.41309-0.13623 0.99756-0.13623 0.17139 0 0.35596 0.0176 0.18896 0.0132 0.36914 0.0395 0.18457 0.022 0.35156 0.0571 0.17139 0.0308 0.31201 0.0659v0.98877q-0.14062-0.0527-0.30762-0.0967-0.16699-0.0439-0.34716-0.0747-0.17578-0.0351-0.35596-0.0527t-0.34277-0.0176q-0.28565 0-0.4834 0.0483-0.19776 0.0439-0.3252 0.12744-0.12744 0.0791-0.18457 0.19776-0.0571 0.11865-0.0571 0.26367 0 0.18017 0.11866 0.31201 0.12304 0.12744 0.3208 0.23291 0.20215 0.10107 0.45263 0.19336 0.25489 0.0879 0.51856 0.19336 0.26806 0.10107 0.51855 0.23291 0.25489 0.13183 0.45264 0.3208 0.20215 0.18896 0.3208 0.44824 0.12305 0.25488 0.12305 0.60645zm-5.9678 1.7358-0.80859-1.8457q-0.11426-0.26367-0.3208-0.3955-0.20215-0.13624-0.479-0.13624h-0.20655v2.3774h-1.081v-5.7437h1.6743q0.47461 0 0.86133 0.0835 0.38672 0.0791 0.65918 0.26807 0.27246 0.18896 0.41748 0.49218 0.14942 0.30323 0.14942 0.74268 0 0.31641-0.0923 0.5625t-0.25928 0.42627q-0.16699 0.17578-0.3999 0.28564-0.22851 0.10987-0.50098 0.15381 0.21094 0.0439 0.38672 0.2417 0.17578 0.19336 0.35157 0.5625l0.91845 1.9248zm-0.26806-4.0518q0-0.42188-0.26807-0.60645t-0.8042-0.18457h-0.47461v1.6216h0.43946q0.25048 0 0.45263-0.0527 0.20655-0.0527 0.35156-0.1582 0.14502-0.10547 0.22413-0.25928 0.0791-0.1582 0.0791-0.36035zm-23.043-11.727q0-0.70752 0.15381-1.2656 0.15381-0.55811 0.45264-0.94483 0.29443-0.38232 0.7207-0.58447 0.42627-0.20215 0.97559-0.20215 0.47461 0 0.87451 0.16699 0.3999 0.167 0.68994 0.52295 0.29004 0.36035 0.45264 0.91846 0.1626 0.55811 0.1626 1.3359 0 0.70752-0.15381 1.2656-0.1582 0.55811-0.45264 0.94043-0.29443 0.38672-0.7251 0.58887t-0.97559 0.20215q-0.47461 0-0.87451-0.16699-0.3999-0.167-0.68555-0.52295-0.29004-0.35596-0.45264-0.91407-0.1626-0.5581-0.1626-1.3403zm3.4014-0.0176q0-0.0879 0-0.16699 0-0.0747-0.0088-0.15381l-2.1533 1.5557q0.15381 0.43506 0.40869 0.6416 0.25049 0.21094 0.59326 0.21094 0.24609 0 0.45703-0.12745 0.21094-0.12304 0.36914-0.38232 0.15381-0.25928 0.24609-0.65039 0.08789-0.39111 0.08789-0.92725zm-2.3203-0.0176q0 0.0747 0.0044 0.14941 0.0044 0.0791 0.0044 0.14941l2.1401-1.5469q-0.14062-0.42627-0.39551-0.63281-0.25488-0.20655-0.59326-0.20655-0.24609 0-0.45703 0.12744-0.21533 0.12745-0.36914 0.38233-0.1582 0.25928-0.24609 0.65039-0.08789 0.39551-0.08789 0.92725zm5.0449-2.8608 1.1074 2.1138 1.0898-2.1138h1.3052l-1.6567 2.9443 1.5469 2.7993h-1.27l-1.0415-1.9995-1.0063 1.9995h-1.27l1.5381-2.7993-1.7183-2.9443zm5.0229 0 0.80859 1.8457q0.11426 0.26367 0.3208 0.39551 0.20215 0.13623 0.479 0.13623h0.20654v-2.3774h1.0811v5.7436h-1.6743q-0.47461 0-0.86133-0.0835-0.38672-0.0791-0.65918-0.26806-0.27246-0.18897-0.41748-0.49219-0.14941-0.30322-0.14941-0.74268 0-0.3164 0.09229-0.5625 0.09229-0.24609 0.25928-0.42627 0.16699-0.17578 0.3999-0.28564 0.22852-0.10987 0.50098-0.15381-0.21094-0.0439-0.38672-0.2417-0.17578-0.19336-0.35156-0.5625l-0.91846-1.9248zm0.26807 4.0518q0 0.42188 0.26807 0.60645t0.8042 0.18457h0.47461v-1.6216h-0.43945q-0.25049 0-0.45264 0.0527-0.20654 0.0527-0.35156 0.1582-0.14502 0.10547-0.22412 0.25928-0.0791 0.1582-0.0791 0.36035zm-28.486-4.0957v0.95361h-1.4634v3.6914l1.2744-0.70313 0.35156 0.87452-1.8237 0.9624h-0.90088v-4.8252h-1.2612v-0.95361zm2.0786 0 1.1074 2.1138 1.0898-2.1138h1.3052l-1.6567 2.9443 1.5469 2.7993h-1.27l-1.0415-1.9995-1.0063 1.9995h-1.27l1.5381-2.7993-1.7183-2.9443zm5.458 4.8428v-4.8428h1.1074v4.8428h1.5732v0.90088h-4.2539v-0.90088zm129.4-52.716h4.8428v1.1074h-4.8428v1.5732h-0.90088v-4.2539h0.90088zm4.8428 7.1675h-5.7436v-3.4585h0.91406v2.3599h1.4282v-2.25h0.89209v2.25h1.5952v-2.3599h0.91406zm-1.7358 1.2744q0.47022 0 0.81738 0.17578 0.34717 0.17139 0.57569 0.4834 0.22412 0.31201 0.33398 0.74268 0.10987 0.43066 0.10987 0.94043 0 0.45263-0.0527 0.87451-0.0527 0.42187-0.17578 0.83496h-1.0679q0.0703-0.20215 0.13183-0.42188 0.0615-0.21972 0.10987-0.43945 0.0439-0.22412 0.0703-0.44385 0.0264-0.21972 0.0264-0.42627 0-0.30761-0.0527-0.52294-0.0527-0.21534-0.14502-0.35157-0.0923-0.13623-0.21972-0.19775-0.12744-0.0615-0.28125-0.0615-0.21094 0-0.35157 0.12304-0.14501 0.11865-0.25488 0.31641-0.10986 0.19775-0.19775 0.45264-0.0879 0.25048-0.18897 0.51416-0.10107 0.25927-0.22851 0.51416-0.12744 0.25048-0.31641 0.44824-0.18896 0.19775-0.44824 0.3208-0.26367 0.11865-0.63281 0.11865-0.33838 0-0.64161-0.12305-0.30322-0.12304-0.52734-0.38671-0.22851-0.26368-0.36035-0.67676-0.13623-0.41309-0.13623-0.99756 0-0.17139 0.0176-0.35596 0.0132-0.18896 0.0395-0.36914 0.022-0.18457 0.0571-0.35156 0.0308-0.17139 0.0659-0.31201h0.98877q-0.0527 0.14062-0.0967 0.30762-0.0439 0.16699-0.0747 0.34717-0.0352 0.17578-0.0527 0.35596-0.0176 0.18017-0.0176 0.34277 0 0.28565 0.0483 0.4834 0.0439 0.19775 0.12744 0.3252 0.0791 0.12744 0.19775 0.18457 0.11865 0.0571 0.26367 0.0571 0.18018 0 0.31201-0.11866 0.12745-0.12304 0.23291-0.3208 0.10108-0.20215 0.19336-0.45263 0.0879-0.25489 0.19336-0.51856 0.10108-0.26807 0.23291-0.51855 0.13184-0.25488 0.3208-0.45264 0.18897-0.20215 0.44825-0.3208 0.25488-0.12305 0.60644-0.12305zm1.7358 8.6221h-5.7436v-3.4585h0.91406v2.3599h1.4282v-2.25h0.89209v2.25h1.5952v-2.3599h0.91406zm0 2.294-1.8457 0.80859q-0.26367 0.11426-0.39551 0.3208-0.13623 0.20215-0.13623 0.47901v0.20654h2.3774v1.081h-5.7436v-1.6743q0-0.47461 0.0835-0.86133 0.0791-0.38672 0.26807-0.65918t0.49219-0.41748q0.30322-0.14942 0.74267-0.14942 0.31641 0 0.5625 0.0923 0.2461 0.0923 0.42627 0.25928 0.17579 0.16699 0.28565 0.3999 0.10986 0.22852 0.15381 0.50098 0.0439-0.21094 0.2417-0.38672 0.19336-0.17578 0.5625-0.35156l1.9248-0.91846zm-4.0518 0.26806q-0.42187 0-0.60644 0.26807t-0.18457 0.8042v0.47461h1.6216v-0.43945q0-0.25049-0.0527-0.45264-0.0527-0.20654-0.15821-0.35156-0.10547-0.14502-0.25928-0.22412-0.1582-0.0791-0.36035-0.0791zm126.44-65.189h1.4326l1.7534 5.7437h-1.2261l-0.97119-3.4585-0.31202-1.1338-0.32519 1.1997-0.9624 3.3926h-1.1514zm3.3218 1.7534q0-0.42627 0.15821-0.76904 0.1582-0.33838 0.48779-0.58008 0.32519-0.2373 0.82178-0.36475 0.49658-0.12744 1.1689-0.12744 0.14942 0 0.31641 0.0088 0.1626 0.0044 0.32519 0.01758 0.1626 0.0088 0.31641 0.02637 0.15381 0.01318 0.27685 0.03516v0.93164q-0.27685-0.05273-0.61962-0.08789-0.34717-0.03076-0.72071-0.03076-0.36474 0-0.62842 0.06152-0.26367 0.06152-0.43505 0.17578-0.17139 0.11865-0.25049 0.29004-0.0835 0.17139-0.0835 0.38672 0 0.18896 0.0835 0.34277 0.0835 0.15381 0.25488 0.25928 0.17139 0.10986 0.43945 0.16699 0.26368 0.06152 0.62842 0.06152h0.63721v0.81738h-0.58447q-0.34278 0-0.5669 0.06592-0.22851 0.07031-0.36035 0.18457-0.13623 0.11426-0.19336 0.26807-0.0571 0.1582-0.0571 0.32959 0 0.35156 0.22852 0.53174 0.22851 0.18457 0.70752 0.18457 0.34277 0 0.67675-0.06592 0.33399-0.06592 0.68995-0.17578v0.90088q-0.19776 0.06592-0.37793 0.10986-0.18018 0.04395-0.36036 0.07471-0.18017 0.03076-0.36474 0.04395-0.18457 0.01318-0.38233 0.01318-0.4746 0-0.83056-0.10107-0.36035-0.10107-0.60205-0.29004-0.2461-0.18457-0.36914-0.45264-0.12305-0.26807-0.12305-0.59766 0-0.52295 0.2417-0.84814 0.2373-0.3208 0.66797-0.49219-0.27686-0.04395-0.50098-0.15381-0.22412-0.10547-0.38232-0.27686-0.1626-0.16699-0.2461-0.38672-0.0879-0.21973-0.0879-0.48779zm5.4829-0.13184q-0.18457 0-0.34277-0.07031-0.1582-0.06592-0.27246-0.18457-0.11865-0.11426-0.18457-0.27246-0.0659-0.1582-0.0659-0.33838 0-0.17578 0.0659-0.33398 0.0659-0.15381 0.18457-0.27246 0.11426-0.11426 0.27246-0.18018 0.1582-0.07031 0.34277-0.07031 0.17578 0 0.32959 0.07031 0.15381 0.06592 0.26807 0.18018 0.11426 0.11865 0.18017 0.27246 0.0659 0.1582 0.0659 0.33398 0 0.18018-0.0659 0.33838-0.0659 0.1582-0.18017 0.27246-0.11426 0.11865-0.26807 0.18457-0.15381 0.07031-0.32959 0.07031zm1.5003 0.13184q0-0.42627 0.1582-0.76904 0.1582-0.33838 0.48779-0.58008 0.3252-0.2373 0.82178-0.36475t1.169-0.12744q0.14941 0 0.3164 0.0088 0.1626 0.0044 0.3252 0.01758 0.1626 0.0088 0.3164 0.02637 0.15381 0.01318 0.27686 0.03516v0.93164q-0.27686-0.05273-0.61963-0.08789-0.34717-0.03076-0.7207-0.03076-0.36475 0-0.62842 0.06152t-0.43506 0.17578q-0.17139 0.11865-0.25049 0.29004-0.0835 0.17139-0.0835 0.38672 0 0.18896 0.0835 0.34277 0.0835 0.15381 0.25489 0.25928 0.17138 0.10986 0.43945 0.16699 0.26367 0.06152 0.62842 0.06152h0.6372v0.81738h-0.58447q-0.34277 0-0.56689 0.06592-0.22852 0.07031-0.36036 0.18457-0.13623 0.11426-0.19335 0.26807-0.0571 0.1582-0.0571 0.32959 0 0.35156 0.22851 0.53174 0.22852 0.18457 0.70752 0.18457 0.34277 0 0.67676-0.06592 0.33398-0.06592 0.68994-0.17578v0.90088q-0.19775 0.06592-0.37793 0.10986-0.18017 0.04395-0.36035 0.07471t-0.36475 0.04395q-0.18457 0.01318-0.38232 0.01318-0.47461 0-0.83057-0.10107-0.36035-0.10107-0.60205-0.29004-0.24609-0.18457-0.36914-0.45264-0.12305-0.26807-0.12305-0.59766 0-0.52295 0.2417-0.84814 0.23731-0.3208 0.66797-0.49219-0.27685-0.04395-0.50097-0.15381-0.22413-0.10547-0.38233-0.27686-0.1626-0.16699-0.24609-0.38672-0.0879-0.21973-0.0879-0.48779zm10.462 0.05442q0-0.42627 0.15821-0.76904 0.1582-0.33838 0.48779-0.58008 0.3252-0.2373 0.82178-0.36475 0.49658-0.12744 1.1689-0.12744 0.14942 0 0.31641 0.0088 0.1626 0.0044 0.3252 0.01758 0.16259 0.0088 0.3164 0.02637 0.15381 0.01318 0.27686 0.03516v0.93164q-0.27686-0.05273-0.61963-0.08789-0.34717-0.03076-0.72071-0.03076-0.36474 0-0.62841 0.06152-0.26368 0.06152-0.43506 0.17578-0.17139 0.11865-0.25049 0.29004-0.0835 0.17139-0.0835 0.38672 0 0.18896 0.0835 0.34277t0.25488 0.25928q0.17139 0.10986 0.43946 0.16699 0.26367 0.06152 0.62841 0.06152h0.63721v0.81738h-0.58447q-0.34278 0-0.5669 0.06592-0.22851 0.07031-0.36035 0.18457-0.13623 0.11426-0.19336 0.26807-0.0571 0.1582-0.0571 0.32959 0 0.35156 0.22852 0.53174 0.22852 0.18457 0.70752 0.18457 0.34277 0 0.67676-0.06592 0.33398-0.06592 0.68994-0.17578v0.90088q-0.19776 0.06592-0.37793 0.10986-0.18018 0.04395-0.36035 0.07471-0.18018 0.03076-0.36475 0.04395-0.18457 0.01318-0.38232 0.01318-0.47461 0-0.83057-0.10107-0.36035-0.10108-0.60205-0.29004-0.24609-0.18457-0.36914-0.45264-0.12305-0.26807-0.12305-0.59766 0-0.52295 0.2417-0.84814 0.23731-0.3208 0.66797-0.49219-0.27686-0.04395-0.50098-0.15381-0.22412-0.10547-0.38232-0.27686-0.1626-0.16699-0.24609-0.38672-0.0879-0.21973-0.0879-0.48779zm8.7627-1.7534v0.95361h-1.4634v3.6914l1.2744-0.70312 0.35156 0.87451-1.8237 0.9624h-0.90088v-4.8252h-1.2612v-0.95361zm0.90088 2.9443q0-0.66797 0.16699-1.2129 0.1626-0.54492 0.51416-0.93164 0.34717-0.38232 0.89209-0.59326 0.54492-0.20654 1.3052-0.20654h1.459v5.7437h-1.7007q-0.65918 0-1.1514-0.16699-0.49658-0.1626-0.82617-0.50537-0.32959-0.34277-0.49219-0.87012-0.16699-0.52734-0.16699-1.2568zm1.1602-0.07031q0 0.46582 0.0747 0.83057t0.25489 0.61523q0.17578 0.25488 0.4746 0.38672 0.29883 0.13184 0.74268 0.13184h0.54932v-3.9331h-0.47461q-0.79541 0-1.2085 0.47461-0.41308 0.47461-0.41308 1.4941zm-49.541 1.9011v-1.5908h-2.1709v-0.8877h2.1709v-2.3511h1.0986v5.7437h-3.3926v-0.91406zm6.0469-4.8296v5.7437h-3.4585v-0.91406h2.3599v-1.4282h-2.25v-0.89209h2.25v-1.5952h-2.3599v-0.91406zm2.294 0 0.80859 1.8457q0.11426 0.26367 0.3208 0.39551 0.20215 0.13623 0.47901 0.13623h0.20654v-2.3774h1.081v5.7437h-1.6743q-0.47461 0-0.86133-0.0835-0.38672-0.0791-0.65918-0.26807-0.27246-0.18896-0.41748-0.49219-0.14942-0.30322-0.14942-0.74268 0-0.31641 0.0923-0.5625 0.0923-0.24609 0.25928-0.42627 0.16699-0.17578 0.3999-0.28564 0.22852-0.10986 0.50098-0.15381-0.21094-0.04394-0.38672-0.2417-0.17578-0.19336-0.35157-0.5625l-0.91845-1.9248zm0.26806 4.0518q0 0.42188 0.26807 0.60644 0.26807 0.18457 0.8042 0.18457h0.47461v-1.6216h-0.43945q-0.25049 0-0.45264 0.05273-0.20654 0.05273-0.35156 0.1582-0.14502 0.10547-0.22412 0.25928-0.0791 0.1582-0.0791 0.36035zm-29.584-1.1558q0-0.70752 0.15381-1.2656 0.15381-0.5581 0.45264-0.94482 0.29443-0.38232 0.7207-0.58447 0.42627-0.20215 0.97559-0.20215 0.47461 0 0.87451 0.16699t0.68994 0.52295q0.29004 0.36035 0.45264 0.91846 0.1626 0.55811 0.1626 1.3359 0 0.70752-0.15381 1.2656-0.15821 0.5581-0.45264 0.94043-0.29443 0.38672-0.7251 0.58887-0.43066 0.20215-0.97558 0.20215-0.47461 0-0.87451-0.16699-0.39991-0.16699-0.68555-0.52295-0.29004-0.35596-0.45264-0.91406-0.1626-0.5581-0.1626-1.3403zm3.4014-0.01758q0-0.08789 0-0.16699 0-0.07471-9e-3 -0.15381l-2.1533 1.5557q0.15381 0.43506 0.40869 0.6416 0.25049 0.21094 0.59326 0.21094 0.2461 0 0.45704-0.12744 0.21093-0.12305 0.36914-0.38232 0.15381-0.25928 0.24609-0.65039 0.0879-0.39111 0.0879-0.92725zm-2.3203-0.01758q0 0.07471 4e-3 0.14941 4e-3 0.0791 4e-3 0.14941l2.1401-1.5469q-0.14062-0.42627-0.3955-0.63281-0.25489-0.20654-0.59327-0.20654-0.24609 0-0.45703 0.12744-0.21533 0.12744-0.36914 0.38232-0.1582 0.25928-0.24609 0.65039-0.0879 0.39551-0.0879 0.92725zm4.8472-2.8608 0.3164 1.1338h2.0039l0.32519-1.1338h1.0723l-1.7007 5.7437h-1.5117l-1.7007-5.7437zm1.3052 4.689 0.75586-2.6719h-1.5029zm-23.921-4.689v0.95361h-1.4634v3.6914l1.2744-0.70312 0.35156 0.87451-1.8237 0.9624h-0.90087v-4.8252h-1.2612v-0.95361zm1.8809 0 0.3164 1.1338h2.0039l0.32519-1.1338h1.0723l-1.7007 5.7437h-1.5117l-1.7007-5.7437zm1.3052 4.689 0.75586-2.6719h-1.5029zm-23.721-4.689v0.79102l-1.3579 1.3579q-0.38233 0.38232-0.61084 0.65918-0.23291 0.27686-0.35596 0.49219-0.12744 0.21973-0.16699 0.4043-0.0396 0.18457-0.0396 0.38232 0 0.1626 0.0527 0.30762 0.0527 0.14941 0.15381 0.25488 0.10107 0.10986 0.25488 0.17139 0.15381 0.06592 0.35157 0.06592 0.33837 0 0.62841-0.14941 0.29004-0.14502 0.54932-0.39111l0.56689 0.72949q-0.37353 0.34717-0.83935 0.55371-0.47022 0.21094-1.0151 0.21094-0.42187 0-0.76465-0.10986-0.34277-0.10547-0.58447-0.31641-0.24609-0.21094-0.37793-0.52734-0.13623-0.31641-0.13623-0.72949 0-0.34277 0.0923-0.6416 0.0923-0.29443 0.26806-0.57568 0.17578-0.28125 0.43506-0.5625 0.25488-0.28125 0.58447-0.59326l0.83496-0.79541h-2.4214v-0.98877zm1.7798 0 0.31641 1.1338h2.0039l0.3252-1.1338h1.0723l-1.7007 5.7437h-1.5117l-1.7007-5.7437zm1.3052 4.689 0.75586-2.6719h-1.5029zm-27.615-2.9355q0-0.42627 0.1582-0.76904 0.1582-0.33838 0.48779-0.58008 0.3252-0.2373 0.82178-0.36475t1.169-0.12744q0.14941 0 0.3164 0.0088 0.1626 0.0044 0.3252 0.01758 0.1626 0.0088 0.31641 0.02637 0.1538 0.01318 0.27685 0.03516v0.93164q-0.27685-0.05273-0.61963-0.08789-0.34717-0.03076-0.7207-0.03076-0.36475 0-0.62842 0.06152t-0.43506 0.17578q-0.17138 0.11865-0.25049 0.29004-0.0835 0.17139-0.0835 0.38672 0 0.18896 0.0835 0.34277 0.0835 0.15381 0.25489 0.25928 0.17138 0.10986 0.43945 0.16699 0.26367 0.06152 0.62842 0.06152h0.6372v0.81738h-0.58447q-0.34277 0-0.56689 0.06592-0.22852 0.07031-0.36035 0.18457-0.13623 0.11426-0.19336 0.26807-0.0571 0.1582-0.0571 0.32959 0 0.35156 0.22851 0.53174 0.22852 0.18457 0.70752 0.18457 0.34278 0 0.67676-0.06592 0.33399-0.06592 0.68994-0.17578v0.90088q-0.19775 0.06592-0.37793 0.10986-0.18017 0.04395-0.36035 0.07471-0.18017 0.03076-0.36475 0.04395-0.18457 0.01318-0.38232 0.01318-0.47461 0-0.83057-0.10107-0.36035-0.10107-0.60205-0.29004-0.24609-0.18457-0.36914-0.45264-0.12304-0.26807-0.12304-0.59766 0-0.52295 0.2417-0.84814 0.2373-0.3208 0.66796-0.49219-0.27685-0.04395-0.50097-0.15381-0.22412-0.10547-0.38233-0.27686-0.16259-0.16699-0.24609-0.38672-0.0879-0.21973-0.0879-0.48779zm5.6953-1.7534 0.31641 1.1338h2.0039l0.3252-1.1338h1.0723l-1.7007 5.7437h-1.5117l-1.7007-5.7437zm1.3052 4.689 0.75586-2.6719h-1.5029zm-26.892-3.52v-1.1689h1.0459v1.1689h2.6719v0.91846l-2.2412 3.6562h-1.4766v-3.6299h-0.87011v-0.94482zm1.0327 3.5376 1.6348-2.5928h-1.6348zm4.0693-4.7065 0.31641 1.1338h2.0039l0.32519-1.1338h1.0723l-1.7007 5.7437h-1.5117l-1.7007-5.7437zm1.3052 4.689 0.75586-2.6719h-1.5029zm-27.731-2.8521q0-0.46143 0.19336-0.82178 0.19336-0.35596 0.53614-0.60205 0.34277-0.24609 0.80859-0.37354t1.0107-0.12744q0.13623 0 0.29004 0.0088t0.31201 0.02197q0.15821 0.01318 0.30762 0.03516 0.14941 0.01758 0.27686 0.03955v0.93604q-0.25049-0.06152-0.57569-0.10107-0.32519-0.03516-0.66357-0.03516-0.65918 0-1.002 0.25049-0.34717 0.25488-0.34717 0.70312 0 0.46582 0.3208 0.68994 0.3208 0.22852 1.0371 0.22852h1.125v3.0542h-3.3135v-1.0107h2.3115v-1.1689h-0.41308q-0.43945 0-0.83936-0.0791-0.3999-0.0791-0.70312-0.27686-0.30762-0.19336-0.4878-0.52734-0.18457-0.33398-0.18457-0.84375zm5.6338-1.8369 0.31641 1.1338h2.0039l0.32519-1.1338h1.0723l-1.7007 5.7437h-1.5117l-1.7007-5.7437zm1.3052 4.689 0.75586-2.6719h-1.5029zm-27.657-2.8696q0-0.43506 0.1582-0.79102 0.1582-0.35156 0.43945-0.60644 0.27686-0.25049 0.66358-0.38672 0.38672-0.13623 0.84814-0.13623 1.0064 0 1.5381 0.63281 0.53174 0.63281 0.53174 1.9336 0 0.47461-0.0571 0.90088-0.0571 0.43066-0.18897 0.79102-0.13623 0.36475-0.36035 0.65918-0.22851 0.29443-0.56689 0.49658-0.33838 0.20654-0.79981 0.31641-0.46142 0.11426-1.0723 0.11426h-0.65479v-0.90967h0.76465q0.47461 0 0.79541-0.09668t0.52295-0.27686q0.20215-0.18018 0.30322-0.43945 0.10108-0.25928 0.13184-0.58447l9e-3 -0.10547q-0.22852 0.10986-0.51856 0.18018-0.29443 0.07031-0.61523 0.07031-0.46582 0-0.81739-0.12305-0.35156-0.11865-0.58447-0.34717-0.2373-0.22852-0.35156-0.55371-0.11865-0.3252-0.11865-0.73828zm1.1162-0.04834q0 0.20215 0.0527 0.36914 0.0527 0.17139 0.16699 0.29004 0.10987 0.12305 0.28565 0.18896 0.17139 0.07031 0.41308 0.07031 0.14063 0 0.28125-0.02637 0.13624-0.02197 0.26807-0.06152 0.12744-0.03955 0.2461-0.08789 0.11425-0.04834 0.20654-0.10107 0-0.44385-0.0615-0.75146-0.0615-0.30322-0.18457-0.49658-0.12744-0.19336-0.31201-0.28125-0.18896-0.0835-0.43506-0.0835-0.21093 0-0.38232 0.07031t-0.29004 0.19775q-0.12305 0.13184-0.18896 0.30762-0.0659 0.18018-0.0659 0.39551zm4.7065-1.771 0.31641 1.1338h2.0039l0.3252-1.1338h1.0723l-1.7007 5.7437h-1.5117l-1.7007-5.7437zm1.3052 4.689 0.75586-2.6719h-1.5029zm-25.367-4.689h1.2129l-2.2852 4.7065h2.7554v1.0371h-3.9902v-0.93604zm3.3618 0 0.31641 1.1338h2.0039l0.3252-1.1338h1.0723l-1.7007 5.7437h-1.5117l-1.7007-5.7437zm1.3052 4.689 0.75586-2.6719h-1.5029zm-25.747-4.689h1.4326l1.7534 5.7437h-1.2261l-0.97119-3.4585-0.31201-1.1338-0.3252 1.1997-0.9624 3.3926h-1.1514zm3.7134 1.8369q0-0.46143 0.19336-0.82178 0.19336-0.35596 0.53613-0.60205t0.80859-0.37354 1.0108-0.12744q0.13623 0 0.29003 0.0088 0.15381 0.0088 0.31202 0.02197 0.1582 0.01318 0.30761 0.03516 0.14942 0.01758 0.27686 0.03955v0.93604q-0.25049-0.06152-0.57568-0.10107-0.3252-0.03516-0.66358-0.03516-0.65918 0-1.002 0.25049-0.34717 0.25488-0.34717 0.70312 0 0.46582 0.3208 0.68994 0.3208 0.22852 1.0371 0.22852h1.125v3.0542h-3.3135v-1.0107h2.3115v-1.1689h-0.41309q-0.43945 0-0.83935-0.0791-0.39991-0.0791-0.70313-0.27686-0.30762-0.19336-0.48779-0.52734-0.18457-0.33398-0.18457-0.84375zm-26.885 3.0059v-4.8428h1.1074v4.8428h1.5732v0.90088h-4.2539v-0.90088zm3.4936-3.1069q0-0.47022 0.17578-0.81738 0.17139-0.34717 0.4834-0.57568 0.31201-0.22412 0.74268-0.33398 0.43066-0.10986 0.94043-0.10986 0.45263 0 0.87451 0.05273 0.42187 0.05274 0.83496 0.17578v1.0679q-0.20215-0.07031-0.42188-0.13184-0.21972-0.06152-0.43945-0.10986-0.22412-0.04395-0.44385-0.07031-0.21972-0.02637-0.42627-0.02637-0.30761 0-0.52294 0.05273-0.21534 0.05273-0.35157 0.14502t-0.19775 0.21973q-0.0615 0.12744-0.0615 0.28125 0 0.21094 0.12304 0.35156 0.11865 0.14502 0.31641 0.25488 0.19775 0.10986 0.45264 0.19775 0.25048 0.08789 0.51416 0.18896 0.25927 0.10107 0.51416 0.22852 0.25048 0.12744 0.44824 0.31641 0.19775 0.18896 0.3208 0.44824 0.11865 0.26367 0.11865 0.63281 0 0.33838-0.12305 0.6416-0.12304 0.30322-0.38671 0.52734-0.26368 0.22852-0.67676 0.36035-0.41309 0.13623-0.99756 0.13623-0.17139 0-0.35596-0.01758-0.18896-0.01318-0.36914-0.03955-0.18457-0.02197-0.35156-0.05713-0.17139-0.03076-0.31201-0.06592v-0.98877q0.14062 0.05273 0.30761 0.09668 0.167 0.04395 0.34717 0.07471 0.17578 0.03516 0.35596 0.05273 0.18018 0.01758 0.34277 0.01758 0.28565 0 0.4834-0.04834 0.19776-0.04394 0.3252-0.12744 0.12744-0.0791 0.18457-0.19775 0.0571-0.11865 0.0571-0.26367 0-0.18018-0.11866-0.31201-0.12304-0.12744-0.3208-0.23291-0.20215-0.10107-0.45263-0.19336-0.25489-0.08789-0.51856-0.19336-0.26807-0.10107-0.51855-0.23291-0.25489-0.13184-0.45264-0.3208-0.20215-0.18896-0.3208-0.44824-0.12305-0.25488-0.12305-0.60644zm5.9678-1.7358 0.80859 1.8457q0.11426 0.26367 0.3208 0.39551 0.20215 0.13623 0.479 0.13623h0.20655v-2.3774h1.081v5.7437h-1.6743q-0.47461 0-0.86133-0.0835-0.38672-0.0791-0.65918-0.26807-0.27246-0.18896-0.41748-0.49219-0.14942-0.30322-0.14942-0.74268 0-0.31641 0.0923-0.5625 0.0923-0.24609 0.25928-0.42627 0.16699-0.17578 0.3999-0.28564 0.22851-0.10986 0.50097-0.15381-0.21093-0.04394-0.38671-0.2417-0.17579-0.19336-0.35157-0.5625l-0.91845-1.9248zm0.26806 4.0518q0 0.42188 0.26807 0.60644 0.26806 0.18457 0.8042 0.18457h0.47461v-1.6216h-0.43946q-0.25048 0-0.45263 0.05273-0.20655 0.05273-0.35157 0.1582-0.14501 0.10547-0.22412 0.25928-0.0791 0.1582-0.0791 0.36035zm-51.499-4.054 1.5381 3.4277 0.31641 0.73828v-4.166h0.98438v5.7437h-1.3271l-1.5688-3.4497-0.27686-0.67236v4.1221h-0.98438v-5.7437zm7.541 4.8604v0.8833h-3.6299v-0.8833h1.2656v-3.9683h-1.2656v-0.89209h3.6299v0.89209h-1.2656v3.9683zm2.4214-4.8604h1.4326l1.7534 5.7437h-1.2261l-0.97119-3.4585-0.31201-1.1338-0.3252 1.1997-0.9624 3.3926h-1.1514z" style="fill:#f5f9fc;font-family:Consolas;font-size:9px;font-weight:bold;line-height:1;text-align:center;text-anchor:middle;text-orientation:sideways"/>
  <path d="m132.15 141.2h7.1582l-2.8926 2.7445-7e-3 2.4866 6.5392-6.1834-6.5392-6.1821 7e-3 2.4853 2.894 2.7458h-7.1595zm10.798-28.014h-7.1582l2.8926-2.7445 7e-3 -2.4866-6.5392 6.1834 6.5392 6.1821-7e-3 -2.4853-2.894-2.7458h7.1595zm-48.809 43.464v-7.1582l2.7445 2.8926 2.4866 7e-3 -6.1834-6.5392-6.1821 6.5392 2.4853-7e-3 2.7458-2.894v7.1595zm-22.527-10.798v7.1582l-2.7445-2.8926-2.4866-7e-3 6.1834 6.5392 6.1821-6.5392-2.4853 7e-3 -2.7458 2.894v-7.1595z" style="fill:#f5f9fc;stroke-width:3"/>
  <path d="m382.62 45.964a7 7 0 0 1-7-7 7 7 0 0 1 7-7 7 7 0 0 1 7 7 7 7 0 0 1-7 7zm-7.7e-4 123.89a7 7 0 0 1-7-7 7 7 0 0 1 7-7 7 7 0 0 1 7 7 7 7 0 0 1-7 7zm-327.39 8e-4a7 7 0 0 1-7-7 7 7 0 0 1 7-7 7 7 0 0 1 7 7 7 7 0 0 1-7 7zm-0.075149-124.17a7 7 0 0 1-7-7 7 7 0 0 1 7-7 7 7 0 0 1 7 7 7 7 0 0 1-7 7z" style="fill:none;stroke-linecap:round;stroke:#9a7c54"/>
</svg>
